<svg width="428" height="213" viewBox="0 0 428 213" fill="none" xmlns="http://www.w3.org/2000/svg">
<mask id="mask0_371_14165" style="mask-type:luminance" maskUnits="userSpaceOnUse" x="84" y="118" width="28" height="56">
<path d="M84.9258 118.693H111.661V173.025H84.9258V118.693Z" fill="white"/>
</mask>
<g mask="url(#mask0_371_14165)">
<mask id="mask1_371_14165" style="mask-type:luminance" maskUnits="userSpaceOnUse" x="-180" y="-16" width="358" height="318">
<path d="M-88.4209 -15.4834L177.997 172.32L86.8464 301.756L-179.574 113.956L-88.4209 -15.4834Z" fill="white"/>
</mask>
<g mask="url(#mask1_371_14165)">
<mask id="mask2_371_14165" style="mask-type:luminance" maskUnits="userSpaceOnUse" x="-180" y="-16" width="358" height="318">
<path d="M-88.4209 -15.4834L177.997 172.32L86.8464 301.756L-179.574 113.956L-88.4209 -15.4834Z" fill="white"/>
</mask>
<g mask="url(#mask2_371_14165)">
<mask id="mask3_371_14165" style="mask-type:luminance" maskUnits="userSpaceOnUse" x="-180" y="-16" width="358" height="318">
<path d="M-88.4209 -15.4834L177.997 172.32L86.8464 301.756L-179.574 113.956L-88.4209 -15.4834Z" fill="white"/>
</mask>
<g mask="url(#mask3_371_14165)">
<path d="M91.6852 119.004C87.3806 119.748 84.4859 123.934 85.1973 128.221C85.9349 132.678 86.6463 137.122 87.5927 141.543C88.549 146.019 89.5802 150.46 90.8432 154.864C91.3686 156.696 91.8712 158.534 92.3346 160.383C92.5663 161.303 92.7948 162.227 93.0167 163.151C93.1179 163.576 93.2191 164.004 93.317 164.428C93.3594 164.611 93.3985 164.794 93.4344 164.973C93.6237 165.819 93.9338 166.632 94.2014 167.452C94.6942 168.999 96.1138 170.1 97.2528 171.102C98.5549 172.016 100.004 172.545 101.587 172.686C103.121 172.81 104.589 172.555 105.996 171.925C108.842 170.629 110.894 167.785 111.119 164.65C111.227 163.135 111.358 161.63 111.459 160.118C111.664 157.036 110.245 154.091 107.761 152.399C107.089 150.391 106.378 148.4 105.718 146.385C103.692 139.518 102.083 132.57 100.914 125.508C100.559 123.372 99.3218 121.567 97.6444 120.385C95.9571 119.193 93.8228 118.635 91.6852 119.004Z" fill="#FFE36A"/>
</g>
</g>
</g>
</g>
<mask id="mask4_371_14165" style="mask-type:luminance" maskUnits="userSpaceOnUse" x="-40" y="193" width="54" height="21">
<path d="M-39.5586 193.922H13.9109V213.147H-39.5586V193.922Z" fill="white"/>
</mask>
<g mask="url(#mask4_371_14165)">
<mask id="mask5_371_14165" style="mask-type:luminance" maskUnits="userSpaceOnUse" x="-180" y="-16" width="358" height="318">
<path d="M-88.4209 -15.4834L177.997 172.32L86.8464 301.756L-179.574 113.956L-88.4209 -15.4834Z" fill="white"/>
</mask>
<g mask="url(#mask5_371_14165)">
<mask id="mask6_371_14165" style="mask-type:luminance" maskUnits="userSpaceOnUse" x="-180" y="-16" width="358" height="318">
<path d="M-88.4209 -15.4834L177.997 172.32L86.8464 301.756L-179.574 113.956L-88.4209 -15.4834Z" fill="white"/>
</mask>
<g mask="url(#mask6_371_14165)">
<mask id="mask7_371_14165" style="mask-type:luminance" maskUnits="userSpaceOnUse" x="-180" y="-16" width="358" height="318">
<path d="M-88.4209 -15.4834L177.997 172.32L86.8464 301.756L-179.574 113.956L-88.4209 -15.4834Z" fill="white"/>
</mask>
<g mask="url(#mask7_371_14165)">
<path d="M4.34985 194.947C-0.160332 195.721 -4.6542 196.544 -9.15133 197.38C-13.6354 198.216 -18.1358 198.967 -22.6264 199.77C-24.5845 200.123 -26.5491 200.462 -28.5073 200.821C-29.4406 200.991 -30.3707 201.181 -31.2976 201.38C-31.7904 201.488 -32.2766 201.599 -32.7694 201.71C-33.0305 201.765 -33.2655 201.837 -33.5135 201.932C-34.1009 202.167 -34.6818 202.402 -35.2627 202.637C-36.3658 203.267 -37.2502 204.129 -37.916 205.21C-37.9552 205.269 -37.9943 205.327 -38.0367 205.386C-39.1039 206.865 -39.2736 209.108 -38.8298 210.819C-38.3664 212.599 -37.2078 214.137 -35.6381 215.09C-34.4599 215.812 -33.0892 216.311 -31.6827 216.262C-30.8015 216.23 -29.9302 216.092 -29.0555 215.955C-28.5366 215.87 -28.021 215.792 -27.4988 215.71C-26.4088 215.534 -25.3155 215.361 -24.219 215.175C-22.0944 214.812 -19.9797 214.355 -17.8682 213.918C-13.4396 213 -9.02079 212.024 -4.5824 211.152C-0.405094 210.329 3.79506 209.65 7.99194 208.932C9.76403 208.622 11.4545 207.166 12.352 205.677C13.3539 204.021 13.6509 201.997 13.1614 200.123C12.6881 198.311 11.5035 196.727 9.90437 195.757C9.32998 195.509 8.76213 195.254 8.19102 195.003C7.5481 194.823 6.91172 194.725 6.2688 194.716C5.63242 194.706 4.9895 194.784 4.34985 194.947Z" fill="#FFE36A"/>
</g>
</g>
</g>
</g>
<mask id="mask8_371_14165" style="mask-type:luminance" maskUnits="userSpaceOnUse" x="-19" y="126" width="33" height="34">
<path d="M-18.6719 126.216H13.0756V159.651H-18.6719V126.216Z" fill="white"/>
</mask>
<g mask="url(#mask8_371_14165)">
<mask id="mask9_371_14165" style="mask-type:luminance" maskUnits="userSpaceOnUse" x="-180" y="-16" width="358" height="318">
<path d="M-88.4209 -15.4834L177.997 172.32L86.8464 301.756L-179.574 113.956L-88.4209 -15.4834Z" fill="white"/>
</mask>
<g mask="url(#mask9_371_14165)">
<mask id="mask10_371_14165" style="mask-type:luminance" maskUnits="userSpaceOnUse" x="-180" y="-16" width="358" height="318">
<path d="M-88.4209 -15.4834L177.997 172.32L86.8464 301.756L-179.574 113.956L-88.4209 -15.4834Z" fill="white"/>
</mask>
<g mask="url(#mask10_371_14165)">
<mask id="mask11_371_14165" style="mask-type:luminance" maskUnits="userSpaceOnUse" x="-180" y="-16" width="358" height="318">
<path d="M-88.4209 -15.4834L177.997 172.32L86.8464 301.756L-179.574 113.956L-88.4209 -15.4834Z" fill="white"/>
</mask>
<g mask="url(#mask11_371_14165)">
<path d="M4.99872 126.501C3.00798 126.331 0.524439 126.919 -0.957199 128.349C-4.66129 131.94 -7.85302 135.999 -11.283 139.835C-11.8051 140.381 -12.3338 140.919 -12.869 141.448C-13.7437 142.32 -14.6803 143.127 -15.5582 143.992C-16.0673 144.544 -16.5764 145.092 -17.0823 145.641C-17.9503 146.878 -18.4497 148.25 -18.5802 149.755C-18.763 151.916 -18.0809 154.107 -16.7037 155.785C-15.2775 157.516 -13.1758 158.623 -10.9403 158.816C-8.88429 158.992 -6.46276 158.375 -4.91585 156.945C-3.32652 155.475 -1.96236 153.719 -0.523151 152.093C1.20978 150.251 2.96229 148.426 4.65932 146.545C5.92883 145.141 7.15591 143.695 8.41563 142.281C8.7942 141.896 9.17276 141.52 9.56112 141.145C10.0637 140.603 10.5663 140.061 11.0689 139.515C11.9239 138.294 12.42 136.939 12.5505 135.454C12.73 133.318 12.0545 131.153 10.6936 129.495C10.2236 128.923 9.67535 128.417 9.07486 127.993C7.88041 127.15 6.46731 126.625 4.99872 126.501Z" fill="#FFE36A"/>
</g>
</g>
</g>
</g>
<mask id="mask12_371_14165" style="mask-type:luminance" maskUnits="userSpaceOnUse" x="28" y="130" width="28" height="54">
<path d="M28.9492 130.396H55.684V183.892H28.9492V130.396Z" fill="white"/>
</mask>
<g mask="url(#mask12_371_14165)">
<mask id="mask13_371_14165" style="mask-type:luminance" maskUnits="userSpaceOnUse" x="-180" y="-16" width="358" height="318">
<path d="M-88.4209 -15.4834L177.997 172.32L86.8464 301.756L-179.574 113.956L-88.4209 -15.4834Z" fill="white"/>
</mask>
<g mask="url(#mask13_371_14165)">
<mask id="mask14_371_14165" style="mask-type:luminance" maskUnits="userSpaceOnUse" x="-180" y="-16" width="358" height="318">
<path d="M-88.4209 -15.4834L177.997 172.32L86.8464 301.756L-179.574 113.956L-88.4209 -15.4834Z" fill="white"/>
</mask>
<g mask="url(#mask14_371_14165)">
<mask id="mask15_371_14165" style="mask-type:luminance" maskUnits="userSpaceOnUse" x="-180" y="-16" width="358" height="318">
<path d="M-88.4209 -15.4834L177.997 172.32L86.8464 301.756L-179.574 113.956L-88.4209 -15.4834Z" fill="white"/>
</mask>
<g mask="url(#mask15_371_14165)">
<path d="M47.8786 130.481C45.8813 130.308 43.8547 130.938 42.3045 132.208C41.8345 132.717 41.3646 133.227 40.8947 133.733C40.0918 134.879 39.6317 136.146 39.5109 137.537C39.2727 139.107 38.9888 140.668 38.6755 142.222C37.6246 146.529 36.4041 150.78 35.0921 155.015C33.7704 159.282 32.2953 163.498 31.0519 167.795C30.4775 169.773 29.7334 171.866 29.5474 173.913C29.2113 177.691 31.574 181.329 35.1345 182.612C39.4816 184.176 44.4062 181.848 45.9727 177.505C46.4426 176.196 46.5993 174.818 46.8604 173.456C46.9093 173.189 46.9648 172.921 47.017 172.653C47.9569 168.559 49.0437 164.503 50.1239 160.445C51.3183 155.962 52.4214 151.456 53.4298 146.927C54.0271 144.253 54.5427 141.569 54.9474 138.859C55.2313 136.933 54.4154 134.752 53.2112 133.282C52.7706 132.747 52.2582 132.273 51.6936 131.878C50.5743 131.091 49.2558 130.598 47.8786 130.481Z" fill="#FFBEE8"/>
</g>
</g>
</g>
</g>
<mask id="mask16_371_14165" style="mask-type:luminance" maskUnits="userSpaceOnUse" x="119" y="190" width="39" height="24">
<path d="M119.18 190.579H157.611V213.147H119.18V190.579Z" fill="white"/>
</mask>
<g mask="url(#mask16_371_14165)">
<mask id="mask17_371_14165" style="mask-type:luminance" maskUnits="userSpaceOnUse" x="-180" y="-16" width="358" height="318">
<path d="M-88.4209 -15.4834L177.997 172.32L86.8464 301.756L-179.574 113.956L-88.4209 -15.4834Z" fill="white"/>
</mask>
<g mask="url(#mask17_371_14165)">
<mask id="mask18_371_14165" style="mask-type:luminance" maskUnits="userSpaceOnUse" x="-180" y="-16" width="358" height="318">
<path d="M-88.4209 -15.4834L177.997 172.32L86.8464 301.756L-179.574 113.956L-88.4209 -15.4834Z" fill="white"/>
</mask>
<g mask="url(#mask18_371_14165)">
<mask id="mask19_371_14165" style="mask-type:luminance" maskUnits="userSpaceOnUse" x="-180" y="-16" width="358" height="318">
<path d="M-88.4209 -15.4834L177.997 172.32L86.8464 301.756L-179.574 113.956L-88.4209 -15.4834Z" fill="white"/>
</mask>
<g mask="url(#mask19_371_14165)">
<path d="M150.079 191.378C148.176 191.215 145.791 191.77 144.384 193.145C141.003 196.446 137.449 199.551 133.833 202.587C132.1 204.047 130.354 205.497 128.621 206.953C126.977 208.337 125.351 209.741 123.654 211.06C123.38 211.273 123.103 211.478 122.835 211.691C122.679 211.815 122.532 211.942 122.385 212.076C121.334 213.039 120.081 214.459 119.741 215.903C119.604 216.536 119.467 217.169 119.33 217.803C119.226 219.109 119.441 220.356 119.98 221.551C120.838 223.435 122.375 224.731 124.271 225.499C125.515 226.002 126.98 226.119 128.302 225.891C130.015 225.593 130.743 225.061 132.189 224.154C132.414 224.013 132.636 223.863 132.851 223.703C133.256 223.412 133.664 223.119 134.052 222.812C134.878 222.155 135.664 221.447 136.457 220.755C138.167 219.259 139.946 217.858 141.721 216.454C145.344 213.588 148.894 210.629 152.266 207.469C153 206.783 153.718 206.078 154.439 205.376C154.919 204.857 155.399 204.341 155.878 203.822C156.698 202.653 157.171 201.356 157.295 199.936C157.464 197.892 156.825 195.825 155.523 194.242C155.069 193.693 154.55 193.213 153.973 192.808C152.83 191.999 151.482 191.496 150.079 191.378Z" fill="#FF7389"/>
</g>
</g>
</g>
</g>
<mask id="mask20_371_14165" style="mask-type:luminance" maskUnits="userSpaceOnUse" x="-1" y="85" width="60" height="22">
<path d="M-0.292969 85.2588H58.1893V106.991H-0.292969V85.2588Z" fill="white"/>
</mask>
<g mask="url(#mask20_371_14165)">
<mask id="mask21_371_14165" style="mask-type:luminance" maskUnits="userSpaceOnUse" x="-180" y="-16" width="358" height="318">
<path d="M-88.4209 -15.4834L177.997 172.32L86.8464 301.756L-179.574 113.956L-88.4209 -15.4834Z" fill="white"/>
</mask>
<g mask="url(#mask21_371_14165)">
<mask id="mask22_371_14165" style="mask-type:luminance" maskUnits="userSpaceOnUse" x="-180" y="-16" width="358" height="318">
<path d="M-88.4209 -15.4834L177.997 172.32L86.8464 301.756L-179.574 113.956L-88.4209 -15.4834Z" fill="white"/>
</mask>
<g mask="url(#mask22_371_14165)">
<mask id="mask23_371_14165" style="mask-type:luminance" maskUnits="userSpaceOnUse" x="-180" y="-16" width="358" height="318">
<path d="M-88.4209 -15.4834L177.997 172.32L86.8464 301.756L-179.574 113.956L-88.4209 -15.4834Z" fill="white"/>
</mask>
<g mask="url(#mask23_371_14165)">
<path d="M51.7951 88.2757C50.2515 87.7239 48.6752 87.5867 47.0565 87.861C46.6584 87.8969 46.2602 87.9296 45.8588 87.959C41.4889 87.9524 37.1354 87.5182 32.7819 87.1459C28.2227 86.7541 23.6636 86.4635 19.0979 86.2382C17.5804 86.1631 16.0661 86.1044 14.5486 86.0619C13.7686 86.0391 12.9919 86.0195 12.2119 86.0195C10.0384 86.0162 7.81269 85.9052 5.81868 86.9566C4.32072 87.6488 3.09037 88.6675 2.13416 90.0193C1.18448 91.3743 0.636207 92.8762 0.492612 94.5219C0.221741 97.7282 1.70338 100.957 4.35336 102.802C5.11049 103.325 5.70772 103.703 6.74552 104.076C7.32316 104.288 8.47518 104.458 9.31064 104.637C9.53909 104.683 9.7708 104.712 9.99925 104.748C10.5214 104.83 11.0403 104.895 11.5592 104.957C12.6427 105.094 13.7294 105.179 14.8195 105.264C17.0387 105.434 19.2676 105.447 21.4901 105.496C26.2287 105.597 30.9478 105.871 35.6766 106.191C37.6902 106.325 39.7103 106.433 41.7337 106.511C44.573 106.626 47.422 106.466 50.2515 106.208C51.0086 105.973 51.7658 105.741 52.5262 105.506C54.047 104.807 55.2969 103.769 56.2662 102.401C57.6825 100.389 58.2471 97.8719 57.8261 95.4524C57.4019 93.0297 56.0214 90.8453 54.0111 89.4283C53.2702 89.043 52.5327 88.6577 51.7951 88.2757Z" fill="#E67CCC"/>
</g>
</g>
</g>
</g>
<mask id="mask24_371_14165" style="mask-type:luminance" maskUnits="userSpaceOnUse" x="67" y="160" width="18" height="44">
<path d="M67.3789 160.487H84.9236V203.117H67.3789V160.487Z" fill="white"/>
</mask>
<g mask="url(#mask24_371_14165)">
<mask id="mask25_371_14165" style="mask-type:luminance" maskUnits="userSpaceOnUse" x="-180" y="-16" width="358" height="318">
<path d="M-88.4209 -15.4834L177.997 172.32L86.8464 301.756L-179.574 113.956L-88.4209 -15.4834Z" fill="white"/>
</mask>
<g mask="url(#mask25_371_14165)">
<mask id="mask26_371_14165" style="mask-type:luminance" maskUnits="userSpaceOnUse" x="-180" y="-16" width="358" height="318">
<path d="M-88.4209 -15.4834L177.997 172.32L86.8464 301.756L-179.574 113.956L-88.4209 -15.4834Z" fill="white"/>
</mask>
<g mask="url(#mask26_371_14165)">
<mask id="mask27_371_14165" style="mask-type:luminance" maskUnits="userSpaceOnUse" x="-180" y="-16" width="358" height="318">
<path d="M-88.4209 -15.4834L177.997 172.32L86.8464 301.756L-179.574 113.956L-88.4209 -15.4834Z" fill="white"/>
</mask>
<g mask="url(#mask27_371_14165)">
<path d="M73.5353 160.53C71.7502 160.706 70.0923 161.597 68.9598 162.982C67.9155 164.262 67.1355 166.273 67.4684 167.955C68.3267 172.372 68.6824 176.872 69.185 181.342C69.4396 183.591 69.6843 185.841 69.8736 188.094C70.0499 190.216 70.1771 192.345 70.3664 194.467C70.3925 194.774 70.4154 195.085 70.4284 195.392C70.4056 196.319 70.4709 197.145 70.8918 198.173C72.1189 201.184 75.0789 203.156 78.3653 202.826C79.625 202.699 80.7738 202.268 81.8083 201.54C82.2783 201.099 82.7515 200.661 83.2182 200.224C84.0373 199.215 84.5497 198.066 84.7553 196.786C84.7944 195.44 84.9837 194.223 84.3539 192.949C84.2821 192.809 84.2168 192.672 84.1548 192.528C84.1319 192.472 84.1124 192.417 84.0928 192.361C83.7958 190.543 83.7077 188.691 83.5902 186.86C83.4499 184.617 83.2769 182.383 83.006 180.153C82.4643 175.703 81.8671 171.233 81.012 166.831C80.9957 166.756 80.9827 166.681 80.9663 166.606C80.8358 166.038 80.7053 165.476 80.5747 164.915C80.1407 163.769 79.4521 162.806 78.5056 162.028C78.3849 161.927 78.2576 161.829 78.1303 161.741C76.7988 160.801 75.1573 160.367 73.5353 160.53Z" fill="#7AE3D4"/>
</g>
</g>
</g>
</g>
<mask id="mask28_371_14165" style="mask-type:luminance" maskUnits="userSpaceOnUse" x="369" y="153" width="51" height="41">
<path d="M369.816 153.8H419.109V193.086H369.816V153.8Z" fill="white"/>
</mask>
<g mask="url(#mask28_371_14165)">
<mask id="mask29_371_14165" style="mask-type:luminance" maskUnits="userSpaceOnUse" x="282" y="-23" width="323" height="333">
<path d="M282.793 206.692L492.862 -22.6045L604.459 79.7342L394.389 309.027L282.793 206.692Z" fill="white"/>
</mask>
<g mask="url(#mask29_371_14165)">
<mask id="mask30_371_14165" style="mask-type:luminance" maskUnits="userSpaceOnUse" x="282" y="-23" width="323" height="333">
<path d="M282.793 206.692L492.862 -22.6045L604.459 79.7342L394.389 309.027L282.793 206.692Z" fill="white"/>
</mask>
<g mask="url(#mask30_371_14165)">
<mask id="mask31_371_14165" style="mask-type:luminance" maskUnits="userSpaceOnUse" x="282" y="-23" width="323" height="333">
<path d="M282.793 206.692L492.862 -22.6045L604.459 79.7342L394.389 309.027L282.793 206.692Z" fill="white"/>
</mask>
<g mask="url(#mask31_371_14165)">
<path d="M370.85 157.862C370.096 159.338 369.946 161.085 370.435 162.669C370.664 163.171 370.896 163.678 371.127 164.18C371.757 165.17 372.596 165.937 373.637 166.482C375.615 167.762 377.573 169.071 379.518 170.407C382.729 172.666 385.901 174.978 389.07 177.296C392.637 179.908 396.26 182.439 399.872 184.986C402.127 186.579 404.399 188.153 406.67 189.727C406.82 189.831 406.97 189.936 407.117 190.04C407.75 190.481 408.41 190.977 409.085 191.385C409.226 191.47 409.35 191.532 409.503 191.594C410.019 191.82 410.547 192.009 411.086 192.169C411.67 192.228 412.254 192.277 412.842 192.313C413.899 192.264 414.875 191.96 415.775 191.402C416.709 190.811 417.427 190.024 417.939 189.044C418.416 188.097 418.634 187.095 418.592 186.037C418.54 184.979 418.233 183.996 417.675 183.095C416.934 181.75 415.664 180.878 414.48 179.974C413.661 179.353 412.835 178.736 412.009 178.119C410.283 176.839 408.553 175.556 406.807 174.296C403.162 171.657 399.497 169.042 395.852 166.397C390.48 162.502 385.033 158.692 379.459 155.084C378.94 154.898 378.418 154.711 377.893 154.525C376.802 154.294 375.722 154.339 374.652 154.666C373.565 154.999 372.586 155.629 371.822 156.465C371.437 156.883 371.108 157.353 370.85 157.862Z" fill="#FFE36A"/>
</g>
</g>
</g>
</g>
<mask id="mask32_371_14165" style="mask-type:luminance" maskUnits="userSpaceOnUse" x="357" y="201" width="39" height="13">
<path d="M357.285 201.445H395.716V213.147H357.285V201.445Z" fill="white"/>
</mask>
<g mask="url(#mask32_371_14165)">
<mask id="mask33_371_14165" style="mask-type:luminance" maskUnits="userSpaceOnUse" x="282" y="-23" width="323" height="333">
<path d="M282.797 206.692L492.866 -22.6045L604.462 79.7342L394.393 309.027L282.797 206.692Z" fill="white"/>
</mask>
<g mask="url(#mask33_371_14165)">
<mask id="mask34_371_14165" style="mask-type:luminance" maskUnits="userSpaceOnUse" x="282" y="-23" width="323" height="333">
<path d="M282.797 206.692L492.866 -22.6045L604.462 79.7342L394.393 309.027L282.797 206.692Z" fill="white"/>
</mask>
<g mask="url(#mask34_371_14165)">
<mask id="mask35_371_14165" style="mask-type:luminance" maskUnits="userSpaceOnUse" x="282" y="-23" width="323" height="333">
<path d="M282.797 206.692L492.866 -22.6045L604.462 79.7342L394.393 309.027L282.797 206.692Z" fill="white"/>
</mask>
<g mask="url(#mask35_371_14165)">
<path d="M358.398 209.777C357.478 211.58 357.295 213.712 357.892 215.648C358.512 217.646 359.942 219.347 361.802 220.301C363.515 221.182 365.832 221.502 367.673 220.814C369.954 219.961 372.317 219.442 374.703 218.998C376.873 218.662 379.05 218.352 381.22 218.028C382.457 217.842 383.694 217.663 384.931 217.47C385.524 217.379 386.118 217.287 386.712 217.199C387.58 217.072 388.445 216.964 389.307 216.765C390.795 216.428 391.856 215.58 392.939 214.564C393.566 213.976 393.957 213.199 394.405 212.481C394.969 211.364 395.224 210.186 395.175 208.942C395.113 207.698 394.754 206.542 394.094 205.484C392.887 203.57 391.099 202.362 388.889 201.859C387.401 201.52 385.835 201.69 384.418 202.228C384.19 202.317 383.945 202.388 383.707 202.447C380.76 202.839 377.777 202.999 374.827 203.352C372.578 203.619 370.346 204.008 368.123 204.452C366.387 204.795 364.7 205.255 363.045 205.872C362.432 206.156 361.818 206.434 361.201 206.718C360.598 207.1 360.063 207.547 359.593 208.057C359.126 208.566 358.728 209.141 358.398 209.777Z" fill="#FFE36A"/>
</g>
</g>
</g>
</g>
<mask id="mask36_371_14165" style="mask-type:luminance" maskUnits="userSpaceOnUse" x="390" y="81" width="25" height="56">
<path d="M390.703 81.0796H414.931V136.247H390.703V81.0796Z" fill="white"/>
</mask>
<g mask="url(#mask36_371_14165)">
<mask id="mask37_371_14165" style="mask-type:luminance" maskUnits="userSpaceOnUse" x="282" y="-23" width="323" height="333">
<path d="M282.793 206.692L492.862 -22.6045L604.459 79.7342L394.389 309.027L282.793 206.692Z" fill="white"/>
</mask>
<g mask="url(#mask37_371_14165)">
<mask id="mask38_371_14165" style="mask-type:luminance" maskUnits="userSpaceOnUse" x="282" y="-23" width="323" height="333">
<path d="M282.793 206.692L492.862 -22.6045L604.459 79.7342L394.389 309.027L282.793 206.692Z" fill="white"/>
</mask>
<g mask="url(#mask38_371_14165)">
<mask id="mask39_371_14165" style="mask-type:luminance" maskUnits="userSpaceOnUse" x="282" y="-23" width="323" height="333">
<path d="M282.793 206.692L492.862 -22.6045L604.459 79.7342L394.389 309.027L282.793 206.692Z" fill="white"/>
</mask>
<g mask="url(#mask39_371_14165)">
<path d="M398.013 86.6205C397.305 88.0147 396.985 89.4938 397.05 91.0578C397.034 91.4398 397.017 91.8218 396.998 92.2038C396.463 96.344 395.526 100.416 394.648 104.497C393.725 108.768 392.899 113.055 392.132 117.352C391.881 118.779 391.642 120.209 391.417 121.639C391.303 122.377 391.192 123.111 391.097 123.853C390.83 125.91 390.458 128.003 391.212 130.02C391.685 131.529 392.501 132.822 393.666 133.893C394.834 134.961 396.192 135.663 397.735 136.005C400.738 136.655 403.975 135.65 406.041 133.364C406.632 132.714 407.063 132.195 407.539 131.258C407.807 130.736 408.11 129.665 408.378 128.897C408.453 128.685 408.508 128.466 408.567 128.257C408.707 127.774 408.831 127.288 408.955 126.801C409.216 125.795 409.425 124.773 409.641 123.751C410.068 121.672 410.352 119.559 410.662 117.46C411.334 112.983 412.163 108.542 413.035 104.102C413.407 102.208 413.753 100.311 414.073 98.401C414.523 95.7269 414.715 93.007 414.813 90.2937C414.683 89.5493 414.552 88.8016 414.425 88.0539C413.945 86.5258 413.113 85.2132 411.935 84.1259C410.199 82.5358 407.882 81.6901 405.538 81.7913C403.192 81.8926 400.96 82.9309 399.374 84.6614C398.92 85.3144 398.466 85.9674 398.013 86.6205Z" fill="#E67CCC"/>
</g>
</g>
</g>
</g>
<mask id="mask40_371_14165" style="mask-type:luminance" maskUnits="userSpaceOnUse" x="326" y="153" width="21" height="50">
<path d="M326.375 153.8H346.426V202.281H326.375V153.8Z" fill="white"/>
</mask>
<g mask="url(#mask40_371_14165)">
<mask id="mask41_371_14165" style="mask-type:luminance" maskUnits="userSpaceOnUse" x="282" y="-23" width="323" height="333">
<path d="M282.797 206.692L492.866 -22.6045L604.462 79.7342L394.393 309.027L282.797 206.692Z" fill="white"/>
</mask>
<g mask="url(#mask41_371_14165)">
<mask id="mask42_371_14165" style="mask-type:luminance" maskUnits="userSpaceOnUse" x="282" y="-23" width="323" height="333">
<path d="M282.797 206.692L492.866 -22.6045L604.462 79.7342L394.393 309.027L282.797 206.692Z" fill="white"/>
</mask>
<g mask="url(#mask42_371_14165)">
<mask id="mask43_371_14165" style="mask-type:luminance" maskUnits="userSpaceOnUse" x="282" y="-23" width="323" height="333">
<path d="M282.797 206.692L492.866 -22.6045L604.462 79.7342L394.393 309.027L282.797 206.692Z" fill="white"/>
</mask>
<g mask="url(#mask43_371_14165)">
<path d="M328.282 157.304C327.914 157.891 327.545 158.479 327.176 159.067C326.624 160.311 326.406 161.614 326.53 162.972C327.431 167.07 328.031 171.21 328.808 175.327C329.193 177.394 329.653 179.448 330.051 181.511C330.443 183.526 330.782 185.55 331.193 187.562C331.477 188.953 331.797 190.337 332.107 191.721C332.215 192.205 332.323 192.685 332.43 193.168C332.336 192.747 332.241 192.322 332.146 191.901C332.577 193.818 332.91 195.842 333.55 197.706C334.503 200.475 337.41 202.245 340.289 201.98C342.005 201.82 343.608 200.981 344.708 199.656C345.866 198.258 346.235 196.655 346.183 194.882C346.15 193.811 346.01 192.747 345.909 191.679C345.817 190.657 345.723 189.635 345.608 188.613C345.39 186.598 345.207 184.581 344.995 182.566C344.571 178.468 344.127 174.364 343.552 170.283C343.135 167.347 342.612 164.451 341.973 161.555C341.826 160.908 341.686 160.265 341.539 159.619C341.056 158.303 340.279 157.199 339.202 156.298C337.626 154.989 335.566 154.352 333.53 154.538C331.614 154.714 329.816 155.609 328.521 157.023C328.439 157.114 328.357 157.209 328.282 157.304Z" fill="#FF7389"/>
</g>
</g>
</g>
</g>
<mask id="mask44_371_14165" style="mask-type:luminance" maskUnits="userSpaceOnUse" x="233" y="183" width="31" height="31">
<path d="M233.637 183.056H263.713V213.147H233.637V183.056Z" fill="white"/>
</mask>
<g mask="url(#mask44_371_14165)">
<mask id="mask45_371_14165" style="mask-type:luminance" maskUnits="userSpaceOnUse" x="161" y="133" width="183" height="338">
<path d="M319.281 133.325L343.565 458.482L185.745 470.279L161.461 145.122L319.281 133.325Z" fill="white"/>
</mask>
<g mask="url(#mask45_371_14165)">
<mask id="mask46_371_14165" style="mask-type:luminance" maskUnits="userSpaceOnUse" x="161" y="133" width="183" height="338">
<path d="M319.281 133.325L343.565 458.482L185.745 470.279L161.461 145.122L319.281 133.325Z" fill="white"/>
</mask>
<g mask="url(#mask46_371_14165)">
<mask id="mask47_371_14165" style="mask-type:luminance" maskUnits="userSpaceOnUse" x="161" y="133" width="183" height="338">
<path d="M319.281 133.325L343.565 458.482L185.745 470.279L161.461 145.122L319.281 133.325Z" fill="white"/>
</mask>
<g mask="url(#mask47_371_14165)">
<path d="M262.819 188.877C262.104 186.879 260.613 185.211 258.71 184.277C256.742 183.314 254.425 183.186 252.366 183.921C250.47 184.6 248.567 186.138 247.774 188.041C246.792 190.396 245.496 192.573 244.126 194.715C242.827 196.616 241.505 198.5 240.2 200.393C239.455 201.471 238.708 202.545 237.971 203.629C237.615 204.148 237.259 204.667 236.9 205.187C236.375 205.941 235.839 206.679 235.373 207.479C234.563 208.857 234.449 210.277 234.449 211.834C234.449 212.736 234.763 213.594 234.988 214.45C235.435 215.681 236.15 216.722 237.135 217.581C238.124 218.427 239.26 218.982 240.539 219.24C242.859 219.69 245.062 219.187 247.024 217.862C248.349 216.967 249.341 215.648 249.941 214.179C250.039 213.94 250.16 213.705 250.287 213.48C252.098 210.946 254.112 208.553 255.953 206.045C257.359 204.132 258.661 202.147 259.914 200.132C260.897 198.558 261.752 196.939 262.467 195.231C262.692 194.559 262.917 193.889 263.142 193.217C263.286 192.479 263.328 191.747 263.273 191.026C263.22 190.301 263.067 189.586 262.819 188.877Z" fill="#FFE36A"/>
</g>
</g>
</g>
</g>
<mask id="mask48_371_14165" style="mask-type:luminance" maskUnits="userSpaceOnUse" x="181" y="198" width="31" height="16">
<path d="M181.84 198.102H211.081V213.147H181.84V198.102Z" fill="white"/>
</mask>
<g mask="url(#mask48_371_14165)">
<mask id="mask49_371_14165" style="mask-type:luminance" maskUnits="userSpaceOnUse" x="161" y="133" width="183" height="338">
<path d="M319.281 133.325L343.565 458.482L185.745 470.279L161.461 145.122L319.281 133.325Z" fill="white"/>
</mask>
<g mask="url(#mask49_371_14165)">
<mask id="mask50_371_14165" style="mask-type:luminance" maskUnits="userSpaceOnUse" x="161" y="133" width="183" height="338">
<path d="M319.281 133.325L343.565 458.482L185.745 470.279L161.461 145.122L319.281 133.325Z" fill="white"/>
</mask>
<g mask="url(#mask50_371_14165)">
<mask id="mask51_371_14165" style="mask-type:luminance" maskUnits="userSpaceOnUse" x="161" y="133" width="183" height="338">
<path d="M319.281 133.325L343.565 458.482L185.745 470.279L161.461 145.122L319.281 133.325Z" fill="white"/>
</mask>
<g mask="url(#mask51_371_14165)">
<path d="M210.489 203.339C210.489 203.342 210.489 203.342 210.486 203.342C210.065 202.167 209.347 201.106 208.391 200.279C207.875 199.94 207.356 199.6 206.844 199.258C205.666 198.683 204.423 198.448 203.117 198.539C201.583 198.817 200.353 199.052 199.09 200.025C198.411 200.544 197.811 201.125 197.23 201.746C197.07 201.922 196.943 202.157 196.805 202.353C196.27 203.127 195.774 203.917 195.278 204.714C194.697 205.638 194.146 206.578 193.601 207.522C192.507 209.415 191.522 211.374 190.569 213.34C189.632 215.27 188.728 217.219 187.935 219.214C186.842 221.999 185.915 224.84 184.965 227.674C185.194 226.998 185.419 226.322 185.648 225.646C184.757 228.281 183.931 230.929 183.092 233.584C182.74 234.691 182.567 235.762 182.694 236.966C182.785 237.812 182.916 238.668 183.265 239.448C183.843 240.738 184.306 241.603 185.39 242.537C186.816 243.768 188.705 244.339 190.569 244.202C191.773 244.111 193.568 243.549 194.518 242.782C194.612 242.703 194.704 242.628 194.798 242.556C196.3 241.338 196.378 241.175 197.393 239.52C197.7 239.017 197.951 238.494 198.209 237.959C200.118 234.005 201.606 229.862 203.417 225.862C204.706 223.008 206.048 220.18 207.34 217.323C207.986 215.9 208.616 214.47 209.191 213.013C209.703 211.73 210.196 210.382 210.581 209.063C210.669 208.746 210.77 208.436 210.822 208.109C210.95 207.254 211.041 206.281 210.969 205.34C210.917 204.635 210.773 203.946 210.489 203.339Z" fill="#FF7389"/>
</g>
</g>
</g>
</g>
<mask id="mask52_371_14165" style="mask-type:luminance" maskUnits="userSpaceOnUse" x="215" y="138" width="48" height="33">
<path d="M215.258 138.754H262.879V170.518H215.258V138.754Z" fill="white"/>
</mask>
<g mask="url(#mask52_371_14165)">
<mask id="mask53_371_14165" style="mask-type:luminance" maskUnits="userSpaceOnUse" x="161" y="133" width="183" height="338">
<path d="M319.281 133.325L343.565 458.482L185.745 470.279L161.461 145.122L319.281 133.325Z" fill="white"/>
</mask>
<g mask="url(#mask53_371_14165)">
<mask id="mask54_371_14165" style="mask-type:luminance" maskUnits="userSpaceOnUse" x="161" y="133" width="183" height="338">
<path d="M319.281 133.325L343.565 458.482L185.745 470.279L161.461 145.122L319.281 133.325Z" fill="white"/>
</mask>
<g mask="url(#mask54_371_14165)">
<mask id="mask55_371_14165" style="mask-type:luminance" maskUnits="userSpaceOnUse" x="161" y="133" width="183" height="338">
<path d="M319.281 133.325L343.565 458.482L185.745 470.279L161.461 145.122L319.281 133.325Z" fill="white"/>
</mask>
<g mask="url(#mask55_371_14165)">
<path d="M261.265 143.257C259.065 139.519 254.105 138.223 250.368 140.43C246.436 142.755 242.268 144.648 238.107 146.519C233.946 148.393 229.844 150.395 225.706 152.312C224.417 152.906 223.131 153.507 221.832 154.085C220.846 154.486 220.324 154.672 219.551 155.133C218.327 155.861 217.361 156.837 216.64 158.065C216.209 158.809 216.026 159.531 215.729 160.278C215.36 161.666 215.367 163.051 215.746 164.435C216.007 165.059 216.274 165.679 216.539 166.299C217.237 167.475 218.17 168.405 219.348 169.098C220.073 169.424 220.81 169.718 221.545 170.025C222.632 170.472 224.877 170.348 225.947 169.979C226.815 169.682 227.67 169.336 228.49 168.911C228.992 168.654 229.495 168.405 229.997 168.154C230.989 167.664 231.985 167.191 232.98 166.717C234.968 165.767 236.955 164.827 238.93 163.857C243.025 161.852 247.196 160.004 251.285 157.99C253.723 156.795 256.112 155.551 258.449 154.169C261.121 152.586 262.541 149.592 262.322 146.643C262.234 145.474 261.892 144.315 261.265 143.257Z" fill="#7AE3D4"/>
</g>
</g>
</g>
</g>
<mask id="mask56_371_14165" style="mask-type:luminance" maskUnits="userSpaceOnUse" x="279" y="177" width="46" height="37">
<path d="M279.586 177.205H324.701V213.147H279.586V177.205Z" fill="white"/>
</mask>
<g mask="url(#mask56_371_14165)">
<mask id="mask57_371_14165" style="mask-type:luminance" maskUnits="userSpaceOnUse" x="161" y="133" width="183" height="338">
<path d="M319.281 133.325L343.565 458.482L185.745 470.279L161.461 145.122L319.281 133.325Z" fill="white"/>
</mask>
<g mask="url(#mask57_371_14165)">
<mask id="mask58_371_14165" style="mask-type:luminance" maskUnits="userSpaceOnUse" x="161" y="133" width="183" height="338">
<path d="M319.281 133.325L343.565 458.482L185.745 470.279L161.461 145.122L319.281 133.325Z" fill="white"/>
</mask>
<g mask="url(#mask58_371_14165)">
<mask id="mask59_371_14165" style="mask-type:luminance" maskUnits="userSpaceOnUse" x="161" y="133" width="183" height="338">
<path d="M319.281 133.325L343.565 458.482L185.745 470.279L161.461 145.122L319.281 133.325Z" fill="white"/>
</mask>
<g mask="url(#mask59_371_14165)">
<path d="M324.344 203.538C324.161 202.836 323.975 202.13 323.792 201.428C323.241 200.113 322.402 199.009 321.279 198.127C317.513 195.875 313.93 193.364 310.239 190.996C308.388 189.811 306.495 188.688 304.639 187.509C302.824 186.363 301.039 185.168 299.215 184.038C297.948 183.255 296.666 182.507 295.39 181.75C294.943 181.485 294.502 181.224 294.055 180.959C294.447 181.188 294.835 181.423 295.227 181.652C293.458 180.604 291.676 179.405 289.803 178.556C287.009 177.293 283.579 178.246 281.722 180.636C280.612 182.063 280.107 183.892 280.329 185.684C280.564 187.571 281.52 189.001 282.907 190.239C283.749 190.98 284.659 191.636 285.544 192.325C286.386 192.991 287.234 193.651 288.092 194.301C289.786 195.577 291.451 196.887 293.138 198.173C296.565 200.789 300.008 203.397 303.529 205.889C306.061 207.678 308.643 209.356 311.306 210.95C311.9 211.302 312.494 211.655 313.091 212.004C314.439 212.582 315.836 212.781 317.291 212.605C319.419 212.341 321.377 211.227 322.692 209.536C323.929 207.942 324.536 205.928 324.386 203.923C324.376 203.796 324.363 203.665 324.344 203.538Z" fill="#FF7389"/>
</g>
</g>
</g>
</g>
</svg>
