<svg width="290" height="92" viewBox="0 0 290 92" fill="none" xmlns="http://www.w3.org/2000/svg">
<path d="M24.1532 6.56658L25.8773 8.30367L17.7225 25.852L15.9499 24.0661L17.949 19.8734L12.5246 14.4083L8.29764 16.3566L6.52504 14.5707L24.1532 6.56658ZM14.5602 13.4534L18.9288 17.8547L22.9852 9.48878L22.9562 9.4595L14.5602 13.4534Z" fill="black"/>
<path d="M41.0887 21.8422C41.4054 22.092 41.5729 22.4051 41.5912 22.7815C41.6096 23.1579 41.474 23.5296 41.1845 23.8967C40.8553 24.3141 40.3262 24.8074 39.5971 25.3765C38.8681 25.9457 38.1161 26.5142 37.3413 27.0823L36.6071 26.5033C36.8954 25.9601 37.1865 25.4133 37.4805 24.863C37.7801 24.3054 38.0657 23.7952 38.3374 23.3323C38.6147 22.8623 38.8584 22.4941 39.0684 22.2278C39.3636 21.8535 39.6935 21.635 40.0582 21.5724C40.4357 21.5082 40.7792 21.5981 41.0887 21.8422Z" fill="black"/>
<path d="M48.8974 35.4935C49.5098 35.9132 50.0153 36.4486 50.4137 37.0995C50.8197 37.7556 51.0162 38.4904 51.0033 39.3039C51.003 40.115 50.6971 40.9666 50.0856 41.8588L46.1056 47.6658L44.1095 46.2977L47.8252 40.8763C48.4574 39.9539 48.7043 39.1396 48.5659 38.4335C48.4403 37.7251 48.0372 37.1376 47.3567 36.6712C46.903 36.3603 46.3801 36.1908 45.7881 36.1629C45.2012 36.1274 44.6188 36.2394 44.0408 36.499C43.4756 36.7561 43.0012 37.1645 42.6178 37.724L39.0964 42.8618L37.1002 41.4937L47.7965 25.8874L49.7927 27.2555L44.3435 35.2061C44.5877 34.9957 44.9609 34.8403 45.4631 34.74C45.9728 34.6448 46.5347 34.652 47.1486 34.7616C47.7625 34.8712 48.3454 35.1152 48.8974 35.4935Z" fill="black"/>
<path d="M55.7952 53.8003C54.7844 53.2226 54.0148 52.4818 53.4862 51.5778C52.9655 50.6784 52.703 49.7154 52.6986 48.6887C52.6987 47.654 52.9785 46.6472 53.538 45.6684C54.0975 44.6895 54.8253 43.9335 55.7213 43.4003C56.6173 42.8672 57.5872 42.5927 58.6309 42.5769C59.6826 42.5656 60.7138 42.8489 61.7245 43.4266C62.7273 43.9997 63.4827 44.7377 63.9909 45.6405C64.507 46.5479 64.7587 47.5206 64.7461 48.5587C64.7335 49.5968 64.4474 50.6052 63.8879 51.5841C63.3284 52.563 62.6069 53.3173 61.7234 53.847C60.8444 54.3688 59.8854 54.6336 58.8462 54.6415C57.8149 54.6539 56.7979 54.3735 55.7952 53.8003ZM56.8118 52.0216C57.4485 52.3855 58.0857 52.5544 58.7236 52.5284C59.3694 52.5068 59.9692 52.3165 60.5229 51.9572C61.0812 51.59 61.5446 51.0841 61.9131 50.4395C62.2815 49.7949 62.4823 49.1389 62.5153 48.4715C62.5484 47.8041 62.4126 47.1827 62.1079 46.6073C61.8112 46.0365 61.3446 45.5692 60.7079 45.2053C60.0633 44.8368 59.4158 44.6673 58.7654 44.6968C58.115 44.7263 57.5067 44.9224 56.9405 45.285C56.3822 45.6522 55.9188 46.1581 55.5503 46.8027C55.1819 47.4474 54.9811 48.1034 54.9481 48.7708C54.9276 49.4348 55.0719 50.0505 55.3811 50.6179C55.6903 51.1853 56.1672 51.6532 56.8118 52.0216Z" fill="black"/>
<path d="M67.9475 59.8001L65.7876 58.7394L74.1277 41.7568L76.2875 42.8175L67.9475 59.8001Z" fill="black"/>
<path d="M77.6954 58.6077C77.4436 59.2376 77.3417 59.8653 77.3896 60.4907C77.4375 61.1161 77.6563 61.6884 78.0461 62.2077C78.4444 62.7305 79.0244 63.1501 79.7863 63.4666C80.4297 63.7339 81.0144 63.8676 81.5404 63.8677C82.0784 63.8629 82.5458 63.7891 82.9427 63.6463C83.343 63.4949 83.6506 63.3398 83.8655 63.181L84.391 64.9626C83.9428 65.2529 83.4523 65.466 82.9193 65.602C82.3949 65.7414 81.8114 65.772 81.1689 65.6937C80.523 65.6239 79.7852 65.4166 78.9556 65.072C77.8382 64.6078 76.9674 63.9681 76.3432 63.1529C75.731 62.3328 75.3806 61.4081 75.2921 60.3787C75.2071 59.3408 75.3932 58.2716 75.8503 57.1711C76.2723 56.1553 76.8595 55.3272 77.6119 54.6869C78.3678 54.0381 79.2379 53.6402 80.2221 53.4932C81.2148 53.3497 82.2698 53.51 83.3872 53.9742C84.4115 54.3998 85.2107 54.9849 85.7848 55.7296C86.3708 56.4694 86.7095 57.3148 86.8007 58.2659C86.9004 59.2206 86.7252 60.2397 86.2751 61.3232C86.247 61.3909 86.1917 61.5119 86.1094 61.6862C86.0306 61.852 85.9729 61.967 85.9363 62.0312L77.6954 58.6077ZM84.5576 59.5079C84.6933 59.1573 84.75 58.7342 84.7276 58.2385C84.7137 57.7463 84.5566 57.2642 84.2565 56.7921C83.9563 56.32 83.4464 55.9344 82.7269 55.6355C81.9819 55.326 81.3211 55.2203 80.7444 55.3182C80.1762 55.4196 79.7001 55.6338 79.3162 55.9607C78.9357 56.2791 78.6512 56.6175 78.4626 56.9759L84.5576 59.5079Z" fill="black"/>
<path d="M96.6623 52.1155C97.044 52.2458 97.3061 52.4853 97.4485 52.8342C97.591 53.1831 97.5867 53.5787 97.4357 54.0212C97.264 54.5244 96.929 55.1655 96.4306 55.9446C95.9323 56.7238 95.4121 57.51 94.8702 58.3033L93.9853 58.0013C94.0766 57.3932 94.1694 56.7808 94.2636 56.164C94.3608 55.5385 94.4606 54.9624 94.5629 54.4355C94.6682 53.9 94.7756 53.4717 94.8852 53.1507C95.0391 52.6996 95.2776 52.3839 95.6007 52.2036C95.9354 52.0175 96.2892 51.9882 96.6623 52.1155Z" fill="black"/>
<path d="M114.388 76.0427C113.25 75.7956 112.293 75.3205 111.517 74.6174C110.75 73.9162 110.21 73.0766 109.897 72.0988C109.586 71.112 109.551 70.0677 109.79 68.9658C110.029 67.864 110.496 66.9241 111.19 66.1462C111.884 65.3683 112.727 64.8149 113.717 64.486C114.717 64.159 115.786 64.119 116.923 64.366C118.052 64.6111 118.994 65.0878 119.751 65.796C120.516 66.5062 121.048 67.3582 121.348 68.352C121.648 69.3458 121.679 70.3936 121.44 71.4954C121.2 72.5973 120.739 73.5336 120.056 74.3045C119.374 75.0665 118.539 75.6074 117.551 75.9274C116.571 76.2493 115.517 76.2877 114.388 76.0427ZM114.823 74.0406C115.539 74.1962 116.198 74.1656 116.798 73.949C117.408 73.7342 117.922 73.3723 118.343 72.8632C118.765 72.3451 119.054 71.7233 119.212 70.9977C119.37 70.2721 119.364 69.5861 119.195 68.9396C119.025 68.2932 118.709 67.7414 118.245 67.2843C117.791 66.8291 117.205 66.5237 116.489 66.3681C115.763 66.2106 115.094 66.2436 114.483 66.4673C113.872 66.691 113.351 67.0609 112.92 67.5771C112.497 68.0951 112.208 68.717 112.05 69.4426C111.893 70.1682 111.898 70.8542 112.068 71.5006C112.248 72.1401 112.57 72.6839 113.036 73.132C113.501 73.5802 114.097 73.883 114.823 74.0406Z" fill="black"/>
<path d="M126.009 66.445L128.2 66.7598L128.859 62.1731L131.213 62.5114L130.555 67.098L133.426 67.5106L133.135 69.5385L130.263 69.126L129.469 74.6517C129.375 75.305 129.42 75.8022 129.602 76.1433C129.794 76.4857 130.085 76.6849 130.475 76.741C130.82 76.7905 131.097 76.7655 131.305 76.6658C131.514 76.5661 131.64 76.4962 131.683 76.4561L132.372 78.3331C132.311 78.3707 132.153 78.436 131.899 78.5291C131.645 78.6223 131.324 78.692 130.938 78.7384C130.552 78.7848 130.109 78.7721 129.61 78.7004C128.739 78.5753 128.046 78.2072 127.532 77.5962C127.028 76.9774 126.859 76.0919 127.025 74.9395L127.909 68.7877L125.717 68.4729L126.009 66.445Z" fill="black"/>
<path d="M145.392 68.2585C146.133 68.3101 146.84 68.5155 147.513 68.8747C148.196 69.2346 148.738 69.7685 149.139 70.4764C149.549 71.1758 149.717 72.065 149.642 73.144L149.153 80.1671L146.739 79.9991L147.195 73.4424C147.273 72.3268 147.073 71.4997 146.596 70.9611C146.129 70.414 145.484 70.1119 144.661 70.0546C144.112 70.0164 143.575 70.1353 143.051 70.4112C142.527 70.678 142.082 71.0697 141.715 71.5863C141.358 72.0944 141.156 72.6868 141.109 73.3635L140.676 79.5773L138.262 79.4093L139.576 60.5349L141.99 60.7029L141.321 70.3184C141.425 70.0132 141.668 69.6901 142.05 69.3492C142.441 69.0088 142.929 68.7304 143.514 68.5138C144.098 68.2972 144.725 68.2121 145.392 68.2585Z" fill="black"/>
<path d="M156.821 75.1049C156.838 75.7831 156.993 76.4 157.284 76.9557C157.574 77.5114 158.001 77.9508 158.565 78.274C159.137 78.5971 159.836 78.7536 160.66 78.7436C161.357 78.7352 161.947 78.6272 162.43 78.4197C162.923 78.2028 163.323 77.9505 163.631 77.6625C163.939 77.3654 164.161 77.1015 164.296 76.8707L165.482 78.3002C165.185 78.7438 164.818 79.1333 164.382 79.4686C163.955 79.8038 163.431 80.0622 162.81 80.2439C162.189 80.4348 161.429 80.5357 160.531 80.5466C159.321 80.5613 158.269 80.3173 157.373 79.8148C156.487 79.303 155.8 78.5917 155.312 77.6809C154.824 76.7609 154.573 75.7051 154.559 74.5135C154.545 73.4136 154.758 72.421 155.196 71.5356C155.635 70.641 156.277 69.932 157.123 69.4083C157.979 68.8846 159.011 68.6154 160.221 68.6007C161.33 68.5873 162.296 68.8093 163.117 69.2669C163.947 69.7152 164.592 70.3583 165.052 71.1961C165.52 72.0338 165.762 73.0393 165.776 74.2125C165.777 74.2859 165.774 74.4188 165.767 74.6114C165.76 74.7949 165.752 74.9233 165.744 74.9967L156.821 75.1049ZM163.481 73.2228C163.468 72.8471 163.353 72.4359 163.136 71.9894C162.929 71.5427 162.595 71.1617 162.132 70.8465C161.67 70.5312 161.049 70.3783 160.27 70.3877C159.464 70.3975 158.815 70.5612 158.324 70.8789C157.842 71.1964 157.489 71.5811 157.265 72.0331C157.041 72.4758 156.913 72.899 156.882 73.3028L163.481 73.2228Z" fill="black"/>
<path d="M174.03 79.5629L171.659 79.7608L170.721 68.5111L173.091 68.3133L173.253 70.259L173.185 70.2648C173.211 70.0234 173.355 69.7124 173.618 69.3318C173.88 68.9511 174.255 68.5979 174.743 68.272C175.231 67.9461 175.832 67.7535 176.544 67.694C177.065 67.6506 177.528 67.6855 177.933 67.7989C178.346 67.9024 178.641 68.0158 178.816 68.1391L178.008 70.1934C177.87 70.0762 177.635 69.967 177.305 69.8658C176.974 69.7554 176.571 69.7201 176.096 69.7597C175.493 69.81 174.992 70.0404 174.594 70.4507C174.196 70.8611 173.905 71.3407 173.721 71.8896C173.545 72.4286 173.476 72.9219 173.513 73.3695L174.03 79.5629Z" fill="black"/>
<path d="M196.585 64.6138C197.16 64.497 197.707 64.4468 198.224 64.4632C198.751 64.4778 199.211 64.5295 199.603 64.6182C200.004 64.7051 200.294 64.7959 200.472 64.8906L199.843 66.5617C199.631 66.4365 199.271 66.3225 198.764 66.2198C198.254 66.1081 197.712 66.1106 197.138 66.2274C196.509 66.3551 196 66.5895 195.611 66.9304C195.22 67.2624 195.072 67.6619 195.167 68.1291C195.262 68.5962 195.562 68.9234 196.068 69.1106C196.58 69.287 197.237 69.3875 198.037 69.4121C198.677 69.4317 199.287 69.509 199.866 69.6439C200.454 69.7769 200.958 70.0253 201.378 70.389C201.796 70.7437 202.078 71.2759 202.222 71.9855C202.353 72.6323 202.331 73.2122 202.154 73.725C201.976 74.2289 201.686 74.6667 201.284 75.0382C200.881 75.4008 200.409 75.7024 199.869 75.9431C199.328 76.1839 198.766 76.3635 198.182 76.4822C197.5 76.6208 196.87 76.674 196.293 76.6416C195.717 76.6181 195.222 76.5504 194.806 76.4384C194.398 76.3156 194.093 76.1996 193.894 76.0906L194.484 74.2308C194.763 74.408 195.193 74.5685 195.774 74.7123C196.364 74.8544 197.001 74.8561 197.684 74.7174C198.438 74.5641 199.017 74.2828 199.42 73.8735C199.822 73.4552 199.97 72.9901 199.866 72.478C199.788 72.0917 199.613 71.8046 199.341 71.6167C199.069 71.4287 198.729 71.3012 198.323 71.2341C197.916 71.167 197.478 71.1252 197.007 71.1087C196.555 71.0974 196.107 71.0529 195.661 70.9752C195.224 70.8956 194.809 70.7647 194.416 70.5825C194.031 70.3895 193.702 70.129 193.43 69.8008C193.155 69.4636 192.967 69.0435 192.865 68.5405C192.735 67.9027 192.827 67.3181 193.14 66.7869C193.451 66.2466 193.91 65.7886 194.517 65.4128C195.123 65.0371 195.813 64.7707 196.585 64.6138Z" fill="black"/>
<path d="M205.095 63.0318L207.23 62.447L206.006 57.9779L208.3 57.3495L209.524 61.8186L212.323 61.0521L212.864 63.0281L210.066 63.7946L211.54 69.1787C211.715 69.8153 211.954 70.2536 212.257 70.4936C212.569 70.7313 212.915 70.798 213.296 70.6939C213.632 70.6019 213.875 70.4685 214.027 70.2939C214.179 70.1193 214.266 70.005 214.29 69.9511L215.67 71.398C215.629 71.4567 215.51 71.5794 215.314 71.7662C215.118 71.9529 214.852 72.1445 214.517 72.3411C214.181 72.5376 213.77 72.7025 213.283 72.8357C212.435 73.0682 211.653 73.0067 210.938 72.6513C210.229 72.2847 209.721 71.54 209.413 70.4172L207.771 64.423L205.636 65.0078L205.095 63.0318Z" fill="black"/>
<path d="M226.471 68.6267C225.373 69.0133 224.309 69.1108 223.279 68.9193C222.258 68.7247 221.358 68.2933 220.579 67.6251C219.796 66.9482 219.218 66.078 218.843 65.0144C218.469 63.9509 218.373 62.9059 218.556 61.8794C218.739 60.853 219.166 59.9399 219.837 59.1401C220.516 58.3372 221.405 57.7425 222.503 57.3559C223.593 56.9724 224.645 56.8838 225.66 57.09C226.684 57.2932 227.584 57.7391 228.361 58.4277C229.138 59.1163 229.714 59.9924 230.088 61.0559C230.463 62.1194 230.561 63.1586 230.384 64.1733C230.204 65.1795 229.777 66.0781 229.103 66.8693C228.438 67.6574 227.56 68.2432 226.471 68.6267ZM225.79 66.6942C226.482 66.4507 227.027 66.0792 227.424 65.5797C227.83 65.0771 228.079 64.4989 228.169 63.8451C228.257 63.1826 228.177 62.5012 227.931 61.8008C227.684 61.1005 227.319 60.5195 226.836 60.0579C226.353 59.5963 225.794 59.2926 225.16 59.1467C224.534 58.9977 223.875 59.0449 223.183 59.2884C222.483 59.535 221.931 59.9139 221.528 60.4251C221.125 60.9363 220.875 61.5246 220.779 62.1901C220.692 62.8526 220.771 63.534 221.018 64.2344C221.264 64.9348 221.629 65.5158 222.112 65.9773C222.601 66.4272 223.161 66.7208 223.793 66.8581C224.424 66.9954 225.09 66.9408 225.79 66.6942Z" fill="black"/>
<path d="M238.868 63.3934L236.686 64.3408L232.19 53.9859L234.372 53.0385L235.15 54.8295L235.087 54.8569C235.034 54.62 235.071 54.2792 235.198 53.8345C235.324 53.3897 235.567 52.9348 235.924 52.4697C236.282 52.0046 236.789 51.6297 237.445 51.3449C237.924 51.1368 238.373 51.0216 238.793 50.9991C239.218 50.9646 239.534 50.9776 239.74 51.038L239.633 53.243C239.464 53.1764 239.207 53.1481 238.861 53.1582C238.512 53.1598 238.119 53.2555 237.682 53.4454C237.127 53.6863 236.727 54.065 236.481 54.5813C236.236 55.0976 236.114 55.6452 236.115 56.2242C236.122 56.7911 236.214 57.2805 236.393 57.6925L238.868 63.3934Z" fill="black"/>
<path d="M251.644 54.8853L250.833 45.0515L252.956 43.9496L254.029 62.5553L251.881 63.6699L251.516 57.4148L242.192 49.5353L244.352 48.4143L251.644 54.8853Z" fill="black"/>
<path d="M264.42 50.5552C263.989 50.8168 263.524 50.89 263.025 50.7746C262.529 50.6467 262.15 50.3673 261.889 49.9363C261.618 49.4897 261.542 49.0208 261.662 48.5297C261.785 48.026 262.062 47.6433 262.493 47.3817C262.94 47.1105 263.411 47.0389 263.907 47.1668C264.398 47.2869 264.779 47.5703 265.051 48.0169C265.312 48.4479 265.385 48.9129 265.27 49.4118C265.15 49.9029 264.867 50.284 264.42 50.5552Z" fill="black"/>
<path d="M274.54 43.9851C274.125 44.2715 273.665 44.3718 273.16 44.2858C272.657 44.1872 272.263 43.9304 271.977 43.5155C271.68 43.0855 271.577 42.6218 271.668 42.1245C271.761 41.6145 272.016 41.2162 272.431 40.9298C272.861 40.633 273.327 40.5339 273.829 40.6326C274.327 40.7237 274.724 40.9843 275.021 41.4143C275.307 41.8292 275.407 42.2891 275.321 42.7939C275.23 43.2912 274.97 43.6883 274.54 43.9851Z" fill="black"/>
<path d="M284.255 36.8336C283.857 37.1438 283.404 37.2708 282.895 37.2146C282.388 37.1455 281.979 36.9122 281.669 36.5148C281.347 36.1029 281.217 35.6461 281.279 35.1443C281.343 34.6296 281.573 34.2172 281.97 33.907C282.382 33.5855 282.842 33.4593 283.349 33.5284C283.851 33.5902 284.263 33.8271 284.584 34.239C284.895 34.6364 285.022 35.0897 284.965 35.5987C284.904 36.1005 284.667 36.5121 284.255 36.8336Z" fill="black"/>
</svg>
