<svg width="25" height="26" viewBox="0 0 25 26" fill="none" xmlns="http://www.w3.org/2000/svg">
<circle cx="12.2537" cy="12.9334" r="12.2" fill="black"/>
<path fill-rule="evenodd" clip-rule="evenodd" d="M19.5746 12.5272C19.5746 10.2812 17.7539 8.46051 15.5079 8.46051H15.4054C15.0443 7.05732 13.7705 6.02051 12.2546 6.02051C10.7386 6.02051 9.46489 7.05732 9.10373 8.46051H9.00124C6.75528 8.46051 4.93457 10.2812 4.93457 12.5272V15.7805C4.93457 18.0265 6.75528 19.8472 9.00124 19.8472H15.5079C17.7539 19.8472 19.5746 18.0265 19.5746 15.7805V12.5272ZM14.6946 14.1538C14.6946 15.5014 13.6021 16.5938 12.2546 16.5938C10.907 16.5938 9.81457 15.5014 9.81457 14.1538C9.81457 12.8063 10.907 11.7138 12.2546 11.7138C13.6021 11.7138 14.6946 12.8063 14.6946 14.1538ZM12.2546 9.68051C12.7038 9.68051 13.0679 9.31637 13.0679 8.86717C13.0679 8.41798 12.7038 8.05384 12.2546 8.05384C11.8054 8.05384 11.4412 8.41798 11.4412 8.86717C11.4412 9.31637 11.8054 9.68051 12.2546 9.68051Z" fill="white"/>
</svg>
