<svg width="106" height="214" viewBox="0 0 106 214" fill="none" xmlns="http://www.w3.org/2000/svg">
<mask id="mask0_371_15096" style="mask-type:luminance" maskUnits="userSpaceOnUse" x="0" y="0" width="107" height="214">
<path d="M106.014 0H0.210938V213.667H106.014V0Z" fill="white"/>
</mask>
<g mask="url(#mask0_371_15096)">
<mask id="mask1_371_15096" style="mask-type:luminance" maskUnits="userSpaceOnUse" x="71" y="60" width="35" height="39">
<path d="M71.6602 60.458H105.668V98.2447H71.6602V60.458Z" fill="white"/>
</mask>
<g mask="url(#mask1_371_15096)">
<path d="M106.867 70.8178C103.588 70.8339 100.308 71.4109 97.2595 72.5568C94.2001 73.6733 91.3849 75.3103 88.8219 77.1755C86.259 79.0461 83.9402 81.1742 81.8443 83.4769C79.7698 85.8063 77.9663 88.3585 76.5064 91.1013L72.7787 98.087L72.3869 90.1942C72.2151 86.7886 72.403 83.3239 73.1785 79.8726C73.5838 78.1524 74.1581 76.4321 75.0196 74.7977C75.873 73.1633 77.0592 71.6175 78.5862 70.4394C79.3323 69.8463 80.1965 69.3417 81.0391 68.9955C81.8818 68.644 82.6521 68.3622 83.476 68.0884C85.1077 67.5732 86.7689 67.1813 88.4355 66.8996C91.7686 66.3145 95.1045 66.2689 98.3142 65.9254C99.9137 65.759 101.492 65.4718 102.922 64.8841C103.636 64.5969 104.302 64.2051 104.892 63.7328C105.201 63.4912 105.423 63.2524 105.762 62.925C106.105 62.6002 106.492 62.3372 106.894 62.1145C108.518 61.2396 110.31 61.033 112.044 61.0249C113.791 61.0464 115.522 61.3443 117.194 61.8461C120.533 62.8632 123.686 64.7955 126.013 67.5705C128.364 70.3267 129.749 73.8906 130.025 77.4278L130.339 81.3997L127.371 79.0031C125.948 77.8518 124.47 76.7407 122.894 75.7585C121.33 74.7521 119.674 73.8611 117.946 73.1124C116.212 72.3797 114.403 71.7786 112.541 71.3894C110.678 71.003 108.778 70.8205 106.867 70.8178ZM106.87 70.4099C108.791 70.4072 110.721 70.5253 112.645 70.74C114.569 70.952 116.496 71.2579 118.405 71.7168C120.315 72.1623 122.205 72.7554 124.051 73.5015C125.884 74.269 127.677 75.1788 129.349 76.2845L126.697 77.8625C126.144 74.9024 124.996 72.1623 123.224 69.8114C121.459 67.4685 119.094 65.4691 116.319 64.1541C114.937 63.502 113.45 63.0109 111.929 62.8149C110.418 62.6056 108.829 62.6969 107.509 63.3034C107.184 63.4617 106.881 63.6523 106.62 63.8777C106.363 64.1085 106.006 64.4493 105.662 64.7096C104.967 65.2491 104.197 65.6811 103.408 66.03C101.814 66.7224 100.139 67.0257 98.5128 67.3289C96.8731 67.5973 95.2548 67.8442 93.6607 68.1367C92.0692 68.44 90.5046 68.7996 88.9829 69.2612C87.4613 69.7201 85.9826 70.273 84.5602 70.9278C83.8544 71.2391 83.1137 71.5961 82.4776 71.9423C81.8416 72.2911 81.3156 72.6776 80.8003 73.1285C78.7821 74.9427 77.655 77.7471 77.129 80.7046C76.5761 83.6755 76.5788 86.8208 76.7586 89.95L72.6418 89.0456C74.2735 85.9486 76.3614 83.0904 78.8305 80.6214C81.2726 78.1255 84.1415 76.0698 87.2278 74.524C90.3168 72.9755 93.6177 71.9718 96.916 71.325C100.23 70.6997 103.553 70.3938 106.87 70.4099Z" fill="#401F2A"/>
</g>
<mask id="mask2_371_15096" style="mask-type:luminance" maskUnits="userSpaceOnUse" x="7" y="10" width="99" height="100">
<path d="M7.76562 10.9927H105.668V109.238H7.76562V10.9927Z" fill="white"/>
</mask>
<g mask="url(#mask2_371_15096)">
<path d="M8.34452 108.717C7.46427 92.7517 11.0846 76.4079 18.6178 62.042C22.3401 54.8308 27.093 48.1538 32.5409 42.1181C38.0264 36.1092 44.3036 30.8277 51.1149 26.37C57.9637 21.9741 65.3627 18.4236 73.0918 15.8928C80.8317 13.4157 88.8721 11.8458 96.9715 11.4486C105.06 10.995 113.184 11.623 121.077 13.252C128.956 14.9294 136.61 17.5889 143.682 21.3005C136.24 18.4182 128.548 16.3249 120.73 15.2272C116.823 14.6637 112.897 14.3175 108.965 14.2396C105.047 14.1538 101.096 14.2531 97.2023 14.6261C89.4008 15.3829 81.6905 16.9636 74.3183 19.5588C66.9354 22.0976 59.8584 25.5273 53.3263 29.7998C46.7512 34.0052 40.7235 39.0586 35.3615 44.7427C29.9619 50.3973 25.319 56.7685 21.4008 63.5636C13.6019 77.1942 9.16574 92.7625 8.34452 108.717Z" fill="#401F2A"/>
</g>
<mask id="mask3_371_15096" style="mask-type:luminance" maskUnits="userSpaceOnUse" x="0" y="2" width="106" height="204">
<path d="M0.894531 2.06055H105.667V205.422H0.894531V2.06055Z" fill="white"/>
</mask>
<g mask="url(#mask3_371_15096)">
<path d="M106.868 2.62169C114.538 2.57875 122.205 3.41875 129.717 5.00751C133.471 5.80457 137.186 6.80828 140.833 8.02132C144.488 9.21021 148.087 10.595 151.594 12.1838C165.636 18.5281 178.319 28.0311 188.418 39.8529C198.508 51.6827 205.91 65.8903 209.743 81.0506C211.675 88.6267 212.746 96.4175 212.979 104.235C213.205 112.053 212.501 119.897 210.993 127.567L210.864 128.246L210.362 128.724C207.749 131.215 205.47 134.116 203.414 137.194C201.348 140.269 199.507 143.536 197.789 146.882C196.072 150.237 194.478 153.675 192.9 157.145C191.313 160.615 189.762 164.122 188.004 167.606C187.124 169.345 186.188 171.078 185.082 172.777C183.998 174.465 182.626 176.194 180.93 177.536C179.247 178.896 177.318 179.884 175.388 180.584C173.451 181.29 171.51 181.744 169.613 182.154C165.818 182.951 162.155 183.609 158.655 184.741C155.158 185.852 151.841 187.428 148.798 189.473C147.276 190.487 145.824 191.62 144.437 192.833C143.742 193.442 143.063 194.07 142.405 194.722C141.756 195.347 141.112 196.059 140.363 196.767C137.457 199.561 133.906 201.735 130.087 202.993C126.274 204.281 122.283 204.751 118.375 204.775C114.46 204.799 110.598 204.402 106.787 203.865C99.1708 202.805 91.7127 201.158 84.1822 200.626C80.4116 200.377 76.6759 200.422 72.9589 201.163C69.0836 201.799 65.1761 201.684 61.3438 201.246L61.223 201.233L61.121 201.184C56.5722 198.922 52.1655 196.367 47.9789 193.488C43.7977 190.6 39.8043 187.441 36.0551 184.009C32.3114 180.576 28.8198 176.865 25.5726 172.949C22.3306 169.031 19.3946 164.855 16.719 160.518L16.5767 160.29L16.6009 159.989C16.8102 157.255 16.6358 154.499 16.1125 151.812C15.5918 149.12 14.725 146.498 13.6032 143.992C11.3462 138.976 8.10693 134.416 4.3551 130.38L4.12162 130.128L4.03305 129.757C2.23765 122.103 1.26346 114.237 1.21515 106.347C1.19637 98.4652 2.03637 90.5617 3.82641 82.8675C7.32597 67.4576 14.5774 52.9413 24.6118 40.819C34.6865 28.7235 47.4368 18.9682 61.6202 12.4629C65.1681 10.8365 68.7965 9.40343 72.4973 8.19039C76.1874 6.95052 79.9419 5.90924 83.7421 5.09607C91.3397 3.46437 99.1037 2.58411 106.868 2.62169ZM106.87 3.02961C91.4068 3.04571 75.9164 6.60432 62.1784 13.6196C48.4056 20.5462 36.2967 30.5967 26.9627 42.711C17.559 54.7743 10.8577 68.8504 7.37159 83.6914C5.6567 91.1199 4.69325 98.7255 4.59663 106.366C4.45976 114.001 5.1629 121.658 6.70603 129.164L6.38399 128.539C10.1868 132.87 13.4448 137.733 15.6696 143.101C16.778 145.779 17.6127 148.584 18.085 151.458C18.5546 154.327 18.6566 157.263 18.3453 160.15L18.2245 159.622C20.7097 163.977 23.5678 168.116 26.689 172.045C29.8021 175.979 33.2426 179.656 36.922 183.069C40.5987 186.486 44.5303 189.636 48.6847 192.452C52.8391 195.27 57.184 197.806 61.7088 199.971L61.4914 199.904C65.2379 200.285 69.0407 200.336 72.704 199.684C74.5557 199.303 76.5417 199.016 78.4659 198.909C80.4062 198.785 82.3466 198.791 84.2788 198.874C92.0106 199.233 99.5492 200.734 107.077 201.579C110.84 202.003 114.605 202.285 118.324 202.159C122.039 202.035 125.718 201.485 129.118 200.232C132.513 198.986 135.597 197.027 138.16 194.483C138.79 193.869 139.416 193.152 140.127 192.438C140.817 191.735 141.525 191.053 142.255 190.385C143.718 189.059 145.266 187.811 146.895 186.679C150.153 184.4 153.774 182.602 157.534 181.336C161.283 180.039 165.153 179.309 168.813 178.502C172.468 177.688 175.944 176.679 178.504 174.538C179.795 173.488 180.828 172.184 181.797 170.652C182.76 169.141 183.627 167.496 184.457 165.824C187.739 159.077 190.557 151.901 194.04 144.982C197.513 138.074 201.53 131.19 207.365 125.573L206.731 126.727C208.186 119.361 208.801 111.846 208.64 104.343C208.481 96.8416 207.512 89.3513 205.72 82.0597C202.137 67.479 195.379 53.6713 186.005 41.8415C176.679 29.9768 164.659 20.149 151.023 13.3914C137.424 6.54259 122.138 3.06718 106.87 3.02961Z" fill="#401F2A"/>
</g>
<mask id="mask4_371_15096" style="mask-type:luminance" maskUnits="userSpaceOnUse" x="0" y="1" width="106" height="213">
<path d="M0.628906 1.0957H105.667V213.343H0.628906V1.0957Z" fill="white"/>
</mask>
<g mask="url(#mask4_371_15096)">
<path d="M208.889 107.236C208.894 93.8579 206.269 80.4876 201.138 68.1399C196.026 55.7867 188.447 44.4695 178.995 35.0174C169.553 25.5627 158.25 17.9759 145.91 12.8634C133.576 7.7348 120.243 5.11281 106.862 5.12354C93.5345 5.11818 80.1696 7.74553 67.8487 12.8795C55.5143 17.9946 44.2186 25.5869 34.7853 35.0443C25.3413 44.4936 17.7705 55.8082 12.6688 68.1586C7.54559 80.5064 4.93702 93.8499 4.93433 107.242C4.92092 120.582 7.53754 133.966 12.6581 146.303C17.7598 158.651 25.3306 169.968 34.7746 179.417C44.2078 188.878 55.5063 196.467 67.8379 201.585C80.1696 206.716 93.4996 209.346 106.878 209.341C120.211 209.354 133.578 206.732 145.905 201.606C158.244 196.494 169.551 188.91 178.992 179.452C188.441 170.003 196.026 158.686 201.138 146.333C206.269 133.979 208.894 120.625 208.889 107.226V107.236ZM212.793 107.25C212.807 121.103 210.086 135.015 204.764 147.838C199.458 160.672 191.589 172.429 181.783 182.243C171.98 192.068 160.241 199.953 147.424 205.272C134.606 210.608 120.747 213.34 106.854 213.332C93.0139 213.345 79.1149 210.618 66.3029 205.288C53.4801 199.975 41.7361 192.093 31.9271 182.268C22.1128 172.451 14.2334 160.693 8.92234 147.852C3.59248 135.015 0.863138 121.13 0.87119 107.215C0.852404 93.3507 3.59248 79.4303 8.92234 66.6021C14.2361 53.7632 22.1155 42.0005 31.9325 32.1861C41.7415 22.361 53.4881 14.4817 66.3136 9.1679C79.131 3.83536 92.9978 1.11407 106.886 1.12749C120.731 1.12212 134.625 3.85415 147.432 9.19206C160.249 14.5112 171.988 22.3959 181.789 32.2237C191.595 42.0434 199.461 53.7981 204.766 66.6343C210.088 79.4625 212.807 93.3587 212.793 107.236V107.25Z" fill="#401F2A"/>
</g>
<mask id="mask5_371_15096" style="mask-type:luminance" maskUnits="userSpaceOnUse" x="100" y="116" width="6" height="35">
<path d="M100.516 116.795H105.668V150.459H100.516V116.795Z" fill="white"/>
</mask>
<g mask="url(#mask5_371_15096)">
<path d="M142.113 117.072C143.506 117.534 144.869 118.178 146.099 119.098C147.333 120.006 148.423 121.202 149.182 122.644C149.958 124.077 150.328 125.746 150.35 127.394C150.371 129.052 149.998 130.681 149.408 132.2C148.814 133.722 147.94 135.115 146.893 136.371C145.846 137.627 144.601 138.741 143.138 139.602C142.408 140.029 141.63 140.41 140.793 140.686C140.374 140.826 139.945 140.941 139.505 141.032L139.166 141.094L138.836 141.148L138.31 141.22C137.003 141.397 135.788 141.682 134.803 142.125C134.306 142.353 133.861 142.635 133.364 142.994C132.87 143.354 132.331 143.813 131.735 144.29C130.544 145.254 129.17 146.169 127.771 146.856C126.368 147.557 124.94 148.107 123.512 148.582C122.799 148.821 122.085 149.027 121.36 149.223L120.295 149.5C119.9 149.596 119.532 149.685 119.141 149.755C116.052 150.34 112.788 150.042 109.914 148.952C107.029 147.865 104.525 146.126 102.378 144.103L100.867 142.68L102.883 142.97C107.048 143.569 111.363 143.147 115.308 141.789C119.272 140.45 122.86 138.392 126.215 136.116C129.578 133.832 132.642 131.087 135.246 127.89C137.86 124.705 140.023 121.114 141.829 117.198L141.915 117.008L142.113 117.072ZM142.172 117.617C141.595 121.839 139.985 125.969 137.618 129.619C135.192 133.362 132.001 136.655 128.265 139.159C124.521 141.677 120.163 143.145 115.807 143.832C111.438 144.505 107.077 144.645 102.738 144.264L103.242 143.134C105.379 144.94 107.899 146.29 110.542 146.84C113.183 147.422 115.866 147.205 118.373 146.464C118.687 146.365 119.012 146.274 119.307 146.169L120.311 145.823C120.96 145.592 121.607 145.34 122.248 145.088C123.52 144.578 124.755 144.006 125.89 143.346C127.033 142.68 128.037 141.953 129.041 141.059C129.553 140.614 130.085 140.109 130.729 139.586C131.362 139.06 132.138 138.561 132.946 138.174C134.569 137.391 136.212 137.087 137.752 136.891L138.294 136.835L138.501 136.811L138.694 136.781C138.957 136.733 139.226 136.674 139.494 136.594C140.031 136.433 140.57 136.223 141.096 135.949C143.2 134.855 145.079 132.973 146.249 130.762C147.427 128.559 147.889 125.971 147.089 123.556C146.702 122.348 146.013 121.205 145.116 120.177C144.276 119.227 143.265 118.385 142.172 117.617Z" fill="#401F2A"/>
</g>
<mask id="mask6_371_15096" style="mask-type:luminance" maskUnits="userSpaceOnUse" x="68" y="68" width="38" height="78">
<path d="M68.9102 68.0171H105.666V145.652H68.9102V68.0171Z" fill="white"/>
</mask>
<g mask="url(#mask6_371_15096)">
<path d="M143.236 107.234C143.233 102.465 142.157 97.712 140.15 93.4314C138.158 89.1429 135.22 85.3695 131.771 82.3021C130.051 80.7562 128.178 79.409 126.235 78.2121C124.276 77.0312 122.225 76.0383 120.113 75.2224C115.873 73.5854 111.407 72.7561 106.842 72.7937C97.8759 72.7802 88.8854 76.3603 82.3693 82.7019C75.8479 89.0301 71.774 97.8998 71.4091 107.245C71.2292 111.863 71.9646 116.619 73.709 120.982C75.4293 125.357 78.0888 129.382 81.4676 132.662C83.1637 134.296 85.0262 135.746 87.0095 136.988C89.0062 138.215 91.1102 139.248 93.2948 140.031C97.6773 141.615 102.274 142.288 106.885 142.152C115.98 141.891 124.914 138.4 131.811 132.211C135.252 129.125 138.191 125.346 140.179 121.052C142.203 116.774 143.247 112.008 143.236 107.234ZM143.644 107.236C143.633 112.051 142.799 116.876 141.145 121.452C139.476 126.017 136.978 130.357 133.644 134.049C131.975 135.885 130.129 137.584 128.084 139.036C127.069 139.763 126.015 140.445 124.93 141.07C123.833 141.685 122.711 142.251 121.554 142.747C116.928 144.741 111.89 145.683 106.842 145.552C101.875 145.42 96.899 144.21 92.436 142.111C90.2004 141.059 88.0615 139.819 86.0809 138.381C84.0816 136.959 82.2298 135.351 80.5391 133.596C73.7171 126.618 69.5251 117.147 69.1762 107.218C69.0044 102.315 69.7559 97.2584 71.562 92.5861C73.344 87.903 76.1378 83.5929 79.6454 79.9699C83.1476 76.3469 87.3933 73.4163 92.0549 71.4196C94.3817 70.4132 96.8238 69.6698 99.3116 69.176C101.813 68.6822 104.309 68.4192 106.899 68.4326C111.909 68.4675 117.016 69.5249 121.624 71.5672C126.248 73.6095 130.37 76.677 133.687 80.3832C137.012 84.0921 139.508 88.437 141.18 93.0074C142.847 97.5858 143.652 102.419 143.644 107.236Z" fill="#401F2A"/>
</g>
<path d="M92.4151 178.996L87.775 176.339C87.0423 175.92 86.1084 176.175 85.6898 176.911C85.2711 177.643 85.526 178.577 86.2587 178.999L90.8988 181.653C91.6315 182.071 92.5654 181.817 92.9841 181.084C93.4028 180.349 93.1478 179.412 92.4151 178.996Z" fill="#401F2A"/>
<path d="M69.3242 167.531L67.6683 153.93C67.5636 153.09 66.8015 152.492 65.9641 152.596C65.1241 152.698 64.5284 153.461 64.633 154.301L66.2862 167.902C66.3909 168.742 67.153 169.343 67.9903 169.238C68.8304 169.133 69.4261 168.371 69.3242 167.531Z" fill="#401F2A"/>
<path d="M41.5164 120.424L51.1241 123.408C51.9292 123.661 52.788 123.207 53.0375 122.402C53.2844 121.594 52.8363 120.735 52.0285 120.486L42.4208 117.501C41.613 117.249 40.7569 117.703 40.5073 118.508C40.255 119.318 40.7086 120.174 41.5164 120.424Z" fill="#401F2A"/>
<path d="M49.923 98.6538L43.9625 92.0223C43.3989 91.3916 42.4301 91.3433 41.8021 91.9069C41.1741 92.4758 41.1258 93.442 41.6894 94.07L47.6526 100.701C48.2162 101.329 49.1823 101.383 49.8103 100.814C50.4383 100.248 50.4893 99.2817 49.923 98.6538Z" fill="#401F2A"/>
<path d="M46.8551 64.9839L51.8253 69.9595C52.4211 70.558 53.3899 70.558 53.9857 69.9595C54.5815 69.3611 54.5815 68.3923 53.9857 67.7965L49.0155 62.8155C48.4197 62.2197 47.4509 62.2197 46.8551 62.8155C46.2566 63.4166 46.2566 64.3855 46.8551 64.9839Z" fill="#401F2A"/>
<path d="M26.8639 85.2485L27.1967 89.5613C27.2638 90.404 27.9964 91.0346 28.8391 90.9702C29.6818 90.9058 30.3098 90.1705 30.2454 89.3278L29.9126 85.0151C29.8482 84.1697 29.1129 83.5417 28.2729 83.6061C27.4302 83.6705 26.7995 84.4085 26.8639 85.2485Z" fill="#401F2A"/>
<path d="M24.1604 119.112L26.1517 125.083C26.4174 125.885 27.2842 126.32 28.0866 126.049C28.8864 125.783 29.3185 124.917 29.0528 124.114L27.0588 118.14C26.7931 117.34 25.9289 116.906 25.1265 117.174C24.3267 117.442 23.8947 118.309 24.1604 119.112Z" fill="#401F2A"/>
<path d="M36.3454 146.609L39.6571 152.239C40.0865 152.967 41.0205 153.214 41.7504 152.782C42.4777 152.355 42.7193 151.413 42.2925 150.686L38.9808 145.055C38.5488 144.325 37.6148 144.081 36.8849 144.513C36.1576 144.94 35.916 145.882 36.3454 146.609Z" fill="#401F2A"/>
<path d="M60.4776 135.061L67.4311 133.73C68.263 133.571 68.8051 132.772 68.6468 131.94C68.4885 131.108 67.6887 130.563 66.8568 130.721L59.9033 132.055C59.074 132.213 58.5292 133.016 58.6875 133.845C58.8459 134.677 59.6483 135.222 60.4776 135.061Z" fill="#401F2A"/>
<path d="M64.3871 87.7068L66.3784 85.0526C66.8856 84.3763 66.7488 83.4182 66.0725 82.911C65.3962 82.4011 64.4381 82.5406 63.9309 83.2169L61.9422 85.8711C61.435 86.5474 61.5746 87.5055 62.2482 88.0127C62.9245 88.5199 63.8826 88.3831 64.3871 87.7068Z" fill="#401F2A"/>
<path d="M70.5307 64.2783L67.8818 58.307C67.5383 57.5314 66.6339 57.1852 65.861 57.5261C65.0908 57.8696 64.7419 58.774 65.0854 59.5496L67.7342 65.5209C68.0778 66.2911 68.9795 66.64 69.7497 66.2965C70.5226 65.9529 70.8715 65.0512 70.5307 64.2783Z" fill="#401F2A"/>
<path d="M77.011 40.6988L80.6555 42.6874C81.3962 43.0927 82.3274 42.8189 82.73 42.0755C83.1352 41.3348 82.8615 40.4036 82.1208 39.9983L78.4763 38.0124C77.7329 37.6045 76.8043 37.8809 76.4018 38.6216C75.9965 39.3623 76.2729 40.2962 77.011 40.6988Z" fill="#401F2A"/>
<path d="M61.8008 47.2469L52.8614 43.267C52.0885 42.9235 51.1841 43.2697 50.8432 44.0426C50.4997 44.8128 50.8486 45.7199 51.6188 46.0634L60.5583 50.0434C61.3285 50.3869 62.2329 50.0407 62.5764 49.2678C62.9226 48.4975 62.5737 47.5904 61.8008 47.2469Z" fill="#401F2A"/>
<path d="M91.2719 53.3122L96.8997 56.2965C97.6457 56.691 98.5716 56.4093 98.9688 55.6605C99.3633 54.9144 99.0788 53.9885 98.3328 53.5914L92.7023 50.6071C91.9536 50.2099 91.0304 50.497 90.6359 51.2431C90.2387 51.9892 90.5258 52.9177 91.2719 53.3122Z" fill="#401F2A"/>
<mask id="mask7_371_15096" style="mask-type:luminance" maskUnits="userSpaceOnUse" x="99" y="30" width="7" height="9">
<path d="M99.8281 30.23H105.668V38.4744H99.8281V30.23Z" fill="white"/>
</mask>
<g mask="url(#mask7_371_15096)">
<path d="M109.501 30.705L101.219 35.0124C100.47 35.4015 100.178 36.3247 100.567 37.0761C100.956 37.8276 101.879 38.1174 102.628 37.7283L110.91 33.4209C111.661 33.0318 111.954 32.1086 111.565 31.3571C111.176 30.6057 110.252 30.3159 109.501 30.705Z" fill="#401F2A"/>
</g>
<path d="M88.0083 27.5835L90.9899 28.249C91.8165 28.4342 92.6324 27.9135 92.8175 27.087C93 26.2657 92.4794 25.4472 91.6582 25.262L88.6739 24.5965C87.85 24.4113 87.0341 24.9319 86.849 25.7585C86.6665 26.5824 87.1871 27.401 88.0083 27.5835Z" fill="#401F2A"/>
<path d="M43.9991 182.182L54.9325 181.854C55.7752 181.827 56.4408 181.124 56.4139 180.276C56.3898 179.431 55.684 178.768 54.8413 178.795L43.9078 179.125C43.0625 179.149 42.4023 179.855 42.4264 180.7C42.4506 181.543 43.1564 182.208 43.9991 182.182Z" fill="#401F2A"/>
<path d="M79.0543 162.472L88.9921 157.827C89.7543 157.47 90.0871 156.56 89.7302 155.79C89.3705 155.025 88.4608 154.695 87.6959 155.052L77.7608 159.702C76.9959 160.059 76.6658 160.969 77.0228 161.734C77.3797 162.502 78.2895 162.832 79.0543 162.472Z" fill="#401F2A"/>
<path d="M74.5786 179.739L73.583 185.711C73.4461 186.545 74.0097 187.332 74.8416 187.471C75.6736 187.611 76.4653 187.047 76.5995 186.212L77.5925 180.244C77.732 179.407 77.1684 178.62 76.3365 178.481C75.5045 178.341 74.7128 178.905 74.5786 179.739Z" fill="#401F2A"/>
<mask id="mask8_371_15096" style="mask-type:luminance" maskUnits="userSpaceOnUse" x="100" y="183" width="6" height="8">
<path d="M100.516 183.438H105.668V190.308H100.516V183.438Z" fill="white"/>
</mask>
<g mask="url(#mask8_371_15096)">
<path d="M110.144 186.875L103.19 183.891C102.415 183.558 101.513 183.918 101.183 184.694C100.85 185.472 101.21 186.371 101.985 186.704L108.941 189.688C109.717 190.023 110.616 189.664 110.949 188.883C111.282 188.107 110.922 187.208 110.144 186.875Z" fill="#401F2A"/>
</g>
<mask id="mask9_371_15096" style="mask-type:luminance" maskUnits="userSpaceOnUse" x="99" y="155" width="7" height="6">
<path d="M99.1406 155.957H105.667V160.079H99.1406V155.957Z" fill="white"/>
</mask>
<g mask="url(#mask9_371_15096)">
<path d="M112.073 156.735L101.14 156.4C100.297 156.375 99.5913 157.038 99.5672 157.884C99.5404 158.729 100.206 159.435 101.049 159.462L111.979 159.792C112.822 159.819 113.528 159.153 113.555 158.31C113.579 157.465 112.916 156.759 112.073 156.735Z" fill="#401F2A"/>
</g>
<path d="M68.6982 20.2705C69.0632 21.2715 69.388 22.3021 69.6885 23.2494C69.9998 24.2102 70.2816 25.0556 70.7567 25.7882C71.2236 26.5236 71.9375 27.1864 72.7426 27.7795C73.5477 28.378 74.428 28.9148 75.3217 29.43C74.3072 29.2287 73.2981 29.0114 72.2837 28.692C71.2773 28.3726 70.236 27.9406 69.2887 27.2052C68.3359 26.4699 67.6113 25.5118 66.9807 24.6718C66.3473 23.8184 65.7596 23.024 65.1289 22.2457L68.6982 20.2705Z" fill="#401F2A"/>
<path d="M58.6318 25.8257C58.9485 26.773 59.3216 27.6265 59.8261 28.4906C60.3199 29.3467 60.9157 30.1706 61.5973 30.9462C62.9553 32.5001 64.6353 33.8661 66.4656 35.0416C64.3643 34.4887 62.2736 33.6997 60.3038 32.5242C59.3216 31.9392 58.3715 31.2548 57.4832 30.4631C56.603 29.6822 55.7603 28.7456 55.0625 27.7955L58.6318 25.8257Z" fill="#401F2A"/>
<path d="M49.7023 31.4536L49.6835 31.875C49.6808 31.9716 49.6647 32.0548 49.6701 32.1755C49.6674 32.4036 49.6808 32.6318 49.7077 32.8626C49.756 33.3242 49.8633 33.7884 50.0244 34.2447C50.3491 35.1598 50.8966 36.0535 51.6185 36.8532C53.065 38.4581 55.1368 39.6524 57.3536 40.4628C55 40.3072 52.5658 39.7839 50.3383 38.4447C49.2353 37.7711 48.1994 36.8801 47.3675 35.7529C46.9488 35.192 46.5838 34.5748 46.2967 33.9092C46.1491 33.5791 46.0229 33.2383 45.9129 32.8894C45.8565 32.723 45.8056 32.5137 45.7572 32.3231L45.6445 31.8696L49.7023 31.4536Z" fill="#401F2A"/>
<path d="M40.0427 39.4053L40.1071 40.2399C40.1313 40.4922 40.1688 40.7605 40.2144 41.0182C40.3111 41.5335 40.4479 42.0407 40.6385 42.5291C41.0169 43.5114 41.6127 44.4319 42.4097 45.2397C44.0065 46.8633 46.3118 47.9502 48.6896 48.6909C47.439 48.6507 46.175 48.5326 44.9136 48.2589C43.6523 47.9851 42.3883 47.5557 41.1886 46.8741C39.9944 46.1951 38.8806 45.2504 38.0057 44.0857C37.5656 43.506 37.1818 42.878 36.8598 42.2259C36.6961 41.8984 36.5512 41.571 36.4116 41.2248L36.0547 40.2453L40.0427 39.4053Z" fill="#401F2A"/>
<path d="M31.4857 47.5317C31.9902 49.8666 32.5404 52.0243 33.9386 53.7231C35.3288 55.4433 37.5777 56.5839 39.8991 57.3649C38.6673 57.3031 37.4301 57.1582 36.1902 56.8442C34.9557 56.5302 33.7105 56.0311 32.5833 55.2474C31.4508 54.4745 30.482 53.4359 29.693 52.3302C28.9013 51.2299 28.2598 50.0732 27.6641 48.9514L31.4857 47.5317Z" fill="#401F2A"/>
<path d="M24.3837 57.8179C24.8641 58.8431 25.374 59.7636 26.0073 60.6465C26.6353 61.5241 27.368 62.3292 28.2214 63.035C29.9202 64.4547 32.1047 65.4128 34.4208 65.979C32.0484 66.0864 29.5498 65.8046 27.1801 64.7902C25.9993 64.2856 24.8694 63.6093 23.8362 62.8015C22.803 62.0072 21.8476 61.0571 21.0156 60.1151L24.3837 57.8179Z" fill="#401F2A"/>
<path d="M19.4702 66.4302C19.7466 67.3561 20.1706 68.1987 20.7611 69.071C21.3407 69.9271 22.0385 70.751 22.8114 71.5212C24.3653 73.0563 26.1902 74.4115 28.2433 75.4206C25.9782 75.0556 23.7373 74.2827 21.6172 73.1744C20.5544 72.6135 19.5239 71.9667 18.5416 71.1777C18.0505 70.7858 17.5755 70.3565 17.1219 69.8814C16.8911 69.6426 16.6711 69.393 16.4591 69.1273C16.3517 69.0039 16.2363 68.8375 16.1263 68.6899L15.8633 68.3329L19.4702 66.4302Z" fill="#401F2A"/>
<path d="M15.0225 75.9443C16.2892 77.678 17.2607 79.3875 18.412 80.9521C18.9836 81.7331 19.5928 82.4845 20.2879 83.1528C20.983 83.8184 21.7693 84.4115 22.7006 84.8006C21.6915 84.7469 20.6744 84.4356 19.7216 84.0008C18.7662 83.5688 17.8645 83.0186 17.0057 82.4282C15.2828 81.2554 13.7128 79.9028 12.1562 78.8481L15.0225 75.9443Z" fill="#401F2A"/>
<path d="M81.5331 16.1775C81.3587 16.682 81.2353 16.9531 81.1199 17.3583C81.0125 17.7394 80.9293 18.1178 80.8837 18.4936C80.7898 19.2477 80.8461 19.9911 81.1386 20.7157C81.4204 21.4456 81.9679 22.1354 82.6469 22.7446C83.3232 23.3564 84.1202 23.8878 84.9388 24.3816C83.9995 24.2045 83.0548 23.9871 82.1155 23.6168C81.1869 23.2464 80.2369 22.715 79.4586 21.8724C78.6723 21.0458 78.1195 19.9347 77.843 18.8129C77.6981 18.252 77.6122 17.6858 77.5612 17.1195C77.5103 16.5828 77.5237 15.9172 77.5156 15.4932L81.5331 16.1775Z" fill="#401F2A"/>
<path d="M97.9861 13.6577C98.0773 15.4907 98.1632 17.2244 98.6114 18.8668C98.8341 19.688 99.1642 20.4851 99.6258 21.2365C100.085 21.988 100.675 22.6857 101.357 23.3218C100.495 22.9756 99.6526 22.5193 98.8771 21.9262C98.0988 21.3331 97.393 20.6032 96.7972 19.7954C95.5895 18.169 94.7844 16.3226 94.0195 14.6131L97.9861 13.6577Z" fill="#401F2A"/>
</g>
</svg>
