<svg width="318" height="638" viewBox="0 0 318 638" fill="none" xmlns="http://www.w3.org/2000/svg">
<mask id="mask0_371_14626" style="mask-type:luminance" maskUnits="userSpaceOnUse" x="0" y="0" width="318" height="638">
<path d="M317.333 0H0V637.333H317.333V0Z" fill="white"/>
</mask>
<g mask="url(#mask0_371_14626)">
<mask id="mask1_371_14626" style="mask-type:luminance" maskUnits="userSpaceOnUse" x="0" y="181" width="71" height="111">
<path d="M0 181.333H70.6667V292H0V181.333Z" fill="white"/>
</mask>
<g mask="url(#mask1_371_14626)">
<path d="M-0.412735 210.667C-10.1992 210.719 -19.9857 212.438 -29.0794 215.854C-38.2096 219.182 -46.6054 224.062 -54.2565 229.625C-61.9075 235.203 -68.8294 241.547 -75.0846 248.417C-81.2721 255.354 -86.6471 262.969 -91.0117 271.146L-102.126 291.974L-103.298 268.443C-103.809 258.292 -103.251 247.958 -100.934 237.667C-99.7252 232.536 -98.0117 227.406 -95.444 222.531C-92.8919 217.667 -89.3607 213.047 -84.8034 209.536C-82.5794 207.776 -79.9961 206.26 -77.4804 205.229C-74.97 204.182 -72.6732 203.344 -70.2096 202.531C-65.345 200.995 -60.3815 199.828 -55.4127 198.979C-45.4648 197.245 -35.5117 197.104 -25.9388 196.078C-21.1627 195.583 -16.4492 194.729 -12.1888 192.974C-10.0534 192.125 -8.06898 190.953 -6.30857 189.536C-5.3867 188.823 -4.72523 188.109 -3.71482 187.13C-2.68357 186.167 -1.53253 185.375 -0.329407 184.719C4.50914 182.109 9.8633 181.495 15.0352 181.469C20.2435 181.531 25.4102 182.417 30.405 183.917C40.3633 186.948 49.7748 192.708 56.7175 200.99C63.7279 209.203 67.8633 219.828 68.6914 230.375L69.6237 242.224L60.7696 235.073C56.5248 231.641 52.1133 228.328 47.4102 225.401C42.7435 222.401 37.8008 219.745 32.6446 217.51C27.4727 215.323 22.0716 213.536 16.5143 212.375C10.9623 211.219 5.29039 210.677 -0.412735 210.667ZM-0.402321 209.448C5.33205 209.443 11.0925 209.797 16.8216 210.432C22.5664 211.068 28.3164 211.974 34.0091 213.349C39.7123 214.672 45.3581 216.448 50.8633 218.672C56.3268 220.958 61.681 223.672 66.6706 226.969L58.7591 231.677C57.1081 222.849 53.681 214.672 48.3946 207.667C43.1237 200.682 36.0716 194.724 27.7904 190.797C23.6602 188.854 19.2279 187.391 14.6862 186.807C10.181 186.182 5.43622 186.448 1.49872 188.26C0.529968 188.734 -0.371071 189.302 -1.14711 189.979C-1.92316 190.661 -2.98566 191.677 -4.00648 192.453C-6.07941 194.062 -8.37628 195.349 -10.7357 196.391C-15.4909 198.453 -20.4857 199.365 -25.345 200.266C-30.2357 201.062 -35.069 201.802 -39.819 202.672C-44.569 203.583 -49.2409 204.656 -53.7773 206.026C-58.319 207.391 -62.7304 209.042 -66.9752 210.995C-69.0794 211.927 -71.2877 212.99 -73.1888 214.026C-75.0898 215.062 -76.6575 216.208 -78.194 217.557C-84.22 222.964 -87.5846 231.328 -89.1523 240.151C-90.7982 249.01 -90.7929 258.385 -90.2565 267.719L-102.543 265.021C-97.6679 255.786 -91.4388 247.26 -84.0742 239.901C-76.7877 232.453 -68.2304 226.328 -59.0169 221.719C-49.7982 217.104 -39.9492 214.104 -30.1054 212.177C-20.22 210.318 -10.3034 209.401 -0.402321 209.448Z" fill="#401F2A" fill-opacity="0.1"/>
</g>
<path d="M187.5 115.417C203.375 126.922 217.38 141.063 229.49 156.693C241.583 172.349 251.719 189.589 259.604 207.818C267.49 226.037 273.104 245.245 276.203 264.792C279.276 284.328 279.927 304.229 277.391 323.677C274.849 304.245 271.609 285.261 266.839 266.719C262.115 248.172 255.974 230.115 248.438 212.641C240.891 195.177 231.943 178.334 221.693 162.167C211.474 145.979 199.901 130.578 187.5 115.417Z" fill="#401F2A" fill-opacity="0.1"/>
<mask id="mask2_371_14626" style="mask-type:luminance" maskUnits="userSpaceOnUse" x="0" y="32" width="111" height="292">
<path d="M0 32H110.667V324H0V32Z" fill="white"/>
</mask>
<g mask="url(#mask2_371_14626)">
<path d="M-294.408 323.677C-297.028 276.073 -286.226 227.333 -263.746 184.5C-252.642 162.995 -238.46 143.089 -222.205 125.094C-205.835 107.172 -187.106 91.4271 -166.778 78.1354C-146.345 65.0313 -124.267 54.4427 -101.205 46.9011C-78.1057 39.5104 -54.1109 34.8282 -29.9495 33.6459C-5.81406 32.2969 18.4307 34.1667 41.9776 39.0261C65.488 44.0209 88.3265 51.9532 109.431 63.0209C87.2224 54.4219 64.2693 48.1823 40.9464 44.9063C29.2901 43.2344 17.5714 42.2032 5.84219 41.9636C-5.85052 41.7136 -17.637 42.0052 -29.262 43.1198C-52.538 45.3802 -75.5484 50.0938 -97.538 57.8282C-119.574 65.3959 -140.689 75.625 -160.184 88.3594C-179.798 100.901 -197.788 115.969 -213.788 132.922C-229.903 149.781 -243.752 168.776 -255.444 189.036C-278.715 229.682 -291.955 276.104 -294.408 323.677Z" fill="#401F2A" fill-opacity="0.1"/>
</g>
<mask id="mask3_371_14626" style="mask-type:luminance" maskUnits="userSpaceOnUse" x="0" y="6" width="317" height="605">
<path d="M0 6.66699H316.599V610.667H0V6.66699Z" fill="white"/>
</mask>
<g mask="url(#mask3_371_14626)">
<path d="M-0.411804 7.32331C22.4788 7.19831 45.3591 9.70352 67.7653 14.4431C78.9736 16.8129 90.0518 19.8129 100.937 23.4275C111.843 26.9744 122.578 31.0994 133.047 35.8389C174.948 54.7556 212.791 83.0889 242.932 118.339C273.036 153.61 295.12 195.974 306.557 241.183C312.323 263.766 315.521 287 316.213 310.308C316.885 333.625 314.791 357.011 310.291 379.881L309.901 381.907L308.406 383.329C300.609 390.756 293.812 399.412 287.672 408.584C281.51 417.75 276.021 427.495 270.896 437.474C265.771 447.469 261.01 457.73 256.297 468.073C251.573 478.417 246.942 488.875 241.698 499.261C239.062 504.448 236.271 509.615 232.974 514.688C229.739 519.719 225.646 524.87 220.588 528.875C215.567 532.933 209.807 535.875 204.052 537.964C198.265 540.068 192.479 541.422 186.817 542.641C175.494 545.021 164.562 546.985 154.119 550.355C143.682 553.672 133.786 558.37 124.708 564.464C120.166 567.495 115.833 570.865 111.687 574.485C109.619 576.302 107.593 578.172 105.63 580.115C103.687 581.985 101.771 584.105 99.5361 586.219C90.8643 594.547 80.2653 601.026 68.8695 604.782C57.4893 608.625 45.583 610.021 33.932 610.094C22.2445 610.167 10.7184 608.98 -0.651367 607.381C-23.3806 604.219 -45.6306 599.308 -68.1045 597.724C-79.3545 596.98 -90.5056 597.115 -101.594 599.329C-113.157 601.219 -124.818 600.881 -136.256 599.568L-136.615 599.532L-136.912 599.381C-150.495 592.636 -163.641 585.021 -176.136 576.433C-188.61 567.829 -200.526 558.407 -211.709 548.177C-222.886 537.938 -233.302 526.87 -242.995 515.198C-252.667 503.511 -261.422 491.063 -269.407 478.131L-269.834 477.448L-269.761 476.558C-269.136 468.396 -269.657 460.183 -271.219 452.167C-272.776 444.146 -275.36 436.329 -278.703 428.855C-285.438 413.901 -295.105 400.302 -306.302 388.266L-307 387.511L-307.261 386.407C-312.62 363.589 -315.532 340.136 -315.667 316.61C-315.724 293.105 -313.224 269.537 -307.881 246.594C-297.433 200.646 -275.797 157.365 -245.86 121.219C-215.792 85.1514 -177.75 56.0681 -135.427 36.6671C-124.844 31.8233 -114.011 27.5473 -102.974 23.9327C-91.9587 20.2348 -80.7608 17.1306 -69.4222 14.7035C-46.7451 9.84414 -23.5837 7.21914 -0.411804 7.32331ZM-0.401367 8.54206C-46.5472 8.58893 -92.7712 19.2035 -133.761 40.1202C-174.86 60.7712 -210.995 90.7452 -238.844 126.865C-266.901 162.834 -286.901 204.802 -297.302 249.052C-302.422 271.204 -305.297 293.886 -305.578 316.662C-305.985 339.427 -303.891 362.261 -299.287 384.646L-300.245 382.776C-288.896 395.698 -279.177 410.193 -272.542 426.193C-269.235 434.183 -266.74 442.547 -265.339 451.11C-263.933 459.667 -263.631 468.422 -264.558 477.037L-264.912 475.459C-257.5 488.448 -248.969 500.782 -239.662 512.5C-230.37 524.23 -220.104 535.193 -209.125 545.375C-198.151 555.558 -186.422 564.948 -174.021 573.344C-161.631 581.75 -148.667 589.313 -135.162 595.766L-135.808 595.573C-124.636 596.709 -113.287 596.855 -102.355 594.912C-96.8337 593.776 -90.9014 592.922 -85.1618 592.599C-79.3701 592.23 -73.5785 592.25 -67.8128 592.5C-44.7451 593.573 -22.2503 598.042 0.218414 600.563C11.4424 601.829 22.6716 602.667 33.7757 602.292C44.8539 601.927 55.833 600.287 65.9789 596.547C76.1143 592.834 85.3174 586.99 92.958 579.407C94.8434 577.573 96.7132 575.433 98.833 573.302C100.885 571.209 103.005 569.177 105.182 567.183C109.547 563.235 114.166 559.516 119.031 556.131C128.755 549.339 139.557 543.985 150.771 540.204C161.953 536.339 173.505 534.157 184.427 531.75C195.333 529.334 205.708 526.318 213.343 519.938C217.198 516.808 220.276 512.917 223.172 508.349C226.047 503.839 228.635 498.938 231.104 493.948C240.901 473.834 249.307 452.438 259.703 431.802C270.062 411.209 282.052 390.683 299.468 373.933L297.573 377.381C301.911 355.412 303.745 333.006 303.265 310.636C302.797 288.261 299.906 265.927 294.552 244.193C283.864 200.714 263.698 159.542 235.724 124.266C207.901 88.891 172.036 59.5837 131.343 39.4379C90.7653 19.016 45.1559 8.65664 -0.401367 8.54206Z" fill="#401F2A" fill-opacity="0.1"/>
</g>
<mask id="mask4_371_14626" style="mask-type:luminance" maskUnits="userSpaceOnUse" x="0" y="2" width="316" height="634">
<path d="M0 2.771H316V635.641H0V2.771Z" fill="white"/>
</mask>
<g mask="url(#mask4_371_14626)">
<path d="M304.015 319.255C304.03 279.365 296.192 239.5 280.884 202.677C265.629 165.849 243.009 132.099 214.812 103.917C186.634 75.724 152.905 53.1094 116.088 37.8594C79.2802 22.5677 39.499 14.75 -0.42807 14.7812C-40.1989 14.7656 -80.0791 22.599 -116.845 37.9115C-153.647 53.1667 -187.35 75.7969 -215.501 103.995C-243.678 132.172 -266.272 165.911 -281.491 202.734C-296.787 239.557 -304.564 279.339 -304.574 319.271C-304.616 359.052 -296.803 398.953 -281.522 435.745C-266.303 472.557 -243.709 506.307 -215.532 534.484C-187.381 562.693 -153.668 585.318 -116.871 600.578C-80.0791 615.88 -40.3031 623.724 -0.375977 623.708C39.4053 623.745 79.2906 615.927 116.072 600.641C152.89 585.396 186.629 562.786 214.801 534.589C243.004 506.411 265.629 472.661 280.884 435.833C296.192 398.995 304.03 359.182 304.015 319.224V319.255ZM315.66 319.297C315.702 360.604 307.577 402.083 291.702 440.318C275.869 478.589 252.39 513.646 223.129 542.911C193.879 572.208 158.853 595.719 120.603 611.573C82.3584 627.484 41.0042 635.63 -0.448914 635.604C-41.751 635.646 -83.2197 627.516 -121.449 611.62C-159.715 595.776 -194.756 572.271 -224.027 542.984C-253.319 513.714 -276.824 478.651 -292.673 440.359C-308.579 402.083 -316.725 360.688 -316.699 319.193C-316.756 277.849 -308.579 236.349 -292.673 198.094C-276.813 159.812 -253.308 124.745 -224.011 95.4792C-194.741 66.1823 -159.694 42.6875 -121.428 26.8437C-83.1729 10.9479 -41.7979 2.82812 -0.355164 2.86979C40.9521 2.85416 82.4156 10.9948 120.629 26.9167C158.874 42.776 193.895 66.2865 223.145 95.5833C252.405 124.865 275.879 159.917 291.707 198.193C307.588 236.448 315.702 277.875 315.66 319.255V319.297Z" fill="#401F2A" fill-opacity="0.1"/>
</g>
<mask id="mask5_371_14626" style="mask-type:luminance" maskUnits="userSpaceOnUse" x="0" y="348" width="131" height="100">
<path d="M0 348H130.667V448H0V348Z" fill="white"/>
</mask>
<g mask="url(#mask5_371_14626)">
<path d="M104.762 348.583C108.913 349.958 112.98 351.885 116.652 354.625C120.329 357.328 123.59 360.896 125.855 365.198C128.168 369.469 129.272 374.443 129.34 379.359C129.397 384.302 128.283 389.161 126.522 393.688C124.757 398.229 122.142 402.385 119.022 406.13C115.897 409.87 112.184 413.193 107.814 415.76C105.637 417.036 103.319 418.172 100.814 418.995C99.5742 419.411 98.2878 419.76 96.9753 420.026L95.9648 420.214L94.9857 420.37L93.4076 420.589C89.5117 421.115 85.8867 421.964 82.9492 423.286C81.4596 423.958 80.1367 424.807 78.6523 425.88C77.1784 426.953 75.5742 428.318 73.793 429.74C70.2357 432.615 66.1367 435.344 61.9596 437.396C57.7773 439.484 53.5117 441.125 49.2565 442.536C47.1211 443.255 44.9909 443.865 42.8346 444.448L39.6576 445.276C38.4805 445.562 37.3763 445.828 36.2148 446.031C26.9961 447.781 17.2565 446.896 8.67839 443.641C0.0690117 440.401 -7.39974 435.214 -13.8112 429.177L-18.3164 424.943L-12.306 425.807C0.126303 427.594 13.0013 426.333 24.7773 422.286C36.6055 418.286 47.3086 412.151 57.3242 405.365C67.3503 398.557 76.4961 390.375 84.2617 380.839C92.069 371.339 98.5169 360.635 103.908 348.958L104.168 348.391L104.762 348.583ZM104.934 350.208C103.21 362.797 98.4128 375.109 91.3451 385.995C84.1107 397.156 74.5794 406.974 63.4388 414.443C52.2617 421.943 39.2617 426.323 26.2669 428.375C13.2305 430.38 0.220051 430.797 -12.7383 429.667L-11.2279 426.292C-4.85807 431.682 2.66276 435.703 10.5482 437.344C18.4336 439.083 26.444 438.432 33.9232 436.224C34.8555 435.932 35.8242 435.656 36.7096 435.344L39.6992 434.312C41.6367 433.625 43.5742 432.865 45.4805 432.12C49.2826 430.599 52.9596 428.896 56.3503 426.927C59.7565 424.943 62.7565 422.776 65.7513 420.109C67.2773 418.776 68.8659 417.271 70.7878 415.714C72.6784 414.146 74.9961 412.656 77.3971 411.5C82.2461 409.172 87.1471 408.266 91.7409 407.682L93.3607 407.51L93.9753 407.438L94.5534 407.349C95.3398 407.214 96.1471 407.031 96.9388 406.786C98.543 406.307 100.158 405.682 101.725 404.87C108.001 401.604 113.605 395.995 117.1 389.406C120.616 382.833 121.991 375.12 119.611 367.917C118.454 364.318 116.392 360.906 113.72 357.844C111.21 355.016 108.199 352.495 104.934 350.208Z" fill="#401F2A" fill-opacity="0.1"/>
</g>
<mask id="mask6_371_14626" style="mask-type:luminance" maskUnits="userSpaceOnUse" x="0" y="202" width="111" height="233">
<path d="M0 202.667H110.667V434.667H0V202.667Z" fill="white"/>
</mask>
<g mask="url(#mask6_371_14626)">
<path d="M108.125 319.25C108.115 305.026 104.901 290.855 98.9118 278.094C92.9691 265.303 84.2035 254.058 73.9118 244.907C68.7816 240.297 63.1878 236.282 57.3858 232.714C51.5472 229.198 45.4222 226.23 39.1201 223.803C26.4743 218.917 13.1462 216.448 -0.473618 216.558C-27.2288 216.521 -54.0517 227.188 -73.4997 246.099C-92.958 264.969 -105.114 291.417 -106.203 319.282C-106.739 333.058 -104.547 347.23 -99.3434 360.245C-94.208 373.292 -86.2705 385.292 -76.1924 395.068C-71.1351 399.938 -65.5726 404.261 -59.6559 407.969C-53.6976 411.625 -47.4163 414.704 -40.8955 417.047C-27.8226 421.766 -14.1038 423.771 -0.343414 423.365C26.792 422.589 53.4482 412.178 74.0264 393.719C84.292 384.521 93.068 373.261 99.0003 360.448C105.037 347.698 108.157 333.485 108.125 319.25ZM109.344 319.256C109.308 333.615 106.818 348 101.886 361.646C96.9014 375.256 89.443 388.193 79.5003 399.209C74.516 404.678 69.0107 409.745 62.9118 414.068C59.8805 416.24 56.7347 418.271 53.4951 420.141C50.2243 421.969 46.8753 423.662 43.4274 425.141C29.6201 431.089 14.5837 433.891 -0.473618 433.5C-15.2965 433.11 -30.1455 429.506 -43.4632 423.245C-50.1299 420.11 -56.5153 416.412 -62.4268 412.12C-68.3903 407.881 -73.9215 403.084 -78.9632 397.849C-99.3174 377.047 -111.823 348.808 -112.864 319.198C-113.385 304.579 -111.14 289.506 -105.75 275.573C-100.432 261.605 -92.0986 248.756 -81.6299 237.959C-71.1768 227.151 -58.5101 218.412 -44.5986 212.464C-37.6559 209.459 -30.3695 207.245 -22.9476 205.766C-15.484 204.297 -8.03612 203.516 -0.312164 203.558C14.641 203.657 29.8858 206.808 43.6358 212.901C57.4274 218.99 69.7295 228.141 79.6305 239.183C89.5472 250.245 96.9951 263.198 101.985 276.829C106.964 290.48 109.36 304.896 109.344 319.256Z" fill="#401F2A" fill-opacity="0.1"/>
</g>
<mask id="mask7_371_14626" style="mask-type:luminance" maskUnits="userSpaceOnUse" x="0" y="89" width="15" height="25">
<path d="M0 89.3335H14.6667V113.333H0V89.3335Z" fill="white"/>
</mask>
<g mask="url(#mask7_371_14626)">
<path d="M7.44456 91.0574L-17.269 103.901C-19.5034 105.063 -20.3731 107.818 -19.2117 110.057C-18.0502 112.292 -15.295 113.162 -13.0606 112L11.6529 99.1615C13.8977 98.0001 14.7623 95.2449 13.6008 93.0001C12.4394 90.7657 9.68936 89.8959 7.44456 91.0574Z" fill="#401F2A" fill-opacity="0.1"/>
</g>
<path d="M256.499 356.323L269.348 361.282C271.696 362.183 274.337 361.011 275.243 358.662C276.144 356.308 274.978 353.667 272.624 352.756L259.78 347.808C257.426 346.896 254.785 348.073 253.884 350.422C252.978 352.782 254.155 355.422 256.499 356.323Z" fill="#401F2A" fill-opacity="0.1"/>
<mask id="mask8_371_14626" style="mask-type:luminance" maskUnits="userSpaceOnUse" x="0" y="546" width="14" height="21">
<path d="M0 546.667H13.3333V566.667H0V546.667Z" fill="white"/>
</mask>
<g mask="url(#mask8_371_14626)">
<path d="M9.35925 556.719L-11.3907 547.818C-13.7032 546.828 -16.3907 547.901 -17.3855 550.219C-18.3751 552.532 -17.3022 555.214 -14.9897 556.209L5.77071 565.104C8.08842 566.104 10.7655 565.032 11.7551 562.709C12.7551 560.391 11.677 557.709 9.35925 556.719Z" fill="#401F2A" fill-opacity="0.1"/>
</g>
<path d="M51.3486 541.146L65.1819 533.23C67.3694 531.98 68.1298 529.193 66.8694 527C65.6194 524.813 62.833 524.058 60.6507 525.308L46.8173 533.224C44.635 534.474 43.8798 537.261 45.1194 539.448C46.3798 541.641 49.1663 542.401 51.3486 541.146Z" fill="#401F2A" fill-opacity="0.1"/>
<path d="M124.771 500.146L129.719 459.589C130.021 457.084 128.24 454.808 125.74 454.511C123.24 454.198 120.964 455.979 120.662 458.485L115.719 499.042C115.407 501.547 117.188 503.823 119.688 504.13C122.193 504.438 124.464 502.651 124.771 500.146Z" fill="#401F2A" fill-opacity="0.1"/>
<path d="M214.236 322.458L185.569 331.38C183.163 332.13 181.814 334.682 182.569 337.094C183.319 339.5 185.876 340.839 188.277 340.094L216.939 331.177C219.345 330.432 220.694 327.87 219.944 325.464C219.199 323.052 216.642 321.708 214.236 322.458Z" fill="#401F2A" fill-opacity="0.1"/>
<path d="M164.168 304.849L181.954 285.083C183.632 283.208 183.481 280.323 181.611 278.63C179.736 276.948 176.85 277.094 175.168 278.974L157.382 298.745C155.694 300.615 155.85 303.505 157.725 305.188C159.595 306.87 162.475 306.724 164.168 304.849Z" fill="#401F2A" fill-opacity="0.1"/>
<path d="M176.323 186.818L161.5 201.656C159.724 203.432 159.724 206.328 161.5 208.109C163.286 209.885 166.172 209.885 167.958 208.109L182.781 193.271C184.557 191.479 184.557 188.594 182.771 186.807C180.995 185.026 178.099 185.026 176.323 186.818Z" fill="#401F2A" fill-opacity="0.1"/>
<path d="M233.324 253L232.335 265.849C232.137 268.365 234.012 270.562 236.522 270.755C239.043 270.953 241.236 269.073 241.428 266.557L242.418 253.698C242.616 251.187 240.741 248.995 238.23 248.797C235.71 248.604 233.517 250.479 233.324 253Z" fill="#401F2A" fill-opacity="0.1"/>
<path d="M208.364 372.078L202.442 389.87C201.646 392.26 202.937 394.849 205.328 395.646C207.724 396.443 210.302 395.151 211.099 392.755L217.021 374.958C217.817 372.568 216.526 369.984 214.135 369.188C211.739 368.391 209.161 369.682 208.364 372.078Z" fill="#401F2A" fill-opacity="0.1"/>
<path d="M206.262 432.021L196.377 448.813C195.096 450.979 195.814 453.787 197.991 455.063C200.163 456.344 202.955 455.615 204.241 453.443L214.122 436.657C215.398 434.485 214.674 431.683 212.507 430.407C210.33 429.12 207.538 429.844 206.262 432.021Z" fill="#401F2A" fill-opacity="0.1"/>
<path d="M163.703 395.266L142.943 391.308C140.463 390.839 138.078 392.464 137.604 394.933C137.135 397.412 138.76 399.802 141.234 400.271L161.995 404.229C164.463 404.698 166.854 403.073 167.333 400.604C167.802 398.125 166.177 395.735 163.703 395.266Z" fill="#401F2A" fill-opacity="0.1"/>
<path d="M137.746 255.552L131.808 247.636C130.298 245.62 127.438 245.209 125.423 246.724C123.407 248.24 122.996 251.099 124.516 253.115L130.444 261.026C131.959 263.042 134.819 263.448 136.834 261.938C138.85 260.427 139.256 257.568 137.746 255.552Z" fill="#401F2A" fill-opacity="0.1"/>
<path d="M120.47 194.87L128.371 177.063C129.397 174.755 128.356 172.057 126.048 171.031C123.751 170.016 121.054 171.052 120.033 173.359L112.126 191.162C111.106 193.474 112.147 196.162 114.449 197.188C116.751 198.208 119.444 197.167 120.47 194.87Z" fill="#401F2A" fill-opacity="0.1"/>
<path d="M88.4099 112.849L77.5349 118.771C75.3266 119.984 74.5037 122.755 75.7172 124.964C76.9151 127.182 79.686 127.995 81.9047 126.792L92.7797 120.859C94.988 119.656 95.811 116.88 94.5974 114.667C93.3943 112.458 90.6287 111.635 88.4099 112.849Z" fill="#401F2A" fill-opacity="0.1"/>
<path d="M141.86 148.724L168.553 136.854C170.855 135.828 171.897 133.13 170.876 130.834C169.844 128.521 167.152 127.49 164.844 128.516L138.157 140.391C135.86 141.412 134.818 144.11 135.844 146.412C136.865 148.719 139.563 149.75 141.86 148.724Z" fill="#401F2A" fill-opacity="0.1"/>
<path d="M45.9595 150.401L29.1574 159.297C26.9282 160.484 26.0845 163.25 27.2616 165.474C28.4387 167.703 31.2043 168.547 33.4282 167.37L50.2251 158.469C52.4491 157.292 53.3032 154.526 52.1262 152.302C50.9491 150.073 48.1834 149.224 45.9595 150.401Z" fill="#401F2A" fill-opacity="0.1"/>
<path d="M57.9685 72.8493L49.0779 74.8285C46.6144 75.3806 45.0675 77.8233 45.6196 80.2764C46.1612 82.7399 48.5987 84.292 51.0571 83.7399L59.9581 81.7556C62.4217 81.2087 63.9633 78.7712 63.4217 76.3076C62.8696 73.8493 60.4321 72.2972 57.9685 72.8493Z" fill="#401F2A" fill-opacity="0.1"/>
<mask id="mask9_371_14626" style="mask-type:luminance" maskUnits="userSpaceOnUse" x="0" y="465" width="20" height="11">
<path d="M0 465.333H20V476H0V465.333Z" fill="white"/>
</mask>
<g mask="url(#mask9_371_14626)">
<path d="M15.1194 466.844L-17.5004 465.844C-20.016 465.771 -22.1202 467.755 -22.1931 470.276C-22.2712 472.792 -20.292 474.896 -17.7764 474.979L14.8434 475.964C17.359 476.042 19.4632 474.062 19.5465 471.542C19.6194 469.021 17.635 466.917 15.1194 466.844Z" fill="#401F2A" fill-opacity="0.1"/>
</g>
<path d="M90.5479 475.693L60.8969 461.828C58.6156 460.766 55.9021 461.75 54.8292 464.031C53.7667 466.323 54.7563 469.037 57.0375 470.104L86.6886 483.958C88.975 485.031 91.6834 484.042 92.7511 481.755C93.824 479.474 92.8292 476.76 90.5479 475.693Z" fill="#401F2A" fill-opacity="0.1"/>
<path d="M91.0424 536.938L94.0007 554.745C94.4122 557.23 96.7611 558.912 99.2455 558.5C101.74 558.084 103.412 555.735 103.001 553.25L100.042 535.443C99.6309 532.953 97.282 531.271 94.7976 531.688C92.3132 532.105 90.6309 534.453 91.0424 536.938Z" fill="#401F2A" fill-opacity="0.1"/>
<path d="M13.5621 41.8333L13.3433 42.2448L13.1871 42.4792L13.01 42.5417C12.8381 42.7604 12.7131 43.0781 12.6037 43.4271C12.3798 44.151 12.2756 45.0677 12.286 46.0625C12.2912 48.0469 12.6923 50.2708 13.2912 52.4896C13.8954 54.7083 14.7027 56.9375 15.6714 59.1198C16.6454 61.3177 17.7496 63.4635 19.1246 65.5C17.0464 64.1927 15.0777 62.6146 13.2131 60.9167C11.3485 59.2083 9.57249 57.375 7.91624 55.3438C6.27561 53.2969 4.72353 51.0938 3.47353 48.4271C2.84853 47.0938 2.30166 45.6302 1.96832 43.9427C1.80687 43.0938 1.67666 42.2031 1.67666 41.224C1.64541 40.8021 1.7027 40.1302 1.78082 39.5104C1.83291 39.1354 1.83811 39.0313 1.84853 38.8802L1.87978 38.4219L13.5621 41.8333Z" fill="#401F2A" fill-opacity="0.1"/>
<path d="M43.2122 39.0991C43.5508 42.12 43.9831 44.8647 44.7383 47.6408C45.4883 50.37 46.5352 53.0002 47.9779 55.5366C50.8529 60.6252 55.306 65.1616 60.056 69.3127C54.2487 66.8647 48.4206 63.995 43.3008 59.4325C40.7487 57.1616 38.4518 54.4741 36.5039 51.5731C34.5716 48.6929 32.931 45.5314 31.5508 42.5522L43.2122 39.0991Z" fill="#401F2A" fill-opacity="0.1"/>
</g>
</svg>
