<svg width="205" height="280" viewBox="0 0 205 280" fill="none" xmlns="http://www.w3.org/2000/svg">
<mask id="mask0_371_14706" style="mask-type:luminance" maskUnits="userSpaceOnUse" x="0" y="-135" width="206" height="415">
<path d="M205.333 -135H0V279.667H205.333V-135Z" fill="white"/>
</mask>
<g mask="url(#mask0_371_14706)">
<mask id="mask1_371_14706" style="mask-type:luminance" maskUnits="userSpaceOnUse" x="138" y="-18" width="67" height="74">
<path d="M138.664 -17.6665H204.664V55.6668H138.664V-17.6665Z" fill="white"/>
</mask>
<g mask="url(#mask1_371_14706)">
<path d="M206.992 2.43783C200.627 2.46908 194.262 3.58887 188.346 5.81283C182.408 7.97949 176.945 11.1566 171.971 14.7764C166.997 18.4066 162.497 22.5368 158.429 27.0055C154.403 31.5264 150.903 36.4795 148.07 41.8024L140.835 55.3597L140.075 40.042C139.742 33.4326 140.106 26.7087 141.611 20.0107C142.398 16.6722 143.512 13.3337 145.184 10.1618C146.841 6.98991 149.143 3.98991 152.106 1.70345C153.554 0.552408 155.231 -0.426756 156.867 -1.09863C158.502 -1.78092 159.997 -2.3278 161.596 -2.85905C164.762 -3.85905 167.986 -4.61947 171.221 -5.16634C177.689 -6.30176 184.163 -6.3903 190.393 -7.05697C193.497 -7.37988 196.559 -7.93717 199.335 -9.0778C200.721 -9.63509 202.012 -10.3955 203.158 -11.3122C203.757 -11.7809 204.189 -12.2445 204.846 -12.8799C205.512 -13.5101 206.262 -14.0205 207.044 -14.4528C210.195 -16.1507 213.674 -16.5518 217.038 -16.5674C220.429 -16.5257 223.788 -15.9476 227.033 -14.9736C233.512 -12.9997 239.632 -9.24967 244.148 -3.86426C248.71 1.4847 251.398 8.40137 251.934 15.266L252.544 22.9743L246.783 18.3232C244.023 16.0889 241.153 13.9326 238.096 12.0264C235.059 10.0732 231.846 8.34408 228.492 6.89095C225.127 5.46908 221.617 4.30241 218.002 3.5472C214.387 2.7972 210.7 2.44303 206.992 2.43783ZM206.997 1.64616C210.726 1.64095 214.471 1.87012 218.205 2.28679C221.939 2.69824 225.679 3.29199 229.382 4.18262C233.091 5.0472 236.757 6.19824 240.341 7.64616C243.898 9.13574 247.377 10.9014 250.622 13.0472L245.476 16.1097C244.403 10.3649 242.174 5.0472 238.736 0.484701C235.309 -4.06217 230.721 -7.94238 225.335 -10.4945C222.653 -11.7601 219.768 -12.7132 216.814 -13.0934C213.882 -13.4997 210.799 -13.3226 208.236 -12.1455C207.606 -11.8382 207.018 -11.4684 206.512 -11.0309C206.012 -10.583 205.32 -9.92155 204.653 -9.41634C203.304 -8.36947 201.809 -7.53092 200.278 -6.85384C197.184 -5.51009 193.934 -4.92155 190.778 -4.33301C187.596 -3.81217 184.455 -3.33301 181.361 -2.7653C178.273 -2.17676 175.236 -1.47884 172.283 -0.583008C169.33 0.307617 166.46 1.38054 163.7 2.65137C162.33 3.25554 160.893 3.94824 159.658 4.62012C158.424 5.2972 157.403 6.0472 156.403 6.9222C152.486 10.443 150.299 15.8857 149.278 21.6253C148.205 27.391 148.21 33.4951 148.559 39.568L140.57 37.8128C143.736 31.8024 147.788 26.2555 152.58 21.4639C157.32 16.6201 162.887 12.6305 168.877 9.63054C174.872 6.62533 181.278 4.67741 187.679 3.4222C194.111 2.20866 200.559 1.61491 206.997 1.64616Z" fill="#401F2A"/>
</g>
<mask id="mask2_371_14706" style="mask-type:luminance" maskUnits="userSpaceOnUse" x="14" y="-114" width="191" height="191">
<path d="M14.6641 -113.667H204.664V77.0002H14.6641V-113.667Z" fill="white"/>
</mask>
<g mask="url(#mask2_371_14706)">
<path d="M15.7829 75.9896C14.0746 45.0052 21.1006 13.2864 35.7204 -14.5938C42.9444 -28.5886 52.1683 -41.5469 62.7413 -53.2604C73.3871 -64.9219 85.5694 -75.1719 98.7881 -83.8229C112.08 -92.3542 126.439 -99.2448 141.439 -104.156C156.46 -108.964 172.064 -112.01 187.783 -112.781C203.481 -113.661 219.246 -112.443 234.564 -109.281C249.856 -106.026 264.71 -100.865 278.434 -93.6615C263.991 -99.2552 249.064 -103.318 233.892 -105.448C226.309 -106.542 218.689 -107.214 211.059 -107.365C203.455 -107.531 195.788 -107.339 188.231 -106.615C173.09 -105.146 158.127 -102.078 143.819 -97.0417C129.491 -92.1146 115.757 -85.4584 103.08 -77.1667C90.3194 -69.0052 78.6215 -59.1979 68.2152 -48.1667C57.736 -37.1927 48.7256 -24.8281 41.1215 -11.6406C25.986 14.8125 17.3767 45.026 15.7829 75.9896Z" fill="#401F2A"/>
</g>
<mask id="mask3_371_14706" style="mask-type:luminance" maskUnits="userSpaceOnUse" x="1" y="-131" width="204" height="395">
<path d="M1.33203 -131H204.665V263.667H1.33203V-131Z" fill="white"/>
</mask>
<g mask="url(#mask3_371_14706)">
<path d="M206.995 -129.912C221.881 -129.995 236.761 -128.365 251.339 -125.281C258.626 -123.734 265.834 -121.787 272.912 -119.432C280.006 -117.125 286.99 -114.438 293.797 -111.354C321.047 -99.0417 345.662 -80.599 365.261 -57.6563C384.844 -34.698 399.209 -7.12505 406.646 22.2968C410.396 37 412.475 52.1198 412.928 67.2916C413.365 82.4635 412.001 97.6875 409.074 112.573L408.824 113.891L407.85 114.818C402.777 119.651 398.355 125.281 394.365 131.255C390.355 137.224 386.782 143.562 383.449 150.057C380.115 156.568 377.021 163.24 373.959 169.974C370.881 176.708 367.87 183.516 364.459 190.276C362.751 193.651 360.933 197.016 358.787 200.312C356.683 203.589 354.021 206.943 350.73 209.547C347.464 212.187 343.719 214.104 339.975 215.464C336.214 216.833 332.449 217.714 328.766 218.51C321.402 220.057 314.292 221.333 307.501 223.531C300.714 225.687 294.277 228.745 288.37 232.714C285.417 234.682 282.6 236.88 279.907 239.234C278.558 240.417 277.24 241.635 275.964 242.901C274.704 244.115 273.454 245.495 272.001 246.87C266.36 252.292 259.469 256.51 252.058 258.953C244.657 261.453 236.912 262.365 229.329 262.411C221.73 262.458 214.235 261.687 206.839 260.646C192.058 258.589 177.584 255.391 162.969 254.359C155.652 253.875 148.402 253.964 141.188 255.401C133.667 256.635 126.084 256.411 118.646 255.562L118.412 255.536L118.214 255.443C109.386 251.052 100.834 246.094 92.7089 240.505C84.5944 234.901 76.8443 228.771 69.5683 222.109C62.3027 215.448 55.5266 208.245 49.2246 200.646C42.9329 193.042 37.235 184.937 32.0423 176.521L31.7662 176.078L31.8131 175.495C32.2193 170.187 31.8808 164.839 30.8652 159.625C29.8548 154.401 28.1725 149.312 25.9954 144.448C21.6152 134.714 15.3287 125.865 8.04747 118.031L7.59435 117.542L7.42247 116.823C3.9381 101.969 2.04747 86.7031 1.95372 71.3906C1.91726 56.0937 3.54747 40.7552 7.02143 25.8229C13.8131 -4.08338 27.886 -32.2553 47.36 -55.7813C66.9121 -79.2553 91.6569 -98.1875 119.183 -110.813C126.068 -113.969 133.11 -116.75 140.292 -119.104C147.454 -121.51 154.74 -123.531 162.115 -125.109C176.86 -128.276 191.928 -129.984 206.995 -129.912ZM207.001 -129.12C176.99 -129.089 146.928 -122.182 120.266 -108.568C93.5371 -95.125 70.0371 -75.6198 51.9225 -52.1094C33.6725 -28.698 20.6673 -1.38025 13.9016 27.4218C10.5735 41.8385 8.70372 56.5989 8.51622 71.427C8.2506 86.2448 9.61518 101.104 12.61 115.672L11.985 114.458C19.3652 122.865 25.6881 132.302 30.0058 142.719C32.1568 147.917 33.7766 153.359 34.6933 158.937C35.6048 164.505 35.8027 170.203 35.1985 175.807L34.9641 174.781C39.7871 183.234 45.3339 191.266 51.3912 198.891C57.4329 206.526 64.11 213.661 71.2506 220.286C78.386 226.917 86.0162 233.031 94.0787 238.495C102.141 243.964 110.574 248.885 119.355 253.089L118.933 252.958C126.204 253.698 133.584 253.797 140.693 252.531C144.287 251.792 148.141 251.234 151.876 251.026C155.641 250.786 159.407 250.797 163.157 250.958C178.162 251.656 192.792 254.568 207.402 256.208C214.704 257.031 222.011 257.578 229.23 257.333C236.438 257.094 243.579 256.026 250.178 253.594C256.766 251.177 262.751 247.375 267.725 242.437C268.949 241.245 270.162 239.854 271.542 238.469C272.881 237.104 274.256 235.781 275.672 234.484C278.511 231.911 281.516 229.49 284.678 227.292C291.001 222.87 298.027 219.38 305.324 216.922C312.6 214.406 320.11 212.99 327.214 211.422C334.308 209.844 341.053 207.885 346.021 203.729C348.527 201.693 350.532 199.161 352.412 196.187C354.282 193.255 355.964 190.062 357.574 186.818C363.943 173.724 369.412 159.797 376.172 146.37C382.912 132.964 390.709 119.604 402.032 108.703L400.803 110.943C403.626 96.6458 404.818 82.0625 404.506 67.5C404.199 52.9427 402.318 38.4062 398.839 24.2552C391.886 -4.04172 378.771 -30.8386 360.579 -53.7969C342.48 -76.823 319.152 -95.8959 292.688 -109.01C266.297 -122.302 236.631 -129.047 207.001 -129.12Z" fill="#401F2A"/>
</g>
<mask id="mask4_371_14706" style="mask-type:luminance" maskUnits="userSpaceOnUse" x="0" y="-133" width="205" height="413">
<path d="M0.816406 -132.875H204.665V279.036H0.816406V-132.875Z" fill="white"/>
</mask>
<g mask="url(#mask4_371_14706)">
<path d="M404.988 73.1147C404.999 47.1512 399.905 21.2032 389.947 -2.76031C380.025 -26.7343 365.317 -48.6978 346.973 -67.0416C328.65 -85.3905 306.712 -100.114 282.765 -110.036C258.827 -119.989 232.952 -125.078 206.983 -125.057C181.119 -125.068 155.181 -119.969 131.27 -110.005C107.332 -100.078 85.4103 -85.3437 67.1031 -66.9895C48.7749 -48.6509 34.0822 -26.6926 24.1812 -2.72386C14.2385 21.2397 9.17597 47.1355 9.17076 73.1251C9.14472 99.0157 14.2228 124.99 24.1603 148.932C34.0614 172.896 48.7541 194.859 67.0822 213.198C85.3895 231.557 107.317 246.287 131.249 256.219C155.181 266.177 181.051 271.281 207.015 271.271C232.89 271.297 258.832 266.208 282.754 256.26C306.702 246.339 328.645 231.62 346.968 213.266C365.306 194.927 380.025 172.964 389.947 148.99C399.905 125.016 404.999 99.0991 404.988 73.0939V73.1147ZM412.567 73.1407C412.593 100.026 407.311 127.026 396.983 151.912C386.686 176.818 371.416 199.635 352.384 218.682C333.358 237.75 310.577 253.052 285.702 263.375C260.827 273.729 233.931 279.031 206.968 279.016C180.108 279.042 153.134 273.75 128.27 263.406C103.384 253.094 80.5926 237.797 61.5562 218.729C42.5093 199.677 27.2176 176.859 16.9103 151.938C6.56659 127.026 1.26972 100.078 1.28534 73.073C1.24888 46.1668 6.56659 19.1511 16.9103 -5.7447C27.2228 -30.6614 42.5145 -53.4895 61.5666 -72.5364C80.6031 -91.6041 103.4 -106.896 128.291 -117.208C153.166 -127.557 180.077 -132.838 207.03 -132.812C233.9 -132.823 260.863 -127.521 285.718 -117.161C310.593 -106.838 333.374 -91.5364 352.395 -72.4634C371.426 -53.4062 386.692 -30.5937 396.988 -5.6822C407.317 19.2136 412.593 46.1824 412.567 73.1147V73.1407Z" fill="#401F2A"/>
</g>
<mask id="mask5_371_14706" style="mask-type:luminance" maskUnits="userSpaceOnUse" x="194" y="91" width="11" height="66">
<path d="M194.664 91.6665H204.664V157H194.664V91.6665Z" fill="white"/>
</mask>
<g mask="url(#mask5_371_14706)">
<path d="M275.395 92.2031C278.098 93.099 280.743 94.349 283.129 96.1354C285.525 97.8958 287.639 100.219 289.113 103.016C290.618 105.797 291.337 109.036 291.379 112.234C291.421 115.453 290.697 118.615 289.551 121.563C288.4 124.516 286.702 127.219 284.671 129.656C282.639 132.094 280.223 134.255 277.384 135.927C275.967 136.755 274.457 137.495 272.832 138.031C272.02 138.302 271.186 138.526 270.332 138.703L269.676 138.823L269.035 138.927L268.014 139.068C265.478 139.411 263.118 139.964 261.207 140.823C260.243 141.266 259.379 141.813 258.415 142.51C257.457 143.208 256.41 144.099 255.254 145.026C252.941 146.896 250.275 148.672 247.561 150.005C244.837 151.365 242.066 152.432 239.296 153.354C237.91 153.818 236.525 154.219 235.118 154.599L233.051 155.135C232.285 155.323 231.572 155.495 230.811 155.63C224.816 156.766 218.483 156.188 212.905 154.073C207.306 151.964 202.447 148.589 198.28 144.661L195.348 141.901L199.259 142.464C207.342 143.625 215.717 142.807 223.374 140.172C231.066 137.573 238.03 133.578 244.54 129.161C251.066 124.729 257.014 119.401 262.066 113.198C267.139 107.016 271.337 100.047 274.842 92.4479L275.009 92.0781L275.395 92.2031ZM275.509 93.2604C274.389 101.453 271.264 109.469 266.671 116.552C261.962 123.818 255.77 130.208 248.52 135.068C241.254 139.953 232.796 142.802 224.342 144.135C215.863 145.443 207.4 145.714 198.978 144.974L199.957 142.781C204.103 146.286 208.993 148.906 214.124 149.974C219.249 151.104 224.457 150.682 229.322 149.245C229.931 149.052 230.561 148.875 231.134 148.672L233.082 148C234.342 147.552 235.598 147.063 236.842 146.573C239.311 145.583 241.707 144.474 243.91 143.193C246.129 141.901 248.077 140.49 250.025 138.755C251.02 137.891 252.051 136.911 253.301 135.896C254.53 134.875 256.035 133.906 257.603 133.156C260.754 131.635 263.941 131.047 266.931 130.667L267.983 130.557L268.384 130.51L268.759 130.453C269.27 130.359 269.79 130.245 270.311 130.089C271.353 129.776 272.4 129.37 273.421 128.839C277.504 126.714 281.15 123.063 283.421 118.771C285.707 114.495 286.603 109.474 285.051 104.786C284.301 102.443 282.962 100.224 281.223 98.2292C279.592 96.3854 277.629 94.75 275.509 93.2604Z" fill="#401F2A"/>
</g>
<mask id="mask6_371_14706" style="mask-type:luminance" maskUnits="userSpaceOnUse" x="133" y="-3" width="72" height="151">
<path d="M133.332 -3H204.665V147.667H133.332V-3Z" fill="white"/>
</mask>
<g mask="url(#mask6_371_14706)">
<path d="M277.58 73.1092C277.575 63.854 275.486 54.63 271.591 46.3227C267.726 37.9998 262.023 30.6769 255.33 24.7238C251.992 21.7238 248.356 19.1092 244.585 16.7863C240.783 14.4946 236.804 12.5675 232.705 10.9842C224.476 7.8071 215.809 6.19773 206.95 6.27064C189.549 6.2446 172.101 13.1925 159.455 25.4998C146.799 37.7811 138.893 54.9946 138.184 73.13C137.835 82.0936 139.262 91.3227 142.648 99.7915C145.986 108.281 151.148 116.094 157.705 122.458C160.997 125.63 164.611 128.443 168.46 130.854C172.335 133.234 176.419 135.239 180.658 136.76C189.163 139.833 198.085 141.14 207.033 140.875C224.684 140.37 242.023 133.594 255.408 121.583C262.085 115.594 267.788 108.26 271.648 99.9269C275.575 91.6248 277.601 82.3748 277.58 73.1092ZM278.372 73.1144C278.351 82.4581 276.731 91.8227 273.523 100.703C270.283 109.562 265.434 117.984 258.966 125.151C255.726 128.713 252.143 132.01 248.174 134.828C246.205 136.239 244.158 137.562 242.054 138.776C239.924 139.969 237.747 141.068 235.502 142.031C226.523 145.901 216.747 147.729 206.95 147.474C197.309 147.219 187.653 144.87 178.992 140.797C174.653 138.755 170.502 136.349 166.658 133.557C162.778 130.797 159.184 127.677 155.903 124.271C142.663 110.729 134.528 92.3488 133.851 73.0779C133.518 63.5623 134.976 53.7498 138.481 44.6821C141.94 35.5936 147.361 27.229 154.169 20.1977C160.966 13.1665 169.205 7.47898 178.252 3.60398C182.768 1.65085 187.507 0.208143 192.335 -0.75019C197.19 -1.70852 202.033 -2.21894 207.059 -2.1929C216.783 -2.12519 226.695 -0.0731077 235.637 3.89044C244.611 7.85398 252.611 13.8071 259.049 20.9998C265.502 28.1977 270.346 36.63 273.591 45.4998C276.825 54.3852 278.387 63.7654 278.372 73.1144Z" fill="#401F2A"/>
</g>
<path d="M178.947 212.38L169.942 207.224C168.52 206.411 166.707 206.906 165.895 208.333C165.082 209.755 165.577 211.568 166.999 212.385L176.004 217.536C177.426 218.349 179.239 217.854 180.051 216.432C180.864 215.005 180.369 213.187 178.947 212.38Z" fill="#401F2A"/>
<path d="M134.135 190.13L130.922 163.735C130.718 162.104 129.239 160.943 127.614 161.146C125.984 161.344 124.828 162.823 125.031 164.453L128.239 190.849C128.442 192.479 129.922 193.646 131.547 193.443C133.177 193.24 134.333 191.761 134.135 190.13Z" fill="#401F2A"/>
<path d="M80.1641 98.7082L98.8099 104.5C100.372 104.989 102.039 104.109 102.523 102.547C103.003 100.979 102.133 99.3124 100.565 98.828L81.9193 93.0363C80.3516 92.5467 78.6901 93.427 78.2057 94.9895C77.7161 96.5624 78.5964 98.2238 80.1641 98.7082Z" fill="#401F2A"/>
<path d="M96.4831 56.4585L84.9154 43.5887C83.8217 42.3648 81.9415 42.271 80.7227 43.3648C79.504 44.4689 79.4102 46.3439 80.504 47.5627L92.0769 60.4325C93.1706 61.6512 95.0456 61.7554 96.2644 60.6512C97.4831 59.5523 97.5821 57.6773 96.4831 56.4585Z" fill="#401F2A"/>
<path d="M90.5234 -8.88542L100.169 0.770834C101.326 1.93229 103.206 1.93229 104.362 0.770834C105.518 -0.390625 105.518 -2.27083 104.362 -3.42708L94.7161 -13.0937C93.5599 -14.25 91.6797 -14.25 90.5234 -13.0937C89.362 -11.9271 89.362 -10.0469 90.5234 -8.88542Z" fill="#401F2A"/>
<path d="M51.7275 30.4429L52.3734 38.8127C52.5036 40.4481 53.9254 41.6721 55.5609 41.5471C57.1963 41.4221 58.415 39.995 58.29 38.3596L57.6442 29.9898C57.5192 28.3491 56.0921 27.1304 54.4619 27.2554C52.8265 27.3804 51.6025 28.8127 51.7275 30.4429Z" fill="#401F2A"/>
<path d="M46.484 96.1615L50.3486 107.75C50.8642 109.307 52.5465 110.151 54.1038 109.625C55.6559 109.109 56.4944 107.427 55.9788 105.87L52.109 94.2761C51.5934 92.724 49.9163 91.8802 48.359 92.4011C46.8069 92.9219 45.9684 94.6042 46.484 96.1615Z" fill="#401F2A"/>
<path d="M70.1353 149.526L76.5624 160.453C77.3957 161.864 79.2082 162.344 80.6249 161.505C82.0363 160.677 82.5051 158.849 81.677 157.437L75.2499 146.51C74.4113 145.094 72.5988 144.62 71.1822 145.458C69.7707 146.286 69.302 148.114 70.1353 149.526Z" fill="#401F2A"/>
<path d="M116.961 127.115L130.455 124.531C132.07 124.224 133.122 122.672 132.815 121.057C132.508 119.443 130.955 118.385 129.341 118.693L115.846 121.281C114.237 121.589 113.179 123.146 113.487 124.755C113.794 126.37 115.351 127.427 116.961 127.115Z" fill="#401F2A"/>
<path d="M124.556 35.2135L128.421 30.0625C129.405 28.75 129.14 26.8906 127.827 25.9062C126.515 24.9167 124.655 25.1875 123.671 26.5L119.812 31.651C118.827 32.9635 119.098 34.8229 120.405 35.8073C121.718 36.7917 123.577 36.526 124.556 35.2135Z" fill="#401F2A"/>
<path d="M84.9869 218.563L106.206 217.927C107.841 217.875 109.133 216.511 109.081 214.865C109.034 213.224 107.664 211.938 106.029 211.99L84.8098 212.63C83.1692 212.677 81.888 214.047 81.9348 215.688C81.9817 217.323 83.3515 218.615 84.9869 218.563Z" fill="#401F2A"/>
<path d="M153.015 180.313L172.301 171.297C173.78 170.604 174.426 168.839 173.734 167.344C173.036 165.859 171.27 165.219 169.786 165.911L150.504 174.938C149.02 175.63 148.379 177.396 149.072 178.88C149.765 180.37 151.53 181.01 153.015 180.313Z" fill="#401F2A"/>
<path d="M144.331 213.823L142.399 225.411C142.133 227.031 143.227 228.557 144.842 228.828C146.456 229.099 147.993 228.005 148.253 226.385L150.18 214.802C150.451 213.177 149.357 211.651 147.743 211.38C146.128 211.109 144.592 212.203 144.331 213.823Z" fill="#401F2A"/>
<mask id="mask7_371_14706" style="mask-type:luminance" maskUnits="userSpaceOnUse" x="194" y="221" width="11" height="14">
<path d="M194.664 221H204.664V234.333H194.664V221Z" fill="white"/>
</mask>
<g mask="url(#mask7_371_14706)">
<path d="M213.346 227.672L199.852 221.88C198.346 221.234 196.596 221.932 195.956 223.437C195.31 224.948 196.008 226.692 197.513 227.338L211.013 233.13C212.518 233.781 214.263 233.083 214.909 231.567C215.555 230.062 214.857 228.317 213.346 227.672Z" fill="#401F2A"/>
</g>
<mask id="mask8_371_14706" style="mask-type:luminance" maskUnits="userSpaceOnUse" x="192" y="167" width="13" height="9">
<path d="M192 167.667H204.667V175.667H192V167.667Z" fill="white"/>
</mask>
<g mask="url(#mask8_371_14706)">
<path d="M217.1 169.177L195.882 168.526C194.246 168.479 192.877 169.765 192.83 171.406C192.778 173.046 194.069 174.416 195.705 174.468L216.918 175.109C218.554 175.161 219.923 173.869 219.975 172.234C220.022 170.593 218.736 169.224 217.1 169.177Z" fill="#401F2A"/>
</g>
<path d="M37.3789 -6.07812C37.9154 -4.28125 38.7383 -2.64583 39.8841 -0.953125C41.0091 0.708334 42.3633 2.30729 43.8633 3.80208C46.8789 6.78125 50.4206 9.41146 54.4049 11.3698C50.0091 10.6615 45.6602 9.16146 41.5456 7.01042C39.4831 5.92188 37.4831 4.66667 35.5768 3.13542C34.6237 2.375 33.7018 1.54167 32.8216 0.619792C32.3737 0.15625 31.9466 -0.328126 31.5352 -0.84375C31.3268 -1.08333 31.1029 -1.40625 30.8893 -1.69271L30.3789 -2.38542L37.3789 -6.07812Z" fill="#401F2A"/>
<path d="M28.75 12.3853C31.2083 15.7498 33.0937 19.0675 35.3281 22.104C36.4375 23.6196 37.6198 25.078 38.9688 26.3748C40.3177 27.6665 41.8438 28.8175 43.651 29.5728C41.6927 29.4686 39.7188 28.8644 37.8698 28.0207C36.0156 27.1821 34.2656 26.1144 32.599 24.9686C29.2552 22.6925 26.2083 20.0675 23.1875 18.0207L28.75 12.3853Z" fill="#401F2A"/>
</g>
</svg>
