<svg width="318" height="638" viewBox="0 0 318 638" fill="none" xmlns="http://www.w3.org/2000/svg">
<mask id="mask0_371_14919" style="mask-type:luminance" maskUnits="userSpaceOnUse" x="0" y="0" width="318" height="638">
<path d="M0.666656 0H318V637.333H0.666656V0Z" fill="white"/>
</mask>
<g mask="url(#mask0_371_14919)">
<mask id="mask1_371_14919" style="mask-type:luminance" maskUnits="userSpaceOnUse" x="247" y="181" width="71" height="111">
<path d="M318 181.333H247.333V292H318V181.333Z" fill="white"/>
</mask>
<g mask="url(#mask1_371_14919)">
<path d="M318.413 210.667C328.199 210.719 337.986 212.438 347.079 215.854C356.21 219.182 364.605 224.062 372.256 229.625C379.908 235.203 386.829 241.547 393.085 248.417C399.272 255.354 404.647 262.969 409.012 271.146L420.126 291.974L421.298 268.443C421.809 258.292 421.251 247.958 418.934 237.667C417.725 232.536 416.012 227.406 413.444 222.531C410.892 217.667 407.361 213.047 402.803 209.536C400.579 207.776 397.996 206.26 395.48 205.229C392.97 204.182 390.673 203.344 388.21 202.531C383.345 200.995 378.381 199.828 373.413 198.979C363.465 197.245 353.512 197.104 343.939 196.078C339.163 195.583 334.449 194.729 330.189 192.974C328.053 192.125 326.069 190.953 324.309 189.536C323.387 188.823 322.725 188.109 321.715 187.13C320.684 186.167 319.533 185.375 318.329 184.719C313.491 182.109 308.137 181.495 302.965 181.469C297.756 181.531 292.59 182.417 287.595 183.917C277.637 186.948 268.225 192.708 261.283 200.99C254.272 209.203 250.137 219.828 249.309 230.375L248.376 242.224L257.23 235.073C261.475 231.641 265.887 228.328 270.59 225.401C275.256 222.401 280.199 219.745 285.355 217.51C290.527 215.323 295.928 213.536 301.486 212.375C307.038 211.219 312.71 210.677 318.413 210.667ZM318.402 209.448C312.668 209.443 306.908 209.797 301.178 210.432C295.434 211.068 289.684 211.974 283.991 213.349C278.288 214.672 272.642 216.448 267.137 218.672C261.673 220.958 256.319 223.672 251.329 226.969L259.241 231.677C260.892 222.849 264.319 214.672 269.605 207.667C274.876 200.682 281.928 194.724 290.21 190.797C294.34 188.854 298.772 187.391 303.314 186.807C307.819 186.182 312.564 186.448 316.501 188.26C317.47 188.734 318.371 189.302 319.147 189.979C319.923 190.661 320.986 191.677 322.006 192.453C324.079 194.062 326.376 195.349 328.736 196.391C333.491 198.453 338.486 199.365 343.345 200.266C348.236 201.062 353.069 201.802 357.819 202.672C362.569 203.583 367.241 204.656 371.777 206.026C376.319 207.391 380.73 209.042 384.975 210.995C387.079 211.927 389.288 212.99 391.189 214.026C393.09 215.062 394.658 216.208 396.194 217.557C402.22 222.964 405.585 231.328 407.152 240.151C408.798 249.01 408.793 258.385 408.256 267.719L420.543 265.021C415.668 255.786 409.439 247.26 402.074 239.901C394.788 232.453 386.23 226.328 377.017 221.719C367.798 217.104 357.949 214.104 348.105 212.177C338.22 210.318 328.303 209.401 318.402 209.448Z" fill="#401F2A" fill-opacity="0.1"/>
</g>
<path d="M130.5 115.417C114.625 126.922 100.62 141.063 88.5104 156.693C76.4167 172.349 66.2812 189.589 58.3958 207.818C50.5104 226.037 44.8958 245.245 41.7969 264.792C38.724 284.328 38.0729 304.229 40.6094 323.677C43.151 304.245 46.3906 285.261 51.1615 266.719C55.8854 248.172 62.026 230.115 69.5625 212.641C77.1094 195.177 86.0573 178.334 96.3073 162.167C106.526 145.979 118.099 130.578 130.5 115.417Z" fill="#401F2A" fill-opacity="0.1"/>
<mask id="mask2_371_14919" style="mask-type:luminance" maskUnits="userSpaceOnUse" x="207" y="32" width="111" height="292">
<path d="M318 32H207.333V324H318V32Z" fill="white"/>
</mask>
<g mask="url(#mask2_371_14919)">
<path d="M612.408 323.677C615.028 276.073 604.226 227.333 581.746 184.5C570.642 162.995 556.46 143.089 540.205 125.094C523.835 107.172 505.106 91.4271 484.778 78.1354C464.345 65.0313 442.267 54.4427 419.205 46.9011C396.106 39.5104 372.111 34.8282 347.949 33.6459C323.814 32.2969 299.569 34.1667 276.022 39.0261C252.512 44.0209 229.673 51.9532 208.569 63.0209C230.778 54.4219 253.731 48.1823 277.054 44.9063C288.71 43.2344 300.429 42.2032 312.158 41.9636C323.851 41.7136 335.637 42.0052 347.262 43.1198C370.538 45.3802 393.548 50.0938 415.538 57.8282C437.574 65.3959 458.689 75.625 478.184 88.3594C497.798 100.901 515.788 115.969 531.788 132.922C547.903 149.781 561.752 168.776 573.444 189.036C596.715 229.682 609.955 276.104 612.408 323.677Z" fill="#401F2A" fill-opacity="0.1"/>
</g>
<mask id="mask3_371_14919" style="mask-type:luminance" maskUnits="userSpaceOnUse" x="1" y="6" width="317" height="605">
<path d="M318 6.66699H1.40103V610.667H318V6.66699Z" fill="white"/>
</mask>
<g mask="url(#mask3_371_14919)">
<path d="M318.412 7.32331C295.521 7.19831 272.641 9.70352 250.235 14.4431C239.026 16.8129 227.948 19.8129 217.063 23.4275C206.157 26.9744 195.422 31.0994 184.953 35.8389C143.052 54.7556 105.209 83.0889 75.068 118.339C44.9639 153.61 22.8805 195.974 11.443 241.183C5.67737 263.766 2.47949 287 1.78674 310.308C1.11487 333.625 3.20862 357.011 7.70862 379.881L8.09924 381.907L9.59406 383.329C17.3909 390.756 24.1878 399.412 30.3284 408.584C36.4899 417.75 41.9795 427.495 47.1045 437.474C52.2295 447.469 56.9899 457.73 61.7034 468.073C66.4274 478.417 71.0576 488.875 76.3024 499.261C78.9378 504.448 81.7295 509.615 85.0264 514.688C88.2607 519.719 92.3545 524.87 97.4117 528.875C102.433 532.933 108.193 535.875 113.948 537.964C119.735 540.068 125.521 541.422 131.183 542.641C142.506 545.021 153.438 546.985 163.881 550.355C174.318 553.672 184.214 558.37 193.292 564.464C197.834 567.495 202.167 570.865 206.313 574.485C208.381 576.302 210.407 578.172 212.37 580.115C214.313 581.985 216.229 584.105 218.464 586.219C227.136 594.547 237.735 601.026 249.131 604.782C260.511 608.625 272.417 610.021 284.068 610.094C295.756 610.167 307.282 608.98 318.651 607.381C341.381 604.219 363.631 599.308 386.105 597.724C397.355 596.98 408.506 597.115 419.594 599.329C431.157 601.219 442.818 600.881 454.256 599.568L454.615 599.532L454.912 599.381C468.495 592.636 481.641 585.021 494.136 576.433C506.61 567.829 518.526 558.407 529.709 548.177C540.886 537.938 551.302 526.87 560.995 515.198C570.667 503.511 579.422 491.063 587.407 478.131L587.834 477.448L587.761 476.558C587.136 468.396 587.657 460.183 589.219 452.167C590.776 444.146 593.36 436.329 596.703 428.855C603.438 413.901 613.105 400.302 624.302 388.266L625 387.511L625.261 386.407C630.62 363.589 633.532 340.136 633.667 316.61C633.724 293.105 631.224 269.537 625.881 246.594C615.433 200.646 593.797 157.365 563.86 121.219C533.792 85.1514 495.75 56.0681 453.427 36.6671C442.844 31.8233 432.011 27.5473 420.974 23.9327C409.959 20.2348 398.761 17.1306 387.422 14.7035C364.745 9.84414 341.584 7.21914 318.412 7.32331ZM318.401 8.54206C364.547 8.58893 410.771 19.2035 451.761 40.1202C492.86 60.7712 528.995 90.7452 556.844 126.865C584.901 162.834 604.901 204.802 615.302 249.052C620.422 271.204 623.297 293.886 623.578 316.662C623.985 339.427 621.891 362.261 617.287 384.646L618.245 382.776C606.896 395.698 597.177 410.193 590.542 426.193C587.235 434.183 584.74 442.547 583.339 451.11C581.933 459.667 581.631 468.422 582.558 477.037L582.912 475.459C575.5 488.448 566.969 500.782 557.662 512.5C548.37 524.23 538.104 535.193 527.125 545.375C516.151 555.558 504.422 564.948 492.021 573.344C479.631 581.75 466.667 589.313 453.162 595.766L453.808 595.573C442.636 596.709 431.287 596.855 420.355 594.912C414.834 593.776 408.901 592.922 403.162 592.599C397.37 592.23 391.578 592.25 385.813 592.5C362.745 593.573 340.25 598.042 317.782 600.563C306.558 601.829 295.328 602.667 284.224 602.292C273.146 601.927 262.167 600.287 252.021 596.547C241.886 592.834 232.683 586.99 225.042 579.407C223.157 577.573 221.287 575.433 219.167 573.302C217.115 571.209 214.995 569.177 212.818 567.183C208.453 563.235 203.834 559.516 198.969 556.131C189.245 549.339 178.443 543.985 167.229 540.204C156.047 536.339 144.495 534.157 133.573 531.75C122.667 529.334 112.292 526.318 104.657 519.938C100.802 516.808 97.7242 512.917 94.8284 508.349C91.9534 503.839 89.3649 498.938 86.8961 493.948C77.0992 473.834 68.693 452.438 58.2972 431.802C47.9378 411.209 35.9482 390.683 18.5316 373.933L20.4274 377.381C16.0889 355.412 14.2555 333.006 14.7347 310.636C15.2034 288.261 18.0941 265.927 23.4482 244.193C34.1357 200.714 54.3024 159.542 82.2764 124.266C110.099 88.891 145.964 59.5837 186.657 39.4379C227.235 19.016 272.844 8.65664 318.401 8.54206Z" fill="#401F2A" fill-opacity="0.1"/>
</g>
<mask id="mask4_371_14919" style="mask-type:luminance" maskUnits="userSpaceOnUse" x="2" y="2" width="316" height="634">
<path d="M318 2.771H2V635.641H318V2.771Z" fill="white"/>
</mask>
<g mask="url(#mask4_371_14919)">
<path d="M13.9854 319.255C13.9697 279.365 21.8083 239.5 37.1156 202.677C52.3708 165.849 74.9906 132.099 103.188 103.917C131.366 75.724 165.095 53.1094 201.912 37.8594C238.72 22.5677 278.501 14.75 318.428 14.7812C358.199 14.7656 398.079 22.599 434.845 37.9115C471.647 53.1667 505.35 75.7969 533.501 103.995C561.678 132.172 584.272 165.911 599.491 202.734C614.787 239.557 622.564 279.339 622.574 319.271C622.616 359.052 614.803 398.953 599.522 435.745C584.303 472.557 561.709 506.307 533.532 534.484C505.381 562.693 471.668 585.318 434.871 600.578C398.079 615.88 358.303 623.724 318.376 623.708C278.595 623.745 238.709 615.927 201.928 600.641C165.11 585.396 131.371 562.786 103.199 534.589C74.9958 506.411 52.3708 472.661 37.1156 435.833C21.8083 398.995 13.9697 359.182 13.9854 319.224V319.255ZM2.33954 319.297C2.29785 360.604 10.4229 402.083 26.2979 440.318C42.1312 478.589 65.6104 513.646 94.8708 542.911C124.121 572.208 159.147 595.719 197.397 611.573C235.642 627.484 276.996 635.63 318.449 635.604C359.751 635.646 401.22 627.516 439.449 611.62C477.715 595.776 512.756 572.271 542.027 542.984C571.319 513.714 594.824 478.651 610.673 440.359C626.579 402.083 634.725 360.688 634.699 319.193C634.756 277.849 626.579 236.349 610.673 198.094C594.813 159.812 571.308 124.745 542.011 95.4792C512.741 66.1823 477.694 42.6875 439.428 26.8437C401.173 10.9479 359.798 2.82812 318.355 2.86979C277.048 2.85416 235.584 10.9948 197.371 26.9167C159.126 42.776 124.105 66.2865 94.8552 95.5833C65.5947 124.865 42.1208 159.917 26.2927 198.193C10.4125 236.448 2.29785 277.875 2.33954 319.255V319.297Z" fill="#401F2A" fill-opacity="0.1"/>
</g>
<mask id="mask5_371_14919" style="mask-type:luminance" maskUnits="userSpaceOnUse" x="187" y="348" width="131" height="100">
<path d="M318 348H187.333V448H318V348Z" fill="white"/>
</mask>
<g mask="url(#mask5_371_14919)">
<path d="M213.238 348.583C209.087 349.958 205.02 351.885 201.348 354.625C197.671 357.328 194.41 360.896 192.145 365.198C189.832 369.469 188.728 374.443 188.66 379.359C188.603 384.302 189.717 389.161 191.478 393.688C193.243 398.229 195.858 402.385 198.978 406.13C202.103 409.87 205.816 413.193 210.186 415.76C212.363 417.036 214.681 418.172 217.186 418.995C218.426 419.411 219.712 419.76 221.025 420.026L222.035 420.214L223.014 420.37L224.592 420.589C228.488 421.115 232.113 421.964 235.051 423.286C236.54 423.958 237.863 424.807 239.348 425.88C240.822 426.953 242.426 428.318 244.207 429.74C247.764 432.615 251.863 435.344 256.04 437.396C260.223 439.484 264.488 441.125 268.743 442.536C270.879 443.255 273.009 443.865 275.165 444.448L278.342 445.276C279.52 445.562 280.624 445.828 281.785 446.031C291.004 447.781 300.743 446.896 309.322 443.641C317.931 440.401 325.4 435.214 331.811 429.177L336.316 424.943L330.306 425.807C317.874 427.594 304.999 426.333 293.223 422.286C281.395 418.286 270.691 412.151 260.676 405.365C250.65 398.557 241.504 390.375 233.738 380.839C225.931 371.339 219.483 360.635 214.092 348.958L213.832 348.391L213.238 348.583ZM213.066 350.208C214.79 362.797 219.587 375.109 226.655 385.995C233.889 397.156 243.421 406.974 254.561 414.443C265.738 421.943 278.738 426.323 291.733 428.375C304.77 430.38 317.78 430.797 330.738 429.667L329.228 426.292C322.858 431.682 315.337 435.703 307.452 437.344C299.566 439.083 291.556 438.432 284.077 436.224C283.145 435.932 282.176 435.656 281.29 435.344L278.301 434.312C276.363 433.625 274.426 432.865 272.52 432.12C268.717 430.599 265.04 428.896 261.65 426.927C258.243 424.943 255.243 422.776 252.249 420.109C250.723 418.776 249.134 417.271 247.212 415.714C245.322 414.146 243.004 412.656 240.603 411.5C235.754 409.172 230.853 408.266 226.259 407.682L224.639 407.51L224.025 407.438L223.447 407.349C222.66 407.214 221.853 407.031 221.061 406.786C219.457 406.307 217.842 405.682 216.275 404.87C209.999 401.604 204.395 395.995 200.9 389.406C197.384 382.833 196.009 375.12 198.389 367.917C199.546 364.318 201.608 360.906 204.28 357.844C206.79 355.016 209.801 352.495 213.066 350.208Z" fill="#401F2A" fill-opacity="0.1"/>
</g>
<mask id="mask6_371_14919" style="mask-type:luminance" maskUnits="userSpaceOnUse" x="207" y="202" width="111" height="233">
<path d="M318 202.667H207.333V434.667H318V202.667Z" fill="white"/>
</mask>
<g mask="url(#mask6_371_14919)">
<path d="M209.875 319.25C209.885 305.026 213.099 290.855 219.088 278.094C225.031 265.303 233.797 254.058 244.088 244.907C249.218 240.297 254.812 236.282 260.614 232.714C266.453 229.198 272.578 226.23 278.88 223.803C291.526 218.917 304.854 216.448 318.474 216.558C345.229 216.521 372.052 227.188 391.5 246.099C410.958 264.969 423.114 291.417 424.203 319.282C424.739 333.058 422.547 347.23 417.343 360.245C412.208 373.292 404.271 385.292 394.192 395.068C389.135 399.938 383.573 404.261 377.656 407.969C371.698 411.625 365.416 414.704 358.896 417.047C345.823 421.766 332.104 423.771 318.343 423.365C291.208 422.589 264.552 412.178 243.974 393.719C233.708 384.521 224.932 373.261 219 360.448C212.963 347.698 209.843 333.485 209.875 319.25ZM208.656 319.256C208.692 333.615 211.182 348 216.114 361.646C221.099 375.256 228.557 388.193 238.5 399.209C243.484 404.678 248.989 409.745 255.088 414.068C258.119 416.24 261.265 418.271 264.505 420.141C267.776 421.969 271.125 423.662 274.573 425.141C288.38 431.089 303.416 433.891 318.474 433.5C333.297 433.11 348.146 429.506 361.463 423.245C368.13 420.11 374.515 416.412 380.427 412.12C386.39 407.881 391.922 403.084 396.963 397.849C417.317 377.047 429.823 348.808 430.864 319.198C431.385 304.579 429.14 289.506 423.75 275.573C418.432 261.605 410.099 248.756 399.63 237.959C389.177 227.151 376.51 218.412 362.599 212.464C355.656 209.459 348.369 207.245 340.948 205.766C333.484 204.297 326.036 203.516 318.312 203.558C303.359 203.657 288.114 206.808 274.364 212.901C260.573 218.99 248.271 228.141 238.369 239.183C228.453 250.245 221.005 263.198 216.015 276.829C211.036 290.48 208.64 304.896 208.656 319.256Z" fill="#401F2A" fill-opacity="0.1"/>
</g>
<mask id="mask7_371_14919" style="mask-type:luminance" maskUnits="userSpaceOnUse" x="303" y="89" width="15" height="25">
<path d="M318 89.3335H303.333V113.333H318V89.3335Z" fill="white"/>
</mask>
<g mask="url(#mask7_371_14919)">
<path d="M310.555 91.0574L335.269 103.901C337.503 105.063 338.373 107.818 337.212 110.057C336.05 112.292 333.295 113.162 331.061 112L306.347 99.1615C304.102 98.0001 303.238 95.2449 304.399 93.0001C305.561 90.7657 308.311 89.8959 310.555 91.0574Z" fill="#401F2A" fill-opacity="0.1"/>
</g>
<path d="M61.5014 356.323L48.6525 361.282C46.3035 362.183 43.6629 361.011 42.7567 358.662C41.8556 356.308 43.0223 353.667 45.3764 352.756L58.2202 347.808C60.5744 346.896 63.215 348.073 64.116 350.422C65.0223 352.782 63.8452 355.422 61.5014 356.323Z" fill="#401F2A" fill-opacity="0.1"/>
<mask id="mask8_371_14919" style="mask-type:luminance" maskUnits="userSpaceOnUse" x="304" y="546" width="14" height="21">
<path d="M318 546.667H304.667V566.667H318V546.667Z" fill="white"/>
</mask>
<g mask="url(#mask8_371_14919)">
<path d="M308.641 556.719L329.391 547.818C331.703 546.828 334.391 547.901 335.386 550.219C336.375 552.532 335.302 555.214 332.99 556.209L312.229 565.104C309.912 566.104 307.234 565.032 306.245 562.709C305.245 560.391 306.323 557.709 308.641 556.719Z" fill="#401F2A" fill-opacity="0.1"/>
</g>
<path d="M266.651 541.146L252.818 533.23C250.631 531.98 249.87 529.193 251.131 527C252.381 524.813 255.167 524.058 257.349 525.308L271.183 533.224C273.365 534.474 274.12 537.261 272.881 539.448C271.62 541.641 268.834 542.401 266.651 541.146Z" fill="#401F2A" fill-opacity="0.1"/>
<path d="M193.229 500.146L188.281 459.589C187.979 457.084 189.76 454.808 192.26 454.511C194.76 454.198 197.036 455.979 197.338 458.485L202.281 499.042C202.593 501.547 200.812 503.823 198.312 504.13C195.807 504.438 193.536 502.651 193.229 500.146Z" fill="#401F2A" fill-opacity="0.1"/>
<path d="M103.764 322.458L132.431 331.38C134.837 332.13 136.186 334.682 135.431 337.094C134.681 339.5 132.124 340.839 129.723 340.094L101.061 331.177C98.6548 330.432 97.3058 327.87 98.0558 325.464C98.8006 323.052 101.358 321.708 103.764 322.458Z" fill="#401F2A" fill-opacity="0.1"/>
<path d="M153.832 304.849L136.046 285.083C134.368 283.208 134.519 280.323 136.389 278.63C138.264 276.948 141.15 277.094 142.832 278.974L160.618 298.745C162.306 300.615 162.15 303.505 160.275 305.188C158.405 306.87 155.525 306.724 153.832 304.849Z" fill="#401F2A" fill-opacity="0.1"/>
<path d="M141.677 186.818L156.5 201.656C158.276 203.432 158.276 206.328 156.5 208.109C154.714 209.885 151.828 209.885 150.042 208.109L135.219 193.271C133.443 191.479 133.443 188.594 135.229 186.807C137.005 185.026 139.901 185.026 141.677 186.818Z" fill="#401F2A" fill-opacity="0.1"/>
<path d="M84.6758 253L85.6654 265.849C85.8633 268.365 83.9883 270.562 81.4779 270.755C78.957 270.953 76.7643 269.073 76.5716 266.557L75.582 253.698C75.3841 251.187 77.2591 248.995 79.7695 248.797C82.2904 248.604 84.4831 250.479 84.6758 253Z" fill="#401F2A" fill-opacity="0.1"/>
<path d="M109.636 372.078L115.558 389.87C116.354 392.26 115.063 394.849 112.672 395.646C110.276 396.443 107.698 395.151 106.901 392.755L100.979 374.958C100.183 372.568 101.474 369.984 103.865 369.188C106.261 368.391 108.839 369.682 109.636 372.078Z" fill="#401F2A" fill-opacity="0.1"/>
<path d="M111.738 432.021L121.623 448.813C122.904 450.979 122.186 453.787 120.009 455.063C117.837 456.344 115.045 455.615 113.759 453.443L103.878 436.657C102.602 434.485 103.326 431.683 105.493 430.407C107.67 429.12 110.462 429.844 111.738 432.021Z" fill="#401F2A" fill-opacity="0.1"/>
<path d="M154.297 395.266L175.057 391.308C177.537 390.839 179.922 392.464 180.396 394.933C180.865 397.412 179.24 399.802 176.766 400.271L156.005 404.229C153.537 404.698 151.146 403.073 150.667 400.604C150.198 398.125 151.823 395.735 154.297 395.266Z" fill="#401F2A" fill-opacity="0.1"/>
<path d="M180.254 255.552L186.192 247.636C187.702 245.62 190.562 245.209 192.577 246.724C194.593 248.24 195.004 251.099 193.484 253.115L187.556 261.026C186.041 263.042 183.181 263.448 181.166 261.938C179.15 260.427 178.744 257.568 180.254 255.552Z" fill="#401F2A" fill-opacity="0.1"/>
<path d="M197.53 194.87L189.629 177.063C188.603 174.755 189.644 172.057 191.952 171.031C194.249 170.016 196.946 171.052 197.967 173.359L205.874 191.162C206.894 193.474 205.853 196.162 203.551 197.188C201.249 198.208 198.556 197.167 197.53 194.87Z" fill="#401F2A" fill-opacity="0.1"/>
<path d="M229.59 112.849L240.465 118.771C242.673 119.984 243.496 122.755 242.283 124.964C241.085 127.182 238.314 127.995 236.095 126.792L225.22 120.859C223.012 119.656 222.189 116.88 223.403 114.667C224.606 112.458 227.371 111.635 229.59 112.849Z" fill="#401F2A" fill-opacity="0.1"/>
<path d="M176.14 148.724L149.447 136.854C147.145 135.828 146.103 133.13 147.124 130.834C148.156 128.521 150.848 127.49 153.156 128.516L179.843 140.391C182.14 141.412 183.182 144.11 182.156 146.412C181.135 148.719 178.437 149.75 176.14 148.724Z" fill="#401F2A" fill-opacity="0.1"/>
<path d="M272.041 150.401L288.843 159.297C291.072 160.484 291.916 163.25 290.738 165.474C289.561 167.703 286.796 168.547 284.572 167.37L267.775 158.469C265.551 157.292 264.697 154.526 265.874 152.302C267.051 150.073 269.817 149.224 272.041 150.401Z" fill="#401F2A" fill-opacity="0.1"/>
<path d="M260.031 72.8493L268.922 74.8285C271.386 75.3806 272.933 77.8233 272.38 80.2764C271.839 82.7399 269.401 84.292 266.943 83.7399L258.042 81.7556C255.578 81.2087 254.037 78.7712 254.578 76.3076C255.13 73.8493 257.568 72.2972 260.031 72.8493Z" fill="#401F2A" fill-opacity="0.1"/>
<mask id="mask9_371_14919" style="mask-type:luminance" maskUnits="userSpaceOnUse" x="298" y="465" width="20" height="11">
<path d="M318 465.333H298V476H318V465.333Z" fill="white"/>
</mask>
<g mask="url(#mask9_371_14919)">
<path d="M302.881 466.844L335.5 465.844C338.016 465.771 340.12 467.755 340.193 470.276C340.271 472.792 338.292 474.896 335.776 474.979L303.157 475.964C300.641 476.042 298.537 474.062 298.453 471.542C298.381 469.021 300.365 466.917 302.881 466.844Z" fill="#401F2A" fill-opacity="0.1"/>
</g>
<path d="M227.452 475.693L257.103 461.828C259.384 460.766 262.098 461.75 263.171 464.031C264.233 466.323 263.244 469.037 260.962 470.104L231.311 483.958C229.025 485.031 226.317 484.042 225.249 481.755C224.176 479.474 225.171 476.76 227.452 475.693Z" fill="#401F2A" fill-opacity="0.1"/>
<path d="M226.958 536.938L223.999 554.745C223.588 557.23 221.239 558.912 218.754 558.5C216.26 558.084 214.588 555.735 214.999 553.25L217.958 535.443C218.369 532.953 220.718 531.271 223.202 531.688C225.687 532.105 227.369 534.453 226.958 536.938Z" fill="#401F2A" fill-opacity="0.1"/>
<path d="M304.438 41.8333L304.657 42.2448L304.813 42.4792L304.99 42.5417C305.162 42.7604 305.287 43.0781 305.396 43.4271C305.62 44.151 305.724 45.0677 305.714 46.0625C305.709 48.0469 305.308 50.2708 304.709 52.4896C304.105 54.7083 303.297 56.9375 302.329 59.1198C301.355 61.3177 300.25 63.4635 298.875 65.5C300.954 64.1927 302.922 62.6146 304.787 60.9167C306.651 59.2083 308.428 57.375 310.084 55.3438C311.724 53.2969 313.276 51.0938 314.526 48.4271C315.151 47.0938 315.698 45.6302 316.032 43.9427C316.193 43.0938 316.323 42.2031 316.323 41.224C316.355 40.8021 316.297 40.1302 316.219 39.5104C316.167 39.1354 316.162 39.0313 316.151 38.8802L316.12 38.4219L304.438 41.8333Z" fill="#401F2A" fill-opacity="0.1"/>
<path d="M274.788 39.0991C274.449 42.12 274.017 44.8647 273.262 47.6408C272.512 50.37 271.465 53.0002 270.022 55.5366C267.147 60.6252 262.694 65.1616 257.944 69.3127C263.751 66.8647 269.579 63.995 274.699 59.4325C277.251 57.1616 279.548 54.4741 281.496 51.5731C283.428 48.6929 285.069 45.5314 286.449 42.5522L274.788 39.0991Z" fill="#401F2A" fill-opacity="0.1"/>
</g>
</svg>
