<svg width="18" height="18" viewBox="0 0 18 18" fill="none" xmlns="http://www.w3.org/2000/svg">
<path d="M4.5 15.75C4.08579 15.75 3.75 16.0858 3.75 16.5C3.75 16.9142 4.08579 17.25 4.5 17.25V15.75ZM13.5 17.25C13.9142 17.25 14.25 16.9142 14.25 16.5C14.25 16.0858 13.9142 15.75 13.5 15.75V17.25ZM13.875 7.125C13.875 8.34055 13.0895 9.95393 11.9711 11.3162C11.4245 11.9819 10.8308 12.5468 10.2767 12.9384C9.69915 13.3465 9.25862 13.5 9 13.5V15C9.72575 15 10.4805 14.6311 11.1423 14.1634C11.8274 13.6793 12.5169 13.0153 13.1304 12.268C14.3323 10.8041 15.375 8.85497 15.375 7.125H13.875ZM9 13.5C8.75653 13.5 8.32276 13.3425 7.74082 12.9056C7.18537 12.4886 6.58956 11.8881 6.04038 11.1847C4.91707 9.7459 4.125 8.05628 4.125 6.83333H2.625C2.625 8.5559 3.66106 10.5746 4.85805 12.1078C5.46904 12.8904 6.15643 13.5918 6.84023 14.1051C7.49756 14.5986 8.25909 15 9 15V13.5ZM4.125 6.83333C4.125 4.23059 6.44507 2.25 9 2.25V0.75C5.75594 0.75 2.625 3.26941 2.625 6.83333H4.125ZM9 2.25C11.5273 2.25 13.875 4.20503 13.875 7.125H15.375C15.375 3.29497 12.2717 0.75 9 0.75V2.25ZM10.5 6.75C10.5 7.57843 9.82843 8.25 9 8.25V9.75C10.6569 9.75 12 8.40685 12 6.75H10.5ZM9 8.25C8.17157 8.25 7.5 7.57843 7.5 6.75H6C6 8.40685 7.34315 9.75 9 9.75V8.25ZM7.5 6.75C7.5 5.92157 8.17157 5.25 9 5.25V3.75C7.34315 3.75 6 5.09315 6 6.75H7.5ZM9 5.25C9.82843 5.25 10.5 5.92157 10.5 6.75H12C12 5.09315 10.6569 3.75 9 3.75V5.25ZM4.5 17.25H13.5V15.75H4.5V17.25Z" fill="#E11D38"/>
</svg>
