<svg width="18" height="18" viewBox="0 0 18 18" fill="none" xmlns="http://www.w3.org/2000/svg">
<path d="M7 4C7 5.65685 5.65685 7 4 7C2.34315 7 1 5.65685 1 4C1 2.34315 2.34315 1 4 1C5.65685 1 7 2.34315 7 4Z" stroke="#E11D38" stroke-width="1.5"/>
<path d="M17 14C17 15.6569 15.6569 17 14 17C12.3431 17 11 15.6569 11 14C11 12.3431 12.3431 11 14 11C15.6569 11 17 12.3431 17 14Z" stroke="#E11D38" stroke-width="1.5"/>
<path d="M11 3C11 1.89543 11.8954 1 13 1H15C16.1046 1 17 1.89543 17 3V5C17 6.10457 16.1046 7 15 7H13C11.8954 7 11 6.10457 11 5V3Z" stroke="#E11D38" stroke-width="1.5"/>
<path d="M1 13C1 11.8954 1.89543 11 3 11H5C6.10457 11 7 11.8954 7 13V15C7 16.1046 6.10457 17 5 17H3C1.89543 17 1 16.1046 1 15V13Z" stroke="#E11D38" stroke-width="1.5"/>
</svg>
