<svg width="205" height="280" viewBox="0 0 205 280" fill="none" xmlns="http://www.w3.org/2000/svg">
<mask id="mask0_371_14828" style="mask-type:luminance" maskUnits="userSpaceOnUse" x="-1" y="-135" width="206" height="415">
<path d="M-0.333344 -135H205V279.667H-0.333344V-135Z" fill="white"/>
</mask>
<g mask="url(#mask0_371_14828)">
<mask id="mask1_371_14828" style="mask-type:luminance" maskUnits="userSpaceOnUse" x="0" y="-18" width="67" height="74">
<path d="M66.3359 -17.6665H0.335938V55.6668H66.3359V-17.6665Z" fill="white"/>
</mask>
<g mask="url(#mask1_371_14828)">
<path d="M-1.99158 2.43783C4.373 2.46908 10.7376 3.58887 16.6543 5.81283C22.5918 7.97949 28.0553 11.1566 33.0293 14.7764C38.0032 18.4066 42.5032 22.5368 46.5709 27.0055C50.597 31.5264 54.097 36.4795 56.9303 41.8024L64.1647 55.3597L64.9251 40.042C65.2584 33.4326 64.8938 26.7087 63.3886 20.0107C62.6022 16.6722 61.4876 13.3337 59.8157 10.1618C58.1595 6.98991 55.8574 3.98991 52.8938 1.70345C51.4459 0.552408 49.7688 -0.426756 48.1334 -1.09863C46.498 -1.78092 45.0032 -2.3278 43.4043 -2.85905C40.2376 -3.85905 37.0136 -4.61947 33.7793 -5.16634C27.3105 -6.30176 20.8365 -6.3903 14.6074 -7.05697C11.5032 -7.37988 8.44071 -7.93717 5.66467 -9.0778C4.27925 -9.63509 2.98759 -10.3955 1.84175 -11.3122C1.2428 -11.7809 0.810509 -12.2445 0.154251 -12.8799C-0.512413 -13.5101 -1.26241 -14.0205 -2.04366 -14.4528C-5.1947 -16.1507 -8.67387 -16.5518 -12.0385 -16.5674C-15.4291 -16.5257 -18.7885 -15.9476 -22.0332 -14.9736C-28.5124 -12.9997 -34.6322 -9.24967 -39.1478 -3.86426C-43.7103 1.4847 -46.3978 8.40137 -46.9343 15.266L-47.5437 22.9743L-41.7832 18.3232C-39.0228 16.0889 -36.153 13.9326 -33.0957 12.0264C-30.0593 10.0732 -26.8457 8.34408 -23.4916 6.89095C-20.127 5.46908 -16.6166 4.30241 -13.002 3.5472C-9.38741 2.7972 -5.69991 2.44303 -1.99158 2.43783ZM-1.99679 1.64616C-5.72595 1.64095 -9.47075 1.87012 -13.2051 2.28679C-16.9395 2.69824 -20.6791 3.29199 -24.3822 4.18262C-28.0905 5.0472 -31.7572 6.19824 -35.3405 7.64616C-38.8978 9.13574 -42.377 10.9014 -45.6218 13.0472L-40.476 16.1097C-39.403 10.3649 -37.1739 5.0472 -33.7364 0.484701C-30.3093 -4.06217 -25.7207 -7.94238 -20.3353 -10.4945C-17.653 -11.7601 -14.7676 -12.7132 -11.8145 -13.0934C-8.8822 -13.4997 -5.79887 -13.3226 -3.23637 -12.1455C-2.60616 -11.8382 -2.01762 -11.4684 -1.51241 -11.0309C-1.01241 -10.583 -0.319702 -9.92155 0.346962 -9.41634C1.69592 -8.36947 3.19071 -7.53092 4.72196 -6.85384C7.81571 -5.51009 11.0657 -4.92155 14.222 -4.33301C17.4043 -3.81217 20.5449 -3.33301 23.6386 -2.7653C26.7272 -2.17676 29.7636 -1.47884 32.7168 -0.583008C35.6699 0.307617 38.5397 1.38054 41.3001 2.65137C42.6699 3.25554 44.1074 3.94824 45.3418 4.62012C46.5761 5.2972 47.597 6.0472 48.597 6.9222C52.5136 10.443 54.7011 15.8857 55.722 21.6253C56.7949 27.391 56.7897 33.4951 56.4407 39.568L64.4303 37.8128C61.2636 31.8024 57.2116 26.2555 52.4199 21.4639C47.6803 16.6201 42.1126 12.6305 36.123 9.63054C30.1282 6.62533 23.722 4.67741 17.3209 3.4222C10.8886 2.20866 4.44071 1.61491 -1.99679 1.64616Z" fill="#401F2A"/>
</g>
<mask id="mask2_371_14828" style="mask-type:luminance" maskUnits="userSpaceOnUse" x="0" y="-114" width="191" height="191">
<path d="M190.336 -113.667H0.335938V77.0002H190.336V-113.667Z" fill="white"/>
</mask>
<g mask="url(#mask2_371_14828)">
<path d="M189.217 75.9896C190.925 45.0052 183.899 13.2864 169.28 -14.5938C162.056 -28.5886 152.832 -41.5469 142.259 -53.2604C131.613 -64.9219 119.431 -75.1719 106.212 -83.8229C92.9202 -92.3542 78.5608 -99.2448 63.5608 -104.156C48.54 -108.964 32.9358 -112.01 17.2171 -112.781C1.51917 -113.661 -14.2465 -112.443 -29.5642 -109.281C-44.8558 -106.026 -59.71 -100.865 -73.434 -93.6615C-58.9913 -99.2552 -44.0642 -103.318 -28.8923 -105.448C-21.309 -106.542 -13.6892 -107.214 -6.05896 -107.365C1.5452 -107.531 9.21187 -107.339 16.7692 -106.615C31.9098 -105.146 46.8733 -102.078 61.1806 -97.0417C75.5087 -92.1146 89.2431 -85.4584 101.92 -77.1667C114.681 -69.0052 126.379 -59.1979 136.785 -48.1667C147.264 -37.1927 156.274 -24.8281 163.879 -11.6406C179.014 14.8125 187.623 45.026 189.217 75.9896Z" fill="#401F2A"/>
</g>
<mask id="mask3_371_14828" style="mask-type:luminance" maskUnits="userSpaceOnUse" x="0" y="-131" width="204" height="395">
<path d="M203.668 -131H0.334625V263.667H203.668V-131Z" fill="white"/>
</mask>
<g mask="url(#mask3_371_14828)">
<path d="M-1.99539 -129.912C-16.8808 -129.995 -31.761 -128.365 -46.3391 -125.281C-53.6256 -123.734 -60.8339 -121.787 -67.912 -119.432C-75.0058 -117.125 -81.9902 -114.438 -88.7975 -111.354C-116.047 -99.0417 -140.662 -80.599 -160.261 -57.6563C-179.844 -34.698 -194.209 -7.12505 -201.646 22.2968C-205.396 37 -207.475 52.1198 -207.928 67.2916C-208.365 82.4635 -207.001 97.6875 -204.074 112.573L-203.824 113.891L-202.85 114.818C-197.777 119.651 -193.355 125.281 -189.365 131.255C-185.355 137.224 -181.782 143.562 -178.449 150.057C-175.115 156.568 -172.021 163.24 -168.959 169.974C-165.881 176.708 -162.87 183.516 -159.459 190.276C-157.751 193.651 -155.933 197.016 -153.787 200.312C-151.683 203.589 -149.021 206.943 -145.73 209.547C-142.464 212.187 -138.719 214.104 -134.975 215.464C-131.214 216.833 -127.449 217.714 -123.766 218.51C-116.402 220.057 -109.292 221.333 -102.501 223.531C-95.7141 225.687 -89.2766 228.745 -83.3704 232.714C-80.4173 234.682 -77.5995 236.88 -74.9069 239.234C-73.5579 240.417 -72.2402 241.635 -70.9641 242.901C-69.7037 244.115 -68.4537 245.495 -67.0006 246.87C-61.36 252.292 -54.4694 256.51 -47.0579 258.953C-39.6568 261.453 -31.912 262.365 -24.3287 262.411C-16.7298 262.458 -9.23497 261.687 -1.83914 260.646C12.9421 258.589 27.4161 255.391 42.0306 254.359C49.3484 253.875 56.5984 253.964 63.8119 255.401C71.3327 256.635 78.9161 256.411 86.3536 255.562L86.5879 255.536L86.7859 255.443C95.614 251.052 104.166 246.094 112.291 240.505C120.406 234.901 128.156 228.771 135.432 222.109C142.697 215.448 149.473 208.245 155.775 200.646C162.067 193.042 167.765 184.937 172.958 176.521L173.234 176.078L173.187 175.495C172.781 170.187 173.119 164.839 174.135 159.625C175.145 154.401 176.828 149.312 179.005 144.448C183.385 134.714 189.671 125.865 196.953 118.031L197.406 117.542L197.578 116.823C201.062 101.969 202.953 86.7031 203.046 71.3906C203.083 56.0937 201.453 40.7552 197.979 25.8229C191.187 -4.08338 177.114 -32.2553 157.64 -55.7813C138.088 -79.2553 113.343 -98.1875 85.8171 -110.813C78.9317 -113.969 71.89 -116.75 64.7077 -119.104C57.5463 -121.51 50.2598 -123.531 42.8848 -125.109C28.14 -128.276 13.0723 -129.984 -1.99539 -129.912ZM-2.0006 -129.12C28.0098 -129.089 58.0723 -122.182 84.7338 -108.568C111.463 -95.125 134.963 -75.6198 153.078 -52.1094C171.328 -28.698 184.333 -1.38025 191.098 27.4218C194.426 41.8385 196.296 56.5989 196.484 71.427C196.749 86.2448 195.385 101.104 192.39 115.672L193.015 114.458C185.635 122.865 179.312 132.302 174.994 142.719C172.843 147.917 171.223 153.359 170.307 158.937C169.395 164.505 169.197 170.203 169.801 175.807L170.036 174.781C165.213 183.234 159.666 191.266 153.609 198.891C147.567 206.526 140.89 213.661 133.749 220.286C126.614 226.917 118.984 233.031 110.921 238.495C102.859 243.964 94.4265 248.885 85.6452 253.089L86.0671 252.958C78.7963 253.698 71.4161 253.797 64.3067 252.531C60.7129 251.792 56.8588 251.234 53.1244 251.026C49.3588 250.786 45.5931 250.797 41.8431 250.958C26.8379 251.656 12.2077 254.568 -2.40164 256.208C-9.70372 257.031 -17.011 257.578 -24.2298 257.333C-31.4381 257.094 -38.5787 256.026 -45.1777 253.594C-51.7662 251.177 -57.7506 247.375 -62.7245 242.437C-63.9485 241.245 -65.162 239.854 -66.5423 238.469C-67.8808 237.104 -69.2558 235.781 -70.6725 234.484C-73.511 231.911 -76.5162 229.49 -79.6777 227.292C-86.0006 222.87 -93.0266 219.38 -100.324 216.922C-107.6 214.406 -115.11 212.99 -122.214 211.422C-129.308 209.844 -136.053 207.885 -141.021 203.729C-143.527 201.693 -145.532 199.161 -147.412 196.187C-149.282 193.255 -150.964 190.062 -152.574 186.818C-158.943 173.724 -164.412 159.797 -171.172 146.37C-177.912 132.964 -185.709 119.604 -197.032 108.703L-195.803 110.943C-198.626 96.6458 -199.818 82.0625 -199.506 67.5C-199.199 52.9427 -197.318 38.4062 -193.839 24.2552C-186.886 -4.04172 -173.771 -30.8386 -155.579 -53.7969C-137.48 -76.823 -114.152 -95.8959 -87.6881 -109.01C-61.2975 -122.302 -31.6308 -129.047 -2.0006 -129.12Z" fill="#401F2A"/>
</g>
<mask id="mask4_371_14828" style="mask-type:luminance" maskUnits="userSpaceOnUse" x="0" y="-133" width="205" height="413">
<path d="M204.184 -132.875H0.334625V279.036H204.184V-132.875Z" fill="white"/>
</mask>
<g mask="url(#mask4_371_14828)">
<path d="M-199.988 73.1147C-199.999 47.1512 -194.905 21.2032 -184.947 -2.76031C-175.025 -26.7343 -160.317 -48.6978 -141.973 -67.0416C-123.65 -85.3905 -101.712 -100.114 -77.7645 -110.036C-53.827 -119.989 -27.952 -125.078 -1.98326 -125.057C23.8813 -125.068 49.8188 -119.969 73.7303 -110.005C97.6678 -100.078 119.59 -85.3437 137.897 -66.9895C156.225 -48.6509 170.918 -26.6926 180.819 -2.72386C190.762 21.2397 195.824 47.1355 195.829 73.1251C195.855 99.0157 190.777 124.99 180.84 148.932C170.939 172.896 156.246 194.859 137.918 213.198C119.61 231.557 97.6834 246.287 73.7511 256.219C49.8188 266.177 23.949 271.281 -2.01451 271.271C-27.8895 271.297 -53.8322 266.208 -77.7541 256.26C-101.702 246.339 -123.645 231.62 -141.968 213.266C-160.306 194.927 -175.025 172.964 -184.947 148.99C-194.905 125.016 -199.999 99.0991 -199.988 73.0939V73.1147ZM-207.567 73.1407C-207.593 100.026 -202.311 127.026 -191.983 151.912C-181.686 176.818 -166.416 199.635 -147.384 218.682C-128.358 237.75 -105.577 253.052 -80.702 263.375C-55.827 273.729 -28.9312 279.031 -1.96764 279.016C24.8917 279.042 51.8657 273.75 76.7303 263.406C101.616 253.094 124.407 237.797 143.444 218.729C162.491 199.677 177.782 176.859 188.09 151.938C198.433 127.026 203.73 100.078 203.715 73.073C203.751 46.1668 198.433 19.1511 188.09 -5.7447C177.777 -30.6614 162.485 -53.4895 143.433 -72.5364C124.397 -91.6041 101.6 -106.896 76.7094 -117.208C51.8344 -127.557 24.923 -132.838 -2.03014 -132.812C-28.8999 -132.823 -55.8635 -127.521 -80.7177 -117.161C-105.593 -106.838 -128.374 -91.5364 -147.395 -72.4634C-166.426 -53.4062 -181.692 -30.5937 -191.988 -5.6822C-202.317 19.2136 -207.593 46.1824 -207.567 73.1147V73.1407Z" fill="#401F2A"/>
</g>
<mask id="mask5_371_14828" style="mask-type:luminance" maskUnits="userSpaceOnUse" x="0" y="91" width="11" height="66">
<path d="M10.3359 91.6665H0.335938V157H10.3359V91.6665Z" fill="white"/>
</mask>
<g mask="url(#mask5_371_14828)">
<path d="M-70.3945 92.2031C-73.0977 93.099 -75.7435 94.349 -78.1289 96.1354C-80.5247 97.8958 -82.6393 100.219 -84.1133 103.016C-85.6185 105.797 -86.3372 109.036 -86.3789 112.234C-86.4206 115.453 -85.6966 118.615 -84.5508 121.563C-83.3997 124.516 -81.7018 127.219 -79.6706 129.656C-77.6393 132.094 -75.2227 134.255 -72.3841 135.927C-70.9675 136.755 -69.457 137.495 -67.832 138.031C-67.0195 138.302 -66.1862 138.526 -65.332 138.703L-64.6758 138.823L-64.0352 138.927L-63.0143 139.068C-60.4779 139.411 -58.1185 139.964 -56.207 140.823C-55.2435 141.266 -54.3789 141.813 -53.4154 142.51C-52.457 143.208 -51.4102 144.099 -50.2539 145.026C-47.9414 146.896 -45.2747 148.672 -42.5612 150.005C-39.8372 151.365 -37.0664 152.432 -34.2956 153.354C-32.9102 153.818 -31.5247 154.219 -30.1185 154.599L-28.0508 155.135C-27.2852 155.323 -26.5716 155.495 -25.8112 155.63C-19.8164 156.766 -13.4831 156.188 -7.90495 154.073C-2.30599 151.964 2.55339 148.589 6.72005 144.661L9.65234 141.901L5.74089 142.464C-2.34245 143.625 -10.7174 142.807 -18.3737 140.172C-26.0664 137.573 -33.0299 133.578 -39.5404 129.161C-46.0664 124.729 -52.0143 119.401 -57.0664 113.198C-62.1393 107.016 -66.3372 100.047 -69.8425 92.4479L-70.0091 92.0781L-70.3945 92.2031ZM-70.5091 93.2604C-69.3893 101.453 -66.2643 109.469 -61.6706 116.552C-56.9622 123.818 -50.7695 130.208 -43.5195 135.068C-36.2539 139.953 -27.7956 142.802 -19.3424 144.135C-10.8633 145.443 -2.39974 145.714 6.02214 144.974L5.04297 142.781C0.897135 146.286 -3.99349 148.906 -9.1237 149.974C-14.2487 151.104 -19.457 150.682 -24.3216 149.245C-24.931 149.052 -25.5612 148.875 -26.1341 148.672L-28.082 148C-29.3424 147.552 -30.5977 147.063 -31.8424 146.573C-34.3112 145.583 -36.707 144.474 -38.9102 143.193C-41.1289 141.901 -43.0768 140.49 -45.0247 138.755C-46.0195 137.891 -47.0508 136.911 -48.3008 135.896C-49.5299 134.875 -51.0352 133.906 -52.6029 133.156C-55.7539 131.635 -58.9414 131.047 -61.931 130.667L-62.9831 130.557L-63.3841 130.51L-63.7591 130.453C-64.2695 130.359 -64.7904 130.245 -65.3112 130.089C-66.3529 129.776 -67.3997 129.37 -68.4206 128.839C-72.5039 126.714 -76.1497 123.063 -78.4206 118.771C-80.707 114.495 -81.6029 109.474 -80.0508 104.786C-79.3008 102.443 -77.9622 100.224 -76.2227 98.2292C-74.5925 96.3854 -72.6289 94.75 -70.5091 93.2604Z" fill="#401F2A"/>
</g>
<mask id="mask6_371_14828" style="mask-type:luminance" maskUnits="userSpaceOnUse" x="0" y="-3" width="72" height="151">
<path d="M71.668 -3H0.334633V147.667H71.668V-3Z" fill="white"/>
</mask>
<g mask="url(#mask6_371_14828)">
<path d="M-72.5802 73.1092C-72.575 63.854 -70.4864 54.63 -66.5906 46.3227C-62.726 37.9998 -57.0229 30.6769 -50.3302 24.7238C-46.9916 21.7238 -43.3562 19.1092 -39.5854 16.7863C-35.7833 14.4946 -31.8041 12.5675 -27.7052 10.9842C-19.476 7.8071 -10.8093 6.19773 -1.94996 6.27064C15.4511 6.2446 32.899 13.1925 45.5448 25.4998C58.2011 37.7811 66.1073 54.9946 66.8157 73.13C67.1646 82.0936 65.7375 91.3227 62.3521 99.7915C59.0136 108.281 53.8521 116.094 47.2948 122.458C44.0032 125.63 40.3886 128.443 36.5396 130.854C32.6646 133.234 28.5813 135.239 24.3417 136.76C15.8365 139.833 6.91463 141.14 -2.03329 140.875C-19.6843 140.37 -37.0229 133.594 -50.4083 121.583C-57.0854 115.594 -62.7885 108.26 -66.6479 99.9269C-70.575 91.6248 -72.601 82.3748 -72.5802 73.1092ZM-73.3718 73.1144C-73.351 82.4581 -71.7312 91.8227 -68.5229 100.703C-65.2833 109.562 -60.4343 117.984 -53.9656 125.151C-50.726 128.713 -47.1427 132.01 -43.1739 134.828C-41.2052 136.239 -39.1583 137.562 -37.0541 138.776C-34.9239 139.969 -32.7468 141.068 -30.502 142.031C-21.5229 145.901 -11.7468 147.729 -1.94996 147.474C7.69067 147.219 17.3469 144.87 26.0084 140.797C30.3469 138.755 34.498 136.349 38.3417 133.557C42.2219 130.797 45.8157 127.677 49.0969 124.271C62.3365 110.729 70.4719 92.3488 71.149 73.0779C71.4823 63.5623 70.024 53.7498 66.5188 44.6821C63.0605 35.5936 57.6386 27.229 50.8313 20.1977C44.0344 13.1665 35.7948 7.47898 26.748 3.60398C22.2323 1.65085 17.4928 0.208143 12.6646 -0.75019C7.81046 -1.70852 2.96671 -2.21894 -2.05933 -2.1929C-11.7833 -2.12519 -21.6947 -0.0731077 -30.6375 3.89044C-39.6114 7.85398 -47.6114 13.8071 -54.0489 20.9998C-60.502 28.1977 -65.3458 36.63 -68.5906 45.4998C-71.825 54.3852 -73.3875 63.7654 -73.3718 73.1144Z" fill="#401F2A"/>
</g>
<path d="M26.053 212.38L35.0582 207.224C36.4801 206.411 38.2926 206.906 39.1051 208.333C39.9176 209.755 39.4228 211.568 38.0009 212.385L28.9957 217.536C27.5738 218.349 25.7613 217.854 24.9488 216.432C24.1363 215.005 24.6311 213.187 26.053 212.38Z" fill="#401F2A"/>
<path d="M70.8649 190.13L74.0784 163.735C74.2815 162.104 75.7607 160.943 77.3857 161.146C79.0159 161.344 80.1722 162.823 79.969 164.453L76.7607 190.849C76.5576 192.479 75.0784 193.646 73.4534 193.443C71.8232 193.24 70.667 191.761 70.8649 190.13Z" fill="#401F2A"/>
<path d="M124.836 98.7082L106.19 104.5C104.628 104.989 102.961 104.109 102.477 102.547C101.997 100.979 102.867 99.3124 104.435 98.828L123.081 93.0363C124.648 92.5467 126.31 93.427 126.794 94.9895C127.284 96.5624 126.404 98.2238 124.836 98.7082Z" fill="#401F2A"/>
<path d="M108.517 56.4585L120.085 43.5887C121.178 42.3648 123.059 42.271 124.277 43.3648C125.496 44.4689 125.59 46.3439 124.496 47.5627L112.923 60.4325C111.829 61.6512 109.954 61.7554 108.736 60.6512C107.517 59.5523 107.418 57.6773 108.517 56.4585Z" fill="#401F2A"/>
<path d="M114.477 -8.88542L104.831 0.770834C103.674 1.93229 101.794 1.93229 100.638 0.770834C99.4818 -0.390625 99.4818 -2.27083 100.638 -3.42708L110.284 -13.0937C111.44 -14.25 113.32 -14.25 114.477 -13.0937C115.638 -11.9271 115.638 -10.0469 114.477 -8.88542Z" fill="#401F2A"/>
<path d="M153.272 30.4429L152.627 38.8127C152.496 40.4481 151.075 41.6721 149.439 41.5471C147.804 41.4221 146.585 39.995 146.71 38.3596L147.356 29.9898C147.481 28.3491 148.908 27.1304 150.538 27.2554C152.174 27.3804 153.397 28.8127 153.272 30.4429Z" fill="#401F2A"/>
<path d="M158.516 96.1615L154.651 107.75C154.136 109.307 152.453 110.151 150.896 109.625C149.344 109.109 148.506 107.427 149.021 105.87L152.891 94.2761C153.407 92.724 155.084 91.8802 156.641 92.4011C158.193 92.9219 159.032 94.6042 158.516 96.1615Z" fill="#401F2A"/>
<path d="M134.865 149.526L128.438 160.453C127.604 161.864 125.792 162.344 124.375 161.505C122.964 160.677 122.495 158.849 123.323 157.437L129.75 146.51C130.589 145.094 132.401 144.62 133.818 145.458C135.229 146.286 135.698 148.114 134.865 149.526Z" fill="#401F2A"/>
<path d="M88.0393 127.115L74.5445 124.531C72.9299 124.224 71.8779 122.672 72.1852 121.057C72.4925 119.443 74.0445 118.385 75.6591 118.693L89.1539 121.281C90.7633 121.589 91.8206 123.146 91.5133 124.755C91.206 126.37 89.6487 127.427 88.0393 127.115Z" fill="#401F2A"/>
<path d="M80.4436 35.2135L76.579 30.0625C75.5946 28.75 75.8602 26.8906 77.1727 25.9062C78.4852 24.9167 80.3446 25.1875 81.329 26.5L85.1884 31.651C86.1727 32.9635 85.9019 34.8229 84.5946 35.8073C83.2821 36.7917 81.4227 36.526 80.4436 35.2135Z" fill="#401F2A"/>
<path d="M120.013 218.563L98.7943 217.927C97.1589 217.875 95.8672 216.511 95.9193 214.865C95.9662 213.224 97.336 211.938 98.9714 211.99L120.19 212.63C121.831 212.677 123.112 214.047 123.065 215.688C123.018 217.323 121.648 218.615 120.013 218.563Z" fill="#401F2A"/>
<path d="M51.9851 180.313L32.6987 171.297C31.2195 170.604 30.5737 168.839 31.2664 167.344C31.9643 165.859 33.7299 165.219 35.2143 165.911L54.4956 174.938C55.9799 175.63 56.6206 177.396 55.9279 178.88C55.2351 180.37 53.4695 181.01 51.9851 180.313Z" fill="#401F2A"/>
<path d="M60.6686 213.823L62.6009 225.411C62.8665 227.031 61.7728 228.557 60.1582 228.828C58.5436 229.099 57.0071 228.005 56.7467 226.385L54.8196 214.802C54.5488 213.177 55.6425 211.651 57.2571 211.38C58.8717 211.109 60.4082 212.203 60.6686 213.823Z" fill="#401F2A"/>
<mask id="mask7_371_14828" style="mask-type:luminance" maskUnits="userSpaceOnUse" x="0" y="221" width="11" height="14">
<path d="M10.3359 221H0.335938V234.333H10.3359V221Z" fill="white"/>
</mask>
<g mask="url(#mask7_371_14828)">
<path d="M-8.34631 227.672L5.14848 221.88C6.65369 221.234 8.40369 221.932 9.04432 223.437C9.69015 224.948 8.99223 226.692 7.48703 227.338L-6.01297 233.13C-7.51818 233.781 -9.26297 233.083 -9.90881 231.567C-10.5546 230.062 -9.85672 228.317 -8.34631 227.672Z" fill="#401F2A"/>
</g>
<mask id="mask8_371_14828" style="mask-type:luminance" maskUnits="userSpaceOnUse" x="0" y="167" width="13" height="9">
<path d="M13 167.667H0.333333V175.667H13V167.667Z" fill="white"/>
</mask>
<g mask="url(#mask8_371_14828)">
<path d="M-12.1005 169.177L9.11827 168.526C10.7537 168.479 12.1235 169.765 12.1704 171.406C12.2224 173.046 10.9308 174.416 9.29535 174.468L-11.9182 175.109C-13.5536 175.161 -14.9234 173.869 -14.9755 172.234C-15.0224 170.593 -13.7359 169.224 -12.1005 169.177Z" fill="#401F2A"/>
</g>
<path d="M167.621 -6.07812C167.085 -4.28125 166.262 -2.64583 165.116 -0.953125C163.991 0.708334 162.637 2.30729 161.137 3.80208C158.121 6.78125 154.579 9.41146 150.595 11.3698C154.991 10.6615 159.34 9.16146 163.454 7.01042C165.517 5.92188 167.517 4.66667 169.423 3.13542C170.376 2.375 171.298 1.54167 172.178 0.619792C172.626 0.15625 173.053 -0.328126 173.465 -0.84375C173.673 -1.08333 173.897 -1.40625 174.111 -1.69271L174.621 -2.38542L167.621 -6.07812Z" fill="#401F2A"/>
<path d="M176.25 12.3853C173.792 15.7498 171.906 19.0675 169.672 22.104C168.562 23.6196 167.38 25.078 166.031 26.3748C164.682 27.6665 163.156 28.8175 161.349 29.5728C163.307 29.4686 165.281 28.8644 167.13 28.0207C168.984 27.1821 170.734 26.1144 172.401 24.9686C175.745 22.6925 178.792 20.0675 181.812 18.0207L176.25 12.3853Z" fill="#401F2A"/>
</g>
</svg>
