<svg width="290" height="82" viewBox="0 0 290 82" fill="none" xmlns="http://www.w3.org/2000/svg">
<path d="M21.9534 55.5357C21.1755 55.8319 20.3984 56.1486 19.6219 56.4858C18.8367 56.8068 18.0975 57.1551 17.4044 57.5305C17.1948 57.6441 16.8768 57.8268 16.4502 58.0786C16.0398 58.3218 15.6425 58.5891 15.2583 58.8806C14.8741 59.1721 14.5645 59.4858 14.3294 59.8216C14.0855 60.1413 14.0335 60.4301 14.1732 60.6881C14.3042 60.9299 14.5299 61.0578 14.8502 61.072C15.1868 61.0773 15.5417 61.0206 15.9152 60.9017C16.2974 60.7989 16.654 60.6683 16.9852 60.5098C17.3412 60.3587 17.6078 60.2351 17.7852 60.139C18.9297 59.5191 19.855 58.8407 20.5609 58.1039C21.2917 57.3744 21.7559 56.5184 21.9534 55.5357ZM26.9457 52.0498C27.1465 52.4205 27.2311 52.75 27.1996 53.0382C27.1593 53.3102 26.9537 53.5466 26.5829 53.7474C26.3895 53.8522 26.1309 53.9714 25.8072 54.1051C25.4834 54.2388 25.1026 54.3825 24.6646 54.5363C24.586 55.392 24.3657 56.1786 24.0036 56.8959C23.6664 57.6206 23.2248 58.2873 22.6787 58.8958C22.1414 59.5205 21.5362 60.0776 20.8631 60.5673C20.1988 61.073 19.5201 61.5137 18.8269 61.8891C18.3594 62.1423 17.7895 62.3989 17.1171 62.6588C16.4696 62.9262 15.807 63.1078 15.1293 63.2039C14.4677 63.2912 13.843 63.2542 13.2553 63.093C12.6837 62.9231 12.232 62.5318 11.9002 61.9192C11.6121 61.3873 11.5331 60.8566 11.6635 60.3273C11.785 59.7819 12.0668 59.2436 12.5088 58.7123C12.9669 58.1723 13.5486 57.6487 14.2538 57.1416C14.9591 56.6345 15.747 56.1452 16.6175 55.6737C17.1979 55.3593 17.9004 55.0205 18.7253 54.6571C19.5662 54.285 20.6423 53.8273 21.9534 53.2839C21.8412 52.6149 21.637 51.8915 21.3409 51.1137C21.0608 50.3272 20.6675 49.4664 20.1611 48.5314C19.1569 46.6775 18.3063 45.1263 17.6091 43.8776C16.9193 42.6041 16.3524 41.5768 15.9084 40.7956C15.4719 39.9896 15.1364 39.3894 14.902 38.9951C14.6837 38.5921 14.5396 38.3261 14.4697 38.1972C14.2427 37.778 13.9589 37.5043 13.6184 37.376C13.2779 37.2477 12.8335 37.332 12.2854 37.6289C11.7696 37.9083 11.249 38.2945 10.7238 38.7875C10.1898 39.2644 9.73537 39.792 9.36057 40.3703C8.97703 40.9325 8.72144 41.5192 8.59382 42.1304C8.45746 42.7255 8.52898 43.281 8.80839 43.7969C9.12273 44.3772 9.54051 44.8598 10.0617 45.2447C10.5903 45.6047 11.1213 45.9114 11.6546 46.1646C12.1792 46.4017 12.6541 46.624 13.0792 46.8316C13.5118 47.0143 13.7848 47.2104 13.8983 47.42C14.0468 47.6941 14.037 48.0225 13.8691 48.4054C13.7086 48.7634 13.4913 49.0166 13.2172 49.165C12.9754 49.296 12.6688 49.3266 12.2974 49.2567C11.9172 49.1707 11.5145 49.024 11.0893 48.8164C10.6642 48.6088 10.2252 48.3566 9.77253 48.0597C9.32721 47.738 8.89801 47.4075 8.48493 47.0683C8.08797 46.7204 7.73635 46.3791 7.43007 46.0446C7.12379 45.7101 6.90079 45.4139 6.76109 45.156C6.3769 44.4467 6.16533 43.7481 6.12638 43.0603C6.0787 42.3564 6.15528 41.6894 6.35613 41.0594C6.57309 40.4206 6.8814 39.8158 7.28106 39.2449C7.68072 38.674 8.12706 38.1507 8.62008 37.6752C9.12922 37.1909 9.6565 36.7594 10.2019 36.3805C10.7547 35.9769 11.281 35.6397 11.7807 35.369C12.1031 35.1944 12.4547 35.0352 12.8356 34.8915C13.2326 34.739 13.6322 34.6685 14.0345 34.6799C14.453 34.6826 14.8506 34.8008 15.2274 35.0346C15.6116 35.2435 15.9522 35.622 16.2491 36.1701L23.4788 49.5178C23.9853 50.4528 24.3352 51.3683 24.5286 52.2643C24.7234 52.2005 24.9424 52.1236 25.1855 52.0336C25.4287 51.9436 25.6645 51.8785 25.8928 51.8382C26.1286 51.773 26.3371 51.7539 26.5185 51.7808C26.716 51.7989 26.8584 51.8886 26.9457 52.0498Z" fill="#EE395F"/>
<path d="M21.1043 33.8541C21.2071 34.0692 21.3164 34.3827 21.4321 34.7948C21.5643 35.1989 21.6958 35.6441 21.8266 36.1302C21.9574 36.6163 22.0756 37.1186 22.1812 37.6371C22.2868 38.1556 22.3727 38.6327 22.4388 39.0685C22.5135 39.4799 22.5522 39.8372 22.5551 40.1407C22.5665 40.4197 22.5392 40.575 22.473 40.6067C22.3572 40.662 22.1821 40.5933 21.9477 40.4005C21.7054 40.1912 21.4437 39.9201 21.1626 39.5871C20.8736 39.2376 20.5771 38.851 20.273 38.4274C19.9775 37.9794 19.6939 37.5561 19.4221 37.1577C19.159 36.7348 18.9319 36.3659 18.7406 36.0509C18.5415 35.7194 18.4103 35.4874 18.3471 35.3551C18.0703 34.7762 17.9482 34.2656 17.9806 33.8234C18.013 33.3811 18.3022 33.0296 18.848 32.7686C19.245 32.5789 19.643 32.5613 20.0421 32.716C20.4577 32.8628 20.8118 33.2421 21.1043 33.8541Z" fill="#EE395F"/>
<path d="M52.2865 41.6607C52.3914 41.915 52.389 42.1737 52.2795 42.4371C52.1699 42.7004 52.004 42.9473 51.7817 43.1777C51.5694 43.3843 51.3212 43.5759 51.0371 43.7525C50.77 43.9222 50.5347 44.0489 50.3313 44.1328C49.8059 44.3495 49.2979 44.44 48.8072 44.4043C48.3166 44.3687 47.8573 44.2408 47.4294 44.0206C47.0114 43.7765 46.6318 43.4571 46.2906 43.0624C45.9493 42.6677 45.6774 42.2245 45.4747 41.733C45.3209 41.3602 45.1896 41.0177 45.0808 40.7056C44.9889 40.3866 44.9039 40.0844 44.826 39.7993C44.7581 39.4902 44.6766 39.1966 44.5818 38.9184C44.5038 38.6332 44.402 38.3381 44.2762 38.033C44.1643 37.7618 44.0405 37.4857 43.9048 37.2045C43.762 36.9064 43.6028 36.6647 43.4272 36.4793C43.2446 36.277 43.0287 36.138 42.7793 36.0623C42.53 35.9867 42.2443 36.0152 41.9223 36.148C41.5833 36.2878 41.3008 36.6125 41.0747 37.1222C40.8486 37.6319 40.7003 38.2582 40.6299 39.0012C40.5694 39.7202 40.6017 40.5199 40.7268 41.4004C40.8519 42.2809 41.0997 43.1702 41.4701 44.0685L42.3508 46.2041C42.4556 46.4583 42.4363 46.7241 42.2928 47.0014C42.1593 47.2547 41.9231 47.4513 41.5841 47.5911C41.3299 47.6959 41.0307 47.74 40.6867 47.7232C40.3596 47.6994 40.1332 47.535 40.0074 47.2299L37.2816 40.6199C36.9671 39.8572 36.6333 39.3602 36.2802 39.1291C35.944 38.8909 35.5556 38.8627 35.1149 39.0444C34.7759 39.1842 34.4934 39.5089 34.2673 40.0186C34.0412 40.5283 33.8929 41.1546 33.8225 41.8975C33.762 42.6166 33.7943 43.4163 33.9194 44.2968C34.0445 45.1772 34.2923 46.0666 34.6627 46.9649L35.5433 49.1005C35.6482 49.3547 35.6289 49.6205 35.4854 49.8977C35.3519 50.1511 35.1157 50.3477 34.7767 50.4875C34.5225 50.5923 34.2233 50.6363 33.8793 50.6195C33.5522 50.5958 33.3258 50.4314 33.1999 50.1263L29.1008 40.1858C28.9541 39.8299 28.9729 39.5147 29.1572 39.2404C29.3346 38.9491 29.5758 38.7406 29.8808 38.6148C30.169 38.496 30.4666 38.4724 30.7738 38.544C31.074 38.5987 31.2905 38.7871 31.4233 39.1091L32.241 41.0921C32.392 39.9193 32.6218 38.9619 32.9306 38.2198C33.2563 37.4708 33.809 36.9355 34.5886 36.614C35.6564 36.1737 36.5429 36.1353 37.2481 36.4989C37.9463 36.8456 38.5379 37.4147 39.023 38.2062L39.0484 38.1958C39.1408 37.6024 39.2373 37.0668 39.3378 36.5891C39.4552 36.1044 39.5971 35.679 39.7634 35.313C39.9467 34.9399 40.1629 34.6227 40.4121 34.3613C40.6782 34.0929 41.0062 33.8784 41.396 33.7176C42.057 33.445 42.6448 33.3316 43.1594 33.3772C43.674 33.4228 44.1353 33.5796 44.5433 33.8476C44.9513 34.1157 45.3025 34.4864 45.5969 34.96C45.9082 35.4265 46.1792 35.9394 46.4099 36.4987C46.5636 36.8716 46.6949 37.2141 46.8038 37.5261C46.9057 37.8213 46.9991 38.1199 47.084 38.422C47.1789 38.7002 47.2772 38.9868 47.3791 39.2819C47.474 39.5601 47.5843 39.8517 47.7101 40.1568C47.8429 40.4788 47.9857 40.7769 48.1384 41.0511C48.308 41.3182 48.4891 41.541 48.6817 41.7194C48.8912 41.8908 49.1171 42.0059 49.3595 42.0646C49.6118 42.0994 49.8905 42.0539 50.1955 41.9281C50.382 41.8512 50.529 41.7509 50.6367 41.6272C50.7443 41.5035 50.8998 41.3997 51.1032 41.3158C51.4083 41.19 51.6496 41.15 51.8271 41.1958C52.0146 41.2176 52.1677 41.3726 52.2865 41.6607Z" fill="#EE395F"/>
<path d="M64.8732 38.6103C64.3216 38.6108 63.8152 38.6368 63.3539 38.6883C62.8878 38.7222 62.478 38.7881 62.1246 38.8859C61.9832 38.925 61.8203 38.9891 61.6357 39.0782C61.4462 39.1497 61.2729 39.2452 61.1158 39.3648C60.9763 39.4794 60.8643 39.6246 60.7797 39.8002C60.7079 39.9532 60.7014 40.1357 60.7601 40.3477C60.7894 40.4537 60.8732 40.5161 61.0116 40.5349C61.1499 40.5537 61.3011 40.5499 61.465 40.5236C61.6515 40.51 61.8242 40.4813 61.9832 40.4373C62.1599 40.3884 62.2836 40.3541 62.3543 40.3346C62.4073 40.3199 62.5197 40.2793 62.6915 40.2127C62.881 40.1413 63.0985 40.0335 63.3439 39.8895C63.5943 39.7632 63.8526 39.5966 64.1187 39.3898C64.38 39.1653 64.6315 38.9055 64.8732 38.6103ZM76.9432 25.8257C76.5716 24.4829 75.9786 23.2678 75.1641 22.1807C74.3497 21.0935 73.3535 20.2088 72.1756 19.5266C71.0104 18.8218 69.687 18.3701 68.2053 18.1714C66.7413 17.9678 65.174 18.0781 63.5033 18.5024L67.8378 34.1662C68.0432 34.9083 68.1205 35.6003 68.0698 36.242C68.7804 36.1976 69.4217 36.1437 69.9939 36.0805C70.5838 36.0124 71.0819 35.9221 71.4883 35.8097C72.7075 35.4723 73.734 34.9885 74.5678 34.3583C75.4193 33.7232 76.0677 32.9731 76.5131 32.108C76.9762 31.238 77.2411 30.2706 77.3079 29.2059C77.3924 28.1363 77.2708 27.0096 76.9432 25.8257ZM79.3816 25.151C79.8314 26.7766 79.9737 28.2875 79.8084 29.6838C79.6432 31.0801 79.2185 32.3295 78.5344 33.4319C77.8679 34.5293 76.9774 35.4701 75.8628 36.2541C74.7482 37.0381 73.4753 37.6281 72.0441 38.0241C71.2843 38.2344 70.5049 38.374 69.706 38.4429C68.9072 38.5117 68.1122 38.5605 67.3212 38.5892C67.0096 39.1129 66.6343 39.5782 66.1952 39.9851C65.7561 40.3919 65.3088 40.7344 64.8531 41.0127C64.4201 41.3037 64.0077 41.532 63.616 41.6975C63.2242 41.8629 62.9224 41.975 62.7103 42.0337C62.4099 42.1168 62.0468 42.1792 61.6208 42.221C61.1998 42.2805 60.7729 42.2845 60.3401 42.233C59.9123 42.1992 59.5292 42.0865 59.1908 41.8948C58.8524 41.7031 58.6246 41.3952 58.5072 40.9711C58.3703 40.4764 58.3879 40.0245 58.5601 39.6154C58.7273 39.1887 58.976 38.8155 59.306 38.4959C59.6312 38.1587 60.0112 37.8823 60.4462 37.6668C60.8763 37.4337 61.2857 37.2633 61.6744 37.1558C62.3105 36.9797 62.9563 36.8391 63.612 36.7337C64.2853 36.6235 64.9459 36.5358 65.5936 36.4707C65.6007 36.2214 65.5877 35.9682 65.5546 35.7111C65.5343 35.4314 65.4826 35.1413 65.3994 34.841L61.1236 19.3892C60.3774 19.7859 59.6949 20.241 59.0761 20.7547C58.4574 21.2683 57.9303 21.8041 57.495 22.3621C57.0549 22.9024 56.7393 23.4462 56.5484 23.9936C56.3575 24.541 56.3231 25.0356 56.4454 25.4773C56.6214 26.1134 56.8226 26.5999 57.0489 26.9367C57.2753 27.2736 57.5111 27.5412 57.7562 27.7397C58.019 27.9333 58.2833 28.0979 58.5492 28.2336C58.815 28.3693 59.0866 28.5604 59.3641 28.807C59.4416 28.8807 59.4901 28.9529 59.5096 29.0236C59.5469 29.0893 59.5777 29.1664 59.6021 29.2548C59.6853 29.5551 59.6187 29.8303 59.4026 30.0804C59.1865 30.3304 58.9547 30.4897 58.7073 30.5581C58.2126 30.695 57.7342 30.6847 57.2721 30.5273C56.8052 30.3521 56.3692 30.0828 55.9643 29.7193C55.5721 29.3332 55.2247 28.8682 54.922 28.3243C54.6144 27.7626 54.3726 27.1637 54.1965 26.5276C53.9129 25.5028 53.9109 24.5332 54.1906 23.6189C54.4829 22.682 54.9485 21.8208 55.5871 21.0354C56.2209 20.2322 56.9748 19.5195 57.8488 18.8972C58.7356 18.2524 59.6316 17.7096 60.5369 17.2688L60.2802 16.3412C60.1824 15.9878 60.2504 15.6837 60.4842 15.4287C60.718 15.1738 61.0028 14.9999 61.3385 14.907C61.6212 14.8288 61.8955 14.8575 62.1613 14.9932C62.4448 15.124 62.6207 15.3131 62.6892 15.5604L62.9092 16.3556L62.9622 16.3409C65.1002 15.7493 67.0612 15.549 68.8451 15.7402C70.6467 15.9264 72.2404 16.427 73.6263 17.2419C75.0298 18.052 76.2157 19.141 77.184 20.5089C78.165 21.8544 78.8975 23.4017 79.3816 25.151Z" fill="#EE395F"/>
<path d="M100.364 19.6252C100.704 21.5199 100.773 23.305 100.571 24.9804C100.384 26.6345 99.905 28.1175 99.1347 29.4293C98.3611 30.723 97.2912 31.8185 95.9249 32.7157C94.5735 33.5917 92.9143 34.2063 90.9474 34.5594C89.1429 34.8834 87.4754 34.8289 85.9448 34.3959C84.429 33.9417 83.0876 33.2139 81.9206 32.2127C80.7684 31.1903 79.802 29.9575 79.0214 28.5144C78.2555 27.05 77.7187 25.4607 77.4109 23.7465C77.1291 22.1766 77.1604 20.5877 77.505 18.9798C77.8644 17.3506 78.4892 15.8508 79.3793 14.4802C79.5538 14.2068 79.7684 13.8981 80.0234 13.5544C80.275 13.1925 80.5496 12.8545 80.8471 12.5403C81.1414 12.2081 81.4453 11.93 81.759 11.706C82.0875 11.4608 82.4142 11.309 82.739 11.2507C83.1721 11.1729 83.5654 11.2886 83.9189 11.5976C83.2577 12.48 82.6556 13.3798 82.1125 14.2968C81.5661 15.1959 81.118 16.1238 80.7683 17.0807C80.4185 18.0376 80.1868 19.0291 80.073 20.0554C79.9773 21.0784 80.0283 22.1403 80.2259 23.241C80.4592 24.5402 80.8623 25.7997 81.4352 27.0193C82.008 28.2389 82.7387 29.2998 83.6271 30.202C84.5123 31.0862 85.5529 31.7468 86.749 32.184C87.9419 32.6031 89.2781 32.6798 90.7578 32.4142C92.2916 32.1388 93.5554 31.6045 94.5492 30.8114C95.5578 29.997 96.334 29.0288 96.8775 27.9067C97.4179 26.7666 97.7445 25.5252 97.8573 24.1824C97.9669 22.8217 97.9002 21.4646 97.6572 20.1112C97.4822 19.1368 97.1532 18.1342 96.6701 17.1033C96.2018 16.0512 95.6069 15.1242 94.8855 14.3224C94.1822 13.5174 93.353 12.8933 92.398 12.4501C91.461 12.0036 90.4241 11.8825 89.2873 12.0866C87.8256 12.349 86.7978 12.9527 86.2038 13.8975C85.6065 14.8243 85.4342 15.9915 85.6869 17.399C85.7226 17.5975 85.7689 17.8034 85.8258 18.0167C85.8827 18.23 85.938 18.4342 85.9917 18.6295C86.0634 18.8215 86.1229 18.9971 86.1701 19.1562C86.2321 19.2941 86.268 19.3901 86.2777 19.4443C86.3328 19.751 86.219 20.0509 85.9363 20.3438C85.6504 20.6186 85.3269 20.7884 84.966 20.8532C84.6412 20.9116 84.3315 20.8461 84.0367 20.6569C83.7387 20.4496 83.5363 20.0482 83.4294 19.4528C83.2188 18.2799 83.1597 17.1729 83.2522 16.1318C83.3414 15.0727 83.5993 14.123 84.0259 13.2827C84.4704 12.4392 85.0886 11.7322 85.8802 11.1616C86.6899 10.5879 87.6992 10.1924 88.9082 9.97535C90.4059 9.70643 91.8028 9.80953 93.0988 10.2846C94.3916 10.7417 95.5322 11.4403 96.5206 12.3804C97.527 13.3173 98.3592 14.4252 99.0172 15.704C99.672 16.9648 100.121 18.2719 100.364 19.6252Z" fill="#EE395F"/>
<path d="M127.488 29.2238C127.51 29.4978 127.43 29.7437 127.245 29.9613C127.061 30.1789 126.827 30.3546 126.544 30.4883C126.28 30.6389 125.986 30.7552 125.662 30.8372C125.356 30.9176 125.093 30.9669 124.874 30.9851C124.308 31.0319 123.796 30.9638 123.339 30.7808C122.883 30.5978 122.484 30.3364 122.143 29.9966C121.819 29.6371 121.555 29.2175 121.349 28.7378C121.144 28.258 121.02 27.7532 120.976 27.2234L119.698 11.7661C119.67 11.4189 119.629 11.1555 119.578 10.9758C119.543 10.7764 119.503 10.6325 119.459 10.5441C119.415 10.4558 119.356 10.4055 119.281 10.3933C119.225 10.3795 119.16 10.3757 119.087 10.3817C118.831 10.4029 118.575 10.6448 118.319 11.1074C118.063 11.5701 117.823 12.1142 117.599 12.7398C117.391 13.3456 117.203 13.9591 117.033 14.5802C116.881 15.1814 116.763 15.6511 116.681 15.989L113.077 30.139C112.98 30.5332 112.858 30.8376 112.711 31.0522C112.563 31.2668 112.41 31.4265 112.254 31.5315C112.115 31.6349 111.973 31.6927 111.826 31.7048C111.682 31.7351 111.555 31.7548 111.445 31.7639C111.39 31.7684 111.297 31.7577 111.166 31.7317C111.035 31.7058 110.891 31.6257 110.733 31.4916C110.594 31.3743 110.459 31.1923 110.329 30.9456C110.196 30.6805 110.112 30.3288 110.076 29.8903L108.744 13.7752C108.638 12.4963 108.242 11.5909 107.554 11.0591C106.883 10.5075 106.063 10.2717 105.095 10.3517C104.601 10.3925 104.123 10.5056 103.66 10.691C103.197 10.8765 102.786 11.1312 102.426 11.4552C102.085 11.7778 101.813 12.159 101.61 12.5989C101.424 13.0189 101.354 13.503 101.399 14.0512C101.463 14.8186 101.613 15.5236 101.85 16.1662C102.105 16.8074 102.402 17.3899 102.739 17.9139C103.077 18.4379 103.429 18.9055 103.794 19.3168C104.177 19.7267 104.538 20.0923 104.878 20.4138C104.903 20.7244 104.832 20.9695 104.663 21.149C104.492 21.3103 104.279 21.4015 104.023 21.4226C103.383 21.4755 102.771 21.3053 102.187 20.9121C101.603 20.5189 101.073 20.0108 100.599 19.3878C100.141 18.745 99.7591 18.0223 99.4536 17.2197C99.1482 16.4171 98.9637 15.6322 98.9003 14.8648C98.8172 13.8599 98.9267 12.9586 99.2287 12.161C99.5307 11.3635 99.962 10.684 100.523 10.1225C101.083 9.56111 101.737 9.12079 102.483 8.80157C103.248 8.48083 104.032 8.28725 104.836 8.2208C106.882 8.05166 108.458 8.42726 109.565 9.3476C110.688 10.2482 111.331 11.6851 111.494 13.6583C111.51 13.8593 111.535 14.2712 111.568 14.8939C111.6 15.4984 111.631 16.2132 111.663 17.0384C111.712 17.8621 111.758 18.7505 111.8 19.7036C111.859 20.637 111.906 21.5437 111.942 22.4237C111.995 23.2839 112.032 24.0719 112.055 24.7874C112.094 25.4833 112.127 25.9956 112.154 26.3245L112.184 26.3496C112.854 23.3325 113.413 20.858 113.861 18.9263C114.326 16.993 114.697 15.4631 114.971 14.3367C115.263 13.1904 115.48 12.3631 115.622 11.8547C115.762 11.328 115.87 10.9604 115.944 10.7519C116.178 10.0151 116.576 9.37518 117.138 8.83202C117.7 8.28887 118.383 7.98407 119.187 7.91762C119.954 7.8542 120.626 8.07465 121.201 8.57899C121.774 9.06505 122.095 9.71919 122.163 10.5414C122.177 10.7058 122.19 10.8703 122.204 11.0347C122.216 11.1809 122.236 11.4275 122.265 11.7747C122.294 12.1218 122.335 12.6243 122.39 13.282C122.461 13.92 122.542 14.7963 122.635 15.9108C122.727 17.0253 122.844 18.4413 122.986 20.1588C123.126 21.858 123.298 23.9409 123.502 26.4075C123.531 26.7547 123.585 27.0813 123.666 27.3873C123.746 27.6934 123.86 27.9599 124.008 28.1869C124.156 28.4138 124.345 28.5913 124.576 28.7194C124.806 28.8292 125.085 28.8705 125.414 28.8433C125.615 28.8267 125.795 28.775 125.953 28.6883C126.13 28.6002 126.301 28.5493 126.465 28.5357C126.684 28.5176 126.899 28.555 127.109 28.648C127.336 28.7213 127.462 28.9132 127.488 29.2238Z" fill="#EE395F"/>
<path d="M153.264 30.3311C153.258 30.606 153.153 30.8423 152.947 31.0399C152.742 31.2375 152.491 31.3884 152.196 31.4925C151.918 31.6154 151.614 31.701 151.283 31.7494C150.97 31.7982 150.704 31.8204 150.484 31.816C149.916 31.8046 149.414 31.6846 148.978 31.4559C148.543 31.2271 148.173 30.9264 147.868 30.5536C147.583 30.1628 147.362 29.7183 147.207 29.2201C147.052 28.7219 146.98 28.2071 146.991 27.6755L147.216 16.3477C146.58 17.9304 145.867 19.6398 145.079 21.4761C144.309 23.2945 143.493 25.1303 142.631 26.9834C142.439 27.4014 142.182 27.873 141.86 28.3984C141.538 28.9237 141.152 29.4203 140.703 29.8881C140.254 30.3375 139.733 30.7122 139.14 31.0121C138.547 31.3304 137.884 31.4822 137.151 31.4676C136.564 31.4559 136.044 31.3263 135.59 31.0789C135.137 30.8315 134.749 30.5028 134.427 30.093C134.124 29.6835 133.895 29.2022 133.741 28.649C133.587 28.0959 133.516 27.5168 133.528 26.9119L133.81 12.7798C133.823 12.1382 133.724 11.5861 133.513 11.1235C133.302 10.6425 133.017 10.2518 132.656 9.95119C132.314 9.63264 131.906 9.39529 131.433 9.23915C130.977 9.08338 130.511 9.00074 130.035 8.99123C129.54 8.98136 129.053 9.045 128.573 9.18213C128.094 9.31926 127.659 9.53063 127.268 9.81623C126.895 10.1022 126.586 10.4536 126.339 10.8704C126.111 11.2693 125.992 11.7437 125.981 12.2936C125.965 13.0634 126.043 13.7801 126.213 14.4436C126.401 15.1075 126.637 15.7173 126.919 16.2731C127.201 16.8288 127.503 17.3299 127.824 17.7764C128.164 18.2233 128.486 18.6239 128.79 18.9784C128.784 19.29 128.688 19.5265 128.501 19.6878C128.315 19.8308 128.094 19.8997 127.837 19.8946C127.195 19.8818 126.604 19.65 126.063 19.1991C125.522 18.7482 125.047 18.1886 124.639 17.5203C124.249 16.8341 123.943 16.0762 123.721 15.2466C123.499 14.417 123.396 13.6173 123.412 12.8475C123.432 11.8393 123.633 10.954 124.015 10.1914C124.397 9.42891 124.895 8.79706 125.51 8.29589C126.125 7.79472 126.82 7.4235 127.595 7.18224C128.389 6.94134 129.189 6.82893 129.995 6.84501C132.103 6.88705 133.733 7.45132 134.885 8.53784C136.037 9.62435 136.592 11.2216 136.55 13.3295L136.28 26.8568C136.274 27.1317 136.306 27.4074 136.373 27.6838C136.441 27.9602 136.528 28.2095 136.633 28.4317C136.739 28.6355 136.864 28.803 137.009 28.9342C137.171 29.0658 137.335 29.1333 137.5 29.1366C137.848 29.1435 138.171 29.0491 138.468 28.8533C138.784 28.6396 139.064 28.3793 139.309 28.0724C139.572 27.7659 139.798 27.4312 139.989 27.0683C140.198 26.7057 140.369 26.3699 140.504 26.0609L146.62 11.77C146.793 11.37 146.957 10.9607 147.112 10.542C147.267 10.1234 147.44 9.74172 147.63 9.39711C147.82 9.05251 148.018 8.7814 148.224 8.58379C148.448 8.36822 148.716 8.26354 149.028 8.26976C149.376 8.2767 149.613 8.3731 149.737 8.55896C149.881 8.72685 149.95 8.9391 149.945 9.19572L149.587 27.1222C149.58 27.4704 149.601 27.8009 149.65 28.1136C149.699 28.4263 149.785 28.7031 149.908 28.9439C150.032 29.1848 150.202 29.3807 150.419 29.5317C150.637 29.6644 150.91 29.7341 151.24 29.7406C151.405 29.7439 151.608 29.7021 151.848 29.6152C152.106 29.5287 152.346 29.4876 152.566 29.492C152.767 29.496 152.931 29.5635 153.057 29.6943C153.201 29.8072 153.27 30.0195 153.264 30.3311Z" fill="#EE395F"/>
<path d="M171.679 10.3346C171.695 10.1888 171.654 10.0643 171.555 9.96105C171.474 9.85981 171.353 9.78185 171.193 9.72716C171.054 9.65628 170.893 9.61071 170.711 9.59043C170.549 9.55397 170.395 9.52762 170.249 9.51141C170.049 9.48911 169.828 9.483 169.587 9.49309C169.348 9.48495 169.096 9.51225 168.831 9.57497C168.584 9.63972 168.332 9.75002 168.074 9.90588C167.836 10.0638 167.609 10.2783 167.394 10.5496C167.754 10.6266 168.134 10.6965 168.533 10.7593C168.95 10.8242 169.395 10.8829 169.869 10.9356C169.978 10.9478 170.125 10.9549 170.309 10.957C170.512 10.961 170.707 10.9459 170.896 10.9115C171.102 10.8791 171.274 10.8245 171.412 10.7476C171.57 10.6545 171.659 10.5168 171.679 10.3346ZM173.811 10.5718C173.754 11.082 173.579 11.496 173.285 11.8138C172.992 12.1316 172.642 12.3786 172.235 12.5546C171.828 12.7307 171.382 12.838 170.898 12.8763C170.433 12.9168 169.981 12.9127 169.544 12.864C168.961 12.7991 168.433 12.7312 167.962 12.6603C167.51 12.5732 167.077 12.4881 166.662 12.405C166.634 12.4941 166.613 12.5933 166.601 12.7026C166.589 12.8119 166.577 12.9213 166.565 13.0306L164.33 33.3682C164.289 33.7326 164.113 33.9897 163.801 34.1395C163.489 34.2892 163.16 34.3449 162.814 34.3063C162.523 34.2739 162.27 34.1443 162.055 33.9175C161.84 33.6907 161.747 33.4498 161.776 33.1947L164.059 12.6688C164.08 12.4866 164.099 12.3135 164.117 12.1495C164.135 11.9856 164.172 11.8236 164.227 11.6637C163.639 11.4692 163.062 11.2667 162.496 11.056C161.931 10.8272 161.291 10.6084 160.576 10.3998C159.862 10.1912 159.026 9.99667 158.068 9.81634C157.131 9.61982 156.006 9.44858 154.694 9.30262C153.455 9.16477 152.519 9.37417 151.885 9.93084C151.253 10.4693 150.887 11.194 150.785 12.1051C150.747 12.4513 150.735 12.8096 150.749 13.1801C150.783 13.5344 150.886 13.9333 151.058 14.3767C151.23 14.8201 151.489 15.3101 151.835 15.8466C152.182 16.3832 152.657 16.9988 153.263 17.6933C153.603 18.1185 153.748 18.5497 153.7 18.987C153.675 19.2057 153.581 19.3889 153.417 19.5367C153.271 19.6865 153.034 19.7431 152.707 19.7066C152.342 19.6661 152.016 19.5284 151.729 19.2935C151.459 19.0606 151.209 18.8207 150.979 18.5736C150.074 17.5875 149.37 16.5316 148.869 15.4059C148.387 14.2639 148.222 13.0097 148.374 11.6431C148.477 10.7139 148.756 9.95164 149.21 9.35648C149.647 8.74107 150.19 8.25728 150.838 7.90509C151.485 7.55291 152.193 7.32728 152.96 7.22818C153.748 7.1129 154.524 7.09783 155.29 7.18297C156.693 7.33907 157.88 7.52652 158.852 7.74532C159.826 7.94589 160.668 8.16872 161.378 8.4138C162.109 8.64268 162.756 8.88066 163.319 9.12774C163.884 9.3566 164.458 9.58648 165.041 9.81737C165.436 9.25257 165.889 8.82342 166.401 8.52993C166.934 8.22025 167.464 8.0118 167.993 7.90457C168.523 7.77913 169.01 7.7134 169.454 7.70739C169.915 7.70341 170.273 7.71561 170.529 7.74399C170.911 7.78656 171.307 7.87671 171.716 8.01444C172.125 8.15218 172.491 8.34052 172.815 8.57946C173.139 8.81841 173.393 9.10493 173.577 9.43901C173.782 9.7569 173.86 10.1345 173.811 10.5718Z" fill="#EE395F"/>
<path d="M178.893 34.337C178.134 34.0078 177.431 33.7265 176.785 33.4931C176.157 33.2631 175.55 33.0652 174.966 32.8993C174.399 32.7369 173.837 32.6032 173.278 32.4982C172.723 32.3752 172.148 32.2578 171.554 32.146C171.374 32.1122 171.084 32.067 170.684 32.0105C170.284 31.954 169.87 31.9228 169.442 31.917C169.036 31.8966 168.666 31.9296 168.332 32.0162C167.999 32.1027 167.807 32.2812 167.756 32.5514C167.695 32.8757 167.799 33.1658 168.068 33.4216C168.359 33.6627 168.721 33.8707 169.154 34.0454C169.606 34.2236 170.091 34.3708 170.61 34.487C171.126 34.6212 171.591 34.7273 172.005 34.8052C173.411 35.0694 174.705 35.182 175.887 35.1432C177.091 35.0896 178.093 34.8209 178.893 34.337ZM184.646 36.034C184.612 36.2142 184.506 36.3808 184.328 36.5339C184.168 36.6904 183.98 36.7483 183.764 36.7077L183.466 36.6518C183.01 36.3982 182.578 36.1677 182.169 35.9603C181.764 35.7348 181.364 35.5291 180.97 35.3431C180.361 35.8068 179.685 36.1742 178.944 36.4453C178.2 36.7344 177.416 36.9323 176.594 37.0389C175.787 37.1669 174.966 37.2178 174.131 37.1915C173.297 37.1652 172.483 37.0776 171.69 36.9285C171.384 36.871 171 36.7801 170.538 36.656C170.076 36.5319 169.584 36.374 169.06 36.1824C168.537 35.9907 168.011 35.7612 167.483 35.4941C166.973 35.2303 166.516 34.93 166.113 34.5931C165.728 34.2595 165.425 33.8855 165.205 33.4709C164.999 33.0778 164.942 32.638 165.033 32.1515C165.179 31.3767 165.591 30.82 166.27 30.4813C166.95 30.1427 167.715 29.9414 168.566 29.8776C169.418 29.8138 170.263 29.8328 171.102 29.9345C171.941 30.0363 172.604 30.1329 173.09 30.2243C173.991 30.3936 175.059 30.6689 176.293 31.0501C177.548 31.4167 178.903 31.9979 180.358 32.7937C180.449 32.6056 180.533 32.4069 180.61 32.1975C180.69 31.97 180.754 31.7302 180.801 31.4779C180.981 30.523 180.834 29.6653 180.362 28.9049C179.91 28.1298 179.292 27.3981 178.508 26.7096C177.745 26.0065 176.895 25.3152 175.96 24.6357C175.045 23.9415 174.203 23.2142 173.432 22.4536C172.682 21.6784 172.084 20.8386 171.639 19.934C171.215 19.0149 171.113 17.9697 171.333 16.7985C171.533 15.7355 171.945 14.8803 172.57 14.233C173.217 13.5711 173.961 13.0861 174.803 12.7779C175.648 12.4516 176.548 12.2758 177.504 12.2503C178.464 12.2069 179.376 12.2664 180.241 12.429C180.403 12.4594 180.661 12.5266 181.014 12.6303C181.368 12.7341 181.763 12.8644 182.2 13.0211C182.637 13.1779 183.078 13.3633 183.523 13.5775C183.971 13.7737 184.369 13.9884 184.717 14.2217C185.083 14.4583 185.371 14.7085 185.583 14.9721C185.798 15.2177 185.88 15.4757 185.829 15.7459C185.809 15.8541 185.758 15.9751 185.677 16.1091C185.614 16.2464 185.524 16.3787 185.407 16.5059C185.293 16.6151 185.163 16.7119 185.016 16.7963C184.891 16.8661 184.748 16.8857 184.585 16.8553C183.788 16.3323 183.026 15.8719 182.299 15.474C181.571 15.0762 180.748 14.7909 179.829 14.6181C179.253 14.5097 178.646 14.461 178.01 14.472C177.377 14.465 176.783 14.5492 176.228 14.7246C175.672 14.9 175.19 15.1825 174.781 15.572C174.372 15.9615 174.105 16.4895 173.98 17.1562C173.817 18.021 173.967 18.814 174.428 19.5349C174.889 20.2559 175.505 20.9499 176.275 21.617C177.045 22.2841 177.889 22.9557 178.806 23.6318C179.745 24.2933 180.591 25.0027 181.345 25.7598C182.101 26.499 182.695 27.3101 183.126 28.1933C183.557 29.0764 183.669 30.0675 183.462 31.1666C183.357 31.7251 183.205 32.2375 183.005 32.7037C182.806 33.1698 182.568 33.5915 182.292 33.9686C182.672 34.2267 183.05 34.5028 183.423 34.7969C183.801 35.073 184.182 35.3778 184.567 35.7113C184.647 35.7823 184.673 35.8899 184.646 36.034Z" fill="#EE395F"/>
<path d="M195.612 45.0248C196.063 43.4565 196.257 42.015 196.196 40.7004C196.134 39.3858 195.952 38.1604 195.649 37.0243C195.045 38.7964 194.499 40.4326 194.011 41.9328C193.541 43.4382 193.169 44.6666 192.896 45.6182C192.845 45.7944 192.805 46.0021 192.774 46.2413C192.738 46.4981 192.734 46.7449 192.762 46.9817C192.789 47.2184 192.853 47.4275 192.954 47.609C193.067 47.8131 193.247 47.9506 193.493 48.0214C193.74 48.0922 193.974 48.0069 194.196 47.7654C194.436 47.529 194.653 47.2384 194.847 46.8936C195.041 46.5489 195.2 46.194 195.324 45.829C195.466 45.4691 195.562 45.201 195.612 45.0248ZM195.631 29.8094C195.473 29.7638 195.314 29.7183 195.156 29.6728C195.002 29.6096 194.828 29.5502 194.635 29.4946C194.743 29.7163 194.851 29.9381 194.959 30.1598C195.089 30.369 195.209 30.5845 195.317 30.8062C195.385 30.635 195.442 30.4702 195.487 30.3116C195.533 30.153 195.581 29.9856 195.631 29.8094ZM197.818 45.1144C197.672 45.6255 197.447 46.2094 197.144 46.8663C196.836 47.5408 196.458 48.1573 196.012 48.7158C195.565 49.2743 195.059 49.7106 194.492 50.0247C193.925 50.3388 193.315 50.4022 192.663 50.215C192.099 50.0532 191.653 49.7819 191.323 49.4012C191.011 49.0256 190.79 48.5997 190.66 48.1236C190.53 47.6475 190.476 47.1362 190.5 46.5898C190.535 46.066 190.619 45.5751 190.751 45.1169C191.13 43.7953 191.638 42.1578 192.275 40.2044C192.907 38.2686 193.622 36.0799 194.418 33.6381C194.084 32.8747 193.773 32.1654 193.484 31.5103C193.218 30.8426 193.008 30.2103 192.855 29.6132C192.84 29.5326 192.815 29.4205 192.78 29.2769C192.745 29.1334 192.713 28.981 192.683 28.8198C192.675 28.646 192.663 28.4898 192.645 28.3513C192.651 28.2002 192.668 28.0718 192.699 27.9661C192.8 27.6136 193.016 27.3608 193.346 27.2076C193.698 27.0419 194.025 27.002 194.324 27.088L196.307 27.6571C196.941 25.6458 197.572 23.5476 198.199 21.3625C198.275 21.0982 198.359 20.8074 198.45 20.4902C198.546 20.1554 198.628 19.8357 198.697 19.5311C198.788 19.2139 198.871 18.9231 198.947 18.6588C199.023 18.3945 199.081 18.1918 199.121 18.0509C199.192 17.8042 199.294 17.6142 199.428 17.4809C199.579 17.3526 199.738 17.2647 199.904 17.217C200.093 17.1568 200.272 17.1319 200.441 17.1422C200.615 17.1348 200.772 17.1514 200.913 17.1919C201.354 17.3183 201.627 17.5302 201.732 17.8275C201.86 18.1122 201.873 18.4308 201.772 18.7832C201.686 19.0828 201.537 19.5359 201.325 20.1425C201.13 20.7542 200.885 21.4754 200.589 22.3061C200.311 23.1418 199.997 24.0719 199.645 25.0964C199.312 26.126 198.956 27.197 198.58 28.3096L201.355 29.1064C201.602 29.1772 201.767 29.3675 201.849 29.6774C201.955 29.9747 201.98 30.2202 201.924 30.4141C201.838 30.7137 201.676 30.9439 201.44 31.1047C201.208 31.248 200.937 31.2942 200.627 31.2435L197.852 30.4468C197.655 31.0005 197.464 31.5656 197.279 32.1421C197.1 32.7009 196.909 33.266 196.707 33.8374C197.063 34.7218 197.374 35.6313 197.64 36.5659C197.911 37.4829 198.101 38.4149 198.211 39.3619C198.338 40.314 198.37 41.2672 198.305 42.2215C198.254 43.1986 198.091 44.1629 197.818 45.1144Z" fill="#EE395F"/>
<path d="M213.253 35.9696C213.183 35.5572 213.048 35.1904 212.848 34.8693C212.666 34.5542 212.402 34.3367 212.055 34.2169C211.744 34.1091 211.543 34.1851 211.453 34.445C211.399 34.6009 211.403 34.7575 211.465 34.9148C211.533 35.0547 211.624 35.1832 211.739 35.3005C211.854 35.4177 211.983 35.5206 212.127 35.6092C212.271 35.6978 212.395 35.76 212.499 35.796C212.724 35.8739 212.976 35.9318 213.253 35.9696ZM218.07 36.8496C217.986 37.0922 217.692 37.2716 217.186 37.3877C216.703 37.4924 216.146 37.5616 215.514 37.5951C215.513 38.6619 215.393 39.5418 215.154 40.2349C214.812 41.2225 214.333 42.0463 213.717 42.7062C213.119 43.372 212.423 43.8687 211.631 44.1961C210.862 44.5122 210.019 44.6767 209.103 44.6897C208.21 44.6913 207.296 44.5303 206.36 44.2068C205.477 43.9012 204.673 43.4777 203.948 42.9362C203.241 42.4007 202.663 41.7739 202.213 41.0557C201.78 40.3435 201.51 39.552 201.404 38.6812C201.315 37.8163 201.439 36.8987 201.774 35.9284C202.026 35.2007 202.434 34.4979 202.998 33.82C203.562 33.1422 204.215 32.5726 204.956 32.1113C205.704 31.6326 206.496 31.3052 207.333 31.129C208.187 30.9588 209.021 31.0145 209.836 31.2961C209.974 31.344 210.083 31.4496 210.162 31.6128C210.248 31.7587 210.261 31.9183 210.201 32.0916C210.088 32.3048 209.898 32.4621 209.63 32.5635C209.386 32.6535 209.092 32.7459 208.749 32.8407C208.405 32.9354 208.039 33.0415 207.649 33.1589C207.259 33.2763 206.866 33.4603 206.469 33.711C206.089 33.9676 205.726 34.3172 205.379 34.7598C205.038 35.185 204.745 35.7529 204.499 36.4632C204.289 37.0697 204.195 37.6774 204.218 38.2864C204.246 38.8781 204.382 39.4391 204.625 39.9695C204.868 40.4998 205.208 40.9761 205.644 41.3984C206.103 41.8094 206.662 42.1287 207.32 42.3564C207.892 42.5541 208.46 42.6242 209.023 42.5668C209.603 42.5153 210.147 42.3445 210.655 42.0545C211.162 41.7645 211.622 41.3608 212.034 40.8436C212.445 40.3264 212.78 39.6953 213.037 38.9502C213.163 38.5864 213.253 38.1033 213.306 37.5009C212.645 37.4471 212.133 37.3573 211.77 37.2315C211.423 37.1117 211.103 36.9429 210.81 36.7251C210.517 36.5073 210.276 36.2495 210.088 35.9517C209.9 35.6539 209.77 35.3278 209.699 34.9733C209.645 34.6248 209.684 34.26 209.815 33.8788C210.049 33.2031 210.448 32.7785 211.012 32.605C211.6 32.4203 212.206 32.4357 212.83 32.6514C213.557 32.9031 214.118 33.3297 214.511 33.9312C214.904 34.5328 215.178 35.1997 215.332 35.932C215.878 35.8685 216.374 35.8074 216.822 35.7486C217.275 35.6725 217.596 35.6674 217.787 35.7333C217.978 35.7992 218.092 35.9454 218.13 36.172C218.168 36.3985 218.148 36.6244 218.07 36.8496Z" fill="#EE395F"/>
<path d="M226.851 50.8211C226.739 51.092 226.576 51.2925 226.363 51.4225C226.167 51.5596 225.943 51.6452 225.691 51.6794C225.446 51.6966 225.177 51.6744 224.885 51.6127C224.61 51.5581 224.345 51.478 224.091 51.3726C223.295 51.0422 222.717 50.6431 222.355 50.1754C222.017 49.6978 221.809 49.1946 221.731 48.6658C221.677 48.1272 221.716 47.5778 221.85 47.0178C222 46.4648 222.177 45.9427 222.381 45.4517C222.493 45.1808 222.645 44.8866 222.836 44.569C223.028 44.2515 223.223 43.9254 223.421 43.5909C223.62 43.2565 223.811 42.9389 223.995 42.6383C224.187 42.3207 224.332 42.0434 224.43 41.8064C224.571 41.4677 224.592 41.2484 224.495 41.1484C224.424 41.0794 224.355 41.0308 224.287 41.0027C224.236 40.9816 224.169 40.9535 224.084 40.9184C223.83 40.8129 223.472 40.6942 223.011 40.5622C222.567 40.4373 222.184 40.3081 221.862 40.1745C221.828 40.1604 221.752 40.1288 221.633 40.0796C221.522 40.0135 221.385 39.9368 221.223 39.8496C221.169 40.0259 221.119 40.1938 221.073 40.3532C221.027 40.5126 221 40.6008 220.993 40.6177C220.82 41.0819 220.596 41.5744 220.32 42.0951C220.044 42.6159 219.723 43.1275 219.355 43.6301C218.988 44.1326 218.585 44.6006 218.147 45.0341C217.709 45.4676 217.241 45.8293 216.744 46.119C216.271 46.3989 215.778 46.5814 215.266 46.6667C214.761 46.735 214.263 46.6673 213.772 46.4634C213.4 46.3088 213.309 46.0029 213.498 45.5457C213.618 45.2579 213.779 45.037 213.982 44.883C214.209 44.7191 214.457 44.5742 214.728 44.4484C214.999 44.3225 215.285 44.1832 215.586 44.0305C215.912 43.8679 216.245 43.639 216.586 43.3438C216.927 43.0486 217.269 42.6547 217.613 42.1621C217.973 41.6765 218.318 41.0358 218.649 40.24C218.74 40.0199 218.822 39.7264 218.895 39.3597C218.992 38.983 219.083 38.6437 219.169 38.3418C218.816 37.9968 218.543 37.6255 218.351 37.2281C218.175 36.8377 218.169 36.4477 218.33 36.0583C218.527 35.5842 218.876 35.2925 219.378 35.1833C219.88 35.074 220.368 35.1178 220.842 35.3147C221.113 35.4271 221.324 35.6137 221.473 35.8744C221.623 36.1351 221.766 36.4128 221.902 36.7073C222.062 36.992 222.225 37.2682 222.392 37.5359C222.575 37.8107 222.836 38.0184 223.175 38.1589C223.497 38.2925 223.788 38.4035 224.049 38.492C224.334 38.5707 224.594 38.6387 224.828 38.6962C225.086 38.7438 225.329 38.8049 225.556 38.8793C225.807 38.9439 226.059 39.0289 226.313 39.1343C226.923 39.3874 227.332 39.7161 227.542 40.1206C227.758 40.5081 227.74 41.0067 227.487 41.6163C227.311 42.0396 227.134 42.3931 226.957 42.6767C226.78 42.9604 226.595 43.2611 226.404 43.5786C226.219 43.8792 226.014 44.2307 225.788 44.6329C225.568 45.0182 225.328 45.5241 225.068 46.1505C224.921 46.5061 224.79 46.8687 224.676 47.2384C224.569 47.5911 224.502 47.9204 224.474 48.2265C224.463 48.5396 224.507 48.816 224.607 49.0556C224.722 49.3022 224.933 49.4888 225.238 49.6153C225.576 49.7559 225.863 49.8056 226.099 49.7644C226.334 49.7232 226.537 49.7377 226.706 49.808C226.841 49.8643 226.927 49.9692 226.962 50.1229C227.015 50.2836 226.978 50.5163 226.851 50.8211Z" fill="#EE395F"/>
<path d="M240.943 60.5461C239.999 60.9598 239.135 61.4573 238.351 62.0386C237.584 62.6285 236.956 63.3854 236.468 64.3095C236.417 64.4068 236.353 64.5284 236.275 64.6743C236.206 64.845 236.161 65.008 236.142 65.1634C236.113 65.335 236.122 65.4951 236.168 65.6437C236.205 65.8086 236.313 65.9381 236.491 66.0323C236.783 66.1863 237.1 66.136 237.442 65.8811C237.792 65.651 238.114 65.3342 238.41 64.9307C238.714 64.552 238.985 64.1562 239.224 63.7432C239.454 63.3465 239.612 63.0671 239.698 62.9049L240.943 60.5461ZM247.593 58.024C247.515 58.1699 247.373 58.3021 247.165 58.4205C246.966 58.5227 246.714 58.6278 246.408 58.7359C246.111 58.8277 245.781 58.9229 245.418 59.0214C245.055 59.12 244.675 59.2305 244.279 59.3529C244.021 59.8803 243.738 60.4358 243.43 61.0194C243.113 61.6193 242.762 62.284 242.377 63.0135C242.043 63.6458 241.638 64.3339 241.162 65.0778C240.687 65.8218 240.152 66.4619 239.558 66.9982C238.955 67.5507 238.299 67.9298 237.589 68.1355C236.87 68.3574 236.114 68.2586 235.32 67.8392C234.882 67.6081 234.552 67.3096 234.331 66.9439C234.125 66.5867 233.999 66.1984 233.951 65.7791C233.919 65.3684 233.949 64.9385 234.041 64.4895C234.14 64.0652 234.293 63.6586 234.498 63.2695C235.063 62.1995 235.994 61.2606 237.292 60.4529C238.605 59.6537 240.237 58.8984 242.189 58.1872C242.36 57.863 242.527 57.5468 242.689 57.2388C242.861 56.9145 243.024 56.586 243.179 56.2532C242.662 56.6436 242.154 56.9768 241.656 57.2528C241.174 57.5373 240.694 57.7399 240.215 57.8605C239.737 57.9812 239.244 58.0112 238.737 57.9508C238.246 57.8989 237.725 57.7275 237.174 57.4364C236.542 57.1026 236.1 56.6622 235.85 56.1154C235.608 55.5524 235.49 54.9511 235.496 54.3116C235.519 53.6806 235.631 53.0352 235.835 52.3755C236.054 51.7242 236.305 51.1311 236.587 50.5961L239.233 45.5866C239.361 45.3434 239.581 45.2007 239.894 45.1584C240.215 45.0999 240.538 45.1562 240.862 45.3275C241.105 45.4559 241.314 45.6491 241.489 45.9072C241.664 46.1653 241.674 46.4403 241.52 46.7321L239.132 51.2553C238.986 51.5309 238.822 51.8799 238.641 52.3023C238.459 52.7248 238.323 53.1605 238.231 53.6095C238.139 54.0585 238.109 54.4679 238.142 54.8377C238.191 55.216 238.378 55.4908 238.702 55.662C239.253 55.953 239.842 56.0358 240.468 55.9102C241.118 55.777 241.756 55.4918 242.381 55.0546C243.006 54.6174 243.6 54.0606 244.165 53.3842C244.738 52.6917 245.234 51.9482 245.654 51.1538L246.604 49.3542C246.732 49.111 246.936 48.9598 247.217 48.9004C247.521 48.8333 247.836 48.8854 248.16 49.0566C248.403 49.185 248.621 49.3825 248.811 49.6492C249.019 49.9244 249.045 50.2079 248.891 50.4997L246.413 55.1932C246.233 55.5336 246.058 55.866 245.886 56.1902C245.715 56.5145 245.556 56.8349 245.41 57.1515C245.881 57.0061 246.273 56.8917 246.586 56.8085C246.916 56.7338 247.162 56.7392 247.324 56.8248C247.551 56.9447 247.678 57.1156 247.706 57.3377C247.75 57.5683 247.712 57.797 247.593 58.024Z" fill="#EE395F"/>
<path d="M259.6 59.0978C259.618 58.6798 259.564 58.2927 259.437 57.9366C259.326 57.5901 259.114 57.3216 258.8 57.1311C258.518 56.9596 258.306 56.9914 258.163 57.2263C258.077 57.3673 258.048 57.5212 258.075 57.688C258.112 57.8391 258.174 57.9841 258.261 58.123C258.349 58.2619 258.453 58.3898 258.575 58.5069C258.697 58.624 258.805 58.7111 258.899 58.7682C259.103 58.8921 259.336 59.0019 259.6 59.0978ZM264.121 60.9783C263.988 61.1976 263.661 61.3104 263.143 61.3167C262.649 61.3169 262.09 61.2664 261.464 61.1652C261.238 62.2078 260.935 63.0423 260.553 63.6689C260.01 64.5617 259.368 65.2654 258.626 65.7797C257.9 66.3036 257.115 66.6417 256.271 66.7938C255.453 66.9399 254.595 66.9222 253.697 66.7408C252.824 66.5532 251.964 66.2022 251.118 65.6878C250.319 65.202 249.623 64.6177 249.03 63.935C248.452 63.2619 248.02 62.5267 247.732 61.7295C247.46 60.9418 247.364 60.1112 247.445 59.2376C247.541 58.3735 247.856 57.5029 248.39 56.6257C248.79 55.9678 249.337 55.3674 250.032 54.8244C250.727 54.2815 251.486 53.8631 252.308 53.5693C253.14 53.2598 253.984 53.1077 254.839 53.1128C255.71 53.1274 256.513 53.3586 257.25 53.8063C257.375 53.8825 257.459 54.0088 257.502 54.1851C257.554 54.3458 257.533 54.5044 257.438 54.6611C257.283 54.8456 257.063 54.9591 256.78 55.0014C256.522 55.0376 256.215 55.0657 255.86 55.0855C255.505 55.1054 255.124 55.1315 254.718 55.1636C254.312 55.1958 253.889 55.2923 253.448 55.4532C253.022 55.6236 252.593 55.8883 252.16 56.2473C251.737 56.5906 251.33 57.0834 250.939 57.7256C250.606 58.2739 250.386 58.848 250.278 59.4479C250.18 60.0321 250.194 60.6091 250.32 61.179C250.445 61.7488 250.676 62.2863 251.013 62.7914C251.375 63.2903 251.853 63.7208 252.448 64.0828C252.965 64.3971 253.505 64.5858 254.067 64.6489C254.646 64.7216 255.213 64.6699 255.771 64.494C256.329 64.3181 256.863 64.021 257.375 63.6028C257.887 63.1845 258.348 62.6386 258.757 61.965C258.957 61.6361 259.147 61.1829 259.327 60.6054C258.693 60.413 258.211 60.2167 257.882 60.0167C257.569 59.8262 257.292 59.5934 257.052 59.3184C256.811 59.0435 256.631 58.7405 256.51 58.4097C256.389 58.0788 256.332 57.7326 256.337 57.3711C256.358 57.019 256.473 56.6707 256.683 56.3261C257.054 55.7152 257.534 55.3848 258.122 55.3348C258.736 55.2788 259.325 55.4222 259.888 55.7651C260.546 56.1652 261.004 56.7009 261.261 57.3721C261.518 58.0434 261.644 58.7531 261.639 59.5014C262.186 59.555 262.684 59.6004 263.134 59.6377C263.593 59.6593 263.908 59.7225 264.081 59.8273C264.253 59.932 264.334 60.0992 264.323 60.3286C264.312 60.5581 264.245 60.7746 264.121 60.9783Z" fill="#EE395F"/>
<path d="M271.188 77.3668C271.031 77.5922 270.812 77.7299 270.531 77.7797C270.25 77.8295 269.953 77.823 269.639 77.7602C269.35 77.6928 269.055 77.5872 268.753 77.4433C268.466 77.3099 268.232 77.1802 268.052 77.0542C267.24 76.4872 266.755 75.7899 266.595 74.9625C266.435 74.1351 266.552 73.3112 266.946 72.4908C266.407 72.7181 265.887 72.9025 265.386 73.0441C264.91 73.1812 264.442 73.2575 263.984 73.2729C263.526 73.2883 263.065 73.2121 262.601 73.0443C262.141 72.9021 261.656 72.6524 261.145 72.2954C260.559 71.8859 260.175 71.3944 259.995 70.8208C259.824 70.2322 259.782 69.6209 259.867 68.9871C259.967 68.3637 260.159 67.7372 260.442 67.1076C260.74 66.4886 261.063 65.9311 261.409 65.4351L264.874 60.4757C265.032 60.2503 265.268 60.1359 265.584 60.1327C265.91 60.1143 266.223 60.2102 266.523 60.4202C266.749 60.5777 266.932 60.7953 267.074 61.073C267.215 61.3508 267.191 61.6249 267.002 61.8954L263.852 66.404C263.674 66.6595 263.468 66.9856 263.236 67.3823C263.003 67.779 262.814 68.1944 262.667 68.6286C262.52 69.0628 262.44 69.4654 262.427 69.8364C262.429 70.2179 262.58 70.5136 262.88 70.7236C263.391 71.0806 263.98 71.2461 264.647 71.2199C265.325 71.1788 266.015 70.9904 266.719 70.6549C267.423 70.3193 268.105 69.8561 268.764 69.2653C269.448 68.6699 270.048 68.0041 270.562 67.2677L271.885 65.3741C272.043 65.1486 272.264 65.0238 272.549 64.9995C272.86 64.9707 273.166 65.0613 273.467 65.2713C273.692 65.4288 273.883 65.6517 274.039 65.9399C274.211 66.2386 274.202 66.5232 274.013 66.7938L269.918 72.6549C269.718 72.9404 269.552 73.2267 269.419 73.5137C269.285 73.8007 269.203 74.0786 269.172 74.3475C269.14 74.6163 269.173 74.8739 269.269 75.1201C269.376 75.3513 269.565 75.5614 269.835 75.7504C270 75.8659 270.172 75.9409 270.349 75.9753C270.541 76.0202 270.705 76.0898 270.84 76.1843C271.021 76.3103 271.162 76.4762 271.264 76.6819C271.392 76.883 271.367 77.1113 271.188 77.3668Z" fill="#EE395F"/>
<path d="M275.408 80.0798C275.206 80.3404 274.962 80.5343 274.678 80.6616C274.419 80.7856 274.146 80.8525 273.86 80.8623C273.574 80.8722 273.281 80.8306 272.982 80.7376C272.709 80.6413 272.463 80.5088 272.246 80.3401C271.768 79.969 271.465 79.478 271.336 78.8671C271.207 78.2562 271.333 77.7046 271.716 77.2123C272.12 76.691 272.629 76.4245 273.242 76.4128C273.854 76.4011 274.4 76.5808 274.877 76.9519C275.37 77.3342 275.679 77.818 275.805 78.4032C275.945 78.9997 275.813 79.5585 275.408 80.0798ZM286.588 64.8767C286.555 64.9201 286.515 64.9708 286.47 65.0287C286.425 65.0866 286.298 65.2202 286.089 65.4294C285.895 65.6498 285.598 65.9877 285.198 66.443C284.798 66.8984 284.218 67.5395 283.46 68.3666C282.727 69.1904 281.789 70.2491 280.645 71.5427C279.513 72.8218 278.116 74.3954 276.457 76.2634L275.24 75.3188L283.642 62.7973C284.059 62.1699 284.497 61.7556 284.955 61.5542C285.425 61.3384 285.971 61.4723 286.593 61.9559C287.535 62.6868 287.533 63.6604 286.588 64.8767Z" fill="#EE395F"/>
</svg>
