<svg width="428" height="306" viewBox="0 0 428 306" fill="none" xmlns="http://www.w3.org/2000/svg">
<mask id="mask0_371_13518" style="mask-type:luminance" maskUnits="userSpaceOnUse" x="380" y="0" width="35" height="40">
<path d="M380.68 0H414.098V39.286H380.68V0Z" fill="white"/>
</mask>
<g mask="url(#mask0_371_13518)">
<mask id="mask1_371_13518" style="mask-type:luminance" maskUnits="userSpaceOnUse" x="263" y="-94" width="342" height="304">
<path d="M350.211 -93.5264L604.354 85.6244L517.166 209.435L263.02 30.2838L350.211 -93.5264Z" fill="white"/>
</mask>
<g mask="url(#mask1_371_13518)">
<mask id="mask2_371_13518" style="mask-type:luminance" maskUnits="userSpaceOnUse" x="263" y="-94" width="342" height="304">
<path d="M350.211 -93.5264L604.354 85.6244L517.166 209.435L263.02 30.2838L350.211 -93.5264Z" fill="white"/>
</mask>
<g mask="url(#mask2_371_13518)">
<mask id="mask3_371_13518" style="mask-type:luminance" maskUnits="userSpaceOnUse" x="263" y="-94" width="342" height="304">
<path d="M350.211 -93.5264L604.354 85.6244L517.166 209.435L263.02 30.2838L350.211 -93.5264Z" fill="white"/>
</mask>
<g mask="url(#mask3_371_13518)">
<path d="M409.869 -12.3914C408.306 -12.9497 406.557 -12.8746 405.052 -12.1857C404.579 -11.8951 404.109 -11.6012 403.639 -11.3074C402.738 -10.5531 402.086 -9.62585 401.681 -8.52224C400.663 -6.39664 399.615 -4.28411 398.538 -2.1879C396.711 1.28946 394.824 4.73416 392.931 8.1756C390.797 12.048 388.754 15.9662 386.685 19.8745C385.396 22.3168 384.126 24.7722 382.857 27.2276C382.772 27.3876 382.687 27.5508 382.606 27.7108C382.247 28.3932 381.839 29.1116 381.522 29.8332C381.457 29.9866 381.411 30.1172 381.366 30.2772C381.209 30.816 381.088 31.3645 381 31.9196C381.013 32.5073 381.042 33.0918 381.082 33.6795C381.268 34.7243 381.692 35.6549 382.358 36.4777C383.066 37.3266 383.937 37.9405 384.975 38.3192C385.974 38.6718 386.995 38.76 388.039 38.5837C389.08 38.3976 390.014 37.9698 390.836 37.3005C392.076 36.3895 392.778 35.0214 393.522 33.7285C394.034 32.8371 394.54 31.9392 395.046 31.0413C396.094 29.1638 397.145 27.2831 398.173 25.3893C400.323 21.4353 402.448 17.4649 404.602 13.5108C407.777 7.6793 410.858 1.79229 413.72 -4.19921C413.841 -4.74122 413.958 -5.28323 414.076 -5.82524C414.164 -6.93865 413.981 -8.00308 413.524 -9.02506C413.054 -10.0601 412.3 -10.9515 411.377 -11.6045C410.913 -11.931 410.408 -12.1988 409.869 -12.3914Z" fill="#FFE36A"/>
</g>
</g>
</g>
</g>
<mask id="mask4_371_13518" style="mask-type:luminance" maskUnits="userSpaceOnUse" x="396" y="106" width="52" height="22">
<path d="M396.551 106.992H447.514V127.888H396.551V106.992Z" fill="white"/>
</mask>
<g mask="url(#mask4_371_13518)">
<mask id="mask5_371_13518" style="mask-type:luminance" maskUnits="userSpaceOnUse" x="263" y="-94" width="342" height="304">
<path d="M350.207 -93.5259L604.35 85.6249L517.162 209.435L263.016 30.2843L350.207 -93.5259Z" fill="white"/>
</mask>
<g mask="url(#mask5_371_13518)">
<mask id="mask6_371_13518" style="mask-type:luminance" maskUnits="userSpaceOnUse" x="263" y="-94" width="342" height="304">
<path d="M350.207 -93.5259L604.35 85.6249L517.162 209.435L263.016 30.2843L350.207 -93.5259Z" fill="white"/>
</mask>
<g mask="url(#mask6_371_13518)">
<mask id="mask7_371_13518" style="mask-type:luminance" maskUnits="userSpaceOnUse" x="263" y="-94" width="342" height="304">
<path d="M350.207 -93.5259L604.35 85.6249L517.162 209.435L263.016 30.2843L350.207 -93.5259Z" fill="white"/>
</mask>
<g mask="url(#mask7_371_13518)">
<path d="M438.529 107.459C434.222 108.206 429.933 108.997 425.635 109.803C421.354 110.606 417.055 111.331 412.767 112.105C410.894 112.445 409.021 112.771 407.151 113.114C406.26 113.277 405.372 113.46 404.484 113.653C404.014 113.754 403.551 113.862 403.081 113.969C402.83 114.022 402.608 114.093 402.37 114.182C401.808 114.407 401.254 114.632 400.699 114.861C399.641 115.462 398.796 116.284 398.163 117.323C398.124 117.378 398.085 117.43 398.045 117.486C397.027 118.903 396.861 121.048 397.282 122.684C397.722 124.382 398.829 125.851 400.323 126.759C401.449 127.448 402.755 127.921 404.099 127.876C404.941 127.843 405.773 127.712 406.609 127.578C407.105 127.497 407.598 127.422 408.097 127.34C409.138 127.174 410.182 127.007 411.227 126.827C413.257 126.478 415.277 126.037 417.294 125.619C421.523 124.734 425.743 123.797 429.982 122.958C433.97 122.168 437.984 121.515 441.992 120.82C443.683 120.522 445.298 119.132 446.156 117.705C447.116 116.124 447.4 114.185 446.936 112.396C446.486 110.665 445.357 109.153 443.833 108.226C443.284 107.991 442.739 107.749 442.194 107.511C441.584 107.338 440.977 107.246 440.364 107.237C439.753 107.227 439.143 107.305 438.529 107.459Z" fill="#FFE36A"/>
</g>
</g>
</g>
</g>
<mask id="mask8_371_13518" style="mask-type:luminance" maskUnits="userSpaceOnUse" x="345" y="0" width="24" height="19">
<path d="M345.59 0H368.983V18.3892H345.59V0Z" fill="white"/>
</mask>
<g mask="url(#mask8_371_13518)">
<mask id="mask9_371_13518" style="mask-type:luminance" maskUnits="userSpaceOnUse" x="263" y="-94" width="342" height="304">
<path d="M350.211 -93.5264L604.354 85.6244L517.166 209.435L263.02 30.2838L350.211 -93.5264Z" fill="white"/>
</mask>
<g mask="url(#mask9_371_13518)">
<mask id="mask10_371_13518" style="mask-type:luminance" maskUnits="userSpaceOnUse" x="263" y="-94" width="342" height="304">
<path d="M350.211 -93.5264L604.354 85.6244L517.166 209.435L263.02 30.2838L350.211 -93.5264Z" fill="white"/>
</mask>
<g mask="url(#mask10_371_13518)">
<mask id="mask11_371_13518" style="mask-type:luminance" maskUnits="userSpaceOnUse" x="263" y="-94" width="342" height="304">
<path d="M350.211 -93.5264L604.354 85.6244L517.166 209.435L263.02 30.2838L350.211 -93.5264Z" fill="white"/>
</mask>
<g mask="url(#mask11_371_13518)">
<path d="M356.811 -18.1153C354.908 -18.8009 352.77 -18.7095 350.927 -17.8671C349.024 -16.9986 347.523 -15.3628 346.815 -13.3939C346.162 -11.5818 346.139 -9.24393 347.056 -7.50361C348.192 -5.34863 349.011 -3.06958 349.752 -0.761135C350.362 1.3514 350.949 3.47046 351.547 5.583C351.889 6.78783 352.229 7.98939 352.578 9.19422C352.741 9.77215 352.908 10.3468 353.074 10.928C353.309 11.7737 353.528 12.6193 353.834 13.4487C354.357 14.8788 355.332 15.8257 356.478 16.7726C357.144 17.3146 357.963 17.6052 358.733 17.9578C359.908 18.3757 361.112 18.477 362.339 18.268C363.566 18.0492 364.666 17.5464 365.629 16.7562C367.371 15.3131 368.341 13.3834 368.556 11.1272C368.703 9.60889 368.334 8.07429 367.616 6.73885C367.502 6.52009 367.401 6.29153 367.313 6.05971C366.546 3.18313 366.007 0.247786 365.28 -2.63532C364.728 -4.83275 364.056 -6.99752 363.334 -9.14924C362.773 -10.8275 362.101 -12.4405 361.275 -14.0045C360.916 -14.5791 360.56 -15.1505 360.205 -15.7252C359.748 -16.277 359.235 -16.7504 358.668 -17.1488C358.103 -17.5471 357.483 -17.8704 356.811 -18.1153Z" fill="#FFE36A"/>
</g>
</g>
</g>
</g>
<mask id="mask12_371_13518" style="mask-type:luminance" maskUnits="userSpaceOnUse" x="416" y="41" width="31" height="33">
<path d="M416.602 41.7935H446.678V73.5566H416.602V41.7935Z" fill="white"/>
</mask>
<g mask="url(#mask12_371_13518)">
<mask id="mask13_371_13518" style="mask-type:luminance" maskUnits="userSpaceOnUse" x="263" y="-94" width="342" height="304">
<path d="M350.207 -93.5264L604.35 85.6244L517.162 209.435L263.016 30.2838L350.207 -93.5264Z" fill="white"/>
</mask>
<g mask="url(#mask13_371_13518)">
<mask id="mask14_371_13518" style="mask-type:luminance" maskUnits="userSpaceOnUse" x="263" y="-94" width="342" height="304">
<path d="M350.207 -93.5264L604.35 85.6244L517.162 209.435L263.016 30.2838L350.207 -93.5264Z" fill="white"/>
</mask>
<g mask="url(#mask14_371_13518)">
<mask id="mask15_371_13518" style="mask-type:luminance" maskUnits="userSpaceOnUse" x="263" y="-94" width="342" height="304">
<path d="M350.207 -93.5264L604.35 85.6244L517.162 209.435L263.016 30.2838L350.207 -93.5264Z" fill="white"/>
</mask>
<g mask="url(#mask15_371_13518)">
<path d="M439.233 42.0479C437.33 41.8879 434.958 42.4527 433.545 43.8241C430 47.2557 426.949 51.138 423.669 54.8145C423.173 55.3336 422.664 55.8463 422.152 56.3556C421.316 57.1882 420.422 57.9588 419.583 58.7914C419.094 59.3171 418.608 59.8428 418.125 60.3685C417.296 61.5504 416.816 62.863 416.689 64.2997C416.512 66.3665 417.162 68.4594 418.474 70.0593C419.835 71.7148 421.838 72.7694 423.973 72.9522C425.937 73.1155 428.251 72.5245 429.73 71.1532C431.247 69.7492 432.553 68.0676 433.926 66.5134C435.584 64.7503 437.262 63.0034 438.884 61.2043C440.095 59.8624 441.269 58.478 442.477 57.1229C442.836 56.7572 443.198 56.3948 443.57 56.0356C444.05 55.5198 444.53 54.9973 445.013 54.4814C445.829 53.3093 446.305 52.013 446.432 50.596C446.605 48.552 445.962 46.4852 444.667 44.9016C444.216 44.3563 443.694 43.8731 443.123 43.4715C441.981 42.665 440.633 42.1654 439.233 42.0479Z" fill="#FFE36A"/>
</g>
</g>
</g>
</g>
<mask id="mask16_371_13518" style="mask-type:luminance" maskUnits="userSpaceOnUse" x="325" y="28" width="31" height="44">
<path d="M325.539 28.4194H355.616V71.8847H325.539V28.4194Z" fill="white"/>
</mask>
<g mask="url(#mask16_371_13518)">
<mask id="mask17_371_13518" style="mask-type:luminance" maskUnits="userSpaceOnUse" x="263" y="-94" width="342" height="304">
<path d="M350.211 -93.5264L604.354 85.6244L517.166 209.435L263.02 30.2838L350.211 -93.5264Z" fill="white"/>
</mask>
<g mask="url(#mask17_371_13518)">
<mask id="mask18_371_13518" style="mask-type:luminance" maskUnits="userSpaceOnUse" x="263" y="-94" width="342" height="304">
<path d="M350.211 -93.5264L604.354 85.6244L517.166 209.435L263.02 30.2838L350.211 -93.5264Z" fill="white"/>
</mask>
<g mask="url(#mask18_371_13518)">
<mask id="mask19_371_13518" style="mask-type:luminance" maskUnits="userSpaceOnUse" x="263" y="-94" width="342" height="304">
<path d="M350.211 -93.5264L604.354 85.6244L517.166 209.435L263.02 30.2838L350.211 -93.5264Z" fill="white"/>
</mask>
<g mask="url(#mask19_371_13518)">
<path d="M335.667 29.3304C335.67 29.3337 335.67 29.3337 335.667 29.337C334.548 28.9321 333.331 28.8211 332.143 29.03C331.578 29.2031 331.013 29.3794 330.449 29.5525C329.313 30.0749 328.383 30.852 327.655 31.8707C326.928 33.1735 326.356 34.2248 326.304 35.7497C326.275 36.5627 326.337 37.3594 326.441 38.1659C326.471 38.3911 326.569 38.6262 326.631 38.8483C326.875 39.7135 327.156 40.5592 327.44 41.4081C327.769 42.3974 328.125 43.377 328.487 44.3533C329.218 46.3058 330.064 48.2257 330.932 50.1195C331.784 51.9806 332.668 53.8319 333.657 55.6245C335.041 58.1223 336.571 60.5287 338.079 62.9481C337.72 62.3702 337.361 61.7955 337.002 61.2176C338.402 63.4706 339.848 65.6876 341.29 67.9176C341.891 68.8482 342.576 69.6253 343.542 70.2587C344.221 70.7061 344.929 71.1273 345.716 71.3428C347.014 71.6954 347.935 71.8782 349.279 71.6464C351.051 71.3362 352.621 70.2881 353.652 68.8254C354.318 67.8785 354.991 66.2133 355.004 65.0443C355.007 64.9301 355.004 64.8158 355.01 64.7015C355.026 62.8534 354.955 62.6967 354.351 60.9466C354.165 60.4144 353.933 59.9083 353.698 59.3957C351.946 55.5853 349.798 51.9741 347.954 48.2126C346.639 45.5287 345.37 42.8219 344.051 40.1347C343.395 38.796 342.723 37.4638 342.002 36.1545C341.369 34.9987 340.677 33.8167 339.939 32.7327C339.76 32.4747 339.593 32.2103 339.381 31.9752C338.83 31.3646 338.17 30.7083 337.433 30.1892C336.885 29.8006 336.291 29.4904 335.667 29.3304Z" fill="#FF7389"/>
</g>
</g>
</g>
</g>
<mask id="mask20_371_13518" style="mask-type:luminance" maskUnits="userSpaceOnUse" x="371" y="55" width="18" height="42">
<path d="M371.488 55.1675H388.198V96.9611H371.488V55.1675Z" fill="white"/>
</mask>
<g mask="url(#mask20_371_13518)">
<mask id="mask21_371_13518" style="mask-type:luminance" maskUnits="userSpaceOnUse" x="263" y="-94" width="342" height="304">
<path d="M350.211 -93.5264L604.354 85.6244L517.166 209.435L263.02 30.2838L350.211 -93.5264Z" fill="white"/>
</mask>
<g mask="url(#mask21_371_13518)">
<mask id="mask22_371_13518" style="mask-type:luminance" maskUnits="userSpaceOnUse" x="263" y="-94" width="342" height="304">
<path d="M350.211 -93.5264L604.354 85.6244L517.166 209.435L263.02 30.2838L350.211 -93.5264Z" fill="white"/>
</mask>
<g mask="url(#mask22_371_13518)">
<mask id="mask23_371_13518" style="mask-type:luminance" maskUnits="userSpaceOnUse" x="263" y="-94" width="342" height="304">
<path d="M350.211 -93.5264L604.354 85.6244L517.166 209.435L263.02 30.2838L350.211 -93.5264Z" fill="white"/>
</mask>
<g mask="url(#mask23_371_13518)">
<path d="M377.429 55.9739C375.729 56.1469 374.143 56.9991 373.06 58.3248C372.061 59.5525 371.314 61.4691 371.627 63.0788C372.446 67.3006 372.779 71.5975 373.252 75.8683C373.494 78.0167 373.722 80.1684 373.902 82.3202C374.068 84.3511 374.186 86.3852 374.362 88.4096C374.388 88.7067 374.411 89.0006 374.424 89.2912C374.401 90.1826 374.463 90.9695 374.861 91.9555C376.029 94.8321 378.849 96.7096 381.992 96.3928C383.196 96.2655 384.293 95.8541 385.278 95.1586C385.729 94.7374 386.179 94.3162 386.629 93.895C387.409 92.9285 387.902 91.8347 388.098 90.6103C388.137 89.3238 388.32 88.1615 387.719 86.9468C387.654 86.813 387.589 86.6791 387.533 86.542C387.511 86.4897 387.491 86.4342 387.468 86.382C387.191 84.6449 387.109 82.8752 387.001 81.1219C386.868 78.9832 386.704 76.8478 386.45 74.719C385.937 70.4678 385.376 66.1937 384.564 61.9882C384.547 61.9164 384.534 61.8413 384.518 61.7695C384.394 61.234 384.27 60.692 384.146 60.1565C383.735 59.0627 383.075 58.1452 382.178 57.4007C382.057 57.3061 381.936 57.2114 381.816 57.1265C380.546 56.2318 378.98 55.8172 377.429 55.9739Z" fill="#7AE3D4"/>
</g>
</g>
</g>
</g>
<mask id="mask24_371_13518" style="mask-type:luminance" maskUnits="userSpaceOnUse" x="305" y="0" width="24" height="3">
<path d="M305.488 0H328.881V2.50761H305.488V0Z" fill="white"/>
</mask>
<g mask="url(#mask24_371_13518)">
<mask id="mask25_371_13518" style="mask-type:luminance" maskUnits="userSpaceOnUse" x="263" y="-94" width="342" height="304">
<path d="M350.211 -93.5264L604.354 85.6244L517.166 209.435L263.02 30.2838L350.211 -93.5264Z" fill="white"/>
</mask>
<g mask="url(#mask25_371_13518)">
<mask id="mask26_371_13518" style="mask-type:luminance" maskUnits="userSpaceOnUse" x="263" y="-94" width="342" height="304">
<path d="M350.211 -93.5264L604.354 85.6244L517.166 209.435L263.02 30.2838L350.211 -93.5264Z" fill="white"/>
</mask>
<g mask="url(#mask26_371_13518)">
<mask id="mask27_371_13518" style="mask-type:luminance" maskUnits="userSpaceOnUse" x="263" y="-94" width="342" height="304">
<path d="M350.211 -93.5264L604.354 85.6244L517.166 209.435L263.02 30.2838L350.211 -93.5264Z" fill="white"/>
</mask>
<g mask="url(#mask27_371_13518)">
<path d="M322.277 -44.6214C318.192 -45.2613 314.223 -42.3815 313.577 -38.2805C312.901 -33.964 311.762 -29.7357 310.614 -25.5237C309.462 -21.3149 308.443 -17.0703 307.34 -12.8485C306.998 -11.5326 306.658 -10.22 306.296 -8.91072C305.992 -7.93772 305.813 -7.43816 305.682 -6.58923C305.474 -5.244 305.604 -3.93794 306.071 -2.65802C306.358 -1.89071 306.776 -1.31932 307.148 -0.643436C307.944 0.469971 308.969 1.30258 310.219 1.86418C310.836 2.04702 311.452 2.22661 312.072 2.40619C313.361 2.6021 314.615 2.47802 315.839 2.02417C316.521 1.68786 317.183 1.32217 317.855 0.963005C318.844 0.434055 320.117 -1.30299 320.496 -2.31844C320.806 -3.14125 321.07 -3.98039 321.256 -4.84565C321.37 -5.37133 321.491 -5.89375 321.615 -6.41944C321.856 -7.44795 322.111 -8.46993 322.369 -9.49518C322.875 -11.5359 323.39 -13.5799 323.877 -15.6271C324.888 -19.8685 326.06 -24.0707 327.065 -28.3153C327.666 -30.8393 328.201 -33.36 328.602 -35.9231C329.059 -38.8617 327.718 -41.7252 325.414 -43.3512C324.5 -43.9945 323.439 -44.4418 322.277 -44.6214Z" fill="#7AE3D4"/>
</g>
</g>
</g>
</g>
<mask id="mask28_371_13518" style="mask-type:luminance" maskUnits="userSpaceOnUse" x="20" y="68" width="30" height="50">
<path d="M20.5938 68.5415H49.8349V117.022H20.5938V68.5415Z" fill="white"/>
</mask>
<g mask="url(#mask28_371_13518)">
<mask id="mask29_371_13518" style="mask-type:luminance" maskUnits="userSpaceOnUse" x="-180" y="-77" width="345" height="252">
<path d="M-179.621 33.2194L111.403 -76.1948L164.651 65.5801L-126.37 174.994L-179.621 33.2194Z" fill="white"/>
</mask>
<g mask="url(#mask29_371_13518)">
<mask id="mask30_371_13518" style="mask-type:luminance" maskUnits="userSpaceOnUse" x="-180" y="-77" width="345" height="252">
<path d="M-179.621 33.2194L111.403 -76.1948L164.651 65.5801L-126.37 174.994L-179.621 33.2194Z" fill="white"/>
</mask>
<g mask="url(#mask30_371_13518)">
<mask id="mask31_371_13518" style="mask-type:luminance" maskUnits="userSpaceOnUse" x="-180" y="-77" width="345" height="252">
<path d="M-179.621 33.2194L111.403 -76.1948L164.651 65.5801L-126.37 174.994L-179.621 33.2194Z" fill="white"/>
</mask>
<g mask="url(#mask31_371_13518)">
<path d="M36.1446 73.2498C34.3399 77.23 32.5808 81.2232 30.8283 85.2295C29.0823 89.2228 27.2613 93.1866 25.4892 97.1668C24.7157 98.9071 23.9325 100.641 23.1656 102.381C22.7968 103.214 22.4476 104.05 22.1082 104.889C21.9287 105.336 21.7557 105.78 21.5795 106.231C21.4849 106.466 21.4163 106.691 21.3543 106.936C21.227 107.527 21.0998 108.115 20.9757 108.699C20.8811 109.914 21.0834 111.076 21.5828 112.183C21.6089 112.248 21.6317 112.31 21.6546 112.372C22.2518 114.012 23.9325 115.357 25.5186 115.928C27.1699 116.519 29.004 116.434 30.5999 115.706C31.7976 115.161 32.9268 114.348 33.6447 113.212C34.0918 112.497 34.4508 111.733 34.8098 110.968C35.0219 110.515 35.2373 110.064 35.4527 109.607C35.8998 108.65 36.3469 107.694 36.7875 106.727C37.6425 104.85 38.4127 102.933 39.2025 101.029C40.8538 97.033 42.453 93.0169 44.1435 89.0367C45.7328 85.2948 47.4527 81.6052 49.1334 77.8993C49.8383 76.3353 49.5968 74.2163 48.9049 72.7013C48.1348 71.0197 46.6955 69.6941 44.9528 69.0704C43.2721 68.4697 41.3858 68.5546 39.7638 69.2925C39.258 69.6157 38.7554 69.9292 38.2496 70.2426C37.7633 70.6508 37.3456 71.1013 36.9931 71.6042C36.6439 72.1037 36.3632 72.6523 36.1446 73.2498Z" fill="#FFE36A"/>
</g>
</g>
</g>
</g>
<mask id="mask32_371_13518" style="mask-type:luminance" maskUnits="userSpaceOnUse" x="-20" y="32" width="22" height="38">
<path d="M-19.5078 32.5991H1.37871V69.3775H-19.5078V32.5991Z" fill="white"/>
</mask>
<g mask="url(#mask32_371_13518)">
<mask id="mask33_371_13518" style="mask-type:luminance" maskUnits="userSpaceOnUse" x="-180" y="-77" width="345" height="252">
<path d="M-179.621 33.2194L111.403 -76.1948L164.651 65.5801L-126.37 174.994L-179.621 33.2194Z" fill="white"/>
</mask>
<g mask="url(#mask33_371_13518)">
<mask id="mask34_371_13518" style="mask-type:luminance" maskUnits="userSpaceOnUse" x="-180" y="-77" width="345" height="252">
<path d="M-179.621 33.2194L111.403 -76.1948L164.651 65.5801L-126.37 174.994L-179.621 33.2194Z" fill="white"/>
</mask>
<g mask="url(#mask34_371_13518)">
<mask id="mask35_371_13518" style="mask-type:luminance" maskUnits="userSpaceOnUse" x="-180" y="-77" width="345" height="252">
<path d="M-179.621 33.2194L111.403 -76.1948L164.651 65.5801L-126.37 174.994L-179.621 33.2194Z" fill="white"/>
</mask>
<g mask="url(#mask35_371_13518)">
<path d="M-17.5056 35.8644C-18.7066 37.3468 -19.5779 39.6258 -19.2385 41.5686C-18.3933 46.4271 -16.9018 51.1354 -15.7139 55.9155C-15.5638 56.6241 -15.4235 57.3293 -15.2929 58.0411C-15.0743 59.2003 -14.9405 60.3757 -14.7283 61.5348C-14.5651 62.2336 -14.4052 62.9356 -14.2421 63.6278C-13.733 64.9828 -12.9171 66.1158 -11.8009 67.03C-10.1953 68.3361 -8.10012 68.9793 -6.03757 68.7932C-3.90649 68.6005 -1.90596 67.5328 -0.554859 65.8709C0.68528 64.3396 1.4979 62.0932 1.19765 60.0982C0.890881 58.0542 0.234913 56.0298 -0.274197 54.0152C-0.799623 51.6546 -1.29894 49.2841 -1.87332 46.9299C-2.30084 45.17 -2.78384 43.4232 -3.22442 41.6633C-3.32232 41.1572 -3.41697 40.6544 -3.50834 40.145C-3.66173 39.4561 -3.82491 38.7671 -3.98155 38.0782C-4.4874 36.7427 -5.29349 35.6195 -6.3933 34.7184C-7.98263 33.4254 -10.0517 32.7919 -12.0881 32.9748C-12.7931 33.0401 -13.4849 33.2001 -14.1409 33.4482C-15.4496 33.938 -16.6179 34.7706 -17.5056 35.8644Z" fill="#FFE36A"/>
</g>
</g>
</g>
</g>
<mask id="mask36_371_13518" style="mask-type:luminance" maskUnits="userSpaceOnUse" x="6" y="0" width="41" height="45">
<path d="M6.39062 0.835938H46.4928V44.3013H6.39062V0.835938Z" fill="white"/>
</mask>
<g mask="url(#mask36_371_13518)">
<mask id="mask37_371_13518" style="mask-type:luminance" maskUnits="userSpaceOnUse" x="-180" y="-77" width="345" height="252">
<path d="M-179.621 33.2194L111.403 -76.1948L164.651 65.5801L-126.37 174.994L-179.621 33.2194Z" fill="white"/>
</mask>
<g mask="url(#mask37_371_13518)">
<mask id="mask38_371_13518" style="mask-type:luminance" maskUnits="userSpaceOnUse" x="-180" y="-77" width="345" height="252">
<path d="M-179.621 33.2194L111.403 -76.1948L164.651 65.5801L-126.37 174.994L-179.621 33.2194Z" fill="white"/>
</mask>
<g mask="url(#mask38_371_13518)">
<mask id="mask39_371_13518" style="mask-type:luminance" maskUnits="userSpaceOnUse" x="-180" y="-77" width="345" height="252">
<path d="M-179.621 33.2194L111.403 -76.1948L164.651 65.5801L-126.37 174.994L-179.621 33.2194Z" fill="white"/>
</mask>
<g mask="url(#mask39_371_13518)">
<path d="M8.62358 4.11413C7.41608 5.60302 6.82538 7.54251 6.99835 9.4526C7.14847 10.0991 7.29533 10.7456 7.44545 11.3888C7.91866 12.6394 8.67253 13.6875 9.70381 14.5299C10.8167 15.5649 11.8969 16.6293 12.9543 17.7166C15.7903 20.8642 18.4859 24.1195 21.1229 27.4369C23.7826 30.7804 26.3184 34.2186 29.0402 37.5163C30.2934 39.0379 31.5465 40.7521 33.0641 41.9994C35.8609 44.3013 39.9991 44.3927 42.9199 42.2704C46.4869 39.6778 47.2898 34.5287 44.7051 30.9534C43.9218 29.8759 42.9199 29.0074 41.9833 28.0703C41.8005 27.8875 41.6178 27.7014 41.435 27.5153C38.7067 24.5669 36.0926 21.5238 33.4688 18.4807C30.5708 15.1241 27.6075 11.8231 24.5789 8.58735C22.7873 6.67725 20.9466 4.8194 19.0244 3.04317C17.657 1.77957 15.4998 1.25062 13.6918 1.41061C13.0326 1.46938 12.3864 1.62284 11.7729 1.8514C10.5491 2.31178 9.45252 3.09215 8.62358 4.11413Z" fill="#FFBEE8"/>
</g>
</g>
</g>
</g>
<mask id="mask40_371_13518" style="mask-type:luminance" maskUnits="userSpaceOnUse" x="44" y="0" width="40" height="23">
<path d="M44.8242 0H83.2554V22.5685H44.8242V0Z" fill="white"/>
</mask>
<g mask="url(#mask40_371_13518)">
<mask id="mask41_371_13518" style="mask-type:luminance" maskUnits="userSpaceOnUse" x="-180" y="-77" width="345" height="252">
<path d="M-179.617 33.2194L111.407 -76.1948L164.655 65.5801L-126.366 174.994L-179.617 33.2194Z" fill="white"/>
</mask>
<g mask="url(#mask41_371_13518)">
<mask id="mask42_371_13518" style="mask-type:luminance" maskUnits="userSpaceOnUse" x="-180" y="-77" width="345" height="252">
<path d="M-179.617 33.2194L111.407 -76.1948L164.655 65.5801L-126.366 174.994L-179.617 33.2194Z" fill="white"/>
</mask>
<g mask="url(#mask42_371_13518)">
<mask id="mask43_371_13518" style="mask-type:luminance" maskUnits="userSpaceOnUse" x="-180" y="-77" width="345" height="252">
<path d="M-179.617 33.2194L111.407 -76.1948L164.655 65.5801L-126.366 174.994L-179.617 33.2194Z" fill="white"/>
</mask>
<g mask="url(#mask43_371_13518)">
<path d="M46.0901 0.026155C45.2742 1.53138 45.0882 3.32066 45.5744 4.96302C46.0215 6.47804 47.1931 8.1759 48.6976 8.81913C52.6432 10.5203 56.3832 12.6654 60.1787 14.6735C62.0911 15.6857 63.997 16.7044 65.8768 17.7688C67.6456 18.7712 69.3949 19.8193 71.1669 20.8119C71.4248 20.9556 71.6826 21.1025 71.9306 21.2592C72.6518 21.7751 73.3372 22.1702 74.375 22.3922C77.4101 23.0453 80.5496 21.7686 82.054 18.99C82.6284 17.9256 82.9026 16.7893 82.8862 15.5779C82.7916 14.9674 82.6937 14.36 82.6023 13.7527C82.2433 12.5642 81.6135 11.539 80.7127 10.6868C79.6717 9.93254 78.8166 9.12605 77.4721 8.93994C77.3219 8.91708 77.1783 8.89423 77.0348 8.86811C76.9793 8.85505 76.9205 8.84199 76.865 8.82893C75.2725 8.08448 73.7647 7.15392 72.257 6.25927C70.4131 5.16219 68.5561 4.09776 66.6535 3.10843C62.8482 1.13956 59.0038 -0.796656 55.0745 -2.49126C55.006 -2.52064 54.9375 -2.54676 54.8689 -2.57615C54.3533 -2.77859 53.8409 -2.97776 53.3253 -3.17693C52.1896 -3.4512 51.0604 -3.42508 49.941 -3.09857C49.7942 -3.05612 49.6506 -3.00714 49.5102 -2.9549C48.0547 -2.40963 46.8341 -1.3452 46.0901 0.026155Z" fill="#7AE3D4"/>
</g>
</g>
</g>
</g>
<mask id="mask44_371_13518" style="mask-type:luminance" maskUnits="userSpaceOnUse" x="79" y="30" width="32" height="41">
<path d="M79.9141 30.0913H110.826V70.2131H79.9141V30.0913Z" fill="white"/>
</mask>
<g mask="url(#mask44_371_13518)">
<mask id="mask45_371_13518" style="mask-type:luminance" maskUnits="userSpaceOnUse" x="-180" y="-77" width="345" height="252">
<path d="M-179.617 33.2194L111.407 -76.1948L164.655 65.5801L-126.366 174.994L-179.617 33.2194Z" fill="white"/>
</mask>
<g mask="url(#mask45_371_13518)">
<mask id="mask46_371_13518" style="mask-type:luminance" maskUnits="userSpaceOnUse" x="-180" y="-77" width="345" height="252">
<path d="M-179.617 33.2194L111.407 -76.1948L164.655 65.5801L-126.366 174.994L-179.617 33.2194Z" fill="white"/>
</mask>
<g mask="url(#mask46_371_13518)">
<mask id="mask47_371_13518" style="mask-type:luminance" maskUnits="userSpaceOnUse" x="-180" y="-77" width="345" height="252">
<path d="M-179.617 33.2194L111.407 -76.1948L164.655 65.5801L-126.366 174.994L-179.617 33.2194Z" fill="white"/>
</mask>
<g mask="url(#mask47_371_13518)">
<path d="M97.4282 33.3237C96.1782 35.0836 94.9381 36.85 93.773 38.6687C92.6047 40.4776 91.5147 42.3452 90.4116 44.1998C88.2511 47.8535 86.0483 51.4811 83.9139 55.1445C83.4636 55.9184 83.0295 56.6955 82.5889 57.4726C81.636 59.1541 80.3861 60.803 80.2425 62.798C80.1315 64.424 80.4774 65.9586 81.5185 67.2549C82.4584 68.427 83.9302 69.3054 85.4445 69.4392C86.5149 69.5372 87.742 69.5045 88.7374 68.9952C89.3216 68.6915 89.9677 68.4368 90.4377 67.9667C90.9599 67.441 91.4788 66.912 91.9585 66.3439C92.2979 65.939 92.6275 65.5178 92.9506 65.0966C93.5935 64.251 94.2201 63.402 94.8598 62.5564C96.126 60.8944 97.3661 59.2096 98.5932 57.515C99.8432 55.7878 101.021 54.0148 102.242 52.2614C103.462 50.5178 104.742 48.8135 105.949 47.0568C107.088 45.4079 108.23 43.7623 109.392 42.1265C111.732 38.8352 111.099 34.1596 107.8 31.7369C105.737 30.2218 103.019 29.9443 100.721 30.8096C99.4287 31.2928 98.2701 32.1385 97.4282 33.3237Z" fill="#FFBEE8"/>
</g>
</g>
</g>
</g>
<mask id="mask48_371_13518" style="mask-type:luminance" maskUnits="userSpaceOnUse" x="250" y="0" width="28" height="4">
<path d="M250.348 0H277.918V3.34349H250.348V0Z" fill="white"/>
</mask>
<g mask="url(#mask48_371_13518)">
<mask id="mask49_371_13518" style="mask-type:luminance" maskUnits="userSpaceOnUse" x="-14" y="-186" width="358" height="318">
<path d="M77.3409 -185.299L343.762 2.50124L252.608 131.94L-13.8125 -55.8628L77.3409 -185.299Z" fill="white"/>
</mask>
<g mask="url(#mask49_371_13518)">
<mask id="mask50_371_13518" style="mask-type:luminance" maskUnits="userSpaceOnUse" x="-14" y="-186" width="358" height="318">
<path d="M77.3409 -185.299L343.762 2.50124L252.608 131.94L-13.8125 -55.8628L77.3409 -185.299Z" fill="white"/>
</mask>
<g mask="url(#mask50_371_13518)">
<mask id="mask51_371_13518" style="mask-type:luminance" maskUnits="userSpaceOnUse" x="-14" y="-186" width="358" height="318">
<path d="M77.3409 -185.299L343.762 2.50124L252.608 131.94L-13.8125 -55.8628L77.3409 -185.299Z" fill="white"/>
</mask>
<g mask="url(#mask51_371_13518)">
<path d="M257.45 -50.815C253.142 -50.0706 250.248 -45.8847 250.959 -41.5976C251.697 -37.1374 252.408 -32.6936 253.354 -28.2759C254.311 -23.7994 255.345 -19.3588 256.605 -14.9542C257.13 -13.1192 257.633 -11.2842 258.1 -9.43614C258.328 -8.51211 258.557 -7.58808 258.778 -6.66732C258.88 -6.23959 258.981 -5.81512 259.079 -5.39066C259.121 -5.20781 259.16 -5.02496 259.196 -4.84538C259.385 -3.99644 259.695 -3.1867 259.963 -2.36388C260.459 -0.819481 261.876 0.284126 263.018 1.28652C264.32 2.20075 265.766 2.72971 267.348 2.87011C268.886 2.99418 270.354 2.73624 271.761 2.10933C274.603 0.81308 276.656 -2.03085 276.884 -5.16863C276.989 -6.68364 277.119 -8.1856 277.224 -9.70061C277.426 -12.7796 276.007 -15.728 273.523 -17.4194C272.851 -19.4274 272.139 -21.4191 271.48 -23.4337C269.453 -30.297 267.844 -37.2452 266.676 -44.3109C266.32 -46.4463 265.084 -48.2519 263.409 -49.4339C261.719 -50.6224 259.588 -51.184 257.45 -50.815Z" fill="#FFE36A"/>
</g>
</g>
</g>
</g>
<mask id="mask52_371_13518" style="mask-type:luminance" maskUnits="userSpaceOnUse" x="126" y="24" width="54" height="23">
<path d="M126.699 24.2402H179.333V46.8088H126.699V24.2402Z" fill="white"/>
</mask>
<g mask="url(#mask52_371_13518)">
<mask id="mask53_371_13518" style="mask-type:luminance" maskUnits="userSpaceOnUse" x="-14" y="-186" width="358" height="318">
<path d="M77.3409 -185.299L343.762 2.50124L252.608 131.94L-13.8125 -55.8628L77.3409 -185.299Z" fill="white"/>
</mask>
<g mask="url(#mask53_371_13518)">
<mask id="mask54_371_13518" style="mask-type:luminance" maskUnits="userSpaceOnUse" x="-14" y="-186" width="358" height="318">
<path d="M77.3409 -185.299L343.762 2.50124L252.608 131.94L-13.8125 -55.8628L77.3409 -185.299Z" fill="white"/>
</mask>
<g mask="url(#mask54_371_13518)">
<mask id="mask55_371_13518" style="mask-type:luminance" maskUnits="userSpaceOnUse" x="-14" y="-186" width="358" height="318">
<path d="M77.3409 -185.299L343.762 2.50124L252.608 131.94L-13.8125 -55.8628L77.3409 -185.299Z" fill="white"/>
</mask>
<g mask="url(#mask55_371_13518)">
<path d="M170.113 25.1286C165.606 25.9057 161.113 26.7253 156.615 27.5644C152.131 28.4003 147.628 29.148 143.14 29.9545C141.179 30.3071 139.214 30.6467 137.256 31.0026C136.323 31.1724 135.393 31.365 134.466 31.5609C133.973 31.6687 133.487 31.7797 132.994 31.8907C132.733 31.9495 132.501 32.0213 132.25 32.1127C131.666 32.3478 131.082 32.5829 130.501 32.8213C129.398 33.4514 128.513 34.3102 127.851 35.3942C127.808 35.453 127.769 35.5085 127.727 35.5672C126.663 37.0463 126.493 39.2927 126.934 41.0037C127.4 42.7832 128.556 44.321 130.125 45.2744C131.304 45.9928 132.674 46.4923 134.081 46.4434C134.962 46.414 135.837 46.2768 136.708 46.1397C137.227 46.0548 137.746 45.9764 138.265 45.8916C139.358 45.7185 140.448 45.5454 141.544 45.3561C143.669 44.9936 145.784 44.5365 147.899 44.1023C152.324 43.1848 156.743 42.2085 161.181 41.3367C165.358 40.5139 169.562 39.8347 173.759 39.1132C175.527 38.803 177.218 37.35 178.119 35.8611C179.117 34.2057 179.414 32.178 178.925 30.3039C178.452 28.495 177.267 26.9081 175.668 25.9384C175.093 25.6902 174.526 25.4388 173.954 25.1841C173.312 25.0046 172.678 24.9066 172.036 24.8968C171.396 24.887 170.756 24.9654 170.113 25.1286Z" fill="#FFE36A"/>
</g>
</g>
</g>
</g>
<mask id="mask56_371_13518" style="mask-type:luminance" maskUnits="userSpaceOnUse" x="195" y="0" width="27" height="14">
<path d="M195.207 0H221.106V13.3739H195.207V0Z" fill="white"/>
</mask>
<g mask="url(#mask56_371_13518)">
<mask id="mask57_371_13518" style="mask-type:luminance" maskUnits="userSpaceOnUse" x="-14" y="-186" width="358" height="318">
<path d="M77.3409 -185.299L343.762 2.50124L252.608 131.94L-13.8125 -55.8628L77.3409 -185.299Z" fill="white"/>
</mask>
<g mask="url(#mask57_371_13518)">
<mask id="mask58_371_13518" style="mask-type:luminance" maskUnits="userSpaceOnUse" x="-14" y="-186" width="358" height="318">
<path d="M77.3409 -185.299L343.762 2.50124L252.608 131.94L-13.8125 -55.8628L77.3409 -185.299Z" fill="white"/>
</mask>
<g mask="url(#mask58_371_13518)">
<mask id="mask59_371_13518" style="mask-type:luminance" maskUnits="userSpaceOnUse" x="-14" y="-186" width="358" height="318">
<path d="M77.3409 -185.299L343.762 2.50124L252.608 131.94L-13.8125 -55.8628L77.3409 -185.299Z" fill="white"/>
</mask>
<g mask="url(#mask59_371_13518)">
<path d="M213.642 -39.3379C211.644 -39.5077 209.618 -38.8808 208.067 -37.6074C207.597 -37.098 207.128 -36.5919 206.658 -36.0858C205.855 -34.9398 205.395 -33.6697 205.274 -32.282C205.039 -30.7082 204.752 -29.1475 204.438 -27.5933C203.391 -23.2866 202.167 -19.0354 200.855 -14.8038C199.533 -10.5363 198.058 -6.31773 196.815 -2.02409C196.24 -0.0454254 195.496 2.04752 195.314 4.09801C194.974 7.8725 197.337 11.5098 200.897 12.793C205.244 14.357 210.169 12.029 211.736 7.68965C212.206 6.37707 212.365 4.99919 212.623 3.63763C212.672 3.37316 212.728 3.10542 212.783 2.83768C213.72 -1.25679 214.807 -5.31207 215.89 -9.37062C217.081 -13.8569 218.184 -18.3628 219.196 -22.8882C219.79 -25.5624 220.306 -28.2463 220.71 -30.9596C220.998 -32.886 220.178 -35.0639 218.974 -36.5332C218.534 -37.0687 218.021 -37.5421 217.46 -37.9372C216.34 -38.7273 215.019 -39.2204 213.642 -39.3379Z" fill="#FFBEE8"/>
</g>
</g>
</g>
</g>
<mask id="mask60_371_13518" style="mask-type:luminance" maskUnits="userSpaceOnUse" x="284" y="20" width="40" height="37">
<path d="M284.602 20.897H323.868V56.8394H284.602V20.897Z" fill="white"/>
</mask>
<g mask="url(#mask60_371_13518)">
<mask id="mask61_371_13518" style="mask-type:luminance" maskUnits="userSpaceOnUse" x="-14" y="-186" width="358" height="318">
<path d="M77.3409 -185.299L343.762 2.50124L252.608 131.94L-13.8125 -55.8628L77.3409 -185.299Z" fill="white"/>
</mask>
<g mask="url(#mask61_371_13518)">
<mask id="mask62_371_13518" style="mask-type:luminance" maskUnits="userSpaceOnUse" x="-14" y="-186" width="358" height="318">
<path d="M77.3409 -185.299L343.762 2.50124L252.608 131.94L-13.8125 -55.8628L77.3409 -185.299Z" fill="white"/>
</mask>
<g mask="url(#mask62_371_13518)">
<mask id="mask63_371_13518" style="mask-type:luminance" maskUnits="userSpaceOnUse" x="-14" y="-186" width="358" height="318">
<path d="M77.3409 -185.299L343.762 2.50124L252.608 131.94L-13.8125 -55.8628L77.3409 -185.299Z" fill="white"/>
</mask>
<g mask="url(#mask63_371_13518)">
<path d="M315.837 21.5628C313.934 21.3996 311.549 21.9547 310.142 23.326C306.761 26.6303 303.207 29.7322 299.591 32.7687C297.858 34.2283 296.115 35.678 294.383 37.1342C292.738 38.5186 291.109 39.9259 289.412 41.2417C289.141 41.454 288.861 41.6597 288.593 41.8752C288.436 41.9992 288.29 42.1233 288.143 42.2572C287.092 43.2204 285.842 44.6407 285.499 46.0872C285.362 46.7206 285.225 47.3508 285.088 47.9842C284.984 49.2903 285.199 50.5408 285.738 51.7326C286.596 53.6166 288.133 54.9161 290.029 55.6834C291.272 56.1862 292.741 56.3005 294.059 56.0752C295.773 55.7781 296.501 55.2426 297.946 54.3381C298.175 54.1945 298.393 54.0443 298.609 53.8876C299.017 53.597 299.421 53.3031 299.81 52.9962C300.635 52.3366 301.422 51.6281 302.215 50.9359C303.925 49.4437 305.704 48.043 307.479 46.6357C311.102 43.7689 314.652 40.8107 318.023 37.6534C318.758 36.9644 319.479 36.2624 320.197 35.5604C320.677 35.0413 321.156 34.5221 321.636 34.0062C322.455 32.8373 322.929 31.5411 323.056 30.1175C323.222 28.0768 322.583 26.0067 321.28 24.4231C320.827 23.8778 320.308 23.3946 319.734 22.9897C318.588 22.1832 317.24 21.6804 315.837 21.5628Z" fill="#FF7389"/>
</g>
</g>
</g>
</g>
<mask id="mask64_371_13518" style="mask-type:luminance" maskUnits="userSpaceOnUse" x="99" y="0" width="19" height="15">
<path d="M99.1289 0H117.509V14.2098H99.1289V0Z" fill="white"/>
</mask>
<g mask="url(#mask64_371_13518)">
<mask id="mask65_371_13518" style="mask-type:luminance" maskUnits="userSpaceOnUse" x="-14" y="-186" width="358" height="318">
<path d="M77.3409 -185.299L343.762 2.50124L252.608 131.94L-13.8125 -55.8628L77.3409 -185.299Z" fill="white"/>
</mask>
<g mask="url(#mask65_371_13518)">
<mask id="mask66_371_13518" style="mask-type:luminance" maskUnits="userSpaceOnUse" x="-14" y="-186" width="358" height="318">
<path d="M77.3409 -185.299L343.762 2.50124L252.608 131.94L-13.8125 -55.8628L77.3409 -185.299Z" fill="white"/>
</mask>
<g mask="url(#mask66_371_13518)">
<mask id="mask67_371_13518" style="mask-type:luminance" maskUnits="userSpaceOnUse" x="-14" y="-186" width="358" height="318">
<path d="M77.3409 -185.299L343.762 2.50124L252.608 131.94L-13.8125 -55.8628L77.3409 -185.299Z" fill="white"/>
</mask>
<g mask="url(#mask67_371_13518)">
<path d="M106.052 -28.8278C104.27 -28.6482 102.609 -27.7601 101.476 -26.3724C100.432 -25.0925 99.6553 -23.0844 99.9816 -21.3996C100.846 -16.9819 101.202 -12.4859 101.702 -8.01591C101.956 -5.76624 102.201 -3.51657 102.39 -1.26363C102.566 0.858698 102.694 2.98756 102.883 5.10989C102.909 5.41681 102.932 5.727 102.948 6.03392C102.925 6.96448 102.991 7.78729 103.408 8.81907C104.635 11.8328 107.592 13.8016 110.882 13.4719C112.142 13.3413 113.294 12.9135 114.325 12.1854C114.795 11.7446 115.265 11.3038 115.735 10.8663C116.554 9.85738 117.066 8.71132 117.272 7.43139C117.311 6.08289 117.5 4.86827 116.867 3.59487C116.802 3.45447 116.733 3.31407 116.675 3.17041C116.652 3.11816 116.629 3.05939 116.606 3.00388C116.312 1.18521 116.224 -0.666115 116.11 -2.49785C115.966 -4.74099 115.793 -6.97433 115.523 -9.20115C114.981 -13.6515 114.387 -18.1247 113.528 -22.5261C113.515 -22.6012 113.499 -22.6763 113.483 -22.7514C113.352 -23.3163 113.222 -23.8811 113.091 -24.4427C112.657 -25.5888 111.965 -26.5487 111.025 -27.3291C110.898 -27.4271 110.774 -27.525 110.644 -27.6164C109.315 -28.5535 107.674 -28.9911 106.052 -28.8278Z" fill="#7AE3D4"/>
</g>
</g>
</g>
</g>
<mask id="mask68_371_13518" style="mask-type:luminance" maskUnits="userSpaceOnUse" x="232" y="0" width="20" height="34">
<path d="M232.801 0H251.181V33.4349H232.801V0Z" fill="white"/>
</mask>
<g mask="url(#mask68_371_13518)">
<mask id="mask69_371_13518" style="mask-type:luminance" maskUnits="userSpaceOnUse" x="-14" y="-186" width="358" height="318">
<path d="M77.3409 -185.299L343.762 2.50124L252.608 131.94L-13.8125 -55.8628L77.3409 -185.299Z" fill="white"/>
</mask>
<g mask="url(#mask69_371_13518)">
<mask id="mask70_371_13518" style="mask-type:luminance" maskUnits="userSpaceOnUse" x="-14" y="-186" width="358" height="318">
<path d="M77.3409 -185.299L343.762 2.50124L252.608 131.94L-13.8125 -55.8628L77.3409 -185.299Z" fill="white"/>
</mask>
<g mask="url(#mask70_371_13518)">
<mask id="mask71_371_13518" style="mask-type:luminance" maskUnits="userSpaceOnUse" x="-14" y="-186" width="358" height="318">
<path d="M77.3409 -185.299L343.762 2.50124L252.608 131.94L-13.8125 -55.8628L77.3409 -185.299Z" fill="white"/>
</mask>
<g mask="url(#mask71_371_13518)">
<path d="M239.296 -9.28924C237.511 -9.10966 235.853 -8.21828 234.724 -6.83387C233.676 -5.55394 232.899 -3.54263 233.229 -1.86436C234.087 2.55662 234.443 7.05269 234.946 11.5226C235.2 13.7723 235.445 16.022 235.634 18.2782C235.81 20.4005 235.938 22.5294 236.127 24.6484C236.153 24.9586 236.176 25.2655 236.189 25.5725C236.169 26.4998 236.231 27.3258 236.656 28.3576C237.88 31.3681 240.84 33.3402 244.126 33.0072C245.386 32.8798 246.534 32.4521 247.569 31.724C248.042 31.2832 248.512 30.8424 248.979 30.4049C249.798 29.3959 250.31 28.2499 250.516 26.9699C250.555 25.6247 250.748 24.4068 250.114 23.1334C250.046 22.993 249.977 22.8526 249.919 22.7122C249.896 22.6567 249.873 22.6012 249.853 22.5424C249.556 20.727 249.468 18.8724 249.354 17.0407C249.21 14.7976 249.038 12.5642 248.767 10.3374C248.225 5.88378 247.628 1.41383 246.773 -2.98429C246.76 -3.06266 246.743 -3.13775 246.727 -3.21285C246.596 -3.77772 246.466 -4.33932 246.335 -4.90419C245.901 -6.04698 245.213 -7.01345 244.27 -7.78729C244.145 -7.89177 244.018 -7.98646 243.891 -8.07788C242.559 -9.01497 240.918 -9.44924 239.296 -9.28924Z" fill="#7AE3D4"/>
</g>
</g>
</g>
</g>
<mask id="mask72_371_13518" style="mask-type:luminance" maskUnits="userSpaceOnUse" x="201" y="54" width="48" height="18">
<path d="M201.055 54.3315H248.676V71.049H201.055V54.3315Z" fill="white"/>
</mask>
<g mask="url(#mask72_371_13518)">
<mask id="mask73_371_13518" style="mask-type:luminance" maskUnits="userSpaceOnUse" x="-14" y="-186" width="358" height="318">
<path d="M77.3409 -185.299L343.762 2.50075L252.608 131.94L-13.8125 -55.8633L77.3409 -185.299Z" fill="white"/>
</mask>
<g mask="url(#mask73_371_13518)">
<mask id="mask74_371_13518" style="mask-type:luminance" maskUnits="userSpaceOnUse" x="-14" y="-186" width="358" height="318">
<path d="M77.3409 -185.299L343.762 2.50075L252.608 131.94L-13.8125 -55.8633L77.3409 -185.299Z" fill="white"/>
</mask>
<g mask="url(#mask74_371_13518)">
<mask id="mask75_371_13518" style="mask-type:luminance" maskUnits="userSpaceOnUse" x="-14" y="-186" width="358" height="318">
<path d="M77.3409 -185.299L343.762 2.50075L252.608 131.94L-13.8125 -55.8633L77.3409 -185.299Z" fill="white"/>
</mask>
<g mask="url(#mask75_371_13518)">
<path d="M240.81 54.7461C238.549 54.6971 236.29 54.6645 234.029 54.72C231.774 54.7722 229.519 54.9257 227.264 55.0595C222.828 55.3371 218.393 55.5591 213.961 55.8628C213.028 55.9281 212.098 56.0097 211.168 56.0815C209.151 56.2448 206.987 56.1305 205.179 57.1786C203.704 58.0373 202.585 59.2389 202.076 60.9008C201.616 62.4093 201.73 64.1986 202.507 65.5863C203.055 66.5724 203.805 67.6172 204.833 68.1788C205.444 68.5086 206.044 68.9167 206.726 69.0473C207.49 69.191 208.254 69.3314 209.027 69.413C209.579 69.4685 210.137 69.5077 210.691 69.5404C211.801 69.5991 212.907 69.6416 214.017 69.7003C216.2 69.8179 218.39 69.9028 220.577 69.9714C222.809 70.0399 225.041 70.0171 227.273 70.0464C229.502 70.0758 231.735 70.1868 233.964 70.1999C236.062 70.2162 238.157 70.2358 240.259 70.2815C244.488 70.3762 248.157 67.0785 248.304 62.7979C248.395 60.1205 247.031 57.6031 244.926 56.1207C243.744 55.2881 242.331 54.7787 240.81 54.7461Z" fill="#FFBEE8"/>
</g>
</g>
</g>
</g>
<mask id="mask76_371_13518" style="mask-type:luminance" maskUnits="userSpaceOnUse" x="-23" y="172" width="28" height="55">
<path d="M-22.8477 172.189H4.72256V226.521H-22.8477V172.189Z" fill="white"/>
</mask>
<g mask="url(#mask76_371_13518)">
<mask id="mask77_371_13518" style="mask-type:luminance" maskUnits="userSpaceOnUse" x="-288" y="38" width="359" height="318">
<path d="M-195.858 38.1919L70.5623 225.995L-20.591 355.434L-287.012 167.631L-195.858 38.1919Z" fill="white"/>
</mask>
<g mask="url(#mask77_371_13518)">
<mask id="mask78_371_13518" style="mask-type:luminance" maskUnits="userSpaceOnUse" x="-288" y="38" width="359" height="318">
<path d="M-195.858 38.1919L70.5623 225.995L-20.591 355.434L-287.012 167.631L-195.858 38.1919Z" fill="white"/>
</mask>
<g mask="url(#mask78_371_13518)">
<mask id="mask79_371_13518" style="mask-type:luminance" maskUnits="userSpaceOnUse" x="-288" y="38" width="359" height="318">
<path d="M-195.858 38.1919L70.5623 225.995L-20.591 355.434L-287.012 167.631L-195.858 38.1919Z" fill="white"/>
</mask>
<g mask="url(#mask79_371_13518)">
<path d="M-15.7523 172.679C-20.0569 173.424 -22.9516 177.609 -22.2402 181.897C-21.5026 186.353 -20.7912 190.801 -19.8448 195.218C-18.8885 199.695 -17.8573 204.135 -16.5943 208.54C-16.0689 210.372 -15.5663 212.21 -15.0996 214.058C-14.8712 214.979 -14.6427 215.906 -14.4208 216.827C-14.3196 217.255 -14.2184 217.679 -14.1205 218.103C-14.0781 218.286 -14.039 218.469 -14.0031 218.649C-13.8138 219.494 -13.5037 220.307 -13.2361 221.13C-12.7433 222.675 -11.3237 223.778 -10.1847 224.781C-8.87933 225.695 -7.43359 226.221 -5.85078 226.364C-4.31693 226.485 -2.84508 226.23 -1.44177 225.6C1.40402 224.304 3.45678 221.463 3.68522 218.326C3.78965 216.81 3.92019 215.305 4.02463 213.794C4.22697 210.711 2.80733 207.766 0.323795 206.075C-0.348488 204.067 -1.05994 202.075 -1.71917 200.06C-3.74581 193.194 -5.35473 186.246 -6.52307 179.183C-6.87879 177.048 -8.11567 175.242 -9.78985 174.06C-11.4804 172.872 -13.6147 172.31 -15.7523 172.679Z" fill="#FFE36A"/>
</g>
</g>
</g>
</g>
<mask id="mask80_371_13518" style="mask-type:luminance" maskUnits="userSpaceOnUse" x="11" y="244" width="40" height="37">
<path d="M11.4062 244.91H50.6729V280.017H11.4062V244.91Z" fill="white"/>
</mask>
<g mask="url(#mask80_371_13518)">
<mask id="mask81_371_13518" style="mask-type:luminance" maskUnits="userSpaceOnUse" x="-288" y="38" width="359" height="318">
<path d="M-195.858 38.1919L70.5623 225.995L-20.591 355.434L-287.012 167.631L-195.858 38.1919Z" fill="white"/>
</mask>
<g mask="url(#mask81_371_13518)">
<mask id="mask82_371_13518" style="mask-type:luminance" maskUnits="userSpaceOnUse" x="-288" y="38" width="359" height="318">
<path d="M-195.858 38.1919L70.5623 225.995L-20.591 355.434L-287.012 167.631L-195.858 38.1919Z" fill="white"/>
</mask>
<g mask="url(#mask82_371_13518)">
<mask id="mask83_371_13518" style="mask-type:luminance" maskUnits="userSpaceOnUse" x="-288" y="38" width="359" height="318">
<path d="M-195.858 38.1919L70.5623 225.995L-20.591 355.434L-287.012 167.631L-195.858 38.1919Z" fill="white"/>
</mask>
<g mask="url(#mask83_371_13518)">
<path d="M42.6377 245.054C40.7351 244.891 38.3495 245.449 36.9429 246.82C33.5619 250.125 30.0079 253.227 26.3919 256.263C24.659 257.723 22.9163 259.172 21.1801 260.629C19.5385 262.013 17.91 263.417 16.213 264.736C15.9389 264.948 15.6615 265.154 15.3939 265.37C15.2372 265.494 15.0904 265.618 14.9435 265.752C13.8926 266.715 12.6395 268.135 12.3 269.582C12.163 270.215 12.0259 270.845 11.8888 271.479C11.7844 272.785 11.9998 274.035 12.5383 275.227C13.3966 277.111 14.9337 278.41 16.8298 279.178C18.0732 279.681 19.5418 279.795 20.8603 279.566C22.5736 279.272 23.3014 278.737 24.7471 277.833C24.9723 277.689 25.1942 277.539 25.4096 277.382C25.8143 277.091 26.2222 276.797 26.6106 276.491C27.4362 275.831 28.2228 275.122 29.0158 274.43C30.7259 272.938 32.5045 271.534 34.2799 270.13C37.9024 267.263 41.4531 264.305 44.8243 261.144C45.5586 260.459 46.2765 259.757 46.9978 259.052C47.4775 258.536 47.9573 258.016 48.437 257.501C49.2561 256.332 49.7294 255.032 49.8534 253.612C50.0231 251.568 49.3834 249.501 48.0813 247.917C47.6276 247.369 47.1087 246.889 46.5311 246.484C45.3889 245.678 44.041 245.175 42.6377 245.054Z" fill="#FF7389"/>
</g>
</g>
</g>
</g>
</svg>
