<svg width="289" height="926" viewBox="0 0 289 926" fill="none" xmlns="http://www.w3.org/2000/svg">
<path d="M434.429 -0.00439453H153.465C148.272 12.6826 143.871 27.8168 143.302 43.5137C141.827 84.2586 152.146 99.0758 163.938 125.004C175.729 150.931 177.205 184.268 158.044 211.124C138.88 237.976 132.246 251.865 127.824 292.61C123.402 333.354 104.977 351.874 72.5455 374.099C40.1179 396.325 -2.62603 427.808 0.324522 473.18C3.27152 518.555 32.745 559.3 80.6541 587.081C128.56 614.862 147.724 644.492 148.46 671.349C149.199 698.201 134.457 718.573 113.082 733.391C91.7098 748.203 75.496 766.727 82.8653 784.317C90.2346 801.912 115.293 823.213 116.768 849.141C118.243 875.069 102.026 877.846 90.974 891.735C85.2364 898.942 78.1195 912.13 73.0076 926H434.429V-0.00439453Z" fill="#F06B84"/>
</svg>
