<svg width="23" height="23" viewBox="0 0 23 23" fill="none" xmlns="http://www.w3.org/2000/svg">
<path d="M18.7753 3.22842C17.5443 1.99224 16.0361 1.06757 14.3761 0.531201C12.716 -0.0051704 10.9519 -0.137767 9.23031 0.144421C7.00991 0.517386 4.95588 1.55812 3.34191 3.12797C1.72794 4.69781 0.630672 6.72221 0.196312 8.93142C-0.241314 11.2123 0.0570373 13.5732 1.04831 15.6734L0.437312 18.7064C0.359467 19.0986 0.379493 19.5038 0.495619 19.8864C0.611744 20.2689 0.820386 20.617 1.10308 20.8997C1.38577 21.1823 1.7338 21.391 2.11635 21.5071C2.4989 21.6232 2.90418 21.6433 3.29631 21.5654L6.32531 20.9594C7.78562 21.6499 9.38101 22.0075 10.9963 22.0064C11.6928 22.0061 12.3878 21.9412 13.0723 21.8124C15.2825 21.3774 17.3076 20.2791 18.8777 18.6638C20.4477 17.0485 21.4882 14.9931 21.8603 12.7714C22.1426 11.05 22.01 9.28614 21.4734 7.62635C20.9368 5.96655 20.0118 4.4588 18.7753 3.22842ZM19.8823 12.4634C19.6546 13.8612 19.0999 15.1854 18.2634 16.3281C17.4269 17.4708 16.3322 18.3996 15.0686 19.039C13.8049 19.6784 12.4081 20.0101 10.9919 20.0073C9.57578 20.0044 8.18033 19.6669 6.91931 19.0224C6.77891 18.9501 6.62325 18.9124 6.46531 18.9124C6.39815 18.9124 6.33115 18.9191 6.26531 18.9324L2.90531 19.6044C2.83537 19.6183 2.76309 19.6147 2.69487 19.5939C2.62665 19.5732 2.56459 19.536 2.51417 19.4856C2.46375 19.4351 2.42653 19.3731 2.4058 19.3049C2.38507 19.2366 2.38147 19.1644 2.39531 19.0944L3.06731 15.7334C3.11176 15.5128 3.08003 15.2837 2.97731 15.0834C2.33324 13.8221 1.99623 12.4265 1.99374 11.0103C1.99124 9.5941 2.32333 8.19733 2.96295 6.93378C3.60257 5.67023 4.53164 4.57564 5.67445 3.7392C6.81727 2.90275 8.14151 2.34809 9.53931 2.12042C10.9495 1.89084 12.3941 1.99984 13.7538 2.43842C15.1136 2.877 16.3496 3.63259 17.3599 4.64287C18.3701 5.65314 19.1257 6.88915 19.5643 8.24892C20.0029 9.60868 20.1119 11.0532 19.8823 12.4634Z" fill="#E11D38"/>
<path d="M11.9961 14.0063V10.0063C11.9961 9.74113 11.8907 9.48678 11.7032 9.29924C11.5157 9.1117 11.2613 9.00635 10.9961 9.00635H9.99609C9.73088 9.00635 9.47652 9.1117 9.28899 9.29924C9.10145 9.48678 8.99609 9.74113 8.99609 10.0063C8.99609 10.2716 9.10145 10.5259 9.28899 10.7135C9.47652 10.901 9.73088 11.0063 9.99609 11.0063V15.0063C9.99609 15.2716 10.1015 15.5259 10.289 15.7135C10.4765 15.901 10.7309 16.0063 10.9961 16.0063H11.9961C12.2613 16.0063 12.5157 15.901 12.7032 15.7135C12.8907 15.5259 12.9961 15.2716 12.9961 15.0063C12.9961 14.7411 12.8907 14.4868 12.7032 14.2992C12.5157 14.1117 12.2613 14.0063 11.9961 14.0063Z" fill="#E11D38"/>
<path d="M10.9961 8.00635C11.5484 8.00635 11.9961 7.55863 11.9961 7.00635C11.9961 6.45406 11.5484 6.00635 10.9961 6.00635C10.4438 6.00635 9.99609 6.45406 9.99609 7.00635C9.99609 7.55863 10.4438 8.00635 10.9961 8.00635Z" fill="#E11D38"/>
</svg>
