<svg width="25" height="22" viewBox="0 0 25 22" fill="none" xmlns="http://www.w3.org/2000/svg">
<path d="M7.18748 5.0316L4.6189 7.55217L2.71484 5.68365L5.28342 3.16309L7.18748 5.0316Z" fill="url(#paint0_linear_371_15795)"/>
<path d="M6.57892 1.60767C8.08395 3.08456 2.63379 8.4328 1.12877 6.95595C-0.376256 5.47911 -0.376256 3.08456 1.12877 1.60767C2.63379 0.130776 5.0739 0.130776 6.57892 1.60767Z" fill="url(#paint1_linear_371_15795)"/>
<path d="M19.8381 7.55217L17.2695 5.0316L19.1736 3.16309L21.7422 5.68365L19.8381 7.55217Z" fill="url(#paint2_linear_371_15795)"/>
<path d="M23.3275 6.95595C21.8225 8.43285 16.3724 3.08456 17.8774 1.60767C19.3823 0.130776 21.8225 0.130776 23.3275 1.60767C24.8325 3.08456 24.8325 5.47906 23.3275 6.95595Z" fill="url(#paint3_linear_371_15795)"/>
<path d="M3.93079 20.9462C3.41369 20.4388 3.41369 19.6161 3.93079 19.1086L5.35463 17.7114L7.22719 19.549L5.80335 20.9462C5.28625 21.4536 4.44785 21.4536 3.93079 20.9462Z" fill="url(#paint4_linear_371_15795)"/>
<path d="M20.5269 20.9462C21.044 20.4388 21.044 19.6161 20.5269 19.1086L19.103 17.7114L17.2305 19.549L18.6543 20.9462C19.1714 21.4536 20.0098 21.4536 20.5269 20.9462Z" fill="url(#paint5_linear_371_15795)"/>
<path d="M11.0312 1.94482H13.4223V3.23132H11.0312V1.94482Z" fill="url(#paint6_linear_371_15795)"/>
<path d="M13.4761 2.20214H10.9807C10.6203 2.20214 10.3281 1.91541 10.3281 1.56176C10.3281 1.20807 10.6203 0.921387 10.9807 0.921387H13.4761C13.8365 0.921387 14.1287 1.20812 14.1287 1.56176C14.1287 1.91541 13.8365 2.20214 13.4761 2.20214Z" fill="url(#paint7_linear_371_15795)"/>
<path d="M12.2281 21.486C17.5124 21.486 21.7961 17.2824 21.7961 12.0969C21.7961 6.91142 17.5124 2.70776 12.2281 2.70776C6.94388 2.70776 2.66016 6.91142 2.66016 12.0969C2.66016 17.2824 6.94388 21.486 12.2281 21.486Z" fill="url(#paint8_linear_371_15795)"/>
<path d="M12.2285 20.1676C16.7708 20.1676 20.4531 16.5542 20.4531 12.0968C20.4531 7.63933 16.7708 4.02588 12.2285 4.02588C7.68619 4.02588 4.00391 7.63933 4.00391 12.0968C4.00391 16.5542 7.68619 20.1676 12.2285 20.1676Z" fill="url(#paint9_linear_371_15795)"/>
<path d="M12.2282 19.3088C16.2871 19.3088 19.5775 16.0799 19.5775 12.0969C19.5775 8.11389 16.2871 4.88501 12.2282 4.88501C8.16929 4.88501 4.87891 8.11389 4.87891 12.0969C4.87891 16.0799 8.16929 19.3088 12.2282 19.3088Z" fill="url(#paint10_linear_371_15795)"/>
<path d="M12.2273 17.7363C15.4011 17.7363 17.9741 15.2115 17.9741 12.0969C17.9741 8.98236 15.4011 6.45752 12.2273 6.45752C9.0534 6.45752 6.48047 8.98236 6.48047 12.0969C6.48047 15.2115 9.0534 17.7363 12.2273 17.7363Z" fill="url(#paint11_linear_371_15795)"/>
<path d="M12.2286 6.33013C12.59 6.33013 12.8829 6.04265 12.8829 5.68802C12.8829 5.33338 12.59 5.0459 12.2286 5.0459C11.8672 5.0459 11.5742 5.33338 11.5742 5.68802C11.5742 6.04265 11.8672 6.33013 12.2286 6.33013Z" fill="url(#paint12_linear_371_15795)"/>
<path d="M12.2286 19.1478C12.59 19.1478 12.8829 18.8603 12.8829 18.5056C12.8829 18.151 12.59 17.8635 12.2286 17.8635C11.8672 17.8635 11.5742 18.151 11.5742 18.5056C11.5742 18.8603 11.8672 19.1478 12.2286 19.1478Z" fill="url(#paint13_linear_371_15795)"/>
<path d="M12.2292 6.16225C12.496 6.16225 12.7123 5.95 12.7123 5.68818C12.7123 5.42636 12.496 5.21411 12.2292 5.21411C11.9624 5.21411 11.7461 5.42636 11.7461 5.68818C11.7461 5.95 11.9624 6.16225 12.2292 6.16225Z" fill="url(#paint14_linear_371_15795)"/>
<path d="M12.2292 18.9799C12.496 18.9799 12.7123 18.7676 12.7123 18.5058C12.7123 18.244 12.496 18.0317 12.2292 18.0317C11.9624 18.0317 11.7461 18.244 11.7461 18.5058C11.7461 18.7676 11.9624 18.9799 12.2292 18.9799Z" fill="url(#paint15_linear_371_15795)"/>
<path d="M18.7598 12.7391C19.1212 12.7391 19.4142 12.4516 19.4142 12.097C19.4142 11.7423 19.1212 11.4548 18.7598 11.4548C18.3984 11.4548 18.1055 11.7423 18.1055 12.097C18.1055 12.4516 18.3984 12.7391 18.7598 12.7391Z" fill="url(#paint16_linear_371_15795)"/>
<path d="M18.7604 12.5709C19.0273 12.5709 19.2435 12.3587 19.2435 12.0969C19.2435 11.8351 19.0273 11.6228 18.7604 11.6228C18.4936 11.6228 18.2773 11.8351 18.2773 12.0969C18.2773 12.3587 18.4936 12.5709 18.7604 12.5709Z" fill="url(#paint17_linear_371_15795)"/>
<path d="M5.69732 12.7391C6.0587 12.7391 6.35167 12.4516 6.35167 12.097C6.35167 11.7423 6.0587 11.4548 5.69732 11.4548C5.33593 11.4548 5.04297 11.7423 5.04297 12.097C5.04297 12.4516 5.33593 12.7391 5.69732 12.7391Z" fill="url(#paint18_linear_371_15795)"/>
<path d="M5.69794 12.5709C5.96475 12.5709 6.18104 12.3587 6.18104 12.0969C6.18104 11.8351 5.96475 11.6228 5.69794 11.6228C5.43114 11.6228 5.21484 11.8351 5.21484 12.0969C5.21484 12.3587 5.43114 12.5709 5.69794 12.5709Z" fill="url(#paint19_linear_371_15795)"/>
<path d="M11.18 7.51467C11.1599 7.48333 11.1292 7.4574 11.088 7.44258L9.967 7.03914C9.87176 7.00488 9.76626 7.05284 9.73135 7.14625L9.32028 8.24611C9.29707 8.30827 9.31021 8.36893 9.34411 8.41401L10.0432 9.04521C10.0471 9.08634 10.0658 9.12342 10.0936 9.15199L11.6005 12.3432L16.9661 17.6086C17.7888 16.9267 18.4568 16.0708 18.911 15.0985L11.18 7.51467Z" fill="url(#paint20_linear_371_15795)"/>
<path d="M18.0219 16.5356L12.9217 11.5307C12.7564 11.3362 12.5077 11.2124 12.2294 11.2124C11.7316 11.2124 11.3281 11.6084 11.3281 12.0968C11.3281 12.3699 11.4543 12.614 11.6525 12.7762L16.7527 17.7811C17.2256 17.4182 17.6521 16.9997 18.0219 16.5356Z" fill="url(#paint21_linear_371_15795)"/>
<path d="M12.2292 8.05225C11.9085 8.05225 11.6484 10.6369 11.6484 10.9921C11.6484 11.2958 11.8387 11.8877 12.0944 12.0528L17.3804 17.24C18.1023 16.5437 18.6784 15.7024 19.0593 14.7638L12.2292 8.05225Z" fill="url(#paint22_linear_371_15795)"/>
<path d="M12.8099 10.9921C12.8099 11.3472 12.5499 12.0969 12.2292 12.0969C11.9085 12.0969 11.6484 11.3473 11.6484 10.9921C11.6484 10.6369 11.9085 8.05225 12.2292 8.05225C12.5499 8.0522 12.8099 10.6369 12.8099 10.9921Z" fill="url(#paint23_linear_371_15795)"/>
<path d="M12.8112 10.9921C12.8112 10.6369 12.5512 8.05225 12.2305 8.05225V12.0969C12.5512 12.0968 12.8112 11.3472 12.8112 10.9921Z" fill="url(#paint24_linear_371_15795)"/>
<path d="M11.0126 8.01475L12.7992 11.7985C12.83 11.8637 12.7726 11.8809 12.7062 11.9111L11.7481 12.3466C11.6817 12.3768 11.6312 12.4086 11.6004 12.3434L9.8138 8.55969C9.77117 8.46939 9.66198 8.43009 9.56995 8.47193C9.42148 8.53941 9.26395 8.3971 9.3203 8.24637L9.73137 7.14652C9.76628 7.05306 9.87178 7.0051 9.96702 7.03941L11.0881 7.44284C11.2417 7.49814 11.2505 7.70807 11.1021 7.77555C11.01 7.81734 10.9699 7.92444 11.0126 8.01475Z" fill="url(#paint25_linear_371_15795)"/>
<path d="M12.7078 11.9111C12.7743 11.8809 12.8317 11.8637 12.8008 11.7985L11.0142 8.01477C10.9716 7.92446 11.0116 7.81736 11.1036 7.77552C11.2521 7.70804 11.2433 7.49811 11.0896 7.44282L9.96859 7.03938C9.92097 7.02225 9.87076 7.02569 9.82812 7.04507L12.2287 12.1289L12.7078 11.9111Z" fill="url(#paint26_linear_371_15795)"/>
<path d="M12.2294 12.9813C12.7272 12.9813 13.1307 12.5853 13.1307 12.0968C13.1307 11.6084 12.7272 11.2124 12.2294 11.2124C11.7316 11.2124 11.3281 11.6084 11.3281 12.0968C11.3281 12.5853 11.7316 12.9813 12.2294 12.9813Z" fill="url(#paint27_linear_371_15795)"/>
<defs>
<linearGradient id="paint0_linear_371_15795" x1="4.30431" y1="5.32735" x2="6.94915" y2="5.46647" gradientUnits="userSpaceOnUse">
<stop stop-color="#8A7889"/>
<stop offset="1" stop-color="#6E566E"/>
</linearGradient>
<linearGradient id="paint1_linear_371_15795" x1="2.39894" y1="3.83457" x2="6.41599" y2="4.04585" gradientUnits="userSpaceOnUse">
<stop stop-color="#FFD945"/>
<stop offset="0.3043" stop-color="#FFCD3E"/>
<stop offset="0.8558" stop-color="#FFAD2B"/>
<stop offset="1" stop-color="#FFA325"/>
</linearGradient>
<linearGradient id="paint2_linear_371_15795" x1="19.5324" y1="4.70162" x2="19.4009" y2="7.29754" gradientUnits="userSpaceOnUse">
<stop stop-color="#8A7889"/>
<stop offset="1" stop-color="#6E566E"/>
</linearGradient>
<linearGradient id="paint3_linear_371_15795" x1="21.054" y1="2.83287" x2="20.8543" y2="6.77563" gradientUnits="userSpaceOnUse">
<stop stop-color="#FFD945"/>
<stop offset="0.3043" stop-color="#FFCD3E"/>
<stop offset="0.8558" stop-color="#FFAD2B"/>
<stop offset="1" stop-color="#FFA325"/>
</linearGradient>
<linearGradient id="paint4_linear_371_15795" x1="4.39265" y1="19.0834" x2="6.06694" y2="20.7896" gradientUnits="userSpaceOnUse">
<stop stop-color="#FFD945"/>
<stop offset="0.3043" stop-color="#FFCD3E"/>
<stop offset="0.8558" stop-color="#FFAD2B"/>
<stop offset="1" stop-color="#FFA325"/>
</linearGradient>
<linearGradient id="paint5_linear_371_15795" x1="20.065" y1="19.0834" x2="18.3907" y2="20.7896" gradientUnits="userSpaceOnUse">
<stop stop-color="#FFD945"/>
<stop offset="0.3043" stop-color="#FFCD3E"/>
<stop offset="0.8558" stop-color="#FFAD2B"/>
<stop offset="1" stop-color="#FFA325"/>
</linearGradient>
<linearGradient id="paint6_linear_371_15795" x1="12.2268" y1="2.67786" x2="12.2268" y2="2.12445" gradientUnits="userSpaceOnUse">
<stop stop-color="#8A7889"/>
<stop offset="1" stop-color="#6E566E"/>
</linearGradient>
<linearGradient id="paint7_linear_371_15795" x1="12.2284" y1="0.969434" x2="12.2284" y2="2.26967" gradientUnits="userSpaceOnUse">
<stop stop-color="#BDC2D1"/>
<stop offset="0.2367" stop-color="#B5B6C5"/>
<stop offset="0.6651" stop-color="#9E96A6"/>
<stop offset="1" stop-color="#8A7889"/>
</linearGradient>
<linearGradient id="paint8_linear_371_15795" x1="10.3258" y1="10.0269" x2="17.826" y2="18.5019" gradientUnits="userSpaceOnUse">
<stop stop-color="#FFD945"/>
<stop offset="0.3043" stop-color="#FFCD3E"/>
<stop offset="0.8558" stop-color="#FFAD2B"/>
<stop offset="1" stop-color="#FFA325"/>
</linearGradient>
<linearGradient id="paint9_linear_371_15795" x1="13.8638" y1="13.8761" x2="7.41656" y2="6.59099" gradientUnits="userSpaceOnUse">
<stop stop-color="#FFD945"/>
<stop offset="0.3043" stop-color="#FFCD3E"/>
<stop offset="0.8558" stop-color="#FFAD2B"/>
<stop offset="1" stop-color="#FFA325"/>
</linearGradient>
<linearGradient id="paint10_linear_371_15795" x1="10.767" y1="10.5069" x2="16.528" y2="17.0167" gradientUnits="userSpaceOnUse">
<stop stop-color="#F8F6FB"/>
<stop offset="1" stop-color="#EFDCFB"/>
</linearGradient>
<linearGradient id="paint11_linear_371_15795" x1="13.3699" y1="13.3402" x2="8.86501" y2="8.24981" gradientUnits="userSpaceOnUse">
<stop stop-color="#F8F6FB"/>
<stop offset="1" stop-color="#EFDCFB"/>
</linearGradient>
<linearGradient id="paint12_linear_371_15795" x1="12.3587" y1="5.82962" x2="11.8457" y2="5.25001" gradientUnits="userSpaceOnUse">
<stop stop-color="#F8F6FB"/>
<stop offset="1" stop-color="#EFDCFB"/>
</linearGradient>
<linearGradient id="paint13_linear_371_15795" x1="12.3587" y1="18.6472" x2="11.8457" y2="18.0676" gradientUnits="userSpaceOnUse">
<stop stop-color="#F8F6FB"/>
<stop offset="1" stop-color="#EFDCFB"/>
</linearGradient>
<linearGradient id="paint14_linear_371_15795" x1="12.1331" y1="5.58366" x2="12.5118" y2="6.01157" gradientUnits="userSpaceOnUse">
<stop stop-color="#9B62CD"/>
<stop offset="0.3003" stop-color="#985DCB"/>
<stop offset="0.6716" stop-color="#8F4EC7"/>
<stop offset="1" stop-color="#833AC1"/>
</linearGradient>
<linearGradient id="paint15_linear_371_15795" x1="12.1331" y1="18.4013" x2="12.5118" y2="18.8292" gradientUnits="userSpaceOnUse">
<stop stop-color="#9B62CD"/>
<stop offset="0.3003" stop-color="#985DCB"/>
<stop offset="0.6716" stop-color="#8F4EC7"/>
<stop offset="1" stop-color="#833AC1"/>
</linearGradient>
<linearGradient id="paint16_linear_371_15795" x1="18.8899" y1="12.2386" x2="18.377" y2="11.6589" gradientUnits="userSpaceOnUse">
<stop stop-color="#F8F6FB"/>
<stop offset="1" stop-color="#EFDCFB"/>
</linearGradient>
<linearGradient id="paint17_linear_371_15795" x1="18.6644" y1="11.9924" x2="19.0431" y2="12.4203" gradientUnits="userSpaceOnUse">
<stop stop-color="#9B62CD"/>
<stop offset="0.3003" stop-color="#985DCB"/>
<stop offset="0.6716" stop-color="#8F4EC7"/>
<stop offset="1" stop-color="#833AC1"/>
</linearGradient>
<linearGradient id="paint18_linear_371_15795" x1="5.82742" y1="12.2386" x2="5.31444" y2="11.6589" gradientUnits="userSpaceOnUse">
<stop stop-color="#F8F6FB"/>
<stop offset="1" stop-color="#EFDCFB"/>
</linearGradient>
<linearGradient id="paint19_linear_371_15795" x1="5.60189" y1="11.9924" x2="5.98057" y2="12.4203" gradientUnits="userSpaceOnUse">
<stop stop-color="#9B62CD"/>
<stop offset="0.3003" stop-color="#985DCB"/>
<stop offset="0.6716" stop-color="#8F4EC7"/>
<stop offset="1" stop-color="#833AC1"/>
</linearGradient>
<linearGradient id="paint20_linear_371_15795" x1="14.8102" y1="12.9454" x2="5.98987" y2="8.02152" gradientUnits="userSpaceOnUse">
<stop stop-color="#EFDCFB" stop-opacity="0"/>
<stop offset="0.4856" stop-color="#BAAAD6" stop-opacity="0.486"/>
<stop offset="1" stop-color="#8679B2"/>
</linearGradient>
<linearGradient id="paint21_linear_371_15795" x1="13.7673" y1="13.8264" x2="10.8605" y2="11.5224" gradientUnits="userSpaceOnUse">
<stop stop-color="#EFDCFB" stop-opacity="0"/>
<stop offset="0.4856" stop-color="#BAAAD6" stop-opacity="0.486"/>
<stop offset="1" stop-color="#8679B2"/>
</linearGradient>
<linearGradient id="paint22_linear_371_15795" x1="14.056" y1="12.4424" x2="10.1692" y2="11.3441" gradientUnits="userSpaceOnUse">
<stop stop-color="#EFDCFB" stop-opacity="0"/>
<stop offset="0.4856" stop-color="#BAAAD6" stop-opacity="0.486"/>
<stop offset="1" stop-color="#8679B2"/>
</linearGradient>
<linearGradient id="paint23_linear_371_15795" x1="11.6484" y1="10.0745" x2="12.8099" y2="10.0745" gradientUnits="userSpaceOnUse">
<stop stop-color="#92F37F"/>
<stop offset="1" stop-color="#4AB272"/>
</linearGradient>
<linearGradient id="paint24_linear_371_15795" x1="12.6193" y1="9.88203" x2="10.6494" y2="10.9723" gradientUnits="userSpaceOnUse">
<stop stop-color="#005A01" stop-opacity="0"/>
<stop offset="1" stop-color="#005A01"/>
</linearGradient>
<linearGradient id="paint25_linear_371_15795" x1="10.0242" y1="9.59989" x2="13.3912" y2="10.2648" gradientUnits="userSpaceOnUse">
<stop stop-color="#FFD945"/>
<stop offset="0.3043" stop-color="#FFCD3E"/>
<stop offset="0.8558" stop-color="#FFAD2B"/>
<stop offset="1" stop-color="#FFA325"/>
</linearGradient>
<linearGradient id="paint26_linear_371_15795" x1="11.5304" y1="8.7738" x2="10.538" y2="15.1523" gradientUnits="userSpaceOnUse">
<stop stop-color="#F35227" stop-opacity="0"/>
<stop offset="1" stop-color="#F35227"/>
</linearGradient>
<linearGradient id="paint27_linear_371_15795" x1="12.0502" y1="11.9019" x2="12.7567" y2="12.7002" gradientUnits="userSpaceOnUse">
<stop stop-color="#FF819C"/>
<stop offset="0.2594" stop-color="#FF7E9A"/>
<stop offset="0.4757" stop-color="#FE7396"/>
<stop offset="0.6765" stop-color="#FC628E"/>
<stop offset="0.8668" stop-color="#FA4A83"/>
<stop offset="1" stop-color="#F83479"/>
</linearGradient>
</defs>
</svg>
