<svg width="299" height="266" viewBox="0 0 299 266" fill="none" xmlns="http://www.w3.org/2000/svg">
<mask id="mask0_371_16943" style="mask-type:luminance" maskUnits="userSpaceOnUse" x="0" y="16" width="299" height="250">
<path d="M0 16.4622H299V265.514H0V16.4622Z" fill="white"/>
</mask>
<g mask="url(#mask0_371_16943)">
<path d="M284.164 54.8872C234.75 -17.6602 149.334 35.2379 149.334 35.2379C149.334 35.2379 63.9232 -17.6602 14.5048 54.8872C-34.9177 127.439 54.2561 247.343 149.334 265.485C244.417 247.343 333.587 127.439 284.164 54.8872ZM149.334 173.79C84.8739 151.117 81.1154 105.777 102.6 100.737C124.084 95.7015 149.334 108.658 149.334 108.658C149.334 108.658 174.581 95.6974 196.073 100.737C217.558 105.777 213.799 151.117 149.334 173.79Z" fill="#FCB45E"/>
</g>
<path d="M284.164 38.2612C234.75 -34.2822 149.334 18.6159 149.334 18.6159C149.334 18.6159 63.9232 -34.2822 14.5048 38.2612C-34.9177 110.813 54.2561 230.721 149.334 248.855C244.417 230.721 333.587 110.813 284.164 38.2612ZM149.334 157.164C84.8739 134.491 81.1154 89.1467 102.6 84.1111C124.084 79.0755 149.334 92.0322 149.334 92.0322C149.334 92.0322 174.581 79.0674 196.073 84.1111C217.558 89.1467 213.799 134.491 149.334 157.164Z" fill="#E7688B"/>
<path d="M148.958 47.9039C148.958 47.9039 152.151 40.601 157.793 43.0178C163.435 45.4305 168.127 58.5772 149.144 68.6969C149.144 68.6969 132.033 56.8192 136.713 45.0547C141.401 33.2901 148.958 47.9039 148.958 47.9039Z" fill="white"/>
<path d="M52.8296 113.617C52.8296 113.617 56.0223 106.318 61.6641 108.731C67.3059 111.144 71.998 124.295 53.0155 134.414C53.0155 134.414 35.9041 122.533 40.5841 110.768C45.2681 99.0035 52.8296 113.617 52.8296 113.617Z" fill="white"/>
<path d="M256.71 109.18C256.71 109.18 259.902 101.877 265.544 104.29C271.186 106.706 275.878 119.853 256.895 129.973C256.895 129.973 239.78 118.095 244.464 106.331C249.144 94.566 256.71 109.18 256.71 109.18Z" fill="white"/>
<path d="M233.719 39.6195C233.719 39.6195 236.018 34.3616 240.08 36.1035C244.141 37.8453 247.52 47.3103 233.856 54.5929C233.856 54.5929 221.538 46.0373 224.908 37.5705C228.279 29.0997 233.719 39.6195 233.719 39.6195Z" fill="white"/>
<path d="M62.6053 29.4593C62.6053 29.4593 64.9048 24.2015 68.9664 25.9433C73.0281 27.6811 76.4067 37.1461 62.7427 44.4287C62.7427 44.4287 50.4244 35.8771 53.795 27.4063C57.1655 18.9395 62.6053 29.4593 62.6053 29.4593Z" fill="white"/>
<path d="M153.656 194.615C153.656 194.615 155.956 189.358 160.017 191.099C164.079 192.833 167.457 202.302 153.793 209.585C153.793 209.585 141.475 201.033 144.846 192.562C148.212 184.088 153.656 194.615 153.656 194.615Z" fill="white"/>
<path d="M286.34 86.657C276.976 44.493 257.528 27.0098 242.862 19.7716C226.987 11.9353 213.125 14.0651 212.984 14.0854L212.766 12.7355C212.899 12.7113 227.133 10.5047 243.391 18.5026C258.357 25.862 278.18 43.6119 287.673 86.3499L286.34 86.657Z" fill="white"/>
<path d="M128.262 224.72C67.8955 197.177 47.0458 164.05 46.8438 163.723L48.0117 163.007C48.2138 163.335 68.8856 196.127 128.828 223.479L128.262 224.72Z" fill="white"/>
<path d="M133.242 210.252C107.575 204.901 90.5485 189.924 90.3828 189.774L91.2921 188.756C91.4619 188.905 108.23 203.644 133.521 208.918L133.242 210.252Z" fill="white"/>
<path d="M211.823 231.631C191.341 248.011 168.956 251.591 168.73 251.62L168.523 250.27C168.742 250.233 190.784 246.697 210.962 230.56L211.823 231.631Z" fill="#E7688B"/>
<path d="M66.3984 77.2041L67.6432 76.6343L70.4075 82.6641L69.1628 83.2379L66.3984 77.2041Z" fill="white"/>
<path d="M71.9258 75.919L73.1746 75.3491L75.9349 81.3789L74.6901 81.9488L71.9258 75.919Z" fill="white"/>
<path d="M190.23 196.289L190.683 195L196.939 197.186L196.491 198.475L190.23 196.289Z" fill="white"/>
<path d="M23.207 67.6589L24.569 67.5215L25.2318 74.1211L23.8698 74.2585L23.207 67.6589Z" fill="white"/>
<path d="M183.41 31.4151L189.832 29.7703L190.171 31.0999L183.75 32.7447L183.41 31.4151Z" fill="white"/>
<path d="M131.471 90.8807C123.865 89.4621 114.566 88.569 104.426 89.4459L104.547 90.8119C114.687 89.935 123.966 90.8524 131.519 92.283L131.471 90.8807Z" fill="#E7688B"/>
<path d="M127.521 95.2332C123.136 94.3077 118.408 93.6247 113.421 93.3257L113.336 94.6917C118.363 94.9867 123.12 95.6899 127.521 96.6275V95.2332Z" fill="#E7688B"/>
<path d="M204.824 157.164H228.996V161.452H204.824V157.164Z" fill="#FCB45E"/>
<path d="M99.1141 20.0869L112.855 39.9828L109.327 42.4198L95.5859 22.5239L99.1141 20.0869Z" fill="#FCB45E"/>
<path d="M78.352 145.262L76.5414 169.377L72.2656 169.058L74.0721 144.938L78.352 145.262Z" fill="#FCB45E"/>
<path d="M248.809 76.651L261.745 56.2217L265.37 58.5212L252.43 78.9506L248.809 76.651Z" fill="#FCB45E"/>
</svg>
