<svg width="20" height="24" viewBox="0 0 20 24" fill="none" xmlns="http://www.w3.org/2000/svg">
<path d="M15.0715 7.67865C14.5714 7.1326 13.7938 6.39559 13.463 8.05974C13.3505 8.62557 13.0877 9.06174 12.8624 9.41293C12.6197 8.18424 11.8893 6.91248 11.201 6.05499C10.9435 5.73418 10.0297 4.45885 9.85419 2.32529C9.82799 2.00687 9.44975 1.85734 9.21317 2.07212C6.9523 4.12449 5.71133 6.94721 5.66525 10.125C5.66525 10.125 4.72381 9.33146 4.21236 7.85518C4.07464 7.45763 3.54167 7.38179 3.31044 7.73331C3.26605 7.80081 3.22489 7.8684 3.18777 7.93403C1.44341 11.0184 0.604298 14.7639 1.38003 18.2486C2.67706 24.0844 11.2568 25.716 15.7989 22.048C20.2429 18.4595 18.8303 11.7803 15.0715 7.67865Z" fill="#ED694A"/>
<path d="M2.5873 18.6148C1.82056 15.0928 2.63216 11.3108 4.33555 8.17816C4.29247 8.07423 4.25103 7.96675 4.21231 7.855C4.07459 7.45745 3.54163 7.38161 3.31039 7.73312C3.266 7.80062 3.22489 7.86822 3.18777 7.93384C1.44341 11.0182 0.604298 14.7638 1.38003 18.2485C1.97164 20.9103 4.07858 22.6969 6.62628 23.5054C4.63878 22.5427 3.08234 20.8923 2.5873 18.6148Z" fill="#9D9FA0"/>
<path d="M6.87733 10.0663C6.9715 7.18226 8.01466 4.59616 9.88169 2.60951C9.86884 2.5001 9.85933 2.40227 9.85319 2.32802C9.82642 2.00688 9.46202 1.84582 9.22647 2.05872C7.0428 4.03301 5.71183 6.82718 5.66406 10.1247L6.07277 10.4421C6.27405 10.5985 6.54677 10.5917 6.739 10.4485C6.8537 10.3512 6.87016 10.2045 6.87733 10.0663Z" fill="#9D9FA0"/>
<path d="M13.6981 11.9445C13.3288 11.5412 12.7544 10.9968 12.5101 12.226C12.427 12.6439 12.2328 12.9661 12.0666 13.2255C11.8873 12.3179 11.3477 11.3786 10.8394 10.7452C10.6492 10.5083 9.9743 9.56634 9.84459 7.99036C9.82523 7.75514 9.54591 7.64475 9.37116 7.80337C7.70123 9.31926 6.78459 11.4043 6.75061 13.7514C6.75061 13.7514 6.05522 13.1653 5.6775 12.0749C5.57578 11.7812 5.18208 11.7252 5.01131 11.9849C4.97855 12.0347 4.94812 12.0847 4.9207 12.1331C3.63225 14.4113 3.01247 17.1778 3.58542 19.7517C4.54345 24.0622 10.8806 25.2673 14.2355 22.558C17.5179 19.9075 16.4745 14.9741 13.6981 11.9445Z" fill="#F4A32C"/>
<path d="M4.78031 20.0899C4.27303 17.5738 4.79845 14.874 5.91244 12.6259C5.82755 12.4597 5.74711 12.2759 5.67745 12.0749C5.57573 11.7813 5.18203 11.7253 5.01127 11.9849C4.9785 12.0347 4.94808 12.0847 4.92066 12.1332C3.63225 14.4114 3.01252 17.1779 3.58537 19.7518C4.03097 21.7565 5.64023 23.0891 7.57167 23.669C6.19941 22.9808 5.11894 21.7717 4.78031 20.0899Z" fill="#9D9FA0"/>
<path d="M12.4479 15.8392C12.1978 15.5662 11.809 15.1977 11.6436 16.0298C11.5874 16.3127 11.4559 16.5308 11.3433 16.7064C11.2219 16.092 10.8567 15.4561 10.5126 15.0274C10.3839 14.867 9.92698 14.2294 9.83914 13.1625C9.82602 13.0033 9.63697 12.9285 9.51866 13.036C8.38822 14.0622 7.76773 15.4736 7.74472 17.0624C7.74472 17.0624 7.27395 16.6656 7.0183 15.9275C6.94944 15.7287 6.68295 15.6908 6.56736 15.8666C6.54514 15.9003 6.52461 15.9341 6.506 15.9669C5.63384 17.5091 5.21426 19.3819 5.60211 21.1242C6.25062 24.0422 10.5405 24.8579 12.8115 23.024C13.5892 22.3959 14.0714 21.511 14.1692 20.5321C14.3168 19.0494 13.7462 17.256 12.4479 15.8392Z" fill="#F4D44E"/>
<path d="M11.2853 19.4534C11.146 19.3013 10.9294 19.096 10.8373 19.5595C10.806 19.7171 10.7327 19.8386 10.67 19.9365C10.6023 19.5942 10.3989 19.2399 10.2072 19.0011C10.1355 18.9117 9.88088 18.5564 9.83194 17.9621C9.82463 17.8734 9.71926 17.8318 9.6534 17.8915C9.02363 18.4633 8.67788 19.2496 8.66508 20.1348C8.66508 20.1348 8.40282 19.9137 8.26037 19.5025C8.22197 19.3917 8.07352 19.3706 8.00916 19.4686C7.99679 19.4874 7.98535 19.5062 7.97504 19.5245C7.48913 20.3837 7.25537 21.427 7.47146 22.3978C7.96355 24.6117 11.9971 24.5446 12.2445 22.0678C12.3266 21.2418 12.0087 20.2427 11.2853 19.4534Z" fill="#9D9FA0"/>
<path d="M8.40797 22.8373C8.19188 21.969 8.42565 21.0356 8.91155 20.2671C8.92187 20.2507 8.93335 20.2339 8.94568 20.2171C9.01008 20.1295 9.15854 20.1484 9.19688 20.2474C9.33933 20.6153 9.6016 20.813 9.6016 20.813C9.61215 20.1624 9.84783 19.5718 10.2807 19.0981C10.1839 18.964 9.88777 18.6408 9.83194 17.9623C9.82463 17.8736 9.71926 17.832 9.6534 17.8918C9.02363 18.4635 8.67788 19.2499 8.66508 20.135C8.66508 20.135 8.40282 19.914 8.26037 19.5028C8.22202 19.392 8.07352 19.3709 8.00916 19.4689C7.99679 19.4876 7.98535 19.5065 7.97504 19.5248C7.48913 20.3839 7.25537 21.4273 7.47146 22.3981C7.67143 23.2978 8.49296 23.8386 9.40121 23.9691C8.91127 23.7285 8.53472 23.3475 8.40797 22.8373Z" fill="#F7E7A1"/>
<path d="M6.21646 3.18961C7.23013 2.36512 7.22788 0.822609 6.21646 0C5.20279 0.824437 5.20499 2.367 6.21646 3.18961Z" fill="#9D9FA0"/>
<path d="M18.3639 9.8068C19.3776 8.98231 19.3754 7.4398 18.3639 6.61719C17.9006 6.99397 17.3525 8.98419 18.3639 9.8068Z" fill="#9D9FA0"/>
<path d="M0.411505 10.4345C1.14205 9.8403 1.14046 8.72866 0.411505 8.13574C0.0776146 8.40729 -0.317448 9.84166 0.411505 10.4345Z" fill="#9D9FA0"/>
<path d="M13.0629 5.48849C13.7935 4.89426 13.7919 3.78262 13.0629 3.1897C12.3324 3.78388 12.334 4.89562 13.0629 5.48849Z" fill="#9D9FA0"/>
<path d="M7.68211 13.3747C7.84987 11.3941 8.6062 9.63305 9.87614 8.29051C9.8633 8.19319 9.85247 8.0933 9.84403 7.9906C9.82467 7.75538 9.54534 7.64499 9.37059 7.80362C8.04731 9.00483 7.19803 10.5637 6.88519 12.3269L6.88472 12.3268C6.86152 12.4576 6.83273 12.6481 6.81455 12.7977C6.81459 12.7979 6.81464 12.798 6.81473 12.7981C6.77672 13.1105 6.75469 13.4285 6.75 13.7517C6.78534 13.7586 7.58541 14.1698 7.68211 13.3747Z" fill="#9D9FA0"/>
<path d="M6.77112 21.5382C6.42636 19.9105 6.71998 18.1747 7.40211 16.6707C7.26997 16.4854 7.12536 16.2365 7.01834 15.9275C6.94944 15.7287 6.683 15.6908 6.56736 15.8665C6.54519 15.9002 6.52456 15.9341 6.506 15.9669C5.63384 17.5091 5.21426 19.3818 5.60211 21.1242C5.90586 22.4907 7.00822 23.3962 8.3278 23.7843C7.5597 23.2744 6.97869 22.5197 6.77112 21.5382Z" fill="#9D9FA0"/>
<path d="M8.99048 16.3511C9.10477 15.5343 9.43884 14.6344 9.96473 13.882C9.90745 13.6695 9.86241 13.4295 9.84042 13.1625C9.8273 13.0033 9.6382 12.9285 9.51994 13.036C8.81559 13.6754 8.31005 14.4647 8.02284 15.3529L8.02209 15.3527C7.97691 15.4923 7.91302 15.7235 7.8743 15.9059C7.87463 15.9058 7.87495 15.9058 7.87528 15.9057C7.79597 16.2781 7.75186 16.6645 7.74609 17.0623C8.37853 17.1413 8.9017 16.9847 8.99048 16.3511Z" fill="#9D9FA0"/>
</svg>
