<svg width="29" height="25" viewBox="0 0 29 25" fill="none" xmlns="http://www.w3.org/2000/svg">
<path d="M20.2984 0.227295C19.0013 0.227295 17.7616 0.516542 16.6139 1.08706C15.8325 1.47534 15.1148 1.99123 14.4989 2.60331C13.883 1.99123 13.1653 1.47534 12.384 1.08706C11.2362 0.516542 9.99652 0.227295 8.69945 0.227295C4.22783 0.227295 0.589844 3.76627 0.589844 8.11624C0.589844 11.1972 2.26255 14.4695 5.56144 17.8423C8.31584 20.6583 11.6881 23.0058 14.032 24.4792L14.4989 24.7727L14.9659 24.4792C17.3098 23.0059 20.682 20.6583 23.4364 17.8423C26.7353 14.4695 28.408 11.1972 28.408 8.11624C28.408 3.76627 24.77 0.227295 20.2984 0.227295Z" fill="#E11D38"/>
</svg>
