<svg width="26" height="23" viewBox="0 0 26 23" fill="none" xmlns="http://www.w3.org/2000/svg">
<mask id="path-1-outside-1_371_17006" maskUnits="userSpaceOnUse" x="0" y="0" width="26" height="23" fill="black">
<rect fill="white" width="26" height="23"/>
<path d="M18.0625 1C17.1133 1.0011 16.1744 1.19666 15.3037 1.5746C14.433 1.95255 13.649 2.50487 13 3.1975C12.0489 2.18242 10.8146 1.47669 9.45735 1.17195C8.1001 0.867199 6.68258 0.977505 5.38881 1.48854C4.09504 1.99958 2.98478 2.88775 2.20215 4.03775C1.41953 5.18775 1.00068 6.54646 1 7.9375C1 14.845 12.1412 21.625 12.625 21.8913C12.7416 21.9613 12.8752 21.9984 13.0112 21.9984C13.1473 21.9984 13.2809 21.9613 13.3975 21.8913C13.8588 21.625 25 14.845 25 7.9375C24.998 6.09817 24.2665 4.33474 22.9659 3.03414C21.6653 1.73354 19.9018 1.00199 18.0625 1ZM13 20.365C11.0612 19.1275 2.5 13.345 2.5 7.9375C2.50096 6.78248 2.86969 5.65777 3.55276 4.72637C4.23582 3.79498 5.19772 3.10528 6.29906 2.75725C7.4004 2.40922 8.58395 2.42093 9.67819 2.79068C10.7724 3.16043 11.7205 3.86902 12.385 4.81375C12.4542 4.91202 12.5461 4.99221 12.6528 5.04756C12.7595 5.10291 12.8779 5.1318 12.9981 5.1318C13.1183 5.1318 13.2368 5.10291 13.3435 5.04756C13.4502 4.99221 13.542 4.91202 13.6112 4.81375C14.2752 3.8674 15.2235 3.15728 16.3184 2.78648C17.4134 2.41569 18.598 2.40352 19.7004 2.75174C20.8027 3.09996 21.7654 3.79044 22.4486 4.72295C23.1319 5.65546 23.5002 6.78147 23.5 7.9375C23.5 13.3412 14.9388 19.1238 13 20.365Z"/>
</mask>
<path d="M18.0625 1C17.1133 1.0011 16.1744 1.19666 15.3037 1.5746C14.433 1.95255 13.649 2.50487 13 3.1975C12.0489 2.18242 10.8146 1.47669 9.45735 1.17195C8.1001 0.867199 6.68258 0.977505 5.38881 1.48854C4.09504 1.99958 2.98478 2.88775 2.20215 4.03775C1.41953 5.18775 1.00068 6.54646 1 7.9375C1 14.845 12.1412 21.625 12.625 21.8913C12.7416 21.9613 12.8752 21.9984 13.0112 21.9984C13.1473 21.9984 13.2809 21.9613 13.3975 21.8913C13.8588 21.625 25 14.845 25 7.9375C24.998 6.09817 24.2665 4.33474 22.9659 3.03414C21.6653 1.73354 19.9018 1.00199 18.0625 1ZM13 20.365C11.0612 19.1275 2.5 13.345 2.5 7.9375C2.50096 6.78248 2.86969 5.65777 3.55276 4.72637C4.23582 3.79498 5.19772 3.10528 6.29906 2.75725C7.4004 2.40922 8.58395 2.42093 9.67819 2.79068C10.7724 3.16043 11.7205 3.86902 12.385 4.81375C12.4542 4.91202 12.5461 4.99221 12.6528 5.04756C12.7595 5.10291 12.8779 5.1318 12.9981 5.1318C13.1183 5.1318 13.2368 5.10291 13.3435 5.04756C13.4502 4.99221 13.542 4.91202 13.6112 4.81375C14.2752 3.8674 15.2235 3.15728 16.3184 2.78648C17.4134 2.41569 18.598 2.40352 19.7004 2.75174C20.8027 3.09996 21.7654 3.79044 22.4486 4.72295C23.1319 5.65546 23.5002 6.78147 23.5 7.9375C23.5 13.3412 14.9388 19.1238 13 20.365Z" fill="#E11D38"/>
<path d="M13 3.1975L12.8541 3.33425L13 3.49001L13.1459 3.33425L13 3.1975ZM1 7.9375L0.8 7.9374V7.9375H1ZM12.625 21.8913L12.7281 21.7197L12.7214 21.716L12.625 21.8913ZM13.3975 21.8913L13.2975 21.718L13.2945 21.7198L13.3975 21.8913ZM25 7.9375H25.2V7.93728L25 7.9375ZM13 20.365L12.8924 20.5336L13.0002 20.6024L13.1078 20.5334L13 20.365ZM2.5 7.9375L2.3 7.93733V7.9375H2.5ZM12.385 4.81375L12.2214 4.92881L12.2215 4.92894L12.385 4.81375ZM13.6112 4.81375L13.7748 4.92894L13.775 4.92862L13.6112 4.81375ZM23.5 7.9375L23.3 7.93747V7.9375H23.5ZM18.0623 0.8C17.0858 0.801136 16.1198 1.00232 15.2241 1.39114L15.3834 1.75807C16.229 1.391 17.1409 1.20107 18.0627 1.2L18.0623 0.8ZM15.2241 1.39114C14.3283 1.77997 13.5217 2.34818 12.8541 3.06075L13.1459 3.33425C13.7763 2.66156 14.5377 2.12513 15.3834 1.75807L15.2241 1.39114ZM13.1459 3.06075C12.1674 2.0164 10.8975 1.29034 9.50117 0.976804L9.41354 1.36709C10.7317 1.66305 11.9304 2.34843 12.8541 3.33425L13.1459 3.06075ZM9.50117 0.976804C8.10479 0.663272 6.6464 0.776758 5.31534 1.30253L5.46229 1.67456C6.71876 1.17825 8.09541 1.07113 9.41354 1.36709L9.50117 0.976804ZM5.31534 1.30253C3.98427 1.8283 2.842 2.74207 2.03681 3.92522L2.3675 4.15027C3.12756 3.03343 4.20582 2.17086 5.46229 1.67456L5.31534 1.30253ZM2.03681 3.92522C1.23162 5.10838 0.800705 6.50626 0.8 7.9374L1.2 7.9376C1.20067 6.58666 1.60743 5.26712 2.3675 4.15027L2.03681 3.92522ZM0.8 7.9375C0.8 9.71755 1.51714 11.4747 2.58092 13.1038C3.64549 14.7341 5.06637 16.2503 6.49643 17.5527C9.35553 20.1566 12.2751 21.9269 12.5286 22.0665L12.7214 21.716C12.4912 21.5893 9.59823 19.8366 6.76576 17.257C5.35004 15.9676 3.95537 14.4771 2.91584 12.8851C1.87552 11.2919 1.2 9.6112 1.2 7.9375H0.8ZM12.522 22.0627C12.6698 22.1515 12.8389 22.1984 13.0112 22.1984V21.7984C12.9115 21.7984 12.8135 21.7712 12.728 21.7198L12.522 22.0627ZM13.0112 22.1984C13.1836 22.1984 13.3527 22.1515 13.5005 22.0627L13.2945 21.7198C13.209 21.7712 13.111 21.7984 13.0112 21.7984V22.1984ZM13.4975 22.0645C13.7361 21.9267 16.6496 20.157 19.5065 17.5526C20.9351 16.2503 22.3552 14.7341 23.4194 13.1038C24.4829 11.4747 25.2 9.71754 25.2 7.9375H24.8C24.8 9.61121 24.1245 11.2919 23.0845 12.8851C22.0453 14.4771 20.6513 15.9677 19.237 17.257C16.4079 19.8361 13.5202 21.5895 13.2975 21.718L13.4975 22.0645ZM25.2 7.93728C25.198 6.04499 24.4453 4.23078 23.1073 2.89272L22.8244 3.17556C24.0876 4.43871 24.7981 6.15135 24.8 7.93772L25.2 7.93728ZM23.1073 2.89272C21.7692 1.55466 19.955 0.802043 18.0627 0.8L18.0623 1.2C19.8486 1.20193 21.5613 1.91241 22.8244 3.17556L23.1073 2.89272ZM13.1076 20.1964C12.1427 19.5805 9.53013 17.8336 7.16112 15.5704C5.97662 14.4388 4.85829 13.1831 4.0372 11.8799C3.21527 10.5755 2.7 9.23755 2.7 7.9375H2.3C2.3 9.3412 2.85489 10.7539 3.69878 12.0932C4.54351 13.4338 5.68666 14.715 6.88481 15.8596C9.28112 18.1489 11.9185 19.912 12.8924 20.5336L13.1076 20.1964ZM2.7 7.93767C2.70093 6.82513 3.0561 5.74179 3.71403 4.84465L3.39148 4.6081C2.68329 5.57375 2.301 6.73983 2.3 7.93733L2.7 7.93767ZM3.71403 4.84465C4.37197 3.94751 5.2985 3.28319 6.35933 2.94796L6.2388 2.56655C5.09695 2.92738 4.09966 3.64244 3.39148 4.6081L3.71403 4.84465ZM6.35933 2.94796C7.42016 2.61272 8.56017 2.624 9.61416 2.98016L9.74222 2.60121C8.60773 2.21785 7.38064 2.20571 6.2388 2.56655L6.35933 2.94796ZM9.61416 2.98016C10.6682 3.33631 11.5814 4.01883 12.2214 4.92881L12.5486 4.69869C11.8596 3.71921 10.8767 2.98456 9.74222 2.60121L9.61416 2.98016ZM12.2215 4.92894C12.3092 5.05341 12.4255 5.15498 12.5607 5.22509L12.7449 4.87002C12.6666 4.82943 12.5993 4.77063 12.5485 4.69856L12.2215 4.92894ZM12.5607 5.22509C12.6958 5.29521 12.8459 5.3318 12.9981 5.3318V4.9318C12.91 4.9318 12.8231 4.91061 12.7449 4.87002L12.5607 5.22509ZM12.9981 5.3318C13.1504 5.3318 13.3004 5.29521 13.4356 5.22509L13.2514 4.87002C13.1731 4.91062 13.0863 4.9318 12.9981 4.9318V5.3318ZM13.4356 5.22509C13.5707 5.15498 13.6871 5.05341 13.7748 4.92894L13.4478 4.69856C13.397 4.77063 13.3296 4.82943 13.2514 4.87002L13.4356 5.22509ZM13.775 4.92862C14.4145 4.01707 15.3279 3.33307 16.3826 2.97592L16.2543 2.59705C15.1191 2.98148 14.1359 3.71772 13.4475 4.69888L13.775 4.92862ZM16.3826 2.97592C17.4373 2.61876 18.5783 2.60704 19.6401 2.94245L19.7606 2.56103C18.6177 2.2 17.3895 2.21262 16.2543 2.59705L16.3826 2.97592ZM19.6401 2.94245C20.7019 3.27786 21.6292 3.94294 22.2873 4.84116L22.61 4.60474C21.9016 3.63793 20.9035 2.92205 19.7606 2.56103L19.6401 2.94245ZM22.2873 4.84116C22.9454 5.73937 23.3002 6.82396 23.3 7.93747L23.7 7.93753C23.7002 6.73897 23.3184 5.57155 22.61 4.60474L22.2873 4.84116ZM23.3 7.9375C23.3 9.23658 22.7848 10.5738 21.9628 11.8778C21.1417 13.1805 20.0234 14.436 18.8389 15.5676C16.4699 17.8308 13.8573 19.5787 12.8922 20.1966L13.1078 20.5334C14.0815 19.9101 16.7189 18.1461 19.1152 15.8568C20.3133 14.7122 21.4565 13.4313 22.3012 12.0911C23.1451 10.7523 23.7 9.34029 23.7 7.9375H23.3Z" fill="#E11D38" mask="url(#path-1-outside-1_371_17006)"/>
</svg>
