<svg width="20" height="24" viewBox="0 0 20 24" fill="none" xmlns="http://www.w3.org/2000/svg">
<path d="M17.3516 23.264H2.65156C1.26406 23.264 0.101562 22.139 0.101562 20.714V9.35147C0.101562 8.60147 0.439063 7.88897 1.03906 7.40147L8.38907 1.32647C9.32657 0.538965 10.6766 0.538965 11.6141 1.32647L18.9641 7.36397C19.5641 7.85147 19.9016 8.56397 19.9016 9.31397V20.6765C19.9016 22.139 18.7391 23.264 17.3516 23.264ZM10.0016 2.26397C9.77657 2.26397 9.51407 2.33897 9.32657 2.48897L1.97656 8.56397C1.75156 8.75147 1.60156 9.05147 1.60156 9.35147V20.714C1.60156 21.2765 2.05156 21.764 2.65156 21.764H17.3516C17.9141 21.764 18.4016 21.314 18.4016 20.714V9.35147C18.4016 9.05147 18.2516 8.75147 18.0266 8.56397L10.6766 2.48897C10.4891 2.33897 10.2266 2.26397 10.0016 2.26397Z" fill="#E3E4E4"/>
<path d="M14.5 19.9639H5.5C5.0875 19.9639 4.75 19.6264 4.75 19.2139C4.75 18.8014 5.0875 18.4639 5.5 18.4639H14.5C14.9125 18.4639 15.25 18.8014 15.25 19.2139C15.25 19.6264 14.9125 19.9639 14.5 19.9639Z" fill="#E3E4E4"/>
</svg>
