<svg width="24" height="24" viewBox="0 0 24 24" fill="none" xmlns="http://www.w3.org/2000/svg">
<path d="M23.5087 17.7054L21.8782 15.5972C21.6556 15.3106 21.5359 14.9697 21.5349 14.6202V8.56989C21.5349 6.29702 20.5304 4.11723 18.7422 2.51006C16.9541 0.902897 14.5288 0 12 0C9.47118 0 7.04592 0.902897 5.25777 2.51006C3.46963 4.11723 2.46505 6.29702 2.46505 8.56989V14.6202C2.46413 14.9697 2.34436 15.3106 2.1218 15.5972L0.491321 17.7054C0.244441 17.9513 0.0820972 18.2561 0.02392 18.5832C-0.0342572 18.9102 0.0142242 19.2454 0.163502 19.5481C0.312779 19.8509 0.556459 20.1084 0.865073 20.2893C1.17369 20.4703 1.53402 20.567 1.90249 20.5677H7.32788C7.54672 21.5364 8.13142 22.4073 8.9829 23.0328C9.83438 23.6583 10.9003 24 12 24C13.0997 24 14.1656 23.6583 15.0171 23.0328C15.8686 22.4073 16.4533 21.5364 16.6721 20.5677H22.0975C22.466 20.567 22.8263 20.4703 23.1349 20.2893C23.4435 20.1084 23.6872 19.8509 23.8365 19.5481C23.9858 19.2454 24.0343 18.9102 23.9761 18.5832C23.9179 18.2561 23.7556 17.9513 23.5087 17.7054ZM12 22.2817C11.4098 22.2802 10.8346 22.1147 10.3533 21.8079C9.87187 21.501 9.50786 21.0678 9.31115 20.5677H14.6889C14.4921 21.0678 14.1281 21.501 13.6467 21.8079C13.1654 22.1147 12.5902 22.2802 12 22.2817ZM1.90249 18.8538C1.94559 18.8178 1.98398 18.7776 2.01691 18.7338L3.68553 16.5742C4.13066 16.001 4.3702 15.3192 4.37204 14.6202V8.56989C4.37204 6.75159 5.1757 5.00776 6.60622 3.72203C8.03674 2.4363 9.97694 1.71398 12 1.71398C14.0231 1.71398 15.9633 2.4363 17.3938 3.72203C18.8243 5.00776 19.628 6.75159 19.628 8.56989V14.6202C19.6298 15.3192 19.8693 16.001 20.3145 16.5742L21.9831 18.7338C22.016 18.7776 22.0544 18.8178 22.0975 18.8538H1.90249Z" fill="#E11D38"/>
</svg>
