<svg width="20" height="24" viewBox="0 0 20 24" fill="none" xmlns="http://www.w3.org/2000/svg">
<path d="M19.018 19.7915L17.9462 6.28603C17.8794 5.41594 17.1435 4.73433 16.2709 4.73433H14.1539V4.63917C14.1539 2.08111 12.0728 0 9.51473 0C6.95667 0 4.87556 2.08111 4.87556 4.63917V4.73433H2.75859C1.88592 4.73433 1.15003 5.41589 1.08347 6.2842L0.0113401 19.7933C-0.0716286 20.8749 0.303606 21.9518 1.04076 22.7476C1.77792 23.5435 2.8229 24 3.90773 24H15.1217C16.2065 24 17.2515 23.5435 17.9887 22.7476C18.7259 21.9517 19.101 20.8749 19.018 19.7915ZM6.28134 4.63917C6.28134 2.85628 7.73189 1.40578 9.51473 1.40578C11.2976 1.40578 12.7481 2.85633 12.7481 4.63917V4.73433H6.28134V4.63917ZM16.9573 21.7924C16.4783 22.3095 15.8265 22.5942 15.1217 22.5942H3.90778C3.20297 22.5942 2.55112 22.3095 2.07215 21.7924C1.59323 21.2753 1.35914 20.6035 1.41295 19.9027L2.48498 6.39352C2.49586 6.25139 2.61604 6.14011 2.75859 6.14011H4.87556V7.87144C4.87556 8.25961 5.19028 8.57433 5.57845 8.57433C5.96662 8.57433 6.28134 8.25961 6.28134 7.87144V6.14011H12.7481V7.87144C12.7481 8.25961 13.0628 8.57433 13.451 8.57433C13.8392 8.57433 14.1539 8.25961 14.1539 7.87144V6.14011H16.2709C16.4134 6.14011 16.5336 6.25144 16.5447 6.39539L17.6165 19.9008C17.6704 20.6035 17.4362 21.2753 16.9573 21.7924Z" fill="#E11D38"/>
<path d="M12.6799 11.9195C12.4055 11.645 11.9604 11.645 11.6859 11.9195L8.54737 15.0581L7.34053 13.8512C7.06608 13.5767 6.621 13.5767 6.3465 13.8512C6.072 14.1257 6.072 14.5707 6.3465 14.8452L8.05036 16.5491C8.18761 16.6864 8.36752 16.755 8.54733 16.755C8.72714 16.755 8.90709 16.6864 9.0443 16.5491L12.6798 12.9136C12.9544 12.639 12.9544 12.194 12.6799 11.9195Z" fill="#E11D38"/>
</svg>
