<svg width="19" height="25" viewBox="0 0 19 25" fill="none" xmlns="http://www.w3.org/2000/svg">
<path d="M7.54558 4.30284C8.1538 5.3512 8.41573 6.15191 8.42397 6.65611C8.43254 7.15905 8.2984 7.37627 7.87094 7.62171L7.54558 4.30284ZM7.54558 4.30284L7.41583 4.37811C7.41612 4.37861 7.41641 4.37911 7.41671 4.37961C7.41699 4.38007 7.41726 4.38051 7.41751 4.38093L7.54558 4.30284ZM4.06782 13.5945L4.06777 13.5944L4.06755 13.594M4.06782 13.5945C4.06773 13.5944 4.06764 13.5942 4.06755 13.594M4.06782 13.5945L4.07158 13.6073C4.06935 13.5998 4.06663 13.5933 4.06443 13.5886M4.06782 13.5945C4.07 13.599 4.07244 13.6044 4.07478 13.6106L3.93433 13.6633L3.98888 13.6316L4.06409 13.588L4.06443 13.5886M4.06755 13.594C4.06656 13.592 4.06562 13.5902 4.06478 13.5887L4.06154 13.5829L4.06093 13.5818M4.06755 13.594L4.06443 13.5886M4.06443 13.5886C4.06291 13.5854 4.06164 13.5831 4.06093 13.5818M4.06093 13.5818L4.06067 13.5814L4.06036 13.5809L4.06035 13.5808C4.06037 13.5809 4.06058 13.5812 4.06093 13.5818ZM6.3517 17.5332C6.35264 17.5345 6.3535 17.5356 6.35428 17.5367L6.35288 17.5343L6.3517 17.5332ZM6.3517 17.5332L6.34014 17.5226C6.34754 17.5294 6.35297 17.5359 6.35663 17.5408M6.3517 17.5332C6.34602 17.5257 6.33736 17.5156 6.32518 17.5057L6.23021 17.6218L6.27084 17.5982L6.35996 17.5465L6.35663 17.5408M6.35663 17.5408L6.35432 17.5368M6.35663 17.5408C6.35759 17.542 6.35843 17.5432 6.35915 17.5442L6.36275 17.5497M6.35432 17.5368L6.36321 17.5504C6.36368 17.5512 6.36327 17.5505 6.36275 17.5497M6.35432 17.5368C6.3571 17.5406 6.35924 17.544 6.36061 17.5462L6.36275 17.5497M6.35432 17.5368L6.36275 17.5497M17.0588 21.6468L17.057 21.6438L17.0341 21.6569C17.0331 21.6671 17.0321 21.6752 17.0311 21.6819C17.0301 21.6891 17.0294 21.6925 17.0292 21.6934C17.0289 21.6945 17.0298 21.6905 17.0326 21.6839C17.0357 21.6766 17.0411 21.6665 17.0499 21.6561C17.0529 21.6526 17.0559 21.6495 17.0588 21.6468ZM17.0588 21.6468C17.0593 21.6462 17.0599 21.6457 17.0605 21.6452M17.0588 21.6468L17.1337 21.7727L17.0605 21.6452M17.0605 21.6452C17.0655 21.6406 17.07 21.6373 17.0733 21.6351C17.0775 21.6323 17.0806 21.6308 17.076 21.6333L17.0752 21.6337C17.0719 21.6354 17.0654 21.6389 17.0582 21.6431L17.0591 21.6426L17.0605 21.6452ZM6.50617 1.00821L6.50621 1.00823C6.8943 1.18972 7.20476 1.46728 7.48088 1.76966C8.02457 2.36263 8.45472 3.09558 8.72365 3.64926C9.38036 4.78417 9.76118 5.748 9.77675 6.63413L9.77675 6.63437C9.79129 7.54445 9.31205 8.35074 8.54527 8.79065C8.54526 8.79066 8.54525 8.79066 8.54523 8.79067L7.44194 9.42506C7.16976 9.58192 7.01391 9.86633 6.96482 10.2673C6.94134 10.4634 6.9547 10.6772 6.99094 10.871C7.0275 11.0665 7.08518 11.2303 7.14258 11.3292L7.01284 11.4045L7.14258 11.3292L9.86622 16.0238C9.8663 16.0239 9.86638 16.0241 9.86646 16.0242C9.988 16.2312 10.3306 16.5514 10.7045 16.7099L10.7045 16.7099C11.0771 16.8679 11.4045 16.8762 11.6766 16.7196L11.6768 16.7195L12.7834 16.085L6.50617 1.00821ZM6.50617 1.00821C6.11209 0.824072 5.55806 0.763748 5.09497 1.03059C5.09494 1.0306 5.09492 1.03062 5.0949 1.03063L4.20866 1.54072M6.50617 1.00821L4.20866 1.54072M4.20866 1.54072C4.20843 1.54085 4.20821 1.54098 4.20798 1.54111C4.18731 1.55276 4.16822 1.56488 4.15316 1.57444C4.15053 1.57611 4.14803 1.5777 4.14566 1.5792L4.14547 1.5789L4.13718 1.58497C1.96036 3.17786 0.956075 5.39847 0.858497 7.68501L4.20866 1.54072ZM16.8429 23.4863C14.3688 24.5641 11.9382 24.3185 9.90079 23.2612L9.90073 23.2612C7.87037 22.2062 6.21226 20.3842 5.05844 18.2933L5.05112 18.28L5.05106 18.2798L2.76979 14.3505C1.52152 12.3084 0.76023 9.96454 0.858494 7.68508L16.8429 23.4863ZM16.8429 23.4863C16.871 23.4753 16.8957 23.463 16.9158 23.4526L16.9159 23.4527L16.9218 23.4493L17.81 22.9388L17.8102 22.9387C18.2728 22.6721 18.4978 22.168 18.5345 21.7356C18.5345 21.7355 18.5345 21.7354 18.5345 21.7353L18.385 21.7226M16.8429 23.4863L18.3588 20.5129M18.385 21.7226C18.4196 21.3237 18.3387 20.94 18.216 20.5588M18.385 21.7226C18.3514 22.12 18.1447 22.5728 17.7353 22.8087L18.385 21.7226ZM18.216 20.5588L18.3589 20.5132C18.3589 20.5131 18.3588 20.513 18.3588 20.5129M18.216 20.5588C17.9756 19.8057 17.5596 19.0779 17.2133 18.5747L18.3588 20.5129M18.216 20.5588L18.3588 20.5129C18.3588 20.5129 18.3588 20.5129 18.3588 20.5129M6.69068 8.12782C6.69068 8.12782 6.69068 8.12782 6.69068 8.12782L6.76549 8.25783L6.69068 8.12782ZM5.62263 10.1053L5.47374 10.087C5.47374 10.0871 5.47373 10.0871 5.47373 10.0872L5.62263 10.1053ZM12.4272 18.0138C12.4273 18.0138 12.4274 18.0138 12.4274 18.0137L12.3527 17.8837L12.4271 18.0139L12.4272 18.0138ZM16.1843 19.1883L16.0536 19.2618C16.0537 19.2622 16.0539 19.2625 16.0541 19.2628C16.0543 19.2631 16.0544 19.2633 16.0546 19.2636L16.1843 19.1883ZM2.35753 7.74667C2.43872 5.85299 3.20714 4.13034 5.01668 2.80014L5.82199 2.34001L2.35753 7.74667ZM5.86642 2.36042C5.97429 2.41155 6.16944 2.55922 6.36995 2.77628C6.76918 3.21336 7.17518 3.88256 7.38672 4.32516C7.38694 4.32563 7.38717 4.3261 7.38739 4.32657L7.52275 4.26193L5.86642 2.36042ZM2.20767 7.74031L2.35753 7.74673L2.20767 7.74031ZM16.2352 22.1165C16.2326 22.1176 16.2301 22.1187 16.2276 22.1199L16.2203 22.124L16.295 22.2541L16.2352 22.1165ZM17.0389 21.6078C17.0388 21.608 17.0388 21.6082 17.0388 21.6085C17.0388 21.6087 17.0388 21.609 17.0387 21.6092L17.1883 21.6212L17.0389 21.6078ZM16.9278 20.9684C16.9278 20.9684 16.9278 20.9684 16.9278 20.9685L17.0704 20.9226L16.9278 20.9684ZM10.1152 18.0842C10.1152 18.0843 10.1152 18.0843 10.1152 18.0843L10.1738 17.9462L10.1152 18.0842ZM5.18343 18.3591C5.18586 18.3591 5.18408 18.3592 5.17957 18.3591H5.18343ZM15.2742 16.1043C14.4911 15.6378 13.5501 15.6447 12.7835 16.0849L15.2742 16.1043Z" fill="#E11D38" stroke="#E11D38" stroke-width="0.3"/>
</svg>
