<svg width="24" height="24" viewBox="0 0 24 24" fill="none" xmlns="http://www.w3.org/2000/svg">
<rect width="24" height="24" rx="12" fill="#E11D38"/>
<path d="M18.9091 10.5455H13.4545V5.09091C13.4545 4.48873 12.9658 4 12.3636 4H11.6364C11.0342 4 10.5455 4.48873 10.5455 5.09091V10.5455H5.09091C4.48873 10.5455 4 11.0342 4 11.6364V12.3636C4 12.9658 4.48873 13.4545 5.09091 13.4545H10.5455V18.9091C10.5455 19.5113 11.0342 20 11.6364 20H12.3636C12.9658 20 13.4545 19.5113 13.4545 18.9091V13.4545H18.9091C19.5113 13.4545 20 12.9658 20 12.3636V11.6364C20 11.0342 19.5113 10.5455 18.9091 10.5455Z" fill="white"/>
</svg>
