<svg width="25" height="24" viewBox="0 0 25 24" fill="none" xmlns="http://www.w3.org/2000/svg">
<g clip-path="url(#clip0_371_16255)">
<path d="M22.0117 21.0001H2.51173C1.27102 21.0001 0.261719 19.9908 0.261719 18.75V15C0.261719 14.5855 0.597158 14.25 1.01172 14.25C2.25244 14.25 3.26174 13.2407 3.26174 12C3.26174 10.7593 2.25244 9.74999 1.01172 9.74999C0.597158 9.75004 0.261719 9.4146 0.261719 9.00004V5.25001C0.261719 4.0093 1.27102 3 2.51173 3H22.0118C23.2525 3 24.2618 4.0093 24.2618 5.25001V9.00004C24.2618 9.4146 23.9263 9.75004 23.5118 9.75004C22.271 9.75004 21.2617 10.7593 21.2617 12.0001C21.2617 13.2408 22.271 14.2501 23.5118 14.2501C23.9263 14.2501 24.2618 14.5855 24.2618 15.0001V18.7501C24.2617 19.9908 23.2525 21.0001 22.0117 21.0001ZM1.76173 15.6746V18.75C1.76173 19.1639 2.09792 19.5001 2.51173 19.5001H22.0118C22.4256 19.5001 22.7618 19.1639 22.7618 18.75V15.6746C21.0523 15.326 19.7617 13.8113 19.7617 12C19.7617 10.1887 21.0522 8.67409 22.7618 8.32542V5.25001C22.7618 4.83621 22.4256 4.50001 22.0118 4.50001H2.51173C2.09792 4.50001 1.76173 4.83621 1.76173 5.25001V8.32547C3.47119 8.67409 4.76175 10.1887 4.76175 12.0001C4.76175 13.8114 3.47119 15.326 1.76173 15.6746Z" fill="#E11D38"/>
<path d="M9.30859 17.7263L13.807 5.73057L15.2115 6.25725L10.7131 18.253L9.30859 17.7263Z" fill="#E11D38"/>
<path d="M8.71486 12.2525C7.47414 12.2525 6.46484 11.2432 6.46484 10.0025C6.46484 8.76174 7.47414 7.75244 8.71486 7.75244C9.95557 7.75244 10.9649 8.76174 10.9649 10.0025C10.9649 11.2432 9.95557 12.2525 8.71486 12.2525ZM8.71486 9.25245C8.30105 9.25245 7.96485 9.58865 7.96485 10.0025C7.96485 10.4163 8.30105 10.7525 8.71486 10.7525C9.12867 10.7525 9.46486 10.4163 9.46486 10.0025C9.46486 9.58865 9.12867 9.25245 8.71486 9.25245Z" fill="#E11D38"/>
<path d="M16.4649 16.9041C15.2241 16.9041 14.2148 15.8948 14.2148 14.6541C14.2148 13.4133 15.2241 12.4041 16.4649 12.4041C17.7056 12.4041 18.7149 13.4133 18.7149 14.6541C18.7149 15.8948 17.7056 16.9041 16.4649 16.9041ZM16.4649 13.9041C16.0511 13.9041 15.7149 14.2403 15.7149 14.6541C15.7149 15.0679 16.0511 15.4041 16.4649 15.4041C16.8787 15.4041 17.2149 15.0679 17.2149 14.6541C17.2149 14.2403 16.8787 13.9041 16.4649 13.9041Z" fill="#E11D38"/>
</g>
<defs>
<clipPath id="clip0_371_16255">
<rect width="24" height="24" fill="white" transform="translate(0.261719)"/>
</clipPath>
</defs>
</svg>
