<svg width="24" height="24" viewBox="0 0 24 24" fill="none" xmlns="http://www.w3.org/2000/svg">
<path d="M23.9355 9.06358C23.7506 8.46874 23.1982 8.05989 22.42 7.94176L16.2489 7.00441L13.4891 1.15973C13.141 0.422719 12.5983 0 12 0C11.4017 0 10.8589 0.422719 10.5109 1.15973L7.75122 7.00436L1.57999 7.94171C0.801754 8.05984 0.249417 8.46874 0.0644925 9.06348C-0.120385 9.65826 0.0965555 10.3284 0.65958 10.902L5.1251 15.4514L4.07091 21.8755C3.9323 22.7205 4.16771 23.2258 4.38967 23.5009C4.64927 23.8227 5.02798 24 5.45605 24C5.77968 24 6.12435 23.9008 6.48028 23.7052L12 20.6721L17.5197 23.7051C17.8757 23.9007 18.2204 24 18.544 24C18.9721 24 19.351 23.8227 19.6105 23.5009C19.8325 23.2258 20.0679 22.7205 19.9293 21.8754L18.8749 15.4514L23.3404 10.9021C23.9035 10.3285 24.1204 9.65831 23.9355 9.06358Z" fill="#FFD700"/>
</svg>
