<svg width="428" height="196" viewBox="0 0 428 196" fill="none" xmlns="http://www.w3.org/2000/svg">
<mask id="mask0_371_15447" style="mask-type:luminance" maskUnits="userSpaceOnUse" x="149" y="-3" width="462" height="199">
<path d="M149.828 -2.74609H610.294V195.722H149.828V-2.74609Z" fill="white"/>
</mask>
<g mask="url(#mask0_371_15447)">
<path d="M579.656 195.722C576.597 195.722 573.611 195.161 570.75 194.084C572.092 194.302 573.466 194.427 574.834 194.427C575.058 194.427 575.276 194.427 575.52 194.427C603.007 193.616 604.619 158.525 601.904 139.512C599.797 124.88 589.274 106.502 590.548 91.4477C591.355 81.8296 596.91 71.8006 606.211 69.2309C607.876 68.7628 609.514 68.5443 611.153 68.5443C613.873 68.5443 616.516 69.1321 619.132 70.11C618.102 69.9384 617.077 69.8395 616.027 69.8395C614.409 69.8395 612.744 70.0632 611.08 70.5262C601.779 73.1218 596.25 83.1301 595.417 92.7481C594.143 107.823 604.666 126.175 606.747 140.807C609.488 159.825 607.876 194.916 580.389 195.722C580.145 195.722 579.9 195.722 579.656 195.722ZM432.94 118.096C426.916 118.096 420.872 117.144 415.098 115.334C419.353 116.286 423.686 116.775 428.045 116.775C434.282 116.775 440.524 115.75 446.47 113.545C458.491 109.092 468.619 100.821 478.996 93.2839C489.348 85.7466 500.657 78.6253 513.406 77.0856C514.779 76.94 516.173 76.8411 517.594 76.8411C521.604 76.8411 525.646 77.5226 529.438 78.823C527.139 78.3808 524.814 78.1624 522.509 78.1624C521.089 78.1624 519.674 78.2352 518.275 78.4069C505.551 79.9466 494.222 87.0418 483.865 94.5792C473.493 102.117 463.36 110.393 451.344 114.866C445.419 117.046 439.177 118.096 432.94 118.096ZM242.191 97.7626C237.494 97.7626 232.817 96.9772 228.338 95.5103C231.304 96.1501 234.289 96.4674 237.322 96.4674C239.205 96.4674 241.114 96.3426 242.997 96.0721C274.447 91.7182 282.473 51.6593 309.934 38.6653C315.879 35.8511 324.743 34.0409 332.083 34.0409C333.55 34.0409 334.944 34.1138 336.244 34.2594C338.299 34.5039 340.208 34.9929 342.044 35.7003L341.113 35.5807C339.818 35.435 338.424 35.3622 336.952 35.3622C329.638 35.3622 320.753 37.1464 314.802 39.9605C287.368 52.9546 279.316 93.0394 247.871 97.3725C245.983 97.643 244.074 97.7626 242.191 97.7626ZM661.74 89.5647C658.879 89.5647 656.086 88.9509 653.37 87.9521C654.52 88.1446 655.695 88.2694 656.871 88.2694C657.703 88.2694 658.536 88.2174 659.368 88.0978C678.406 85.7206 687.608 56.6478 705.768 56.6478C706.574 56.6478 707.432 56.6999 708.291 56.8455C709.685 57.0432 711.006 57.4073 712.254 57.8963L712.473 58.0679C711.864 57.9951 711.25 57.9743 710.637 57.9743C692.477 57.9743 683.301 87.021 664.237 89.419C663.404 89.5178 662.572 89.5647 661.74 89.5647ZM764.282 87.0938C760.516 87.0938 756.818 86.3812 753.27 85.1848C755.278 85.5749 757.312 85.7726 759.341 85.7726C760.001 85.7726 760.636 85.7466 761.276 85.7206C766.732 85.3824 772.142 83.0572 776.351 79.5304V84.108C773.167 85.7726 769.672 86.7973 766.145 87.021C765.531 87.0678 764.896 87.0938 764.282 87.0938ZM149.828 38.6133V-42.8257V34.1866C153.355 32.2255 157.121 30.7846 161.137 30.098C163.29 29.7339 165.272 29.5622 167.082 29.5622C169.824 29.5622 172.196 29.9523 174.256 30.6858L174.646 31.0031C173.787 30.9303 172.908 30.8835 171.977 30.8835C170.141 30.8835 168.159 31.0551 166.006 31.4192C160.081 32.4232 154.697 35.0657 149.828 38.6133Z" fill="#EFD0DE"/>
</g>
<mask id="mask1_371_15447" style="mask-type:luminance" maskUnits="userSpaceOnUse" x="149" y="-3" width="462" height="199">
<path d="M149.562 -2.74609H610.294V195.67H149.562V-2.74609Z" fill="white"/>
</mask>
<g mask="url(#mask1_371_15447)">
<path d="M149.828 -42.8257H776.351V79.5304C772.142 83.0572 766.732 85.3824 761.276 85.7206C758.56 85.8922 755.892 85.6997 753.27 85.1848H753.25C748.256 84.2068 743.46 82.1261 739.028 79.3588C735.21 77.0128 731.688 74.1466 728.505 71.0411C723.61 66.2919 718.84 60.7104 712.743 58.0939H712.717L712.254 57.8963C711.006 57.4073 709.685 57.0432 708.291 56.8455C688.415 53.9845 679.291 85.6269 659.368 88.0978C657.334 88.3683 655.331 88.2902 653.37 87.9521H653.344C648.772 87.1927 644.366 85.0599 640.059 82.4694H640.033C634.061 78.8438 628.261 74.3703 622.29 71.4781C621.239 70.9683 620.209 70.5262 619.158 70.11H619.132C614.95 68.5703 610.664 67.9825 606.211 69.2309C596.91 71.8006 591.355 81.8296 590.548 91.4477C589.274 106.502 599.797 124.88 601.904 139.512C604.619 158.525 603.007 193.616 575.52 194.427C573.908 194.474 572.316 194.354 570.75 194.084H570.724C566.735 193.423 562.917 191.806 559.489 189.506C555.254 186.692 551.66 182.853 549.064 178.494C543.561 169.193 542.161 157.963 542.921 147.195C544.143 129.821 552.856 110.096 545.543 92.9198C542.947 86.8493 537.906 82.4434 531.862 79.8009C531.077 79.4316 530.27 79.1403 529.464 78.8438L529.438 78.823C524.325 77.0596 518.717 76.4458 513.406 77.0856C500.657 78.6253 489.348 85.7466 478.996 93.2839C468.619 100.821 458.491 109.092 446.47 113.545C436.415 117.264 425.475 117.659 415.098 115.334H415.072C408.341 113.841 401.833 111.173 395.934 107.599L395.888 107.578C384.995 100.92 376.136 91.0108 371.757 78.9218C366.763 65.0955 358.393 42.4834 342.679 35.9448L342.091 35.7003H342.044C340.208 34.9929 338.299 34.5039 336.244 34.2594C328.389 33.3803 317.081 35.2841 309.934 38.6653C282.473 51.6593 274.447 91.7182 242.997 96.0721C238.102 96.7587 233.135 96.5402 228.338 95.5103C222.783 94.3607 217.451 92.1812 212.603 89.1745C206.631 85.4761 201.419 80.5604 197.476 74.8332C188.3 61.4491 190.064 37.3649 175.332 31.0759H175.306L174.256 30.6858C170.828 29.4634 166.547 29.1929 161.137 30.098C157.121 30.7846 153.355 32.2255 149.828 34.1866V-42.8257Z" fill="#EC207A"/>
</g>
<mask id="mask2_371_15447" style="mask-type:luminance" maskUnits="userSpaceOnUse" x="173" y="30" width="438" height="29">
<path d="M173.531 30.5454H610.293V58.5101H173.531V30.5454Z" fill="white"/>
</mask>
<g mask="url(#mask2_371_15447)">
<path d="M712.716 58.0939L712.471 58.0679L712.253 57.8963L712.716 58.0939ZM175.305 31.0759L174.644 31.0031L174.254 30.6858L175.305 31.0759Z" fill="#F5E0E9"/>
</g>
<mask id="mask3_371_15447" style="mask-type:luminance" maskUnits="userSpaceOnUse" x="149" y="-3" width="462" height="197">
<path d="M149.562 -2.74609H610.294V193.007H149.562V-2.74609Z" fill="white"/>
</mask>
<g mask="url(#mask3_371_15447)">
<path d="M569.965 191.759C568.326 191.759 566.662 191.587 565.07 191.27H565.044C563.135 190.9 561.278 190.292 559.489 189.506C555.254 186.692 551.66 182.853 549.064 178.494C544.466 170.712 542.728 161.583 542.728 152.532C542.728 150.743 542.801 148.959 542.921 147.195C543.805 134.862 548.43 121.327 548.43 108.385C548.43 103.1 547.67 97.9083 545.543 92.9198C542.947 86.8493 537.906 82.4434 531.862 79.8009L530.806 79.1143C525.547 75.8632 519.107 74.1726 512.771 74.1726C511.351 74.1726 509.931 74.2714 508.537 74.4431C495.809 75.9828 484.505 83.078 474.128 90.6154C463.776 98.1528 453.617 106.424 441.601 110.882C435.681 113.082 429.439 114.133 423.197 114.133C417.08 114.133 410.936 113.129 405.064 111.272H405.038C401.906 110.294 398.873 109.066 395.934 107.599L395.888 107.578C384.995 100.92 376.136 91.0108 371.757 78.9218C366.763 65.0955 358.393 42.4834 342.679 35.9448L342.434 35.7783V35.7523H342.408C339.131 33.5728 335.459 32.0799 331.375 31.6169C330.075 31.4713 328.681 31.3932 327.214 31.3932C319.895 31.3932 311.01 33.1826 305.065 35.9968C277.631 48.9648 269.578 89.0497 238.154 93.4296C236.271 93.6741 234.362 93.7989 232.5 93.7989C228.338 93.7989 224.203 93.1851 220.193 92.0355C217.571 91.302 215.053 90.3501 212.603 89.1745C206.631 85.4761 201.419 80.5604 197.476 74.8332C188.3 61.4491 190.064 37.3649 175.332 31.0759H175.306L174.256 30.6858C171.27 28.3138 167.4 26.8937 162.234 26.8937C160.403 26.8937 158.421 27.0653 156.263 27.4295C154.036 27.8248 151.883 28.4334 149.828 29.2397V-42.8257H776.351V71.3585C772.189 77.8919 764.36 82.5683 756.428 83.0572C755.793 83.1041 755.179 83.1041 754.571 83.1041C751.731 83.1041 748.916 82.7347 746.175 82.0273C743.725 81.3927 741.327 80.4876 739.028 79.3588C735.21 77.0128 731.688 74.1466 728.505 71.0411C723.61 66.2919 718.84 60.7104 712.743 58.0939H712.717L712.254 57.8963C709.586 56.0392 706.699 54.6451 703.443 54.177C702.589 54.0574 701.731 53.9845 700.925 53.9845C682.765 53.9845 673.564 83.0572 654.52 85.4553C653.667 85.5489 652.834 85.6009 652.023 85.6009C650.358 85.6009 648.746 85.4032 647.128 85.0391C644.73 84.4981 642.384 83.593 640.059 82.4694H640.033C634.061 78.8438 628.261 74.3703 622.29 71.4781C621.629 71.088 620.994 70.6978 620.308 70.3285C615.73 67.738 611.106 65.8758 606.258 65.8758C604.645 65.8758 603.007 66.0943 601.342 66.5624C592.067 69.1321 586.512 79.1663 585.7 88.7792C584.431 103.854 594.928 122.211 597.035 136.87C599.75 155.856 598.133 190.952 570.652 191.759C570.428 191.759 570.209 191.759 569.965 191.759ZM526.306 68.9084L524.101 68.9864C527.43 71.8214 533.99 74.7344 537.61 76.7891C543.826 80.3159 551.806 83.9623 553.496 91.4737C556.185 103.661 553.912 116.853 551.171 128.791C548.476 140.49 545.787 154.046 549.361 165.843C551.878 174.114 559.223 183.805 567.785 186.401C569.206 186.817 570.553 187.009 571.827 187.009C578.506 187.009 582.985 181.454 584.92 174.728C588.296 162.977 582.912 152.626 578.605 142.009C574.199 131.215 571.338 119.834 570.012 108.26C569.18 101.139 568.202 94.2411 564.628 87.8533C556.825 73.9021 541.21 69.6679 526.306 68.9084ZM339.792 29.7547C339.766 29.7547 339.745 29.7547 339.745 29.7547C339.745 29.7547 363.923 36.8551 368.672 53.4175C373.442 69.9644 379.122 94.2879 397.547 102.559C410.838 108.504 419.675 109.924 425.574 109.924C427.847 109.924 429.684 109.732 431.202 109.482C431.202 109.482 417.423 109.144 404.845 99.1827C392.262 89.2213 384.282 82.5683 381.276 67.1242C378.29 51.6801 374.201 41.6979 366.711 36.0956C358.367 29.8275 340.796 29.7547 339.792 29.7547ZM501.026 74.4639C499.138 74.5159 480.541 75.3482 467.225 87.5828C454.33 99.4272 437.637 107.48 437.637 107.48C437.637 107.48 445.029 106.991 453.716 102.117C459.615 98.7926 465.17 94.8237 470.455 90.5946C475.324 86.7037 480.073 82.5891 485.727 79.8998C488.297 78.6773 490.966 77.6734 493.655 76.7683C495.788 76.0556 498.747 74.5367 501.026 74.4639C501.12 74.4639 501.172 74.4639 501.172 74.4639C501.12 74.4639 501.073 74.4639 501.026 74.4639ZM166.885 23.835C174.084 23.835 180.888 25.4268 184.628 30.3425C194.615 43.5082 196.134 61.9588 202.787 73.5848C208.931 84.2536 220.775 90.3969 229.467 90.3969C230.248 90.3969 231.033 90.3501 231.766 90.2513C231.766 90.2513 221.904 86.1159 215.318 76.5446C208.223 66.2451 203.032 44.9282 198.876 32.3972C195.911 23.5177 188.717 13.8736 174.672 13.8736C173.595 13.8736 172.466 13.9465 171.317 14.0713C163.363 14.8776 155.68 18.3784 149.828 21.8012V26.0874C154.822 24.9118 160.991 23.835 166.885 23.835ZM310.547 30.5141C308.664 30.5141 303.301 31.3724 300.539 32.1319C290.916 34.7744 282.697 42.3117 276.429 50.0936C269.282 58.973 265.713 67.3219 256.605 76.9139C253.962 79.7281 243.829 89.2473 242.633 89.5647C243.585 89.3202 253.255 87.1666 267.789 71.1868C274.718 63.5506 278.707 53.74 285.631 46.1767C292.143 39.0814 301.637 34.0149 310.547 30.5141ZM683.645 60.4659C683.104 60.4659 678.458 62.9628 676.352 64.4817C674.396 65.9226 672.487 67.4675 670.77 69.1789C668.96 70.9683 667.738 73.0958 666.047 74.9529C661.376 80.0922 661.423 79.8477 656.455 82.5423C656.991 82.4694 662.546 80.9505 665.828 78.1832C668.715 75.7644 672.679 69.7927 675.545 67.3687C677.501 65.7041 680.685 63.3581 682.396 61.8132L683.691 60.4659C683.671 60.4659 683.671 60.4659 683.645 60.4659ZM700.946 51.29C703.297 51.29 705.575 51.5137 707.484 51.8778C714.871 53.3447 720.036 58.7077 724.978 64.0187C730.461 69.8655 737.535 74.2194 745.072 76.9868C745.072 76.9868 738.757 71.9202 733.129 64.3361C730.216 60.3931 728.432 55.4514 724.832 52.0495C721.066 48.5279 716.561 47.2274 711.911 47.2274C705.742 47.2274 699.281 49.5058 693.804 52.0235C696.051 51.5137 698.548 51.29 700.946 51.29ZM606.575 62.8431C613.233 62.8431 618.352 64.6274 623.954 68.6899C629.047 72.3832 633.936 75.0309 640.251 75.936C640.251 75.936 633.936 73.5848 629.239 67.8316C624.542 62.1097 619.694 58.6089 610.544 58.2396C610.419 58.2188 610.274 58.2188 610.149 58.2188C604.104 58.2188 595.344 63.3581 593.409 64.5545C593.264 64.6274 593.118 64.7002 592.993 64.799C592.993 64.799 593.144 64.7002 593.409 64.5545C594.34 64.0916 595.833 63.9927 596.712 63.8211C599.308 63.3321 601.93 63.0148 604.546 62.89C605.233 62.864 605.914 62.8431 606.575 62.8431Z" fill="#F358A5"/>
</g>
<path d="M229.467 90.3968C220.775 90.3968 208.931 84.2535 202.787 73.5847C196.134 61.9587 194.615 43.508 184.628 30.3424C180.888 25.4267 174.084 23.8349 166.885 23.8349C160.991 23.8349 154.822 24.9117 149.828 26.0873V21.801C155.68 18.3783 163.363 14.8775 171.317 14.0712C172.466 13.9464 173.595 13.8735 174.672 13.8735C188.717 13.8735 195.911 23.5176 198.876 32.3971C203.032 44.9281 208.223 66.245 215.318 76.5445C221.904 86.1158 231.766 90.2512 231.766 90.2512C231.033 90.35 230.248 90.3968 229.467 90.3968Z" fill="#F683BC"/>
<path d="M242.633 89.5647C243.829 89.2474 253.962 79.7281 256.605 76.914C265.713 67.3219 269.281 58.9731 276.429 50.0936C282.697 42.3118 290.916 34.7744 300.539 32.1319C303.301 31.3725 308.664 30.5142 310.547 30.5142C301.637 34.015 292.143 39.0815 285.631 46.1767C278.707 53.7401 274.717 63.5506 267.789 71.1868C253.255 87.1667 243.585 89.3202 242.633 89.5647Z" fill="#F03D94"/>
<path d="M425.571 109.925C419.673 109.925 410.835 108.505 397.544 102.559C379.12 94.2881 373.439 69.9646 368.669 53.4178C363.92 36.8553 339.742 29.7549 339.742 29.7549C339.742 29.7549 339.763 29.7549 339.789 29.7549C340.793 29.7549 358.365 29.8277 366.708 36.0958C374.199 41.6982 378.287 51.6804 381.273 67.1244C384.28 82.5685 392.259 89.2216 404.842 99.183C417.42 109.144 431.2 109.482 431.2 109.482C429.681 109.732 427.845 109.925 425.571 109.925Z" fill="#F683BC"/>
<path d="M393.926 33.7445L383.991 35.3623C383.06 35.5339 382.181 34.8941 382.009 33.9422C381.863 33.0111 382.498 32.132 383.429 31.9811L393.365 30.3426C394.296 30.1969 395.175 30.8315 395.346 31.7627C395.492 32.6938 394.857 33.5989 393.926 33.7445Z" fill="#F4F17F"/>
<path d="M428.307 97.5912L423.048 89.029C422.559 88.2176 422.804 87.1668 423.61 86.6778C424.416 86.1629 425.472 86.4333 425.982 87.2396L431.246 95.7809C431.735 96.5872 431.491 97.664 430.684 98.1529C429.878 98.6419 428.822 98.3974 428.307 97.5912Z" fill="white"/>
<path d="M411.032 72.4091L403.76 79.3587C403.079 80.0193 402.002 79.9985 401.342 79.3119C400.681 78.6252 400.702 77.5224 401.388 76.8878L408.655 69.9123C409.342 69.2516 410.419 69.2776 411.079 69.9643C411.74 70.6457 411.719 71.7485 411.032 72.4091Z" fill="#DB9ED4"/>
<path d="M409.907 91.1306L411.525 101.04C411.696 101.971 411.062 102.876 410.105 103.022C409.174 103.173 408.294 102.533 408.149 101.607L406.505 91.6715C406.359 90.7404 406.999 89.8561 407.925 89.7105C408.856 89.5388 409.761 90.1786 409.907 91.1306Z" fill="#EC207A"/>
<path d="M435.824 18.8674L427.33 24.2513C426.523 24.7662 425.473 24.5166 424.958 23.7363C424.443 22.93 424.687 21.8533 425.493 21.3383L433.988 15.9544C434.773 15.4655 435.85 15.6839 436.36 16.4902C436.875 17.3017 436.63 18.3525 435.824 18.8674Z" fill="#DB9ED4"/>
<path d="M405.527 48.8452L411.624 56.8455C412.186 57.5789 412.04 58.6817 411.281 59.2435C410.547 59.8313 409.444 59.6856 408.882 58.9262L402.786 50.9259C402.224 50.1664 402.37 49.0896 403.129 48.5018C403.863 47.94 404.966 48.0857 405.527 48.8452Z" fill="#F4F17F"/>
<path d="M433.746 50.4108L428.632 59.0718C428.164 59.9041 427.087 60.1746 426.281 59.6856C425.475 59.2174 425.204 58.1667 425.667 57.3344L430.76 48.6734C431.249 47.8672 432.299 47.5707 433.132 48.0596C433.943 48.5278 434.209 49.6046 433.746 50.4108Z" fill="white"/>
<path d="M428.238 66.2453L437.783 69.4028C438.667 69.6941 439.177 70.672 438.886 71.5771C438.568 72.4822 437.59 72.9712 436.706 72.6799L427.161 69.5224C426.256 69.2311 425.767 68.248 426.063 67.3429C426.354 66.4378 427.332 65.9488 428.238 66.2453Z" fill="#DB9ED4"/>
<path d="M414.799 33.1828L424.396 30.1242C425.301 29.8277 426.253 30.3166 426.55 31.2269C426.841 32.132 426.352 33.11 425.447 33.4013L415.876 36.4599C414.971 36.7564 413.993 36.2675 413.701 35.3624C413.405 34.4572 413.92 33.4741 414.799 33.1828Z" fill="#74D1E4"/>
<path d="M384.967 41.7239L394.096 45.9321C394.954 46.3482 395.344 47.373 394.928 48.2313C394.538 49.0896 393.508 49.4537 392.655 49.0636L383.526 44.8293C382.668 44.4392 382.298 43.4092 382.694 42.5561C383.084 41.6978 384.114 41.3285 384.967 41.7239Z" fill="#DB9ED4"/>
<path d="M372.464 10.3523L363.824 5.21295C362.992 4.74479 362.721 3.66802 363.216 2.86175C363.705 2.05547 364.755 1.78498 365.562 2.27394L374.228 7.38729C375.034 7.87625 375.305 8.93222 374.816 9.7645C374.327 10.5708 373.271 10.8413 372.464 10.3523Z" fill="white"/>
<path d="M352.666 3.66785L349.482 13.2131C349.191 14.0922 348.213 14.5812 347.303 14.2899C346.397 13.9986 345.908 13.0154 346.226 12.1103L349.409 2.57028C349.706 1.68597 350.684 1.19701 351.589 1.49351C352.494 1.78481 352.983 2.76274 352.666 3.66785Z" fill="#DB9ED4"/>
<path d="M391.918 2.22696L394.956 11.819C395.247 12.7241 394.732 13.6761 393.827 13.9726C392.922 14.2639 391.97 13.7541 391.673 12.8438L388.641 3.25171C388.37 2.3466 388.859 1.39468 389.764 1.09818C390.669 0.806878 391.653 1.32185 391.918 2.22696Z" fill="#74D1E4"/>
<path d="M357.316 24.6882L363.387 32.7406C363.949 33.474 363.803 34.5768 363.044 35.1386C362.284 35.7004 361.207 35.5547 360.62 34.7953L354.575 26.7689C354.013 26.0095 354.159 24.9327 354.918 24.3501C355.673 23.7831 356.755 23.934 357.316 24.6882Z" fill="#EC207A"/>
<path d="M339.254 5.43129L329.413 3.35058C328.482 3.15292 327.899 2.24781 328.091 1.32189C328.263 0.390775 329.194 -0.197026 330.125 0.000641868L339.962 2.05534C340.893 2.24781 341.481 3.15292 341.283 4.08403C341.085 5.01515 340.18 5.60295 339.254 5.43129Z" fill="#F4F17F"/>
<path d="M322.662 22.9041L320.826 12.9947C320.681 12.0636 321.289 11.1845 322.22 11.0129C323.151 10.8412 324.056 11.4498 324.228 12.3809L326.038 22.2695C326.236 23.1954 325.596 24.1057 324.665 24.2722C323.739 24.4438 322.834 23.8352 322.662 22.9041Z" fill="white"/>
<path d="M311.596 22.9298L302.322 26.7947C301.443 27.1641 300.439 26.7479 300.069 25.8896C299.705 25.0105 300.121 24.0066 301 23.6373L310.275 19.7463C311.154 19.403 312.158 19.8192 312.528 20.6774C312.892 21.5565 312.476 22.5605 311.596 22.9298Z" fill="#DB9ED4"/>
<path d="M342.484 18.6696L337.267 27.2577C336.778 28.0692 335.701 28.3137 334.895 27.8247C334.089 27.3358 333.844 26.2798 334.333 25.4735L339.545 16.8854C340.034 16.0739 341.111 15.8086 341.917 16.2976C342.729 16.7866 342.973 17.8633 342.484 18.6696Z" fill="#74D1E4"/>
<path d="M314.728 -3.52641L312.673 6.31015C312.476 7.24127 311.571 7.82907 310.645 7.6314C309.714 7.43893 309.126 6.53382 309.323 5.60271L311.378 -4.23385C311.571 -5.16496 312.476 -5.77877 313.407 -5.58111C314.338 -5.38344 314.926 -4.45752 314.728 -3.52641Z" fill="#EC207A"/>
<path d="M436.514 2.2269L427.234 6.11783C426.355 6.48195 425.351 6.09182 424.987 5.21272C424.617 4.32842 425.033 3.32447 425.892 2.96035L435.167 -0.956587C436.02 -1.32071 437.05 -0.90457 437.419 -0.0254687C437.783 0.832824 437.367 1.85757 436.514 2.2269Z" fill="#F4F17F"/>
<path d="M393.192 68.6641L386.044 61.5689C385.384 60.9083 385.358 59.8055 386.044 59.1449C386.705 58.4843 387.808 58.4635 388.468 59.1449L395.59 66.2193C396.276 66.906 396.276 67.9827 395.616 68.6641C394.955 69.3248 393.852 69.3248 393.192 68.6641Z" fill="white"/>
<path d="M375.62 57.3606L370.21 65.8291C369.695 66.6354 368.618 66.8539 367.812 66.3389C367.032 65.8291 366.782 64.7732 367.297 63.9669L372.733 55.4984C373.248 54.7181 374.299 54.4737 375.105 54.9886C375.911 55.4984 376.135 56.5544 375.62 57.3606Z" fill="#DB9ED4"/>
<path d="M385.409 73.7304L389.326 82.9843C389.69 83.8634 389.274 84.8674 388.395 85.2315C387.537 85.6008 386.512 85.2107 386.142 84.3264L382.226 75.0516C381.861 74.1986 382.278 73.1686 383.157 72.7993C384.036 72.4351 385.04 72.8513 385.409 73.7304Z" fill="#EC207A"/>
<path d="M410.981 -10.9646L416.464 -2.52212C417.005 -1.73666 416.76 -0.659887 415.975 -0.150113C415.194 0.364863 414.118 0.146387 413.603 -0.659887L408.094 -9.08156C407.579 -9.86183 407.829 -10.9386 408.609 -11.4536C409.394 -11.9685 410.471 -11.7501 410.981 -10.9646Z" fill="#74D1E4"/>
<path d="M404.256 17.2027L412.23 23.32C412.989 23.8818 413.135 24.9846 412.552 25.718C411.985 26.4775 410.888 26.6231 410.149 26.0353L402.175 19.918C401.415 19.3563 401.27 18.2795 401.858 17.52C402.419 16.7606 403.517 16.6149 404.256 17.2027Z" fill="#EC207A"/>
<path d="M217.788 10.0086L208.269 13.2129C207.364 13.5042 206.386 13.0152 206.095 12.1101C205.798 11.231 206.287 10.2531 207.171 9.93575L216.711 6.75227C217.622 6.46097 218.6 6.94993 218.891 7.82903C219.187 8.73414 218.698 9.71208 217.788 10.0086Z" fill="#F4F17F"/>
<path d="M212.311 33.474L205.726 25.8638C205.112 25.1303 205.185 24.0535 205.924 23.4449C206.631 22.8051 207.708 22.904 208.342 23.6114L214.902 31.2268C215.516 31.9342 215.443 33.037 214.73 33.6456C214.023 34.2594 212.92 34.1866 212.311 33.474Z" fill="white"/>
<path d="M195.666 20.8491L189.621 28.8754C189.033 29.6349 187.956 29.7805 187.197 29.2187C186.443 28.6569 186.292 27.5802 186.859 26.8207L192.924 18.7944C193.491 18.0349 194.568 17.8893 195.322 18.4511C196.082 19.0128 196.227 20.0896 195.666 20.8491Z" fill="#DB9ED4"/>
<path d="M378.19 22.1965L378.018 32.2516C378.018 33.2087 377.233 33.9629 376.281 33.9421C375.324 33.9161 374.569 33.1307 374.59 32.2048L374.762 22.1445C374.762 21.1926 375.573 20.4331 376.499 20.4591C377.456 20.4591 378.216 21.2394 378.19 22.1965Z" fill="#74D1E4"/>
<path d="M204.187 37.932L207.365 47.4513C207.662 48.3564 207.173 49.3343 206.288 49.6256C205.383 49.9221 204.405 49.4539 204.109 48.5488L200.905 39.0088C200.613 38.1245 201.102 37.1466 201.981 36.8292C202.886 36.5327 203.864 37.0217 204.187 37.932Z" fill="#EC207A"/>
<path d="M204.603 52.6633L205.185 62.6923C205.237 63.6234 204.504 64.4557 203.573 64.5077C202.615 64.5545 201.809 63.8211 201.762 62.89L201.175 52.8557C201.123 51.9038 201.835 51.0975 202.787 51.0455C203.744 50.9727 204.551 51.7061 204.603 52.6633Z" fill="#F4F17F"/>
<path d="M225.793 64.1123L216.737 68.4453C215.879 68.8615 214.854 68.4921 214.438 67.6391C214.022 66.7808 214.386 65.756 215.244 65.3399L224.327 61.0068C225.18 60.5907 226.21 60.9548 226.6 61.8131C227.016 62.6714 226.652 63.6961 225.793 64.1123Z" fill="white"/>
<path d="M212.943 74.0011L219.112 81.9547C219.695 82.6881 219.549 83.7649 218.816 84.3527C218.056 84.9405 216.979 84.7948 216.392 84.0614L210.228 76.1079C209.661 75.3692 209.785 74.2716 210.545 73.6838C211.278 73.122 212.355 73.2417 212.943 74.0011Z" fill="#DB9ED4"/>
<path d="M221.045 44.8555L230.689 47.6436C231.62 47.9141 232.13 48.8661 231.865 49.7764C231.62 50.6815 230.663 51.2173 229.732 50.9468L220.093 48.1586C219.188 47.8881 218.647 46.9362 218.918 46.0311C219.162 45.126 220.14 44.585 221.045 44.8555Z" fill="#74D1E4"/>
<path d="M229.466 79.6031L239.5 79.0153C240.426 78.9685 241.259 79.7019 241.311 80.6331C241.357 81.585 240.624 82.4173 239.693 82.4693L229.659 83.0571C228.707 83.1039 227.9 82.3705 227.822 81.4133C227.776 80.4874 228.509 79.6551 229.466 79.6031Z" fill="#EC207A"/>
<path d="M271.513 27.2373L262.748 22.3164C261.916 21.8742 261.624 20.8235 262.061 19.9912C262.53 19.1589 263.58 18.8676 264.413 19.3306L273.198 24.2254C274.031 24.6884 274.327 25.7444 273.859 26.5766C273.396 27.4089 272.345 27.7002 271.513 27.2373Z" fill="#F4F17F"/>
<path d="M250.459 31.981L251.66 21.9988C251.78 21.0677 252.638 20.381 253.57 20.5059C254.521 20.6047 255.208 21.4838 255.088 22.4149L253.861 32.3971C253.767 33.3283 252.883 34.0149 251.952 33.89C251.026 33.7704 250.339 32.9121 250.459 31.981Z" fill="white"/>
<path d="M238.471 27.9704L228.437 28.9015C227.506 28.9743 226.653 28.2877 226.575 27.3358C226.481 26.4046 227.189 25.5724 228.12 25.4735L238.154 24.5424C239.085 24.4696 239.938 25.1562 240.011 26.1081C240.089 27.0393 239.402 27.8975 238.471 27.9704Z" fill="#DB9ED4"/>
<path d="M272.881 39.9608L265.317 46.5931C264.61 47.2277 263.533 47.1549 262.893 46.4474C262.285 45.7348 262.332 44.6372 263.065 43.9974L270.602 37.3651C271.315 36.7565 272.418 36.8033 273.026 37.5368C273.666 38.2494 273.588 39.3262 272.881 39.9608Z" fill="#74D1E4"/>
<path d="M247.799 44.3663L242.878 53.1261C242.415 53.9584 241.359 54.2497 240.553 53.7867C239.72 53.3238 239.429 52.2678 239.866 51.4616L244.787 42.6758C245.25 41.8435 246.306 41.5522 247.138 42.0151C247.97 42.4833 248.262 43.5341 247.799 44.3663Z" fill="#EC207A"/>
<path d="M299.85 -4.25976L290.622 -0.270004C289.764 0.09412 288.739 -0.296012 288.37 -1.17511C287.98 -2.03341 288.396 -3.05815 289.254 -3.42748L298.477 -7.41724C299.361 -7.80737 300.386 -7.39123 300.755 -6.53294C301.119 -5.65384 300.729 -4.6499 299.85 -4.25976Z" fill="white"/>
<path d="M282.841 7.82912L288.688 16.0011C289.255 16.7866 289.057 17.8633 288.297 18.3991C287.517 18.9661 286.44 18.7945 285.899 18.009L280.053 9.83701C279.486 9.07755 279.657 7.97477 280.443 7.43899C281.202 6.8772 282.3 7.06966 282.841 7.82912Z" fill="#DB9ED4"/>
<path d="M282.253 30.514L292.313 30.3163C293.265 30.2955 294.051 31.055 294.072 32.0069C294.098 32.938 293.338 33.7443 292.386 33.7443L282.326 33.942C281.374 33.9628 280.589 33.2085 280.562 32.2514C280.562 31.2995 281.322 30.514 282.253 30.514Z" fill="#EC207A"/>
<path d="M244.125 63.0148L253.301 67.1242C254.159 67.4935 254.549 68.5182 254.185 69.4025C253.79 70.2556 252.765 70.6458 251.907 70.2556L242.731 66.1462C241.846 65.7561 241.456 64.7521 241.846 63.8678C242.242 63.0148 243.267 62.6194 244.125 63.0148Z" fill="#F4F17F"/>
<path d="M179.07 3.64721L181.739 -6.0697C181.983 -6.97481 182.94 -7.51579 183.846 -7.27131C184.751 -7.02682 185.286 -6.0697 185.042 -5.16459L182.4 4.55233C182.155 5.45743 181.203 5.99322 180.298 5.74873C179.367 5.50425 178.826 4.55232 179.07 3.64721Z" fill="white"/>
<path d="M270.48 59.7588L260.42 59.2178C259.489 59.171 258.755 58.3387 258.807 57.4076C258.854 56.4557 259.66 55.7222 260.618 55.795L270.652 56.3308C271.604 56.3828 272.342 57.1891 272.29 58.141C272.243 59.0721 271.411 59.8056 270.48 59.7588Z" fill="#DB9ED4"/>
<path d="M186.389 11.6215L177.947 17.1041C177.161 17.6191 176.084 17.3954 175.575 16.5892C175.06 15.8089 175.278 14.7321 176.084 14.2172L184.506 8.73448C185.312 8.21951 186.363 8.46399 186.904 9.24946C187.419 10.0557 187.175 11.1065 186.389 11.6215Z" fill="#74D1E4"/>
<path d="M168.844 -0.639095L162.701 7.34043C162.139 8.07388 161.062 8.21953 160.303 7.65773C159.543 7.06993 159.418 5.99317 159.985 5.23371L166.129 -2.74061C166.69 -3.47406 167.788 -3.62491 168.527 -3.03711C169.281 -2.47532 169.432 -1.37255 168.844 -0.639095Z" fill="#EC207A"/>
<path d="M244.417 13.5304L235.142 17.4213C234.263 17.7646 233.259 17.3485 232.89 16.4902C232.525 15.6111 232.942 14.6071 233.821 14.243L243.095 10.3729C243.98 10.0088 244.984 10.4249 245.348 11.278C245.717 12.1623 245.301 13.1663 244.417 13.5304Z" fill="white"/>
<path d="M160.351 22.2904C160.107 23.003 159.42 23.466 158.713 23.466L158.172 23.3672L149.828 20.5322V16.8857L159.275 20.116C160.159 20.4073 160.648 21.4113 160.351 22.2904Z" fill="#DB9ED4"/>
<mask id="mask4_371_15447" style="mask-type:luminance" maskUnits="userSpaceOnUse" x="-182" y="-3" width="495" height="199">
<path d="M-182 -2.74609H312.127V195.722H-182V-2.74609Z" fill="white"/>
</mask>
<g mask="url(#mask4_371_15447)">
<path d="M-117.7 195.722C-114.641 195.722 -111.655 195.161 -108.794 194.084C-110.136 194.302 -111.51 194.427 -112.878 194.427C-113.102 194.427 -113.32 194.427 -113.564 194.427C-141.051 193.616 -142.663 158.525 -139.948 139.512C-137.841 124.88 -127.318 106.502 -128.592 91.4477C-129.399 81.8296 -134.954 71.8006 -144.255 69.2309C-145.919 68.7628 -147.558 68.5443 -149.197 68.5443C-151.917 68.5443 -154.56 69.1321 -157.176 70.11C-156.151 69.9384 -155.121 69.8395 -154.071 69.8395C-152.453 69.8395 -150.788 70.0632 -149.124 70.5262C-139.823 73.1218 -134.294 83.1301 -133.461 92.7481C-132.192 107.823 -142.715 126.175 -144.796 140.807C-147.532 159.825 -145.919 194.916 -118.433 195.722C-118.189 195.722 -117.944 195.722 -117.7 195.722ZM29.0162 118.096C35.0398 118.096 41.0843 117.144 46.8582 115.334C42.598 116.286 38.2701 116.775 33.911 116.775C27.6689 116.775 21.432 115.75 15.4811 113.545C3.46506 109.092 -6.66281 100.821 -17.0403 93.2839C-27.3919 85.7466 -38.7005 78.6253 -51.4501 77.0856C-52.8233 76.94 -54.2174 76.8411 -55.6375 76.8411C-59.6481 76.8411 -63.6898 77.5226 -67.4819 78.823C-65.1828 78.3808 -62.8576 78.1624 -60.5532 78.1624C-59.1383 78.1624 -57.7182 78.2352 -56.3241 78.4069C-43.5954 79.9466 -32.2659 87.0418 -21.9144 94.5792C-11.5369 102.117 -1.40381 110.393 10.6123 114.866C16.5371 117.046 22.774 118.096 29.0162 118.096ZM219.765 97.7626C224.462 97.7626 229.139 96.9772 233.618 95.5103C230.653 96.1501 227.667 96.4674 224.634 96.4674C222.751 96.4674 220.842 96.3426 218.954 96.0721C187.509 91.7182 179.483 51.6593 152.023 38.6653C146.072 35.8511 137.213 34.0409 129.873 34.0409C128.406 34.0409 127.007 34.1138 125.712 34.2594C123.657 34.5039 121.748 34.9929 119.912 35.7003L120.843 35.5807C122.138 35.435 123.532 35.3622 125.004 35.3622C132.318 35.3622 141.203 37.1464 147.148 39.9605C174.588 52.9546 182.635 93.0394 214.085 97.3725C215.968 97.643 217.877 97.7626 219.765 97.7626ZM-199.784 89.5647C-196.923 89.5647 -194.13 88.9509 -191.414 87.9521C-192.564 88.1446 -193.739 88.2694 -194.915 88.2694C-195.747 88.2694 -196.58 88.2174 -197.412 88.0978C-216.45 85.7206 -225.652 56.6478 -243.812 56.6478C-244.623 56.6478 -245.476 56.6999 -246.335 56.8455C-247.729 57.0432 -249.05 57.4073 -250.298 57.8963L-250.517 58.0679C-249.908 57.9951 -249.294 57.9743 -248.686 57.9743C-230.526 57.9743 -221.345 87.021 -202.281 89.419C-201.448 89.5178 -200.616 89.5647 -199.784 89.5647ZM-302.332 87.0938C-298.56 87.0938 -294.867 86.3812 -291.314 85.1848C-293.322 85.5749 -295.356 85.7726 -297.385 85.7726C-298.045 85.7726 -298.685 85.7466 -299.32 85.7206C-304.776 85.3824 -310.186 83.0572 -314.395 79.5304V84.108C-311.211 85.7726 -307.715 86.7973 -304.189 87.021C-303.575 87.0678 -302.94 87.0938 -302.332 87.0938ZM312.128 38.6133V-42.8257V34.1866C308.601 32.2255 304.835 30.7846 300.819 30.098C298.666 29.7339 296.684 29.5622 294.874 29.5622C292.132 29.5622 289.76 29.9523 287.7 30.6858L287.31 31.0031C288.169 30.9303 289.048 30.8835 289.979 30.8835C291.815 30.8835 293.797 31.0551 295.95 31.4192C301.87 32.4232 307.259 35.0657 312.128 38.6133Z" fill="#EFD0DE"/>
</g>
<mask id="mask5_371_15447" style="mask-type:luminance" maskUnits="userSpaceOnUse" x="-182" y="-3" width="495" height="199">
<path d="M-182 -2.74609H312.954V195.67H-182V-2.74609Z" fill="white"/>
</mask>
<g mask="url(#mask5_371_15447)">
<path d="M312.128 -42.8257H-314.395V79.5304C-310.186 83.0572 -304.776 85.3824 -299.32 85.7206C-296.604 85.8922 -293.936 85.6997 -291.314 85.1848H-291.293C-286.3 84.2068 -281.504 82.1261 -277.072 79.3588C-273.254 77.0128 -269.732 74.1466 -266.549 71.0411C-261.654 66.2919 -256.884 60.7104 -250.787 58.0939H-250.761L-250.298 57.8963C-249.05 57.4073 -247.729 57.0432 -246.335 56.8455C-226.464 53.9845 -217.335 85.6269 -197.412 88.0978C-195.378 88.3683 -193.375 88.2902 -191.414 87.9521H-191.393C-186.816 87.1927 -182.41 85.0599 -178.103 82.4694H-178.077C-172.105 78.8438 -166.305 74.3703 -160.334 71.4781C-159.283 70.9683 -158.253 70.5262 -157.202 70.11H-157.176C-152.994 68.5703 -148.708 67.9825 -144.255 69.2309C-134.954 71.8006 -129.399 81.8296 -128.592 91.4477C-127.318 106.502 -137.841 124.88 -139.948 139.512C-142.663 158.525 -141.051 193.616 -113.564 194.427C-111.952 194.474 -110.36 194.354 -108.794 194.084H-108.768C-104.779 193.423 -100.961 191.806 -97.5326 189.506C-93.3035 186.692 -89.7039 182.853 -87.1082 178.494C-81.6048 169.193 -80.2055 157.963 -80.9649 147.195C-82.1926 129.821 -90.9003 110.096 -83.5866 92.9198C-80.991 86.8493 -75.9504 82.4434 -69.906 79.8009C-69.1205 79.4316 -68.3142 79.1403 -67.5079 78.8438L-67.4819 78.823C-62.3686 77.0596 -56.7611 76.4458 -51.4501 77.0856C-38.7005 78.6253 -27.3919 85.7466 -17.0403 93.2839C-6.66281 100.821 3.46506 109.092 15.4811 113.545C25.5414 117.264 36.4807 117.659 46.8582 115.334H46.8842C53.6154 113.841 60.1228 111.173 66.0216 107.599L66.0684 107.578C76.9609 100.92 85.8195 91.0108 90.1994 78.9218C95.1931 65.0955 103.563 42.4834 119.277 35.9448L119.865 35.7003H119.912C121.748 34.9929 123.657 34.5039 125.712 34.2594C133.567 33.3803 144.875 35.2841 152.023 38.6653C179.483 51.6593 187.509 91.7182 218.954 96.0721C223.849 96.7587 228.821 96.5402 233.618 95.5103C239.173 94.3607 244.505 92.1812 249.353 89.1745C255.325 85.4761 260.537 80.5604 264.474 74.8332C273.656 61.4491 271.892 37.3649 286.624 31.0759H286.65L287.7 30.6858C291.128 29.4634 295.409 29.1929 300.819 30.098C304.835 30.7846 308.601 32.2255 312.128 34.1866V-42.8257Z" fill="#EC207A"/>
</g>
<mask id="mask6_371_15447" style="mask-type:luminance" maskUnits="userSpaceOnUse" x="-182" y="30" width="471" height="29">
<path d="M-182 30.5454H288.053V58.5101H-182V30.5454Z" fill="white"/>
</mask>
<g mask="url(#mask6_371_15447)">
<path d="M-250.762 58.0939L-250.517 58.0679L-250.299 57.8963L-250.762 58.0939ZM286.649 31.0759L287.31 31.0031L287.7 30.6858L286.649 31.0759Z" fill="#F5E0E9"/>
</g>
<mask id="mask7_371_15447" style="mask-type:luminance" maskUnits="userSpaceOnUse" x="-182" y="-3" width="495" height="197">
<path d="M-182 -2.74609H312.954V193.007H-182V-2.74609Z" fill="white"/>
</mask>
<g mask="url(#mask7_371_15447)">
<path d="M-108.009 191.759C-106.37 191.759 -104.706 191.587 -103.114 191.27H-103.088C-101.184 190.9 -99.322 190.292 -97.5326 189.506C-93.3035 186.692 -89.7039 182.853 -87.1082 178.494C-82.5099 170.712 -80.7725 161.583 -80.7725 152.532C-80.7725 150.743 -80.8453 148.959 -80.9649 147.195C-81.8492 134.862 -86.4736 121.327 -86.4736 108.385C-86.4736 103.1 -85.7142 97.9083 -83.5866 92.9198C-80.991 86.8493 -75.9504 82.4434 -69.906 79.8009L-68.85 79.1143C-63.591 75.8632 -57.1564 74.1726 -50.8155 74.1726C-49.3954 74.1726 -47.9753 74.2714 -46.5812 74.4431C-33.8525 75.9828 -22.549 83.078 -12.1715 90.6154C-1.81995 98.1528 8.33911 106.424 20.3552 110.882C26.2748 113.082 32.517 114.133 38.7591 114.133C44.8764 114.133 51.0197 113.129 56.8925 111.272H56.9185C60.05 110.294 63.0826 109.066 66.0216 107.599L66.0684 107.578C76.9609 100.92 85.8195 91.0108 90.1994 78.9218C95.1931 65.0955 103.563 42.4834 119.277 35.9448L119.522 35.7783V35.7523H119.543C122.825 33.5728 126.497 32.0799 130.581 31.6169C131.881 31.4713 133.275 31.3932 134.742 31.3932C142.061 31.3932 150.946 33.1826 156.891 35.9968C184.326 48.9648 192.378 89.0497 223.802 93.4296C225.685 93.6741 227.594 93.7989 229.456 93.7989C233.618 93.7989 237.753 93.1851 241.763 92.0355C244.385 91.302 246.903 90.3501 249.353 89.1745C255.325 85.4761 260.537 80.5604 264.474 74.8332C273.656 61.4491 271.892 37.3649 286.624 31.0759H286.65L287.7 30.6858C290.686 28.3138 294.556 26.8937 299.716 26.8937C301.553 26.8937 303.535 27.0653 305.688 27.4295C307.92 27.8248 310.073 28.4334 312.128 29.2397V-42.8257H-314.395V71.3585C-310.233 77.8919 -302.404 82.5683 -294.472 83.0572C-293.837 83.1041 -293.223 83.1041 -292.615 83.1041C-289.775 83.1041 -286.96 82.7347 -284.219 82.0273C-281.769 81.3927 -279.371 80.4876 -277.072 79.3588C-273.254 77.0128 -269.732 74.1466 -266.549 71.0411C-261.654 66.2919 -256.884 60.7104 -250.787 58.0939H-250.761L-250.298 57.8963C-247.63 56.0392 -244.743 54.6451 -241.486 54.177C-240.633 54.0574 -239.775 53.9845 -238.969 53.9845C-220.809 53.9845 -211.607 83.0572 -192.564 85.4553C-191.711 85.5489 -190.878 85.6009 -190.067 85.6009C-188.408 85.6009 -186.79 85.4032 -185.177 85.0391C-182.774 84.4981 -180.428 83.593 -178.103 82.4694H-178.077C-172.105 78.8438 -166.305 74.3703 -160.334 71.4781C-159.673 71.088 -159.038 70.6978 -158.352 70.3285C-153.774 67.738 -149.15 65.8758 -144.302 65.8758C-142.689 65.8758 -141.051 66.0943 -139.386 66.5624C-130.111 69.1321 -124.556 79.1663 -123.744 88.7792C-122.475 103.854 -132.972 122.211 -135.079 136.87C-137.794 155.856 -136.177 190.952 -108.696 191.759C-108.477 191.759 -108.253 191.759 -108.009 191.759ZM-64.3505 68.9084L-62.1449 68.9864C-65.4741 71.8214 -72.0335 74.7344 -75.6539 76.7891C-81.87 80.3159 -89.8496 83.9623 -91.5401 91.4737C-94.2295 103.661 -91.9563 116.853 -89.215 128.791C-86.5204 140.49 -83.8311 154.046 -87.4047 165.843C-89.9224 174.114 -97.2673 183.805 -105.829 186.401C-107.249 186.817 -108.597 187.009 -109.871 187.009C-116.55 187.009 -121.029 181.454 -122.964 174.728C-126.34 162.977 -120.956 152.626 -116.649 142.009C-112.243 131.215 -109.382 119.834 -108.061 108.26C-107.229 101.139 -106.246 94.2411 -102.672 87.8533C-94.8693 73.9021 -79.2536 69.6679 -64.3505 68.9084ZM122.164 29.7547C122.19 29.7547 122.211 29.7547 122.211 29.7547C122.211 29.7547 98.0333 36.8551 93.2841 53.4175C88.5141 69.9644 82.8337 94.2879 64.4038 102.559C51.1185 108.504 42.2807 109.924 36.3819 109.924C34.1087 109.924 32.2725 109.732 30.7536 109.482C30.7536 109.482 44.5331 109.144 57.1109 99.1827C69.694 89.2213 77.6684 82.5683 80.6802 67.1242C83.666 51.6801 87.7546 41.6979 95.2451 36.0956C103.589 29.8275 121.16 29.7547 122.164 29.7547ZM-39.0699 74.4639C-37.1816 74.5159 -18.5853 75.3482 -5.26874 87.5828C7.62646 99.4272 24.319 107.48 24.319 107.48C24.319 107.48 16.9272 106.991 8.2403 102.117C2.34146 98.7926 -3.21402 94.8237 -8.49902 90.5946C-13.3731 86.7037 -18.1171 82.5891 -23.7714 79.8998C-26.3411 78.6773 -29.0096 77.6734 -31.6989 76.7683C-33.8317 76.0556 -36.7915 74.5367 -39.0699 74.4639C-39.1635 74.4639 -39.2155 74.4639 -39.2155 74.4639C-39.1635 74.4639 -39.1167 74.4639 -39.0699 74.4639ZM295.066 23.835C287.872 23.835 281.068 25.4268 277.323 30.3425C267.341 43.5082 265.822 61.9588 259.169 73.5848C253.025 84.2536 241.176 90.3969 232.489 90.3969C231.708 90.3969 230.923 90.3501 230.19 90.2513C230.19 90.2513 240.052 86.1159 246.638 76.5446C253.733 66.2451 258.919 44.9282 263.08 32.3972C266.045 23.5177 273.239 13.8736 287.284 13.8736C288.361 13.8736 289.49 13.9465 290.639 14.0713C298.593 14.8776 306.276 18.3784 312.128 21.8012V26.0874C307.134 24.9118 300.965 23.835 295.066 23.835ZM151.409 30.5141C153.292 30.5141 158.655 31.3724 161.417 32.1319C171.035 34.7744 179.259 42.3117 185.527 50.0936C192.669 58.973 196.243 67.3219 205.351 76.9139C207.994 79.7281 218.121 89.2473 219.323 89.5647C218.371 89.3202 208.701 87.1666 194.162 71.1868C187.239 63.5506 183.249 53.74 176.325 46.1767C169.813 39.0814 160.319 34.0149 151.409 30.5141ZM-221.689 60.4659C-221.153 60.4659 -216.502 62.9628 -214.396 64.4817C-212.44 65.9226 -210.531 67.4675 -208.814 69.1789C-207.004 70.9683 -205.781 73.0958 -204.091 74.9529C-199.42 80.0922 -199.467 79.8477 -194.499 82.5423C-195.04 82.4694 -200.595 80.9505 -203.872 78.1832C-206.759 75.7644 -210.723 69.7927 -213.589 67.3687C-215.545 65.7041 -218.729 63.3581 -220.44 61.8132L-221.741 60.4659C-221.715 60.4659 -221.715 60.4659 -221.689 60.4659ZM-238.99 51.29C-241.341 51.29 -243.619 51.5137 -245.528 51.8778C-252.915 53.3447 -258.08 58.7077 -263.027 64.0187C-268.504 69.8655 -275.579 74.2194 -283.116 76.9868C-283.116 76.9868 -276.801 71.9202 -271.173 64.3361C-268.26 60.3931 -266.476 55.4514 -262.876 52.0495C-259.11 48.5279 -254.605 47.2274 -249.955 47.2274C-243.791 47.2274 -237.33 49.5058 -231.848 52.0235C-234.095 51.5137 -236.592 51.29 -238.99 51.29ZM-144.624 62.8431C-151.277 62.8431 -156.396 64.6274 -161.998 68.6899C-167.091 72.3832 -171.986 75.0309 -178.295 75.936C-178.295 75.936 -171.986 73.5848 -167.283 67.8316C-162.586 62.1097 -157.738 58.6089 -148.588 58.2396C-148.463 58.2188 -148.318 58.2188 -148.193 58.2188C-142.148 58.2188 -133.388 63.3581 -131.453 64.5545C-131.308 64.6274 -131.162 64.7002 -131.037 64.799C-131.037 64.799 -131.188 64.7002 -131.453 64.5545C-132.384 64.0916 -133.877 63.9927 -134.762 63.8211C-137.352 63.3321 -139.974 63.0148 -142.59 62.89C-143.277 62.864 -143.964 62.8431 -144.624 62.8431Z" fill="#F358A5"/>
</g>
<mask id="mask8_371_15447" style="mask-type:luminance" maskUnits="userSpaceOnUse" x="229" y="13" width="84" height="78">
<path d="M229.461 13.2339H312.955V90.4698H229.461V13.2339Z" fill="white"/>
</mask>
<g mask="url(#mask8_371_15447)">
<path d="M232.487 90.3971C241.174 90.3971 253.023 84.2538 259.167 73.5849C265.82 61.959 267.339 43.5083 277.321 30.3426C281.066 25.4269 287.87 23.8352 295.064 23.8352C300.963 23.8352 307.132 24.9119 312.126 26.0875V21.8013C306.274 18.3785 298.591 14.8777 290.637 14.0714C289.488 13.9466 288.359 13.8738 287.282 13.8738C273.237 13.8738 266.043 23.5179 263.078 32.3973C258.917 44.9284 253.731 66.2452 246.636 76.5448C240.05 86.116 230.188 90.2514 230.188 90.2514C230.921 90.3503 231.706 90.3971 232.487 90.3971Z" fill="#F683BC"/>
</g>
<path d="M219.321 89.5647C218.119 89.2474 207.991 79.7281 205.349 76.914C196.24 67.3219 192.667 58.9731 185.525 50.0936C179.257 42.3118 171.033 34.7744 161.414 32.1319C158.652 31.3725 153.289 30.5142 151.406 30.5142C160.317 34.015 169.81 39.0815 176.323 46.1767C183.246 53.7401 187.236 63.5506 194.16 71.1868C208.699 87.1667 218.369 89.3202 219.321 89.5647Z" fill="#F03D94"/>
<path d="M36.3822 109.925C42.281 109.925 51.1189 108.505 64.4042 102.559C82.8341 94.2881 88.5144 69.9646 93.2844 53.4178C98.0336 36.8553 122.211 29.7549 122.211 29.7549C122.211 29.7549 122.191 29.7549 122.165 29.7549C121.161 29.7549 103.589 29.8277 95.2455 36.0958C87.7549 41.6982 83.6663 51.6804 80.6805 67.1244C77.6687 82.5685 69.6944 89.2216 57.1113 99.183C44.5334 109.144 30.7539 109.482 30.7539 109.482C32.2728 109.732 34.1091 109.925 36.3822 109.925Z" fill="#F683BC"/>
<path d="M24.3196 107.48C24.3196 107.48 7.62713 99.4272 -5.26807 87.5827C-18.5846 75.3482 -37.1809 74.5159 -39.0692 74.4639C-36.7908 74.5367 -33.831 76.0556 -31.6983 76.7683C-29.009 77.6734 -26.3405 78.6773 -23.7708 79.8997C-18.1165 82.589 -13.3724 86.7036 -8.49837 90.5946C-3.21337 94.8236 2.34212 98.7926 8.24094 102.116C16.9279 106.991 24.3196 107.48 24.3196 107.48ZM-39.0692 74.4639C-39.116 74.4639 -39.1628 74.4639 -39.2148 74.4639C-39.2148 74.4639 -39.1628 74.4639 -39.0692 74.4639Z" fill="#F03D94"/>
<path d="M68.0268 33.7445L77.9622 35.3623C78.8933 35.5339 79.7724 34.8941 79.9441 33.9422C80.0897 33.0111 79.4551 32.132 78.524 31.9811L68.5886 30.3426C67.6575 30.1969 66.7784 30.8315 66.6067 31.7627C66.4611 32.6938 67.0957 33.5989 68.0268 33.7445Z" fill="#F4F17F"/>
<path d="M33.6382 97.5912L38.9024 89.029C39.3913 88.2176 39.1468 87.1668 38.3406 86.6778C37.5343 86.1629 36.4783 86.4333 35.9634 87.2396L30.7044 95.7809C30.2154 96.5872 30.4599 97.664 31.2662 98.1529C32.0724 98.6419 33.1284 98.3974 33.6382 97.5912Z" fill="white"/>
<path d="M50.9196 72.4091L58.1865 79.3587C58.8731 80.0193 59.9499 79.9985 60.6105 79.3119C61.2711 78.6252 61.2451 77.5224 60.5637 76.8878L53.2916 69.9123C52.6101 69.2516 51.5334 69.2776 50.8728 69.9643C50.2121 70.6457 50.2329 71.7485 50.9196 72.4091Z" fill="#DB9ED4"/>
<path d="M17.8562 80.7528L19.6404 90.6674C19.7912 91.5933 20.6964 92.2071 21.6223 92.0615C22.5534 91.8898 23.188 90.9847 23.0215 90.0536L21.2581 80.165C21.0865 79.2131 20.1814 78.5993 19.2503 78.7709C18.3191 78.9426 17.6845 79.8269 17.8562 80.7528Z" fill="#74D1E4"/>
<path d="M52.0429 91.1306L50.4304 101.04C50.2587 101.971 50.8933 102.876 51.8505 103.022C52.7816 103.173 53.6607 102.533 53.8063 101.607L55.4449 91.6715C55.5957 90.7404 54.9559 89.8561 54.03 89.7105C53.0989 89.5388 52.1938 90.1786 52.0429 91.1306Z" fill="#EC207A"/>
<path d="M1.58186 16.4903L11.6421 16.1262C12.594 16.1001 13.3275 15.2939 13.3067 14.3628C13.2546 13.4108 12.4484 12.6774 11.5173 12.6982L1.46222 13.0675C0.531105 13.0935 -0.228355 13.8998 -0.181539 14.8517C-0.155531 15.7828 0.650744 16.5423 1.58186 16.4903Z" fill="#F4F17F"/>
<path d="M14.9928 36.5328L18.4676 27.0864C18.7901 26.2073 18.3219 25.2033 17.4428 24.886C16.5585 24.5687 15.5598 25.0108 15.2373 25.916L11.7625 35.3364C11.4452 36.2155 11.8873 37.2194 12.7924 37.5367C13.6715 37.88 14.6755 37.4171 14.9928 36.5328Z" fill="white"/>
<path d="M26.1263 18.8674L34.6208 24.2513C35.427 24.7662 36.4778 24.5166 36.9928 23.7363C37.5077 22.93 37.2633 21.8533 36.4518 21.3383L27.9625 15.9544C27.177 15.4655 26.1002 15.6839 25.5905 16.4902C25.0755 17.3017 25.32 18.3525 26.1263 18.8674Z" fill="#DB9ED4"/>
<path d="M18.5455 42.3586L18.9096 52.3928C18.9356 53.3448 19.7419 54.1042 20.699 54.0574C21.6249 54.0314 22.3844 53.2251 22.3376 52.268L21.9683 42.239C21.9475 41.2818 21.136 40.5484 20.2049 40.5744C19.2529 40.5952 18.4935 41.4067 18.5455 42.3586Z" fill="#EC207A"/>
<path d="M56.4294 48.8452L50.3329 56.8455C49.7711 57.5789 49.9167 58.6817 50.6762 59.2435C51.4097 59.8313 52.5124 59.6856 53.0742 58.9262L59.1707 50.9259C59.7325 50.1664 59.5868 49.0896 58.8274 48.5018C58.0939 47.94 56.9912 48.0857 56.4294 48.8452Z" fill="#F4F17F"/>
<path d="M28.2113 50.4108L33.3247 59.0718C33.7928 59.9041 34.8696 60.1746 35.6759 59.6856C36.4822 59.2174 36.7526 58.1667 36.2897 57.3344L31.1972 48.6734C30.7082 47.8672 29.6574 47.5707 28.8251 48.0596C28.0137 48.5278 27.7484 49.6046 28.2113 50.4108Z" fill="white"/>
<path d="M33.7166 66.2453L24.1713 69.4028C23.287 69.6941 22.772 70.672 23.0685 71.5771C23.3859 72.4822 24.3638 72.9712 25.2481 72.6799L34.7933 69.5224C35.6985 69.2311 36.1874 68.248 35.8909 67.3429C35.5996 66.4378 34.6217 65.9488 33.7166 66.2453Z" fill="#DB9ED4"/>
<path d="M47.1552 33.1828L37.5579 30.1242C36.6528 29.8277 35.7009 30.3166 35.4044 31.2269C35.1131 32.132 35.6021 33.11 36.5072 33.4013L46.0733 36.4599C46.9836 36.7564 47.9615 36.2675 48.2528 35.3624C48.5493 34.4572 48.0343 33.4741 47.1552 33.1828Z" fill="#74D1E4"/>
<path d="M3.85978 51.9038L11.47 58.4632C12.2034 59.0718 13.2802 58.999 13.894 58.2916C14.5286 57.5581 14.4298 56.4814 13.7223 55.8676L6.10694 49.2821C5.3995 48.6735 4.29673 48.7463 3.68812 49.4798C3.0483 50.1924 3.14713 51.2692 3.85978 51.9038Z" fill="#DB9ED4"/>
<path d="M2.70862 85.627L1.63185 95.6092C1.50701 96.5663 2.19364 97.4194 3.14557 97.5183C4.07669 97.6171 4.93498 96.9305 5.02861 95.9994L6.13139 85.9911C6.23022 85.06 5.56959 84.2069 4.61767 84.1081C3.68655 84.0093 2.82826 84.6959 2.70862 85.627Z" fill="#EC207A"/>
<path d="M76.9882 41.7239L67.8591 45.9321C67.0008 46.3482 66.6107 47.373 67.0268 48.2313C67.4169 49.0896 68.4469 49.4537 69.3 49.0636L78.4291 44.8293C79.2874 44.4392 79.6567 43.4092 79.2614 42.5561C78.8712 41.6978 77.8413 41.3285 76.9882 41.7239Z" fill="#DB9ED4"/>
<path d="M89.4899 10.3523L98.13 5.21295C98.9623 4.74479 99.2276 3.66802 98.7386 2.86175C98.2497 2.05547 97.1989 1.78498 96.3926 2.27394L87.7265 7.38729C86.9202 7.87625 86.6497 8.93222 87.1387 9.7645C87.6277 10.5708 88.6836 10.8413 89.4899 10.3523Z" fill="white"/>
<path d="M109.288 3.66785L112.472 13.2131C112.763 14.0922 113.741 14.5812 114.646 14.2899C115.556 13.9986 116.045 13.0154 115.723 12.1103L112.545 2.57028C112.248 1.68597 111.27 1.19701 110.365 1.49351C109.46 1.78481 108.971 2.76274 109.288 3.66785Z" fill="#DB9ED4"/>
<path d="M70.0378 2.22696L67 11.819C66.7087 12.7241 67.2185 13.6761 68.1288 13.9726C69.0339 14.2639 69.9858 13.7541 70.2823 12.8438L73.315 3.25171C73.5854 2.3466 73.0965 1.39468 72.1914 1.09818C71.2811 0.806878 70.3031 1.32185 70.0378 2.22696Z" fill="#74D1E4"/>
<path d="M104.638 24.6882L98.5673 32.7406C98.0055 33.474 98.1511 34.5768 98.9106 35.1386C99.67 35.7004 100.747 35.5547 101.335 34.7953L107.379 26.7689C107.941 26.0095 107.795 24.9327 107.036 24.3501C106.276 23.7831 105.2 23.934 104.638 24.6882Z" fill="#EC207A"/>
<path d="M122.7 5.43129L132.542 3.35058C133.467 3.15292 134.055 2.24781 133.863 1.32189C133.691 0.390775 132.76 -0.197026 131.829 0.000641868L121.992 2.05534C121.061 2.24781 120.473 3.15292 120.671 4.08403C120.864 5.01515 121.774 5.60295 122.7 5.43129Z" fill="#F4F17F"/>
<path d="M139.295 22.9041L141.131 12.9947C141.277 12.0636 140.668 11.1845 139.737 11.0129C138.806 10.8412 137.901 11.4498 137.729 12.3809L135.919 22.2695C135.721 23.1954 136.361 24.1057 137.287 24.2722C138.218 24.4438 139.123 23.8352 139.295 22.9041Z" fill="white"/>
<path d="M150.355 22.9298L159.63 26.7947C160.509 27.1641 161.513 26.7479 161.882 25.8896C162.246 25.0105 161.83 24.0066 160.951 23.6373L151.676 19.7463C150.792 19.403 149.793 19.8192 149.424 20.6774C149.054 21.5565 149.471 22.5605 150.355 22.9298Z" fill="#DB9ED4"/>
<path d="M119.47 18.6696L124.682 27.2577C125.176 28.0692 126.253 28.3137 127.059 27.8247C127.865 27.3358 128.11 26.2798 127.621 25.4735L122.409 16.8854C121.92 16.0739 120.843 15.8086 120.037 16.2976C119.225 16.7866 118.981 17.8633 119.47 18.6696Z" fill="#74D1E4"/>
<path d="M147.226 -3.52641L149.28 6.31015C149.473 7.24127 150.383 7.82907 151.309 7.6314C152.24 7.43893 152.828 6.53382 152.63 5.60271L150.576 -4.23385C150.383 -5.16496 149.473 -5.77877 148.547 -5.58111C147.616 -5.38344 147.028 -4.45752 147.226 -3.52641Z" fill="#EC207A"/>
<path d="M25.4435 2.2269L34.7183 6.11783C35.6026 6.48195 36.6065 6.09182 36.9707 5.21272C37.34 4.32842 36.9239 3.32447 36.0656 2.96035L26.7908 -0.956587C25.9325 -1.32071 24.9078 -0.90457 24.5384 -0.0254687C24.1743 0.832824 24.5904 1.85757 25.4435 2.2269Z" fill="#F4F17F"/>
<path d="M68.76 68.6641L75.9073 61.5689C76.5679 60.9083 76.5887 59.8055 75.9073 59.1449C75.2467 58.4843 74.1439 58.4635 73.4833 59.1449L66.362 66.2193C65.6754 66.906 65.6754 67.9827 66.336 68.6641C66.9966 69.3248 68.0994 69.3248 68.76 68.6641Z" fill="white"/>
<path d="M86.3323 57.3606L91.7421 65.8291C92.2571 66.6354 93.3339 66.8539 94.1401 66.3389C94.9204 65.8291 95.1649 64.7732 94.6551 63.9669L89.2193 55.4984C88.7043 54.7181 87.6535 54.4737 86.8473 54.9886C86.0358 55.4984 85.8173 56.5544 86.3323 57.3606Z" fill="#DB9ED4"/>
<path d="M76.5448 73.7304L72.6279 82.9843C72.2638 83.8634 72.6799 84.8674 73.559 85.2315C74.4173 85.6008 75.442 85.2107 75.8114 84.3264L79.7283 75.0516C80.0924 74.1986 79.6763 73.1686 78.7972 72.7993C77.9129 72.4351 76.9141 72.8513 76.5448 73.7304Z" fill="#EC207A"/>
<path d="M50.967 -10.9646L45.4896 -2.52212C44.9486 -1.73666 45.1931 -0.659887 45.9785 -0.150113C46.7588 0.364863 47.8356 0.146387 48.3505 -0.659887L53.8592 -9.08156C54.369 -9.86183 54.1245 -10.9386 53.3442 -11.4536C52.5588 -11.9685 51.482 -11.7501 50.967 -10.9646Z" fill="#74D1E4"/>
<path d="M57.6993 17.2027L49.725 23.32C48.9655 23.8818 48.8146 24.9846 49.4024 25.718C49.9694 26.4775 51.067 26.6231 51.8005 26.0353L59.78 19.918C60.5394 19.3563 60.6851 18.2795 60.0973 17.52C59.5355 16.7606 58.4327 16.6149 57.6993 17.2027Z" fill="#EC207A"/>
<path d="M244.161 10.0086L253.685 13.2129C254.59 13.5042 255.568 13.0152 255.86 12.1101C256.156 11.231 255.667 10.2531 254.783 9.93575L245.238 6.75227C244.332 6.46097 243.354 6.94993 243.063 7.82903C242.767 8.73414 243.256 9.71208 244.161 10.0086Z" fill="#F4F17F"/>
<path d="M249.643 33.474L256.228 25.8638C256.842 25.1303 256.764 24.0535 256.031 23.4449C255.323 22.8051 254.247 22.904 253.612 23.6114L247.053 31.2268C246.439 31.9342 246.512 33.037 247.224 33.6456C247.932 34.2594 249.034 34.1866 249.643 33.474Z" fill="white"/>
<path d="M266.289 20.8491L272.333 28.8754C272.921 29.6349 273.998 29.7805 274.752 29.2187C275.511 28.6569 275.662 27.5802 275.095 26.8207L269.03 18.7944C268.463 18.0349 267.386 17.8893 266.627 18.4511C265.872 19.0128 265.722 20.0896 266.289 20.8491Z" fill="#DB9ED4"/>
<path d="M83.7663 22.1965L83.9379 32.2516C83.9379 33.2087 84.7182 33.9629 85.6753 33.9421C86.6272 33.9161 87.3867 33.1307 87.3659 32.2048L87.1942 22.1445C87.1942 21.1926 86.3828 20.4331 85.4569 20.4591C84.4997 20.4591 83.7403 21.2394 83.7663 22.1965Z" fill="#74D1E4"/>
<path d="M257.769 37.932L254.591 47.4513C254.294 48.3564 254.783 49.3343 255.667 49.6256C256.573 49.9221 257.55 49.4539 257.842 48.5488L261.051 39.0088C261.343 38.1245 260.854 37.1466 259.975 36.8292C259.069 36.5327 258.086 37.0217 257.769 37.932Z" fill="#EC207A"/>
<path d="M257.352 52.6633L256.764 62.6923C256.717 63.6234 257.45 64.4557 258.382 64.5077C259.334 64.5545 260.145 63.8211 260.192 62.89L260.78 52.8557C260.826 51.9038 260.119 51.0975 259.167 51.0455C258.21 50.9727 257.404 51.7061 257.352 52.6633Z" fill="#F4F17F"/>
<path d="M236.158 64.1123L245.215 68.4453C246.068 68.8615 247.098 68.4921 247.514 67.6391C247.93 66.7808 247.561 65.756 246.707 65.3399L237.625 61.0068C236.772 60.5907 235.742 60.9548 235.352 61.8131C234.936 62.6714 235.3 63.6961 236.158 64.1123Z" fill="white"/>
<path d="M249.007 74.0011L242.838 81.9547C242.25 82.6881 242.401 83.7649 243.134 84.3527C243.894 84.9405 244.971 84.7948 245.558 84.0614L251.723 76.1079C252.284 75.3692 252.165 74.2716 251.405 73.6838C250.672 73.122 249.595 73.2417 249.007 74.0011Z" fill="#DB9ED4"/>
<path d="M240.911 44.8555L231.267 47.6436C230.336 47.9141 229.821 48.8661 230.091 49.7764C230.336 50.6815 231.293 51.2173 232.219 50.9468L241.863 48.1586C242.768 47.8881 243.309 46.9362 243.039 46.0311C242.794 45.126 241.816 44.585 240.911 44.8555Z" fill="#74D1E4"/>
<path d="M232.487 79.6031L222.453 79.0153C221.522 78.9685 220.69 79.7019 220.643 80.6331C220.596 81.585 221.329 82.4173 222.26 82.4693L232.295 83.0571C233.247 83.1039 234.053 82.3705 234.126 81.4133C234.178 80.4874 233.444 79.6551 232.487 79.6031Z" fill="#EC207A"/>
<path d="M190.443 27.2373L199.208 22.3164C200.04 21.8742 200.332 20.8235 199.889 19.9912C199.426 19.1589 198.376 18.8676 197.543 19.3306L188.758 24.2254C187.925 24.6884 187.629 25.7444 188.097 26.5766C188.56 27.4089 189.611 27.7002 190.443 27.2373Z" fill="#F4F17F"/>
<path d="M211.49 31.981L210.293 21.9988C210.168 21.0677 209.315 20.381 208.384 20.5059C207.427 20.6047 206.746 21.4838 206.865 22.4149L208.093 32.3971C208.186 33.3283 209.071 34.0149 209.997 33.89C210.928 33.7704 211.614 32.9121 211.49 31.981Z" fill="white"/>
<path d="M223.484 27.9704L233.518 28.9015C234.449 28.9743 235.302 28.2877 235.375 27.3358C235.474 26.4046 234.766 25.5724 233.835 25.4735L223.801 24.5424C222.87 24.4696 222.017 25.1562 221.939 26.1081C221.866 27.0393 222.553 27.8975 223.484 27.9704Z" fill="#DB9ED4"/>
<path d="M189.075 39.9608L196.639 46.5931C197.346 47.2277 198.423 47.1549 199.058 46.4474C199.672 45.7348 199.625 44.6372 198.886 43.9974L191.349 37.3651C190.641 36.7565 189.538 36.8033 188.93 37.5368C188.29 38.2494 188.363 39.3262 189.075 39.9608Z" fill="#74D1E4"/>
<path d="M214.157 44.3663L219.078 53.1261C219.541 53.9584 220.597 54.2497 221.403 53.7867C222.236 53.3238 222.527 52.2678 222.09 51.4616L217.169 42.6758C216.706 41.8435 215.65 41.5522 214.818 42.0151C213.986 42.4833 213.694 43.5341 214.157 44.3663Z" fill="#EC207A"/>
<path d="M162.102 -4.25976L171.33 -0.270004C172.188 0.09412 173.213 -0.296012 173.582 -1.17511C173.972 -2.03341 173.556 -3.05815 172.698 -3.42748L163.475 -7.41724C162.591 -7.80737 161.566 -7.39123 161.197 -6.53294C160.827 -5.65384 161.223 -4.6499 162.102 -4.25976Z" fill="white"/>
<path d="M179.111 7.82912L173.264 16.0011C172.697 16.7866 172.895 17.8633 173.654 18.3991C174.434 18.9661 175.511 18.7945 176.052 18.009L181.899 9.83701C182.466 9.07755 182.294 7.97477 181.509 7.43899C180.749 6.8772 179.647 7.06966 179.111 7.82912Z" fill="#DB9ED4"/>
<path d="M179.699 30.514L169.639 30.3163C168.687 30.2955 167.901 31.055 167.875 32.0069C167.855 32.938 168.614 33.7443 169.566 33.7443L179.626 33.942C180.578 33.9628 181.364 33.2085 181.39 32.2514C181.39 31.2995 180.63 30.514 179.699 30.514Z" fill="#EC207A"/>
<path d="M217.829 63.0148L208.653 67.1242C207.795 67.4935 207.405 68.5182 207.769 69.4025C208.164 70.2556 209.189 70.6458 210.047 70.2556L219.223 66.1462C220.108 65.7561 220.498 64.7521 220.108 63.8678C219.712 63.0148 218.688 62.6194 217.829 63.0148Z" fill="#F4F17F"/>
<path d="M282.879 3.64721L280.216 -6.0697C279.971 -6.97481 279.014 -7.51579 278.109 -7.27131C277.204 -7.02682 276.663 -6.0697 276.912 -5.16459L279.555 4.55233C279.799 5.45743 280.751 5.99322 281.657 5.74873C282.588 5.50425 283.129 4.55232 282.879 3.64721Z" fill="white"/>
<path d="M191.473 59.7588L201.533 59.2178C202.459 59.171 203.198 58.3387 203.146 57.4076C203.099 56.4557 202.287 55.7222 201.336 55.795L191.301 56.3308C190.349 56.3828 189.611 57.1891 189.663 58.141C189.71 59.0721 190.542 59.8056 191.473 59.7588Z" fill="#DB9ED4"/>
<path d="M275.563 11.6215L284.006 17.1041C284.786 17.6191 285.863 17.3954 286.378 16.5892C286.893 15.8089 286.674 14.7321 285.863 14.2172L277.446 8.73448C276.64 8.21951 275.584 8.46399 275.048 9.24946C274.533 10.0557 274.778 11.1065 275.563 11.6215Z" fill="#74D1E4"/>
<path d="M293.111 -0.639095L299.255 7.34043C299.816 8.07388 300.893 8.21953 301.653 7.65773C302.412 7.06993 302.532 5.99317 301.97 5.23371L295.827 -2.74061C295.265 -3.47406 294.162 -3.62491 293.429 -3.03711C292.669 -2.47532 292.524 -1.37255 293.111 -0.639095Z" fill="#EC207A"/>
<path d="M217.538 13.5304L226.813 17.4213C227.692 17.7646 228.696 17.3485 229.066 16.4902C229.43 15.6111 229.014 14.6071 228.134 14.243L218.86 10.3729C217.975 10.0088 216.971 10.4249 216.607 11.278C216.238 12.1623 216.654 13.1663 217.538 13.5304Z" fill="white"/>
<mask id="mask9_371_15447" style="mask-type:luminance" maskUnits="userSpaceOnUse" x="301" y="15" width="12" height="9">
<path d="M301.371 15.8975H312.955V23.8874H301.371V15.8975Z" fill="white"/>
</mask>
<g mask="url(#mask9_371_15447)">
<path d="M301.606 22.2904C301.851 23.003 302.532 23.466 303.245 23.466L303.781 23.3672L312.129 20.5322V16.8857L302.683 20.116C301.799 20.4073 301.31 21.4113 301.606 22.2904Z" fill="#DB9ED4"/>
</g>
</svg>
