<svg width="24" height="24" viewBox="0 0 24 24" fill="none" xmlns="http://www.w3.org/2000/svg">
<path d="M22.5938 11.4901V8.66054C22.5938 7.27042 21.4876 6.1344 20.1094 6.08481V4.34804C20.1094 3.4434 19.3734 2.70742 18.4688 2.70742H13.952L13.3687 1.08615C13.22 0.672714 12.9189 0.342339 12.5211 0.155917C12.1232 -0.0305515 11.6767 -0.0504265 11.2638 0.0998547L3.0675 3.08303C2.65509 3.23312 2.32608 3.53495 2.14102 3.93292C1.95595 4.33089 1.93716 4.77699 2.08814 5.18912L2.41744 6.08795C1.07048 6.17125 0 7.29296 0 8.66054V21.4105C0 22.8321 1.15655 23.9887 2.57812 23.9887H20.0156C21.4372 23.9887 22.5938 22.8321 22.5938 21.4105V18.4873C23.3877 18.3732 24 17.6887 24 16.8637V13.1137C24 12.2886 23.3877 11.6042 22.5938 11.4901ZM22.5938 16.8637C22.5938 16.9929 22.4886 17.098 22.3594 17.098H18.6094C17.4463 17.098 16.5 16.1518 16.5 14.9887C16.5 13.8256 17.4463 12.8793 18.6094 12.8793H22.3594C22.4886 12.8793 22.5938 12.9844 22.5938 13.1137V16.8637ZM3.40856 4.70537C3.37945 4.62592 3.40078 4.55884 3.41611 4.52589C3.43144 4.49298 3.46898 4.4334 3.54848 4.40448L11.7448 1.42131C11.8244 1.39239 11.8914 1.4139 11.9244 1.42932C11.9573 1.44475 12.0168 1.48253 12.0455 1.56221L12.4575 2.70746H12.1406C11.236 2.70746 10.5 3.44345 10.5 4.34809V6.08246H3.91308L3.40856 4.70537ZM18.7031 4.34804V6.08242H11.9062V4.34804C11.9062 4.21881 12.0114 4.11367 12.1406 4.11367H18.4688C18.598 4.11367 18.7031 4.21881 18.7031 4.34804ZM20.0156 22.5824H2.57812C1.93195 22.5824 1.40625 22.0567 1.40625 21.4105V8.66054C1.40625 8.01437 1.93195 7.48867 2.57812 7.48867H20.0156C20.6618 7.48867 21.1875 8.01437 21.1875 8.66054V11.473H18.6094C16.6709 11.473 15.0938 13.0502 15.0938 14.9887C15.0938 16.9272 16.6709 18.5043 18.6094 18.5043H21.1875V21.4105C21.1875 22.0567 20.6618 22.5824 20.0156 22.5824Z" fill="#E11D38"/>
<path d="M18.6094 15.6919C18.9977 15.6919 19.3125 15.3771 19.3125 14.9888C19.3125 14.6004 18.9977 14.2856 18.6094 14.2856C18.221 14.2856 17.9062 14.6004 17.9062 14.9888C17.9062 15.3771 18.221 15.6919 18.6094 15.6919Z" fill="#E11D38"/>
</svg>
